<svg width="208.747" height="243.788" viewBox="0 0 55.231 64.502" xml:space="preserve"
  xmlns="http://www.w3.org/2000/svg">
  <path style="fill:#000;stroke-width:.264583"
    d="M76.614 171.423c-4.728-.948-9.081-2.822-13.122-5.65-5.932-4.149-10.42-10.949-12.429-18.83-.807-3.169-.9-10.727-.17-13.971 1.448-6.444 4.207-11.541 8.667-16.014 6.36-6.377 15.006-9.849 23.729-9.526 2.65.098 2.806.137 3.41.838.66.768.806 1.736.38 2.531-.138.258-1.239 1.109-2.447 1.891-3.55 2.299-6.941 6.087-8.872 9.909-2.552 5.053-3.124 12.923-1.366 18.785 1.962 6.54 6.882 12.313 13.068 15.336 4.171 2.038 5.806 2.368 11.876 2.397 5.159.024 5.27.036 5.755.634 1.258 1.554.353 3.177-3.269 5.867-4.117 3.058-8.745 5.016-13.945 5.901-3.286.56-8.202.517-11.265-.098z"
    transform="translate(-50.398 -107.412)" />
</svg>