<svg xmlns="http://www.w3.org/2000/svg" width="200" height="200" viewBox="0 0 52.917 52.917" xml:space="preserve">
    <g transform="translate(-78.542 -122.042)">
        <path style="fill:#000;stroke-width:.287902"
            d="M85.622 146.694h5.687c1 0 1.806.806 1.806 1.806s-.806 1.806-1.806 1.806h-5.687c-1 0-1.806-.806-1.806-1.806s.805-1.806 1.806-1.806zm4.399 14.232 4.021-4.022a1.802 1.802 0 0 1 2.554 0 1.802 1.802 0 0 1 0 2.554l-4.022 4.021a1.802 1.802 0 0 1-2.553 0 1.802 1.802 0 0 1 0-2.553zm13.173 6.952v-5.687c0-1 .806-1.806 1.806-1.806s1.806.806 1.806 1.806v5.687c0 1-.806 1.806-1.806 1.806s-1.806-.805-1.806-1.806zm14.232-4.399-4.022-4.021a1.802 1.802 0 0 1 0-2.554 1.802 1.802 0 0 1 2.554 0l4.021 4.022a1.802 1.802 0 0 1 0 2.553 1.802 1.802 0 0 1-2.553 0zm6.952-13.173h-5.687c-1 0-1.806-.806-1.806-1.806s.806-1.806 1.806-1.806h5.687c1 0 1.806.806 1.806 1.806s-.805 1.806-1.806 1.806zm-4.399-14.232-4.021 4.022a1.802 1.802 0 0 1-2.554 0 1.802 1.802 0 0 1 0-2.554l4.022-4.021a1.802 1.802 0 0 1 2.553 0 1.802 1.802 0 0 1 0 2.553zm-13.173-6.952v5.687c0 1-.806 1.806-1.806 1.806s-1.806-.806-1.806-1.806v-5.687c0-1 .806-1.806 1.806-1.806s1.806.805 1.806 1.806zm-14.232 4.399 4.022 4.021a1.802 1.802 0 0 1 0 2.554 1.802 1.802 0 0 1-2.554 0l-4.021-4.022a1.802 1.802 0 0 1 0-2.553 1.802 1.802 0 0 1 2.553 0z"
            transform="matrix(1.24898 0 0 1.24898 -26.143 -36.973)" />
        <ellipse style="fill:#000;stroke-width:.659004" cx="105" cy="148.5" rx="11.552" ry="11.565" />
    </g>
</svg>