# Blender 4.4.1
# www.blender.org
mtllib AirConditioner_A.mtl
o AirConditioner_A
v 0.698274 -0.131424 -0.178888
v 0.698274 0.131424 -0.178888
v 0.642364 -0.024551 0.177227
v 0.698274 -0.131424 0.061545
v 0.642364 -0.050344 0.173142
v 0.642364 -0.083055 0.156475
v 0.642364 -0.101520 0.138010
v 0.698274 -0.125681 0.097805
v 0.698274 0.131424 0.156365
v 0.698274 0.108903 0.178885
v 0.698274 0.124828 0.172289
v 0.698274 -0.109014 0.130516
v 0.698274 -0.083055 0.156475
v 0.698274 -0.050344 0.173142
v 0.698274 -0.014084 0.178885
v 0.642364 -0.083055 0.116305
v 0.642364 -0.050344 0.132972
v 0.642364 -0.101520 0.097839
v 0.642364 -0.024551 0.137057
v 0.646279 -0.102045 0.137485
v 0.646279 -0.083055 0.156475
v 0.646279 -0.050344 0.173142
v 0.646279 -0.023818 0.177344
v -0.698274 -0.131424 -0.178888
v -0.698274 0.131424 -0.178888
v -0.642364 -0.024551 0.177227
v -0.698274 -0.131424 0.061545
v -0.642364 -0.050344 0.173142
v -0.642364 -0.083055 0.156475
v -0.642364 -0.101520 0.138010
v -0.698274 -0.125681 0.097805
v -0.698274 0.131424 0.156365
v -0.698274 0.108903 0.178885
v -0.698274 0.124828 0.172289
v -0.698274 -0.109014 0.130516
v -0.698274 -0.083055 0.156475
v -0.698274 -0.050344 0.173142
v -0.698274 -0.014084 0.178885
v -0.642364 -0.083055 0.116305
v -0.642364 -0.050344 0.132972
v -0.642364 -0.101520 0.097839
v -0.642364 -0.024551 0.137057
v -0.646279 -0.102045 0.137485
v -0.646279 -0.083055 0.156475
v -0.646279 -0.050344 0.173142
v -0.646279 -0.023818 0.177344
v 0.048683 0.025946 0.183956
v 0.030692 -0.001554 0.183956
v -0.048683 0.025946 0.183956
v -0.030692 -0.001554 0.183956
v 0.030692 -0.001554 0.170651
v 0.048683 0.025946 0.170651
v -0.048683 0.025946 0.170651
v -0.030692 -0.001554 0.170651
vn -0.0000 -0.1564 0.9877
vn 1.0000 -0.0000 -0.0000
vn -0.0000 -0.0785 0.9969
vn -0.0000 0.1951 0.9808
vn -0.0000 -0.9511 0.3090
vn -0.0000 -0.9969 0.0785
vn -0.0000 -0.8090 0.5878
vn -1.0000 -0.0000 -0.0000
vn -0.0000 1.0000 -0.0000
vn -0.0000 -0.5878 0.8090
vn -0.0000 -0.7071 0.7071
vn -0.0000 -0.3090 0.9511
vn -0.0000 -0.4540 0.8910
vn -0.0000 0.3827 0.9239
vn -0.0000 0.9239 0.3827
vn -0.0000 -1.0000 -0.0000
vn -0.0000 -0.0000 -1.0000
vn -0.0000 -0.0000 1.0000
vn -0.8368 -0.5475 -0.0000
vn 0.8368 -0.5475 -0.0000
vt 0.715713 0.808837
vt 0.715689 0.808842
vt 0.712225 0.800259
vt 0.720744 0.800259
vt 0.720744 0.808241
vt 0.720530 0.808620
vt 0.720014 0.808777
vt 0.716028 0.808777
vt 0.714853 0.808640
vt 0.713793 0.808244
vt 0.712951 0.807626
vt 0.712411 0.806847
vt 0.712225 0.805983
vt 0.712225 0.806847
vt 0.712225 0.807626
vt 0.064004 0.969640
vt 0.065546 0.970475
vt 0.066547 0.970475
vt 0.713738 0.808837
vt 0.712165 0.807935
vt 0.712225 0.808777
vt 0.714853 0.808837
vt 0.713793 0.808777
vt 0.714853 0.808777
vt 0.128313 0.967256
vt 0.126772 0.966421
vt 0.129315 0.967256
vt 0.067337 0.970475
vt 0.130105 0.967256
vt 0.720744 0.808777
vt 0.712161 0.807958
vt 0.714853 0.808842
vt 0.713793 0.808842
vt 0.200501 0.874708
vt 0.204487 0.874708
s 1
usemtl Palette
f 23/1/1 46/1/1 26/2/1 3/2/1
s 0
f 1/3/2 2/4/2 9/5/2 11/6/2 10/7/2 15/8/2 14/9/2 13/10/2 12/11/2 8/12/2 4/13/2
s 1
f 38/8/3 15/8/3 10/7/4 33/7/4
f 8/14/5 31/14/5 27/13/6 4/13/6
f 12/15/7 35/15/7 31/14/5 8/14/5
s 0
f 7/16/8 6/17/8 16/17/8 18/16/8
f 6/17/8 5/18/8 17/18/8 16/17/8
f 18/16/9 41/16/9 30/16/9 7/16/9
s 1
f 21/19/10 20/20/11 12/15/7 13/21/10
f 22/22/12 21/19/10 13/23/10 14/24/12
f 23/1/1 22/22/12 14/24/12 15/8/3
f 43/20/11 35/15/7 12/15/7 20/20/11
f 15/8/3 38/8/3 46/1/1 23/1/1
s 0
f 16/25/11 39/25/11 41/26/11 18/26/11
f 17/27/13 40/27/13 39/25/13 16/25/13
f 5/18/8 3/28/8 19/28/8 17/18/8
f 19/29/1 42/29/1 40/27/1 17/27/1
f 25/4/9 32/5/9 9/5/9 2/4/9
s 1
f 34/30/14 33/7/4 10/7/4 11/30/14
s 0
f 32/5/15 34/30/15 11/30/15 9/5/15
s 1
f 4/13/6 27/13/6 24/3/16 1/3/16
s 0
f 1/3/17 24/3/17 25/4/17 2/4/17
s 1
f 30/31/11 43/20/11 20/20/11 7/31/11
f 3/2/1 5/32/12 22/22/12 23/1/1
f 5/32/12 6/33/10 21/19/10 22/22/12
f 6/33/10 7/31/11 20/20/11 21/19/10
s 0
f 24/3/8 27/13/8 31/12/8 35/11/8 36/10/8 37/9/8 38/8/8 33/7/8 34/6/8 32/5/8 25/4/8
f 30/16/2 41/16/2 39/17/2 29/17/2
f 29/17/2 39/17/2 40/18/2 28/18/2
s 1
f 44/19/10 36/21/10 35/15/7 43/20/11
f 45/22/12 37/24/12 36/23/10 44/19/10
f 46/1/1 38/8/3 37/24/12 45/22/12
s 0
f 28/18/2 40/18/2 42/28/2 26/28/2
s 1
f 26/2/1 46/1/1 45/22/12 28/32/12
f 28/32/12 45/22/12 44/19/10 29/33/10
f 29/33/10 44/19/10 43/20/11 30/31/11
s 0
f 26/28/16 42/28/16 19/28/16 3/28/16
f 50/34/18 48/34/18 47/35/18 49/35/18
f 49/35/19 53/35/19 54/34/19 50/34/19
f 48/34/20 51/34/20 52/35/20 47/35/20
f 50/34/16 54/34/16 51/34/16 48/34/16
f 47/35/9 52/35/9 53/35/9 49/35/9
