# Blender 4.4.1
# www.blender.org
mtllib AlcoholDisp_1.mtl
o AlcoholDisp_1
v 0.017930 -0.044280 0.127994
v -0.017926 -0.044280 0.127994
v -0.017926 -0.077146 0.127994
v 0.017930 -0.077146 0.127994
v 0.017930 -0.044280 0.176875
v -0.017926 -0.044280 0.176875
v -0.017926 -0.077146 0.176875
v 0.017930 -0.077146 0.176875
v 0.010980 -0.077114 0.170973
v -0.010977 -0.077114 0.170973
v -0.010977 -0.077114 0.160813
v 0.010980 -0.077114 0.160813
v 0.010980 -0.092145 0.170973
v -0.010977 -0.092145 0.170973
v -0.010977 -0.092145 0.160813
v 0.010980 -0.092145 0.160813
v 0.061041 -0.009444 0.132527
v 0.088539 -0.009444 0.105030
v 0.080485 -0.009444 0.124474
v -0.088537 -0.009444 0.105030
v -0.061039 -0.009444 0.132527
v -0.080483 -0.009444 0.124474
v 0.061041 -0.009444 -0.035681
v 0.088539 -0.009444 -0.008184
v 0.080485 -0.009444 -0.027627
v -0.088537 -0.009444 -0.008184
v -0.061039 -0.009444 -0.035681
v -0.080483 -0.009444 -0.027627
v 0.061041 0.167979 0.132527
v 0.088539 0.167979 0.105030
v 0.080485 0.167979 0.124474
v -0.088537 0.167979 0.105030
v -0.061039 0.167979 0.132527
v -0.080483 0.167979 0.124474
v 0.088539 0.167979 -0.008184
v 0.061041 0.167979 -0.035681
v 0.080485 0.167979 -0.027627
v -0.061039 0.167979 -0.035681
v -0.088537 0.167979 -0.008184
v -0.080483 0.167979 -0.027627
v -0.088537 -0.116184 -0.008184
v -0.061039 -0.116184 -0.035681
v -0.080483 -0.116184 -0.027627
v 0.061041 -0.116184 -0.035681
v 0.088539 -0.116184 -0.008184
v 0.080485 -0.116184 -0.027627
v -0.061039 -0.116184 0.132527
v -0.088537 -0.116184 0.105030
v -0.080483 -0.116184 0.124474
v 0.088539 -0.116184 0.105030
v 0.061041 -0.116184 0.132527
v 0.080485 -0.116184 0.124474
vn 0.1951 -0.0000 -0.9808
vn -0.1951 -0.0000 -0.9808
vn -0.1456 0.6657 -0.7319
vn 0.1456 0.6657 -0.7319
vn -0.9808 -0.0000 -0.1951
vn -0.9808 -0.0000 0.1951
vn -0.7319 0.6657 0.1456
vn -0.7319 0.6657 -0.1456
vn -0.1951 -0.0000 0.9808
vn 0.1951 -0.0000 0.9808
vn -0.5490 0.6303 0.5490
vn -0.1456 0.6657 0.7319
vn 0.1456 0.6657 0.7319
vn 0.5490 0.6303 0.5490
vn 0.7319 0.6657 0.1456
vn 0.7319 0.6657 -0.1456
vn 0.5490 0.6303 -0.5490
vn -0.5490 0.6303 -0.5490
vn 0.9808 -0.0000 0.1951
vn 0.9808 -0.0000 -0.1951
vn -0.0000 -1.0000 -0.0000
vn -0.0000 -0.0000 1.0000
vn -1.0000 -0.0000 -0.0000
vn 1.0000 -0.0000 -0.0000
vn -0.0000 1.0000 -0.0000
vn -0.0000 -0.0000 -1.0000
vn -0.7071 -0.0000 0.7071
vn -0.7071 -0.0000 -0.7071
vn 0.7071 -0.0000 -0.7071
vn 0.7071 -0.0000 0.7071
vt 0.119860 0.889499
vt 0.119860 0.866611
vt 0.132146 0.876348
vt 0.131636 0.879162
vt 0.123817 0.863136
vt 0.145061 0.862695
vt 0.135983 0.875730
vt 0.133130 0.875464
vt 0.787644 0.703121
vt 0.786746 0.712985
vt 0.771360 0.725719
vt 0.771360 0.691295
vt 0.136733 0.876028
vt 0.137091 0.876791
vt 0.136581 0.879604
vt 0.136279 0.880229
vt 0.135598 0.880488
vt 0.132744 0.880222
vt 0.131995 0.879925
vt 0.132449 0.875724
vt 0.800778 0.700611
vt 0.790725 0.700144
vt 0.779197 0.684323
vt 0.811977 0.683333
vt 0.144911 0.892817
vt 0.123667 0.893258
vt 0.803289 0.713546
vt 0.804187 0.703681
vt 0.819573 0.690947
vt 0.819573 0.725371
vt 0.788551 0.701062
vt 0.803051 0.701435
vt 0.802382 0.715604
vt 0.800208 0.716523
vt 0.790155 0.716056
vt 0.787882 0.715231
vt 0.811736 0.732343
vt 0.778955 0.733333
vt 0.731702 0.790403
vt 0.731702 0.795332
vt 0.792619 0.708557
vt 0.792619 0.713485
vt 0.792619 0.708557
vt 0.147127 0.864544
vt 0.148867 0.866453
vt 0.816178 0.687039
vt 0.815725 0.729261
vt 0.121821 0.864704
vt 0.148867 0.889342
vt 0.146907 0.891249
vt 0.121600 0.891409
vt 0.775208 0.687406
vt 0.774755 0.729628
s 1
usemtl Palette
f 23/1/1 27/2/2 38/3/3 36/4/4
f 26/5/5 20/6/6 32/7/7 39/8/8
f 47/9/9 51/10/10 17/11/10 21/12/9
f 32/7/7 34/13/11 33/14/12 29/15/13 31/16/14 30/17/15 35/18/16 37/19/17 36/4/4 38/3/3 40/20/18 39/8/8
f 41/21/5 48/22/6 20/23/6 26/24/5
f 18/25/19 24/26/20 35/18/16 30/17/15
f 44/27/1 42/28/2 27/29/2 23/30/1
s 0
f 47/9/21 49/31/21 48/22/21 41/21/21 43/32/21 42/28/21 44/27/21 46/33/21 45/34/21 50/35/21 52/36/21 51/10/21
s 1
f 50/35/19 45/34/20 24/37/20 18/38/19
s 0
f 15/39/21 16/40/21 13/40/21 14/39/21
f 7/41/22 8/42/22 5/42/22 6/43/22
f 3/41/21 4/42/21 8/42/21 7/41/21
f 2/43/23 3/41/23 7/41/23 6/43/23
f 4/42/24 1/42/24 5/42/24 8/42/24
f 1/42/25 2/43/25 6/43/25 5/42/25
f 11/39/26 12/40/26 16/40/26 15/39/26
f 10/39/23 11/39/23 15/39/23 14/39/23
f 12/40/24 9/40/24 13/40/24 16/40/24
f 9/40/22 10/39/22 14/39/22 13/40/22
s 1
f 32/7/7 20/6/6 22/44/27 34/13/11
f 34/13/11 22/44/27 21/45/9 33/14/12
f 27/29/2 42/28/2 43/32/28 28/46/28
f 28/46/28 43/32/28 41/21/5 26/24/5
f 44/27/1 23/30/1 25/47/29 46/33/29
f 46/33/29 25/47/29 24/37/20 45/34/20
f 38/3/3 27/2/2 28/48/28 40/20/18
f 40/20/18 28/48/28 26/5/5 39/8/8
f 29/15/13 17/49/10 19/50/30 31/16/14
f 31/16/14 19/50/30 18/25/19 30/17/15
f 23/1/1 36/4/4 37/19/17 25/51/29
f 25/51/29 37/19/17 35/18/16 24/26/20
f 20/23/6 48/22/6 49/31/27 22/52/27
f 22/52/27 49/31/27 47/9/9 21/12/9
f 17/11/10 51/10/10 52/36/30 19/53/30
f 19/53/30 52/36/30 50/35/19 18/38/19
f 21/45/9 17/49/10 29/15/13 33/14/12
