# Blender 4.4.1
# www.blender.org
mtllib AlcoholDisp_2_C.mtl
o AlcoholDisp_2_C
v 0.079991 -0.010863 -0.079991
v 0.079991 0.011930 -0.079991
v 0.104513 -0.010863 -0.043291
v 0.104513 0.011930 -0.043291
v 0.113124 -0.010863 -0.000000
v 0.113124 0.011930 -0.000000
v 0.104513 -0.010863 0.043291
v 0.104513 0.011930 0.043291
v 0.079991 -0.010863 0.079991
v 0.079991 0.011930 0.079991
v 0.043291 -0.010863 0.104513
v 0.043291 0.011930 0.104513
v 0.000000 -0.010863 0.113124
v 0.000000 0.011930 0.113124
v -0.043291 -0.010863 0.104513
v -0.043291 0.011930 0.104513
v -0.079991 -0.010863 0.079991
v -0.079991 0.011930 0.079991
v -0.104513 -0.010863 0.043291
v -0.104513 0.011930 0.043291
v -0.113124 -0.010863 -0.000000
v -0.113124 0.011930 -0.000000
v -0.104513 -0.010863 -0.043291
v -0.104513 0.011930 -0.043291
v -0.079991 -0.010863 -0.079991
v -0.079991 0.011930 -0.079991
v 0.000000 -0.010863 -0.099473
v 0.038067 -0.010863 -0.091901
v 0.038067 0.011930 -0.091901
v 0.000000 0.011930 -0.099473
v 0.070338 -0.010863 -0.070338
v 0.070338 0.011930 -0.070338
v 0.091901 -0.010863 -0.038067
v 0.091901 0.011930 -0.038067
v 0.099473 -0.010863 -0.000000
v 0.099473 0.011930 -0.000000
v 0.091901 -0.010863 0.038066
v 0.091901 0.011930 0.038066
v 0.070338 -0.010863 0.070338
v 0.070338 0.011930 0.070338
v 0.038067 -0.010863 0.091901
v 0.038067 0.011930 0.091901
v 0.000000 -0.010863 0.099473
v 0.000000 0.011930 0.099473
v -0.038067 -0.010863 0.091901
v -0.038067 0.011930 0.091901
v -0.070338 -0.010863 0.070338
v -0.070338 0.011930 0.070338
v -0.091901 -0.010863 0.038066
v -0.091901 0.011930 0.038066
v -0.099473 -0.010863 -0.000000
v -0.099473 0.011930 -0.000000
v -0.091901 -0.010863 -0.038067
v -0.091901 0.011930 -0.038067
v -0.070338 -0.010863 -0.070338
v -0.070338 0.011930 -0.070338
v -0.038067 -0.010863 -0.091901
v -0.038067 0.011930 -0.091901
v 0.000000 -0.010863 -0.113125
v 0.043291 -0.010863 -0.104514
v 0.043291 0.011930 -0.104514
v 0.000000 0.011930 -0.113125
v -0.043291 0.011930 -0.104514
v -0.043291 -0.010863 -0.104514
v 0.000000 -0.006038 -0.110391
v 0.000000 0.007105 -0.110391
v 0.038558 -0.006038 -0.102721
v 0.038558 0.007105 -0.102721
v -0.038558 -0.006038 -0.102721
v -0.038558 0.007105 -0.102721
v 0.000000 -0.006038 -0.201447
v 0.000000 0.007105 -0.201447
v 0.038558 -0.006038 -0.201447
v 0.038558 0.007105 -0.201447
v -0.038558 0.007105 -0.201447
v -0.038558 -0.006038 -0.201447
vn 0.1951 -0.0000 -0.9808
vn 0.5556 -0.0000 -0.8315
vn 0.7071 -0.0000 -0.7071
vn 0.9239 -0.0000 -0.3827
vn 1.0000 -0.0000 -0.0000
vn 0.9239 -0.0000 0.3827
vn 0.7071 -0.0000 0.7071
vn 0.3827 -0.0000 0.9239
vn -0.0000 -0.0000 1.0000
vn -0.3827 -0.0000 0.9239
vn -0.7071 -0.0000 0.7071
vn -0.9239 -0.0000 0.3827
vn -1.0000 -0.0000 -0.0000
vn -0.9239 -0.0000 -0.3827
vn -0.7071 -0.0000 -0.7071
vn -0.3827 -0.0000 -0.9239
vn -0.0000 -0.0000 -1.0000
vn 0.3827 -0.0000 -0.9239
vn -0.0000 1.0000 -0.0000
vn -0.0000 -1.0000 -0.0000
vn -0.1951 -0.0000 -0.9808
vt 0.055845 0.962764
vt 0.055845 0.978858
vt 0.053833 0.978858
vt 0.053833 0.962764
vt 0.051821 0.978858
vt 0.051821 0.962764
vt 0.049809 0.978858
vt 0.049809 0.962764
vt 0.047797 0.978858
vt 0.047797 0.962764
vt 0.045786 0.978858
vt 0.045786 0.962764
vt 0.043774 0.978858
vt 0.043774 0.962764
vt 0.041762 0.978858
vt 0.041762 0.962764
vt 0.039750 0.978858
vt 0.039750 0.962764
vt 0.037739 0.978858
vt 0.037739 0.962764
vt 0.035727 0.978858
vt 0.035727 0.962764
vt 0.033715 0.978858
vt 0.033715 0.962764
vt 0.031703 0.978858
vt 0.031703 0.962764
vt 0.029691 0.978858
vt 0.029691 0.962764
vt 0.027680 0.978858
vt 0.027680 0.962764
vt 0.025668 0.978858
vt 0.025668 0.962764
vt 0.023656 0.962764
vt 0.023656 0.978858
vt 0.025448 0.966171
vt 0.025448 0.975451
vt 0.023656 0.975451
vt 0.055845 0.975451
vt 0.054053 0.975451
vt 0.023656 0.966171
vt 0.054053 0.966171
vt 0.055845 0.966171
s 0
usemtl Palette
f 59/1/1 62/2/1 61/3/1 60/4/1
s 1
f 60/4/2 61/3/2 2/5/3 1/6/3
f 1/6/3 2/5/3 4/7/4 3/8/4
f 3/8/4 4/7/4 6/9/5 5/10/5
f 5/10/5 6/9/5 8/11/6 7/12/6
f 7/12/6 8/11/6 10/13/7 9/14/7
f 9/14/7 10/13/7 12/15/8 11/16/8
f 11/16/8 12/15/8 14/17/9 13/18/9
f 13/18/9 14/17/9 16/19/10 15/20/10
f 15/20/10 16/19/10 18/21/11 17/22/11
f 17/22/11 18/21/11 20/23/12 19/24/12
f 19/24/12 20/23/12 22/25/13 21/26/13
f 21/26/13 22/25/13 24/27/14 23/28/14
f 23/28/14 24/27/14 26/29/15 25/30/15
f 25/30/15 26/29/15 63/31/16 64/32/16
f 27/1/9 28/4/10 29/3/10 30/2/9
f 28/4/10 31/6/11 32/5/11 29/3/10
f 31/6/11 33/8/12 34/7/12 32/5/11
f 33/8/12 35/10/13 36/9/13 34/7/12
f 35/10/13 37/12/14 38/11/14 36/9/13
f 37/12/14 39/14/15 40/13/15 38/11/14
f 39/14/15 41/16/16 42/15/16 40/13/15
f 41/16/16 43/18/17 44/17/17 42/15/16
f 43/18/17 45/20/18 46/19/18 44/17/17
f 45/20/18 47/22/3 48/21/3 46/19/18
f 47/22/3 49/24/4 50/23/4 48/21/3
f 49/24/4 51/26/5 52/25/5 50/23/4
f 51/26/5 53/28/6 54/27/6 52/25/5
f 53/28/6 55/30/7 56/29/7 54/27/6
f 55/30/7 57/32/8 58/31/8 56/29/7
f 57/32/8 27/33/9 30/34/9 58/31/8
s 0
f 10/13/19 40/13/19 42/15/19 12/15/19
f 63/31/19 58/31/19 30/34/19 62/34/19
f 3/8/20 33/8/20 31/6/20 1/6/20
f 21/26/20 51/26/20 49/24/20 19/24/20
f 2/5/19 32/5/19 34/7/19 4/7/19
f 20/23/19 50/23/19 52/25/19 22/25/19
f 13/18/20 43/18/20 41/16/20 11/16/20
f 12/15/19 42/15/19 44/17/19 14/17/19
f 5/10/20 35/10/20 33/8/20 3/8/20
f 23/28/20 53/28/20 51/26/20 21/26/20
f 4/7/19 34/7/19 36/9/19 6/9/19
f 22/25/19 52/25/19 54/27/19 24/27/19
f 15/20/20 45/20/20 43/18/20 13/18/20
f 14/17/19 44/17/19 46/19/19 16/19/19
f 7/12/20 37/12/20 35/10/20 5/10/20
f 25/30/20 55/30/20 53/28/20 23/28/20
f 60/4/20 28/4/20 27/1/20 59/1/20
f 6/9/19 36/9/19 38/11/19 8/11/19
f 24/27/19 54/27/19 56/29/19 26/29/19
f 62/2/19 30/2/19 29/3/19 61/3/19
f 17/22/20 47/22/20 45/20/20 15/20/20
f 16/19/19 46/19/19 48/21/19 18/21/19
f 9/14/20 39/14/20 37/12/20 7/12/20
f 64/32/20 57/32/20 55/30/20 25/30/20
f 8/11/19 38/11/19 40/13/19 10/13/19
f 26/29/19 56/29/19 58/31/19 63/31/19
f 1/6/20 31/6/20 28/4/20 60/4/20
f 19/24/20 49/24/20 47/22/20 17/22/20
f 61/3/19 29/3/19 32/5/19 2/5/19
f 18/21/19 48/21/19 50/23/19 20/23/19
f 11/16/20 41/16/20 39/14/20 9/14/20
f 59/33/20 27/33/20 57/32/20 64/32/20
s 1
f 63/31/16 62/34/21 59/1/21 64/32/16
s 0
f 69/35/13 70/36/13 75/36/13 76/35/13
f 70/36/19 66/37/19 72/37/19 75/36/19
f 66/38/19 68/39/19 74/39/19 72/38/19
f 65/40/20 69/35/20 76/35/20 71/40/20
f 68/39/5 67/41/5 73/41/5 74/39/5
f 67/41/20 65/42/20 71/42/20 73/41/20
