# Blender 4.4.1
# www.blender.org
mtllib Book_Fat.mtl
o Book_Fat
v 0.040926 0.261159 0.114259
v -0.039037 0.261159 0.114259
v 0.040926 0.261159 -0.122542
v -0.039037 0.261159 -0.122542
v -0.039037 0.000000 -0.122542
v -0.039037 0.000000 0.114259
v 0.040926 0.000000 -0.122542
v 0.040926 0.000000 0.114259
v -0.045487 0.261159 -0.122542
v -0.045487 0.000000 -0.122542
v -0.045487 0.261159 0.122542
v 0.047375 0.261159 0.122542
v 0.047375 0.261159 -0.122542
v 0.047375 0.000000 -0.122542
v -0.045487 0.000000 0.122542
v 0.047375 0.000000 0.122542
v -0.039037 0.254125 -0.114808
v 0.040926 0.254125 -0.114808
v -0.039037 0.007034 -0.114808
v 0.040926 0.007034 -0.114808
v -0.039037 0.254125 0.114259
v 0.040926 0.254125 0.114259
v -0.039037 0.007034 0.114259
v 0.040926 0.007034 0.114259
vn 1.0000 -0.0000 -0.0000
vn -1.0000 -0.0000 -0.0000
vn -0.0000 -0.0000 1.0000
vn -0.0000 -0.0000 -1.0000
vn -0.0000 1.0000 -0.0000
vn -0.0000 -1.0000 -0.0000
vt 0.377212 0.943021
vt 0.385178 0.943021
vt 0.385178 0.951509
vt 0.377212 0.951509
vt 0.376511 0.953117
vt 0.384476 0.953117
vt 0.384476 0.961605
vt 0.376511 0.961605
vt 0.368977 0.971701
vt 0.361280 0.971701
vt 0.361532 0.971473
vt 0.368977 0.971473
vt 0.390693 0.961605
vt 0.393711 0.961605
vt 0.393711 0.970093
vt 0.390693 0.970093
vt 0.361280 0.963213
vt 0.361532 0.963442
vt 0.368977 0.963213
vt 0.368977 0.963442
vt 0.395344 0.951509
vt 0.395344 0.943021
vt 0.395554 0.943021
vt 0.395554 0.951509
vt 0.393585 0.960813
vt 0.393585 0.953117
vt 0.393794 0.953117
vt 0.393794 0.961083
vt 0.390986 0.953117
vt 0.390986 0.960813
vt 0.390776 0.961083
vt 0.390776 0.953117
vt 0.395763 0.943021
vt 0.395763 0.951509
vt 0.391687 0.950717
vt 0.394286 0.950717
vt 0.394496 0.950987
vt 0.391477 0.950987
vt 0.394286 0.943021
vt 0.394496 0.943021
vt 0.391687 0.943021
vt 0.391477 0.943021
vt 0.024687 0.904145
vt 0.384207 0.961605
vt 0.384207 0.970093
vt 0.383956 0.969865
vt 0.383956 0.961834
vt 0.376511 0.961834
vt 0.389943 0.969638
vt 0.389943 0.972237
vt 0.389714 0.972237
vt 0.389714 0.969638
vt 0.390171 0.969638
vt 0.390171 0.972237
vt 0.376511 0.970093
vt 0.376511 0.969865
s 0
usemtl Palette
f 16/1/1 14/2/1 13/3/1 12/4/1
f 10/5/2 15/6/2 11/7/2 9/8/2
f 1/9/2 3/10/2 18/11/2 22/12/2
f 15/13/3 16/14/3 12/15/3 11/16/3
f 3/10/2 7/17/2 20/18/2 18/11/2
f 7/17/2 8/19/2 24/20/2 20/18/2
f 4/21/4 5/22/4 10/23/4 9/24/4
f 2/25/5 4/26/5 9/27/5 11/28/5
f 3/29/5 1/30/5 12/31/5 13/32/5
f 1/30/5 2/25/5 11/28/5 12/31/5
f 7/33/4 3/34/4 13/24/4 14/23/4
f 6/35/6 8/36/6 16/37/6 15/38/6
f 8/36/6 7/39/6 14/40/6 16/37/6
f 5/41/6 6/35/6 15/38/6 10/42/6
f 20/43/4 19/43/4 17/43/4 18/43/4
f 22/43/5 18/43/5 17/43/5 21/43/5
f 24/43/6 23/43/6 19/43/6 20/43/6
f 5/44/1 4/45/1 17/46/1 19/47/1
f 6/8/1 5/44/1 19/47/1 23/48/1
f 8/49/4 6/50/4 23/51/4 24/52/4
f 2/50/4 1/49/4 22/53/4 21/54/4
f 4/45/1 2/55/1 21/56/1 17/46/1
