# Blender 4.4.1
# www.blender.org
mtllib Book_FileArchive.mtl
o Book_FileArchive
v -0.009772 0.362995 -0.122542
v -0.009772 0.000000 -0.122542
v -0.009772 0.362995 0.093291
v 0.011660 0.362995 0.093291
v 0.011660 0.362995 -0.122542
v 0.011660 0.000000 -0.122542
v -0.009772 0.000000 0.093291
v 0.011660 0.000000 0.093291
v -0.017701 0.362995 -0.122542
v -0.017701 0.000000 -0.122542
v -0.017701 0.362995 0.101220
v 0.019589 0.362995 0.101220
v 0.019589 0.362995 -0.122542
v 0.019589 0.000000 -0.122542
v -0.017701 0.000000 0.101220
v 0.019589 0.000000 0.101220
v -0.009772 0.037577 -0.113583
v 0.011660 0.037577 -0.113583
v -0.009772 0.325418 -0.113583
v 0.011660 0.325418 -0.113583
v -0.009772 0.322322 0.093291
v 0.011660 0.322322 0.093291
v -0.009772 0.040673 0.093291
v 0.011660 0.040673 0.093291
v 0.000944 0.362995 0.133282
v 0.000944 0.000000 0.133282
v 0.000944 0.362995 0.109864
v 0.000944 0.000000 0.109864
v 0.006216 0.355372 0.113067
v -0.004328 0.355372 0.113067
v 0.000944 0.322322 0.109864
v 0.000944 0.040673 0.109864
v -0.004328 0.002503 0.113067
v 0.006216 0.002503 0.113067
v 0.011660 0.002503 -0.128642
v -0.009772 0.002503 -0.128642
v -0.009772 0.355372 -0.128642
v 0.011660 0.355372 -0.128642
v 0.013294 0.355372 0.091598
v -0.011404 0.355372 0.091598
v -0.011404 0.002503 0.091598
v 0.013294 0.002503 0.091598
vn 1.0000 -0.0000 -0.0000
vn -1.0000 -0.0000 -0.0000
vn 0.8645 -0.0000 0.5027
vn -0.0000 -0.0000 -1.0000
vn -0.0000 1.0000 -0.0000
vn -0.0000 -1.0000 -0.0000
vn 1.0000 -0.0000 -0.0074
vn -1.0000 -0.0000 -0.0074
vn 0.8397 -0.0000 -0.5430
vn -0.8397 -0.0000 -0.5430
vn -0.8645 -0.0000 0.5027
vn -0.9497 -0.0000 0.3130
vn 0.9497 -0.0000 0.3131
vt 0.961226 0.981178
vt 0.952520 0.980764
vt 0.952613 0.966476
vt 0.961370 0.966075
vt 0.973596 0.980372
vt 0.963717 0.981010
vt 0.963376 0.965336
vt 0.973373 0.964147
vt 0.962444 0.980938
vt 0.962419 0.965877
vt 0.973640 0.980390
vt 0.973769 0.963576
vt 0.973630 0.963649
vt 0.973769 0.980323
vt 0.961147 0.965551
vt 0.952563 0.966475
vt 0.952447 0.966532
vt 0.960765 0.963647
vt 0.952467 0.980804
vt 0.952339 0.980794
vt 0.963436 0.965007
vt 0.962327 0.965375
vt 0.962435 0.981584
vt 0.960945 0.982044
vt 0.963807 0.981567
vt 0.900949 0.951694
vt 0.900959 0.968419
vt 0.898593 0.971629
vt 0.898593 0.948490
vt 0.897044 0.969293
vt 0.897062 0.950844
vt 0.901758 0.944480
vt 0.901758 0.975672
vt 0.062282 0.889049
vt 0.058368 0.889923
vt 0.063082 0.896302
vt 0.059916 0.892259
vt 0.964064 0.983744
vt 0.962525 0.984035
vt 0.961930 0.963232
vt 0.963222 0.962999
vt 0.960926 0.983957
vt 0.058386 0.871474
vt 0.062272 0.872324
vt 0.059916 0.869120
vt 0.063082 0.865110
vt 0.061924 0.874553
vt 0.064776 0.874601
vt 0.065201 0.876099
vt 0.061315 0.875249
vt 0.900534 0.969932
vt 0.897666 0.969989
vt 0.897672 0.950149
vt 0.900524 0.950196
s 0
usemtl Palette
f 16/1/1 14/2/1 13/3/1 12/4/1
f 10/5/2 15/6/2 11/7/2 9/8/2
f 26/9/3 16/1/3 12/4/3 25/10/3
f 2/11/1 1/12/1 19/13/1 17/14/1
f 4/15/2 5/16/2 20/17/2 22/18/2
f 5/16/2 6/19/2 18/20/2 20/17/2
f 1/12/4 2/11/4 10/5/4 9/8/4
f 3/21/5 1/12/5 9/8/5 11/7/5
f 5/16/5 4/15/5 12/4/5 13/3/5
f 27/22/5 3/21/5 11/7/5 25/10/5
f 6/19/4 5/16/4 13/3/4 14/2/4
f 28/23/6 8/24/6 16/1/6 26/9/6
f 8/24/6 6/19/6 14/2/6 16/1/6
f 2/11/6 7/25/6 15/6/6 10/5/6
f 39/26/7 42/27/7 35/28/7 38/29/7
f 41/30/8 40/31/8 37/32/8 36/33/8
f 42/34/6 41/35/6 36/36/6 35/37/6
f 7/25/1 2/11/1 17/14/1 23/38/1
f 28/23/9 7/25/9 23/38/9 32/39/9
f 27/22/10 4/15/10 22/18/10 31/40/10
f 1/12/1 3/21/1 21/41/1 19/13/1
f 6/19/2 8/24/2 24/42/2 18/20/2
f 3/21/9 27/22/9 31/40/9 21/41/9
f 8/24/10 28/23/10 32/39/10 24/42/10
f 40/43/5 39/44/5 38/45/5 37/46/5
f 37/46/4 38/45/4 35/37/4 36/36/4
f 7/25/6 28/23/6 26/9/6 15/6/6
f 4/15/5 27/22/5 25/10/5 12/4/5
f 15/6/11 26/9/11 25/10/11 11/7/11
f 30/47/5 29/48/5 39/49/5 40/50/5
f 34/51/6 33/52/6 41/30/6 42/27/6
f 33/52/12 30/53/12 40/31/12 41/30/12
f 29/54/13 34/51/13 42/27/13 39/26/13
