# Blender 4.4.1
# www.blender.org
mtllib Box_Base.mtl
o Box_Base
v -0.325000 0.000000 0.325000
v 0.325000 0.000000 0.325000
v -0.325000 0.000000 -0.325000
v 0.325000 0.000000 -0.325000
v -0.307364 0.652048 -0.307364
v -0.307364 0.652048 0.307364
v 0.307364 0.652048 0.307364
v 0.307364 0.652048 -0.307364
v -0.325000 0.652048 -0.325000
v -0.325000 0.652048 0.325000
v 0.325000 0.652048 0.325000
v 0.325000 0.652048 -0.325000
v -0.307364 0.020724 -0.307364
v -0.307364 0.020724 0.307364
v 0.307364 0.020724 0.307364
v 0.307364 0.020724 -0.307364
vn -0.0000 -1.0000 -0.0000
vn 1.0000 -0.0000 -0.0000
vn -0.0000 -0.0000 -1.0000
vn -0.0000 -0.0000 1.0000
vn -1.0000 -0.0000 -0.0000
vn -0.0000 1.0000 -0.0000
vt 0.945278 0.952326
vt 0.945278 0.986400
vt 0.979352 0.986400
vt 0.979352 0.952326
vt 0.616204 0.721089
vt 0.616204 0.688863
vt 0.946202 0.953250
vt 0.946202 0.985475
vt 0.978427 0.953250
vt 0.978427 0.985475
vt 0.699686 0.692271
vt 0.731911 0.692271
vt 0.731911 0.724496
vt 0.699686 0.724496
vt 0.648429 0.721089
vt 0.648429 0.688863
s 0
usemtl Palette
f 1/1/1 3/2/1 4/3/1 2/4/1
f 5/5/2 6/6/2 14/6/2 13/5/2
f 4/3/3 3/2/3 9/2/3 12/3/3
f 1/1/4 2/4/4 11/4/4 10/1/4
f 2/4/2 4/3/2 12/3/2 11/4/2
f 3/2/5 1/1/5 10/1/5 9/2/5
f 6/7/6 5/8/6 9/2/6 10/1/6
f 7/9/6 6/7/6 10/1/6 11/4/6
f 8/10/6 7/9/6 11/4/6 12/3/6
f 5/8/6 8/10/6 12/3/6 9/2/6
f 14/11/6 15/12/6 16/13/6 13/14/6
f 8/15/4 5/5/4 13/5/4 16/15/4
f 6/6/3 7/16/3 15/16/3 14/6/3
f 7/16/5 8/15/5 16/15/5 15/16/5
