# Blender 4.4.1
# www.blender.org
mtllib Box_B.mtl
o Box_B
v 0.377224 0.014035 -0.137755
v 0.377224 0.014035 0.137753
v -0.005000 -0.003177 -0.325000
v -0.005000 -0.003177 0.325000
v -0.005000 0.003177 -0.325000
v -0.005000 0.003177 0.325000
v 0.377224 0.020388 -0.137755
v 0.377224 0.020388 0.137753
vn 0.0450 -0.9990 -0.0000
vn -0.0450 0.9990 -0.0000
vn 0.4399 -0.0000 -0.8980
vn 1.0000 -0.0000 -0.0000
vn 0.4399 -0.0000 0.8980
vn -1.0000 -0.0000 -0.0000
vt 0.946202 0.953250
vt 0.945278 0.952326
vt 0.945278 0.986400
vt 0.946202 0.985475
s 0
usemtl Palette
f 2/1/1 4/2/1 3/3/1 1/4/1
f 8/1/2 7/4/2 5/3/2 6/2/2
f 1/4/3 3/3/3 5/3/3 7/4/3
f 2/1/4 1/4/4 7/4/4 8/1/4
f 4/2/5 2/1/5 8/1/5 6/2/5
f 3/3/6 4/2/6 6/2/6 5/3/6
