# Blender 4.4.1
# www.blender.org
mtllib Chair_Office_Wheel_Copy_001.mtl
o Chair_Office_Wheel_Copy.001
v -0.021189 -0.012018 -0.043619
v 0.021189 -0.012018 -0.043619
v -0.021189 -0.042862 -0.030844
v 0.021189 -0.042862 -0.030844
v -0.021189 -0.055638 0.000000
v 0.021189 -0.055638 0.000000
v -0.021189 -0.042862 0.030844
v 0.021189 -0.042862 0.030844
v -0.021189 -0.012018 0.043620
v 0.021189 -0.012018 0.043620
v -0.021189 0.018825 0.030844
v 0.021189 0.018825 0.030844
v -0.021189 0.031601 0.000000
v 0.021189 0.031601 0.000000
v -0.021189 0.018825 -0.030844
v 0.021189 0.018825 -0.030844
v -0.021189 -0.017388 -0.043619
v 0.021189 -0.017388 -0.043619
v -0.021189 -0.017388 0.043620
v 0.021189 -0.017388 0.043620
v -0.021189 0.013455 0.030844
v 0.021189 0.013455 0.030844
v -0.021189 0.026231 0.000000
v 0.021189 0.026231 0.000000
v -0.021189 0.013455 -0.030844
v 0.021189 0.013455 -0.030844
v -0.030568 0.013455 0.030844
v -0.030568 -0.017388 0.043620
v 0.030569 -0.017388 0.043620
v 0.030569 0.013455 0.030844
v -0.030568 -0.013791 0.053892
v -0.030568 0.026231 0.000000
v 0.030569 0.026231 0.000000
v 0.030569 0.023809 -0.038108
v 0.030569 0.013455 -0.030844
v -0.030568 0.013455 -0.030844
v 0.030569 -0.017388 -0.043619
v 0.030569 -0.013791 -0.053893
v -0.030568 -0.017388 -0.043619
v -0.030568 0.023809 0.038107
v 0.030569 -0.013791 0.053892
v 0.030569 0.023809 0.038107
v -0.030568 0.039383 -0.000000
v 0.030569 0.039383 -0.000000
v -0.030568 0.023809 -0.038108
v -0.030568 -0.013791 -0.053893
vn -0.0000 -0.3827 -0.9239
vn -0.0000 -0.7071 -0.7071
vn -0.0000 -1.0000 -0.0000
vn -0.0000 -0.7071 0.7071
vn -0.0000 -0.3827 0.9239
vn 1.0000 -0.0000 -0.0000
vn -1.0000 -0.0000 -0.0000
vn -0.0000 -0.9438 0.3305
vn -0.0000 0.3871 -0.9220
vn -0.0000 -0.9239 0.3827
vn -0.0000 0.3871 0.9220
vn -0.0000 0.9257 0.3783
vn -0.0000 0.9257 -0.3783
vn -0.0000 -0.9438 -0.3305
vn -0.0000 -0.9239 -0.3827
vt 0.222735 0.857745
vt 0.222735 0.891820
vt 0.218476 0.891820
vt 0.218476 0.857745
vt 0.214217 0.891820
vt 0.214217 0.857745
vt 0.209958 0.891820
vt 0.209958 0.857745
vt 0.205698 0.891820
vt 0.205698 0.857745
vt 0.188661 0.891820
vt 0.192920 0.891820
vt 0.197180 0.891820
vt 0.201439 0.891820
vt 0.201439 0.857745
vt 0.197180 0.857745
vt 0.192920 0.857745
vt 0.188661 0.857745
vt 0.043084 0.946601
vt 0.039060 0.946601
vt 0.031013 0.978790
vt 0.026989 0.978790
vt 0.026989 0.946601
vt 0.031013 0.946601
vt 0.035037 0.978790
vt 0.039060 0.978790
vt 0.043084 0.978790
vt 0.035037 0.946601
vt 0.059178 0.946601
vt 0.059178 0.978790
s 1
usemtl Palette
f 1/1/1 2/2/1 4/3/2 3/4/2
f 3/4/2 4/3/2 6/5/3 5/6/3
f 5/6/3 6/5/3 8/7/4 7/8/4
f 7/8/4 8/7/4 10/9/5 9/10/5
s 0
f 2/11/6 16/12/6 14/13/6 12/14/6 10/9/6 8/7/6 6/5/6 4/3/6
f 3/4/7 5/6/7 7/8/7 9/10/7 11/15/7 13/16/7 15/17/7 1/18/7
s 1
f 19/19/8 31/19/8 28/19/8
s 0
f 21/20/1 19/19/1 28/19/1 27/20/1
f 34/21/9 38/22/9 46/23/9 45/24/9
f 24/25/10 26/21/10 35/21/10 33/25/10
f 42/26/11 40/20/11 31/19/11 41/27/11
f 44/25/12 43/28/12 40/20/12 42/26/12
f 34/21/13 45/24/13 43/28/13 44/25/13
s 1
f 17/29/14 39/29/14 46/29/14
s 0
f 25/24/10 23/28/10 32/28/10 36/24/10
s 1
f 41/27/8 20/27/8 29/27/8
f 18/30/14 38/30/14 37/30/14
s 0
f 30/26/6 33/25/6 44/25/6 42/26/6
f 33/25/6 35/21/6 34/21/6 44/25/6
f 27/20/7 28/19/7 31/19/7 40/20/7
f 35/21/6 37/22/6 38/22/6 34/21/6
f 29/27/6 30/26/6 42/26/6 41/27/6
f 39/23/7 36/24/7 45/24/7 46/23/7
f 36/24/7 32/28/7 43/28/7 45/24/7
f 32/28/7 27/20/7 40/20/7 43/28/7
f 31/19/8 19/19/8 20/27/8 41/27/8
f 20/27/1 22/26/1 30/26/1 29/27/1
f 17/23/5 25/24/5 36/24/5 39/23/5
f 26/21/5 18/22/5 37/22/5 35/21/5
f 23/28/15 21/20/15 27/20/15 32/28/15
f 22/26/15 24/25/15 33/25/15 30/26/15
f 46/29/14 38/30/14 18/30/14 17/29/14
