# Blender 4.4.1
# www.blender.org
mtllib Chair_Office_Base_A.mtl
o Chair_Office_Base_A
v -0.132247 0.578493 -0.203953
v -0.132247 0.590019 -0.192302
v -0.132246 0.590019 0.222277
v -0.132246 0.578493 0.233929
v -0.132247 0.538002 -0.192302
v -0.132247 0.549528 -0.203953
v -0.132246 0.549528 0.233929
v -0.132246 0.538002 0.222277
v -0.220664 0.593901 -0.171981
v -0.224748 0.582972 -0.182685
v -0.286649 0.599107 -0.083207
v -0.298138 0.588261 -0.084327
v -0.254377 0.596530 -0.158180
v -0.261443 0.585489 -0.167732
v -0.277582 0.598122 -0.129469
v -0.288306 0.587332 -0.134495
v -0.286649 0.599107 0.113182
v -0.298138 0.588261 0.114303
v -0.220664 0.593901 0.201956
v -0.224748 0.582972 0.212661
v -0.277582 0.598122 0.159444
v -0.288306 0.587332 0.164471
v -0.254377 0.596530 0.188155
v -0.261443 0.585489 0.197708
v -0.286649 0.547090 -0.083207
v -0.298138 0.559293 -0.084327
v -0.220664 0.541884 -0.171981
v -0.224748 0.554007 -0.182685
v -0.277582 0.546105 -0.129469
v -0.288306 0.558365 -0.134495
v -0.254377 0.544513 -0.158180
v -0.261443 0.556524 -0.167732
v -0.220664 0.541884 0.201956
v -0.224748 0.554007 0.212661
v -0.286649 0.547090 0.113182
v -0.298138 0.559293 0.114303
v -0.254377 0.544513 0.188155
v -0.261443 0.556524 0.197708
v -0.277582 0.546105 0.159444
v -0.288306 0.558365 0.164471
v -0.260603 0.846397 -0.185164
v -0.276496 0.856981 -0.183365
v -0.260632 0.856981 -0.191455
v -0.260632 0.856981 -0.162239
v -0.276496 0.856981 -0.166701
v -0.260603 0.846397 -0.168536
v -0.260603 1.092562 -0.185164
v -0.260632 1.081963 -0.191455
v -0.276496 1.081963 -0.183365
v -0.260632 1.081963 -0.162239
v -0.260603 1.092562 -0.168536
v -0.276496 1.081963 -0.166701
v -0.140353 0.846397 -0.200030
v -0.140353 0.856981 -0.206323
v -0.140353 0.846397 -0.183401
v -0.140353 0.856981 -0.177107
v -0.140353 1.081963 -0.206323
v -0.140353 1.092562 -0.200030
v -0.140353 1.081963 -0.177107
v -0.140353 1.092562 -0.183401
v -0.087888 0.932992 -0.214731
v -0.087888 1.033705 -0.214731
v -0.087589 0.932992 -0.205002
v -0.087589 1.033705 -0.205002
v -0.063977 0.967379 -0.240752
v -0.063977 0.996729 -0.240752
v -0.063892 0.967379 -0.212610
v -0.063892 1.018342 -0.212610
v -0.038090 0.975009 -0.236696
v -0.038036 0.975009 -0.218655
v -0.038090 0.519460 -0.177853
v -0.038036 0.537502 -0.177853
v -0.037100 0.556691 -0.246298
v -0.036887 0.529663 -0.229172
v -0.036759 0.541557 -0.217271
v -0.037046 0.569094 -0.233874
v -0.037454 0.703480 -0.237158
v -0.037400 0.711451 -0.222727
v -0.038090 0.519460 -0.016174
v -0.038036 0.537502 -0.016174
v -0.056060 0.512131 -0.025845
v -0.055954 0.547183 -0.025845
v -0.056060 0.512131 0.070970
v -0.055954 0.547183 0.070970
v -0.020680 0.353844 0.020225
v -0.020680 0.542224 0.020225
v -0.027651 0.353844 0.000000
v -0.027651 0.542224 0.000000
v -0.020680 0.353844 -0.020225
v -0.020680 0.542224 -0.020225
v 0.000000 0.575263 -0.211024
v 0.000000 0.586789 -0.199377
v 0.000000 0.586789 0.229352
v 0.000000 0.575263 0.240999
v 0.000000 0.534771 -0.199377
v 0.000000 0.546291 -0.211024
v 0.000000 0.546291 0.240999
v 0.000000 0.534771 0.229352
v 0.132247 0.578493 -0.203953
v 0.132247 0.590019 -0.192302
v 0.132246 0.590019 0.222277
v 0.132246 0.578493 0.233929
v 0.132247 0.538002 -0.192302
v 0.132247 0.549528 -0.203953
v 0.132246 0.549528 0.233929
v 0.132246 0.538002 0.222277
v 0.220664 0.593901 -0.171981
v 0.224748 0.582972 -0.182685
v 0.286649 0.599107 -0.083207
v 0.298138 0.588261 -0.084327
v 0.254377 0.596530 -0.158180
v 0.261443 0.585489 -0.167732
v 0.277582 0.598122 -0.129469
v 0.288306 0.587332 -0.134495
v 0.286649 0.599107 0.113182
v 0.298138 0.588261 0.114303
v 0.220664 0.593901 0.201956
v 0.224748 0.582972 0.212661
v 0.277582 0.598122 0.159444
v 0.288306 0.587332 0.164471
v 0.254377 0.596530 0.188155
v 0.261443 0.585489 0.197708
v 0.286649 0.547090 -0.083207
v 0.298138 0.559293 -0.084327
v 0.220664 0.541884 -0.171981
v 0.224748 0.554007 -0.182685
v 0.277582 0.546105 -0.129469
v 0.288306 0.558365 -0.134495
v 0.254377 0.544513 -0.158180
v 0.261443 0.556524 -0.167732
v 0.220664 0.541884 0.201956
v 0.224748 0.554007 0.212661
v 0.286649 0.547090 0.113182
v 0.298138 0.559293 0.114303
v 0.254377 0.544513 0.188155
v 0.261443 0.556524 0.197708
v 0.277582 0.546105 0.159444
v 0.288306 0.558365 0.164471
v 0.000000 0.846397 -0.204980
v 0.000000 0.856981 -0.211273
v 0.000000 0.856981 -0.182056
v 0.000000 0.846397 -0.188349
v 0.260603 0.846397 -0.185164
v 0.276496 0.856981 -0.183365
v 0.260632 0.856981 -0.191455
v 0.260632 0.856981 -0.162239
v 0.276496 0.856981 -0.166701
v 0.260603 0.846397 -0.168536
v 0.260603 1.092562 -0.185164
v 0.260632 1.081963 -0.191455
v 0.276496 1.081963 -0.183365
v 0.000000 1.081963 -0.211273
v 0.000000 1.092562 -0.204980
v 0.000000 1.092562 -0.188349
v 0.000000 1.081963 -0.182056
v 0.260632 1.081963 -0.162239
v 0.260603 1.092562 -0.168536
v 0.276496 1.081963 -0.166701
v 0.140353 0.846397 -0.200030
v 0.140353 0.856981 -0.206323
v 0.140353 0.846397 -0.183401
v 0.140353 0.856981 -0.177107
v 0.140353 1.081963 -0.206323
v 0.140353 1.092562 -0.200030
v 0.140353 1.081963 -0.177107
v 0.140353 1.092562 -0.183401
v 0.000000 0.932992 -0.217347
v 0.000000 1.033705 -0.217347
v 0.087888 0.932992 -0.214731
v 0.087888 1.033705 -0.214731
v 0.087589 0.932992 -0.205002
v 0.000000 0.932992 -0.207618
v 0.000000 1.033705 -0.207618
v 0.087589 1.033705 -0.205002
v 0.000000 0.967379 -0.249153
v 0.000000 0.996729 -0.249153
v 0.063977 0.967379 -0.240752
v 0.063977 0.996729 -0.240752
v 0.063892 0.967379 -0.212610
v 0.000000 0.967379 -0.215286
v 0.000000 1.018342 -0.215286
v 0.063892 1.018342 -0.212610
v 0.038090 0.975009 -0.236696
v 0.000000 0.975009 -0.239969
v 0.038036 0.975009 -0.218655
v 0.000000 0.975009 -0.220370
v 0.038090 0.519460 -0.177853
v 0.000000 0.516187 -0.177853
v 0.038036 0.537502 -0.177853
v 0.000000 0.535786 -0.177853
v 0.000000 0.554429 -0.248549
v 0.000000 0.527503 -0.231371
v 0.037100 0.556691 -0.246298
v 0.036887 0.529663 -0.229172
v 0.036759 0.541557 -0.217271
v 0.037046 0.569094 -0.233874
v 0.000000 0.540443 -0.218417
v 0.000000 0.567874 -0.235057
v 0.037454 0.703480 -0.237158
v 0.000000 0.702026 -0.239774
v 0.037400 0.711451 -0.222727
v 0.000000 0.710667 -0.224101
v 0.038090 0.519460 -0.016174
v 0.000000 0.516187 -0.016174
v 0.038036 0.537502 -0.016174
v 0.000000 0.535786 -0.016174
v 0.056060 0.512131 -0.025845
v 0.000000 0.505772 -0.025845
v 0.055954 0.547183 -0.025845
v 0.000000 0.543849 -0.025845
v 0.056060 0.512131 0.070970
v 0.000000 0.505772 0.070970
v 0.055954 0.547183 0.070970
v 0.000000 0.543849 0.070970
v 0.000000 0.353844 0.028602
v 0.000000 0.542224 0.028602
v 0.020680 0.353844 0.020225
v 0.020680 0.542224 0.020225
v 0.027651 0.353844 0.000000
v 0.027651 0.542224 0.000000
v 0.020680 0.353844 -0.020225
v 0.020680 0.542224 -0.020225
v 0.000000 0.353844 -0.028602
v 0.000000 0.542224 -0.028602
vn -0.0000 0.3755 -0.9268
vn -0.0000 -0.3856 -0.9226
vn -0.1394 -0.3751 -0.9165
vn -0.1148 0.3763 -0.9193
vn -0.3005 -0.3688 -0.8796
vn -0.2601 0.3800 -0.8877
vn -0.5707 -0.3565 -0.7397
vn -0.5366 0.3812 -0.7528
vn -0.9157 0.3910 -0.0925
vn -0.8320 0.3846 -0.3999
vn -0.8514 -0.3542 -0.3868
vn -0.9290 -0.3598 -0.0869
vn -0.9290 -0.3598 0.0869
vn -0.9157 0.3910 0.0925
vn -0.2601 0.3800 0.8877
vn -0.3005 -0.3688 0.8796
vn -0.1394 -0.3751 0.9165
vn -0.1148 0.3763 0.9193
vn -0.5366 0.3812 0.7528
vn -0.5707 -0.3565 0.7397
vn -0.8319 0.3846 0.3999
vn -0.8514 -0.3542 0.3868
vn -0.0000 -0.3856 0.9226
vn -0.0000 0.3755 0.9268
vn -0.0569 -0.9984 -0.0000
vn 0.0569 0.9984 -0.0000
vn -0.0244 -0.9997 -0.0000
vn -0.0772 0.7121 -0.6979
vn -0.0000 0.7109 -0.7033
vn -0.0000 0.7109 0.7033
vn -0.0772 0.7121 0.6979
vn -0.0000 -0.7110 -0.7032
vn -0.1269 -0.7019 -0.7008
vn -0.1270 -0.7019 0.7008
vn -0.0000 -0.7110 0.7032
vn -0.4532 -0.6999 0.5521
vn -0.2514 -0.6929 0.6757
vn -0.1717 0.7160 0.6767
vn -0.3760 0.7341 0.5654
vn -0.6590 -0.6956 0.2861
vn -0.6025 0.7380 0.3037
vn -0.7246 -0.6862 0.0640
vn -0.6797 0.7298 0.0727
vn -0.6590 -0.6956 -0.2861
vn -0.7246 -0.6862 -0.0640
vn -0.6797 0.7298 -0.0727
vn -0.6025 0.7380 -0.3037
vn -0.4532 -0.6999 -0.5521
vn -0.3760 0.7341 -0.5654
vn -0.2514 -0.6929 -0.6757
vn -0.1717 0.7160 -0.6767
vn 0.0244 0.9997 -0.0000
vn 0.0767 -0.2662 0.9609
vn -0.0000 -0.2665 0.9638
vn -0.0000 0.2662 0.9639
vn 0.0767 0.2659 0.9609
vn -0.2045 -0.8617 0.4643
vn -0.2885 -0.8508 -0.4393
vn -0.0405 -0.8629 -0.5037
vn 0.0378 -0.8748 0.4830
vn -0.0758 -0.2625 -0.9619
vn -0.2773 -0.2500 -0.9277
vn -0.2773 0.2497 -0.9278
vn -0.0758 0.2622 -0.9620
vn -0.0712 -0.2566 0.9639
vn -0.0712 0.2563 0.9640
vn -0.0000 -0.8645 -0.5027
vn -0.0000 -0.8740 0.4860
vn -0.2047 0.8616 0.4645
vn 0.0378 0.8747 0.4832
vn -0.0405 0.8628 -0.5040
vn -0.2887 0.8506 -0.4394
vn -0.0000 0.8738 0.4862
vn -0.0000 0.8643 -0.5030
vn -0.8039 -0.3934 -0.4462
vn -0.7515 -0.3966 0.5272
vn -0.7516 0.3964 0.5273
vn -0.8040 0.3931 -0.4462
vn -0.0000 -0.2635 -0.9647
vn -0.0000 0.2632 -0.9647
vn -0.0297 -0.0000 -0.9996
vn -0.1302 -0.0000 -0.9915
vn -0.9995 -0.0000 0.0307
vn -0.0000 1.0000 -0.0000
vn -0.0000 -1.0000 -0.0000
vn -1.0000 -0.0000 0.0030
vn -0.0495 0.8194 -0.5711
vn -0.9996 0.0160 -0.0248
vn 0.0460 0.8455 0.5319
vn 0.0422 0.9976 0.0540
vn -0.0000 0.9985 0.0545
vn -0.0000 0.8415 0.5402
vn -0.0000 -0.8210 -0.5709
vn -0.0000 -0.9949 -0.1009
vn -0.0816 -0.9915 -0.1010
vn -0.0863 -0.8236 -0.5606
vn -1.0000 0.0030 -0.0000
vn -0.0000 -0.0465 0.9989
vn -0.0000 -0.0147 0.9999
vn 0.0408 -0.0147 0.9991
vn 0.0365 -0.0455 0.9983
vn -1.0000 -0.0024 0.0039
vn -0.0757 -0.2402 -0.9678
vn -0.0000 -0.2584 -0.9660
vn 0.0395 0.2253 0.9735
vn -0.0000 0.2359 0.9718
vn -0.9999 -0.0028 0.0103
vn -0.0701 0.0297 -0.9971
vn -0.0777 0.0004 -0.9970
vn -0.0000 0.0004 -1.0000
vn -0.0000 0.0313 -0.9995
vn -1.0000 -0.0029 0.0062
vn -0.0000 -0.0000 1.0000
vn -0.0856 -0.9963 -0.0000
vn 0.0451 0.9990 -0.0000
vn -0.0000 -0.0000 -1.0000
vn 0.0595 0.9982 -0.0000
vn -0.1127 -0.9936 -0.0000
vn -0.7256 -0.0000 0.6881
vn -1.0000 -0.0000 -0.0000
vn -0.7256 -0.0000 -0.6881
vn 0.1148 0.3763 -0.9193
vn 0.1394 -0.3751 -0.9165
vn 0.2601 0.3800 -0.8877
vn 0.3005 -0.3688 -0.8796
vn 0.5707 -0.3565 -0.7397
vn 0.5366 0.3812 -0.7528
vn 0.9157 0.3910 -0.0925
vn 0.9290 -0.3598 -0.0869
vn 0.8514 -0.3542 -0.3868
vn 0.8320 0.3846 -0.3999
vn 0.9157 0.3910 0.0925
vn 0.9290 -0.3598 0.0869
vn 0.2601 0.3800 0.8877
vn 0.1148 0.3763 0.9193
vn 0.1394 -0.3751 0.9165
vn 0.3005 -0.3688 0.8796
vn 0.5707 -0.3565 0.7397
vn 0.5366 0.3812 0.7528
vn 0.8514 -0.3542 0.3868
vn 0.8319 0.3846 0.3999
vn 0.0569 -0.9984 -0.0000
vn -0.0569 0.9984 -0.0000
vn 0.0244 -0.9997 -0.0000
vn 0.0772 0.7121 -0.6979
vn 0.0772 0.7121 0.6979
vn 0.1269 -0.7019 -0.7008
vn 0.1270 -0.7019 0.7008
vn 0.4532 -0.6999 0.5521
vn 0.2514 -0.6929 0.6757
vn 0.1717 0.7160 0.6767
vn 0.3760 0.7341 0.5654
vn 0.6590 -0.6956 0.2861
vn 0.6025 0.7380 0.3037
vn 0.7246 -0.6862 0.0640
vn 0.6797 0.7298 0.0727
vn 0.6590 -0.6956 -0.2861
vn 0.7246 -0.6862 -0.0640
vn 0.6797 0.7298 -0.0727
vn 0.6025 0.7380 -0.3037
vn 0.4532 -0.6999 -0.5521
vn 0.3760 0.7341 -0.5654
vn 0.2514 -0.6929 -0.6757
vn 0.1717 0.7160 -0.6767
vn -0.0244 0.9997 -0.0000
vn -0.0767 -0.2662 0.9609
vn -0.0767 0.2659 0.9609
vn 0.2045 -0.8617 0.4643
vn -0.0378 -0.8748 0.4830
vn 0.0405 -0.8629 -0.5037
vn 0.2885 -0.8508 -0.4393
vn 0.0758 -0.2625 -0.9619
vn 0.0758 0.2622 -0.9620
vn 0.2773 0.2497 -0.9278
vn 0.2773 -0.2500 -0.9277
vn 0.0712 -0.2566 0.9639
vn 0.0712 0.2563 0.9640
vn 0.2047 0.8616 0.4645
vn 0.2887 0.8506 -0.4394
vn 0.0405 0.8628 -0.5040
vn -0.0378 0.8747 0.4832
vn 0.8039 -0.3934 -0.4462
vn 0.8040 0.3931 -0.4462
vn 0.7516 0.3964 0.5273
vn 0.7515 -0.3966 0.5272
vn 0.0297 -0.0000 -0.9996
vn 0.1302 -0.0000 -0.9915
vn 0.9995 -0.0000 0.0307
vn 1.0000 -0.0000 0.0030
vn 0.0495 0.8194 -0.5711
vn 0.9996 0.0160 -0.0248
vn -0.0460 0.8455 0.5319
vn -0.0422 0.9976 0.0540
vn 0.0863 -0.8236 -0.5606
vn 0.0816 -0.9915 -0.1010
vn 1.0000 0.0030 -0.0000
vn -0.0365 -0.0455 0.9983
vn -0.0408 -0.0147 0.9991
vn 1.0000 -0.0024 0.0039
vn 0.0757 -0.2402 -0.9678
vn -0.0395 0.2253 0.9735
vn 0.9999 -0.0028 0.0103
vn 0.0701 0.0297 -0.9971
vn 0.0777 0.0004 -0.9970
vn 1.0000 -0.0029 0.0062
vn 0.0856 -0.9963 -0.0000
vn -0.0451 0.9990 -0.0000
vn -0.0595 0.9982 -0.0000
vn 0.1127 -0.9936 -0.0000
vn 0.7256 -0.0000 0.6881
vn 1.0000 -0.0000 -0.0000
vn 0.7256 -0.0000 -0.6881
vt 0.377675 0.883550
vt 0.372756 0.883550
vt 0.369601 0.883550
vt 0.368311 0.883485
vt 0.367021 0.882096
vt 0.367137 0.882823
vt 0.367021 0.876855
vt 0.369601 0.875401
vt 0.372756 0.875401
vt 0.368311 0.875466
vt 0.367137 0.876128
vt 0.377675 0.875401
vt 0.369701 0.875620
vt 0.368516 0.875710
vt 0.367567 0.876233
vt 0.367386 0.876990
vt 0.367386 0.881961
vt 0.367567 0.882718
vt 0.368516 0.883240
vt 0.369701 0.883331
vt 0.372756 0.883333
vt 0.372756 0.875618
vt 0.367567 0.876233
vt 0.368516 0.875710
vt 0.369701 0.875620
vt 0.367567 0.882718
vt 0.377675 0.883340
vt 0.377675 0.875611
vt 0.375216 0.875614
vt 0.373043 0.877280
vt 0.373043 0.881671
vt 0.375216 0.881673
vt 0.375216 0.877278
vt 0.375216 0.883336
vt 0.373043 0.883333
vt 0.373043 0.883333
vt 0.373043 0.875617
vt 0.377675 0.881675
vt 0.377675 0.877276
vt 0.373043 0.881671
vt 0.377675 0.877276
vt 0.377675 0.881675
vt 0.372756 0.881676
vt 0.372756 0.877275
vt 0.118330 0.958658
vt 0.116006 0.958655
vt 0.116006 0.958655
vt 0.211761 0.874811
vt 0.214220 0.874814
vt 0.211761 0.874811
vt 0.111892 0.965096
vt 0.109568 0.965093
vt 0.234661 0.864560
vt 0.234661 0.898634
vt 0.230402 0.898634
vt 0.230402 0.864560
vt 0.226143 0.898634
vt 0.226143 0.864560
vt 0.221884 0.898634
vt 0.221884 0.864560
vt 0.217624 0.898634
vt 0.217624 0.864560
s 1
usemtl Palette
f 91/1/1 96/1/2 6/2/3 1/2/4
f 1/2/4 6/2/3 28/3/5 10/3/6
f 32/4/7 14/4/8 10/3/6 28/3/5
f 12/5/9 16/6/10 30/6/11 26/5/12
f 12/5/9 26/5/12 36/7/13 18/7/14
f 20/8/15 34/8/16 7/9/17 4/9/18
f 30/6/11 16/6/10 14/4/8 32/4/7
f 20/8/15 24/10/19 38/10/20 34/8/16
f 38/10/20 24/10/19 22/11/21 40/11/22
f 40/11/22 22/11/21 18/7/14 36/7/13
f 4/9/18 7/9/17 97/12/23 94/12/24
s 0
f 33/13/25 37/14/25 39/15/25 35/16/25 25/17/25 29/18/25 31/19/25 27/20/25 5/21/25 8/22/25
f 17/16/26 21/23/26 23/24/26 19/25/26 3/22/26 2/21/26 9/20/26 13/19/26 15/26/26 11/17/26
f 8/22/27 5/21/27 95/27/27 98/28/27
s 1
f 91/1/1 1/2/4 2/21/28 92/27/29
f 93/28/30 3/22/31 4/9/18 94/12/24
f 95/27/32 5/21/33 6/2/3 96/1/2
f 97/12/23 7/9/17 8/22/34 98/28/35
f 37/14/36 33/13/37 34/8/16 38/10/20
f 19/25/38 23/24/39 24/10/19 20/8/15
f 39/15/40 37/14/36 38/10/20 40/11/22
f 23/24/39 21/23/41 22/11/21 24/10/19
f 35/16/42 39/15/40 40/11/22 36/7/13
f 21/23/41 17/16/43 18/7/14 22/11/21
f 29/18/44 25/17/45 26/5/12 30/6/11
f 11/17/46 15/26/47 16/6/10 12/5/9
f 31/19/48 29/18/44 30/6/11 32/4/7
f 15/26/47 13/19/49 14/4/8 16/6/10
f 27/20/50 31/19/48 32/4/7 28/3/5
f 13/19/49 9/20/51 10/3/6 14/4/8
f 12/5/9 18/7/14 17/16/43 11/17/46
f 20/8/15 4/9/18 3/22/31 19/25/38
f 1/2/4 10/3/6 9/20/51 2/21/28
f 25/17/45 35/16/42 36/7/13 26/5/12
f 5/21/33 27/20/50 28/3/5 6/2/3
f 33/13/37 8/22/34 7/9/17 34/8/16
s 0
f 3/22/52 93/28/52 92/27/52 2/21/52
s 1
f 56/29/53 141/28/54 155/28/55 59/29/56
f 46/30/57 41/31/58 53/32/59 55/33/60
f 54/34/61 43/35/62 48/36/63 57/34/64
f 44/37/65 56/29/53 59/29/56 50/37/66
f 55/33/60 53/32/59 139/38/67 142/39/68
f 51/30/69 60/33/70 58/32/71 47/40/72
f 60/33/70 154/41/73 153/42/74 58/32/71
f 42/43/75 45/44/76 52/44/77 49/43/78
f 41/31/58 42/43/75 43/35/62
f 44/37/65 45/44/76 46/30/57
f 47/40/72 48/36/63 49/43/78
f 50/37/66 51/30/69 52/44/77
f 54/34/61 140/27/79 139/38/67 53/32/59
f 56/29/53 44/37/65 46/30/57 55/33/60
f 41/31/58 46/30/57 45/44/76 42/43/75
f 58/32/71 153/42/74 152/27/80 57/34/64
f 60/33/70 51/30/69 50/37/66 59/29/56
f 49/43/78 52/44/77 51/30/69 47/40/72
f 52/44/77 45/44/76 44/37/65 50/37/66
f 48/36/63 43/35/62 42/43/75 49/43/78
f 43/35/62 54/34/61 53/32/59 41/31/58
f 141/28/54 56/29/53 55/33/60 142/39/68
f 47/40/72 58/32/71 57/34/64 48/36/63
f 154/41/73 60/33/70 59/29/56 155/28/55
f 140/27/79 54/34/61 57/34/64 152/27/80
s 0
f 167/45/81 61/46/81 62/46/81 168/45/81
f 175/45/82 65/46/82 66/47/82 176/45/82
f 61/46/83 63/46/83 64/46/83 62/46/83
f 62/46/84 64/46/84 173/45/84 168/45/84
f 167/45/85 172/45/85 63/46/85 61/46/85
f 65/46/86 67/46/86 68/46/86 66/47/86
f 66/47/87 68/46/87 181/45/87 176/45/87
f 175/45/85 180/45/85 67/46/85 65/46/85
f 74/48/88 71/48/88 72/48/88 75/48/88
s 1
f 75/48/89 72/48/90 190/49/91 197/49/92
f 192/49/93 188/49/94 71/48/95 74/48/96
s 0
f 71/48/97 79/48/97 80/48/97 72/48/97
s 1
f 202/49/98 186/49/99 70/48/100 78/50/101
s 0
f 78/50/102 70/48/102 69/48/102 77/48/102
s 1
f 74/48/96 73/48/103 191/49/104 192/49/93
f 76/48/105 75/48/89 197/49/92 198/49/106
s 0
f 75/48/107 76/48/107 73/48/107 74/48/107
s 1
f 77/48/108 69/48/109 184/49/110 200/49/111
f 73/48/103 77/48/108 200/49/111 191/49/104
s 0
f 76/48/112 78/50/112 77/48/112 73/48/112
s 1
f 198/49/106 202/49/98 78/50/101 76/48/105
s 0
f 212/51/113 214/51/113 84/52/113 83/52/113
s 1
f 188/49/94 204/49/85 79/48/114 71/48/95
f 72/48/90 80/48/115 206/49/84 190/49/91
s 0
f 208/51/116 81/52/116 82/52/116 210/51/116
f 82/52/117 84/52/117 214/51/117 210/51/117
f 81/52/97 83/52/97 84/52/97 82/52/97
f 208/51/118 212/51/118 83/52/118 81/52/118
s 1
f 215/53/113 216/54/113 86/55/119 85/56/119
f 85/56/119 86/55/119 88/57/120 87/58/120
f 87/58/120 88/57/120 90/59/121 89/60/121
f 89/60/121 90/59/121 224/61/116 223/62/116
f 91/1/1 99/2/122 104/2/123 96/1/2
f 99/2/122 108/3/124 126/3/125 104/2/123
f 130/4/126 126/3/125 108/3/124 112/4/127
f 110/5/128 124/5/129 128/6/130 114/6/131
f 110/5/128 116/7/132 134/7/133 124/5/129
f 118/8/134 102/9/135 105/9/136 132/8/137
f 128/6/130 130/4/126 112/4/127 114/6/131
f 118/8/134 132/8/137 136/10/138 122/10/139
f 136/10/138 138/11/140 120/11/141 122/10/139
f 138/11/140 134/7/133 116/7/132 120/11/141
f 102/9/135 94/12/24 97/12/23 105/9/136
s 0
f 131/13/142 106/22/142 103/21/142 125/20/142 129/19/142 127/18/142 123/17/142 133/16/142 137/15/142 135/14/142
f 115/16/143 109/17/143 113/26/143 111/19/143 107/20/143 100/21/143 101/22/143 117/25/143 121/24/143 119/23/143
f 106/22/144 98/28/144 95/27/144 103/21/144
s 1
f 91/1/1 92/27/29 100/21/145 99/2/122
f 93/28/30 94/12/24 102/9/135 101/22/146
f 95/27/32 96/1/2 104/2/123 103/21/147
f 97/12/23 98/28/35 106/22/148 105/9/136
f 135/14/149 136/10/138 132/8/137 131/13/150
f 117/25/151 118/8/134 122/10/139 121/24/152
f 137/15/153 138/11/140 136/10/138 135/14/149
f 121/24/152 122/10/139 120/11/141 119/23/154
f 133/16/155 134/7/133 138/11/140 137/15/153
f 119/23/154 120/11/141 116/7/132 115/16/156
f 127/18/157 128/6/130 124/5/129 123/17/158
f 109/17/159 110/5/128 114/6/131 113/26/160
f 129/19/161 130/4/126 128/6/130 127/18/157
f 113/26/160 114/6/131 112/4/127 111/19/162
f 125/20/163 126/3/125 130/4/126 129/19/161
f 111/19/162 112/4/127 108/3/124 107/20/164
f 110/5/128 109/17/159 115/16/156 116/7/132
f 118/8/134 117/25/151 101/22/146 102/9/135
f 99/2/122 100/21/145 107/20/164 108/3/124
f 123/17/158 124/5/129 134/7/133 133/16/155
f 103/21/147 104/2/123 126/3/125 125/20/163
f 131/13/150 132/8/137 105/9/136 106/22/148
s 0
f 101/22/165 100/21/165 92/27/165 93/28/165
s 1
f 162/29/166 165/29/167 155/28/55 141/28/54
f 148/30/168 161/33/169 159/32/170 143/31/171
f 160/34/172 163/34/173 150/36/174 145/35/175
f 146/37/176 156/37/177 165/29/167 162/29/166
f 161/33/169 142/39/68 139/38/67 159/32/170
f 157/30/178 149/40/179 164/32/180 166/33/181
f 166/33/181 164/32/180 153/42/74 154/41/73
f 144/43/182 151/43/183 158/44/184 147/44/185
f 143/31/171 145/35/175 144/43/182
f 146/37/176 148/30/168 147/44/185
f 149/40/179 151/43/183 150/36/174
f 156/37/177 158/44/184 157/30/178
f 160/34/172 159/32/170 139/38/67 140/27/79
f 162/29/166 161/33/169 148/30/168 146/37/176
f 143/31/171 144/43/182 147/44/185 148/30/168
f 164/32/180 163/34/173 152/27/80 153/42/74
f 166/33/181 165/29/167 156/37/177 157/30/178
f 151/43/183 149/40/179 157/30/178 158/44/184
f 158/44/184 156/37/177 146/37/176 147/44/185
f 150/36/174 151/43/183 144/43/182 145/35/175
f 145/35/175 143/31/171 159/32/170 160/34/172
f 141/28/54 142/39/68 161/33/169 162/29/166
f 149/40/179 150/36/174 163/34/173 164/32/180
f 154/41/73 155/28/55 165/29/167 166/33/181
f 140/27/79 152/27/80 163/34/173 160/34/172
s 0
f 167/45/186 168/45/186 170/46/186 169/46/186
f 175/45/187 176/45/187 178/47/187 177/46/187
f 169/46/188 170/46/188 174/46/188 171/46/188
f 170/46/84 168/45/84 173/45/84 174/46/84
f 167/45/85 169/46/85 171/46/85 172/45/85
f 177/46/189 178/47/189 182/46/189 179/46/189
f 178/47/190 176/45/190 181/45/190 182/46/190
f 175/45/85 177/46/85 179/46/85 180/45/85
f 194/48/191 195/48/191 189/48/191 187/48/191
s 1
f 195/48/192 197/49/92 190/49/91 189/48/193
f 192/49/93 194/48/194 187/48/195 188/49/94
s 0
f 187/48/196 189/48/196 205/48/196 203/48/196
s 1
f 202/49/98 201/50/197 185/48/198 186/49/99
s 0
f 201/50/199 199/48/199 183/48/199 185/48/199
s 1
f 194/48/194 192/49/93 191/49/104 193/48/200
f 196/48/201 198/49/106 197/49/92 195/48/192
s 0
f 195/48/202 194/48/202 193/48/202 196/48/202
s 1
f 199/48/203 200/49/111 184/49/110 183/48/204
f 193/48/200 191/49/104 200/49/111 199/48/203
s 0
f 196/48/205 193/48/205 199/48/205 201/50/205
s 1
f 198/49/106 196/48/201 201/50/197 202/49/98
s 0
f 212/51/113 211/52/113 213/52/113 214/51/113
s 1
f 188/49/94 187/48/195 203/48/206 204/49/85
f 189/48/193 190/49/91 206/49/84 205/48/207
s 0
f 208/51/116 210/51/116 209/52/116 207/52/116
f 209/52/208 210/51/208 214/51/208 213/52/208
f 207/52/196 209/52/196 213/52/196 211/52/196
f 208/51/209 207/52/209 211/52/209 212/51/209
s 1
f 215/53/113 217/56/210 218/55/210 216/54/113
f 217/56/210 219/58/211 220/57/211 218/55/210
f 219/58/211 221/60/212 222/59/212 220/57/211
f 221/60/212 223/62/116 224/61/116 222/59/212
