# Blender 4.4.1
# www.blender.org
mtllib Chair_B.mtl
o Chair_B
v -0.360245 0.442926 -0.300024
v -0.360245 0.442926 0.298220
v -0.360245 0.536196 -0.300024
v -0.360245 0.536196 0.298220
v -0.294637 0.532932 -0.298707
v -0.294637 0.532932 0.296903
v -0.294637 0.607577 -0.300024
v -0.358786 0.705647 -0.297108
v -0.358786 0.705647 0.296045
v -0.358786 0.735009 -0.297108
v -0.358786 0.735009 0.296045
v -0.304350 0.705647 0.296045
v -0.304350 0.705647 -0.297108
v -0.304350 0.735009 0.296045
v -0.304350 0.735009 -0.297108
v -0.358786 0.705647 0.270006
v -0.358786 0.705647 -0.271069
v -0.304350 0.018911 -0.297108
v -0.304350 0.018911 -0.258765
v -0.304350 0.705647 0.270006
v -0.304350 0.705647 -0.271069
v -0.358786 0.018911 -0.297108
v -0.358786 0.018911 -0.258765
v -0.358786 0.018911 0.296045
v -0.304350 0.018911 0.296045
v -0.358786 0.018911 0.270006
v -0.304350 0.018911 0.270006
v -0.348241 0.050996 -0.285087
v -0.348241 0.050996 0.283283
v -0.348241 0.121153 -0.285087
v -0.348241 0.121153 0.283283
v -0.348241 0.050996 0.257539
v -0.348241 0.050996 -0.259343
v -0.319495 0.050996 -0.259343
v -0.319495 0.050996 -0.285087
v -0.319495 0.050996 0.283283
v -0.319495 0.121153 0.283283
v -0.319495 0.121153 -0.285087
v -0.319495 0.050996 0.257539
v -0.318707 0.050996 -0.266458
v -0.318707 0.121153 -0.266458
v -0.292963 0.050996 -0.266458
v -0.292963 0.050996 -0.295204
v -0.318707 0.050996 -0.295204
v -0.318707 0.121153 -0.295204
v -0.294637 0.607577 -0.197125
v -0.294637 0.905005 -0.321619
v -0.267279 0.932339 -0.295687
v -0.286624 0.924333 -0.314614
v -0.267279 0.932339 -0.247504
v -0.294637 0.905005 -0.218720
v -0.286624 0.924333 -0.227742
v -0.294637 0.589729 0.298220
v -0.294637 0.607577 0.280372
v -0.294637 0.602349 0.292993
v -0.358786 0.453489 0.296045
v -0.304350 0.453489 0.296045
v -0.304350 0.453489 0.270006
v -0.358786 0.453489 0.270006
v -0.358786 0.523440 0.296045
v -0.304350 0.523440 0.296045
v -0.304350 0.523440 0.270006
v -0.358786 0.523440 0.270006
v -0.304350 0.524842 -0.297108
v -0.304350 0.461363 -0.297108
v -0.304350 0.461363 -0.258765
v -0.304350 0.524842 -0.271069
v -0.358786 0.461363 -0.258765
v -0.358786 0.524842 -0.271069
v -0.358786 0.461363 -0.297108
v -0.358786 0.524842 -0.297108
v 0.360245 0.442926 -0.300024
v 0.360245 0.442926 0.298220
v 0.360245 0.536196 -0.300024
v 0.360245 0.536196 0.298220
v -0.000000 0.532932 -0.298707
v 0.000000 0.532932 0.296903
v 0.294637 0.532932 -0.298707
v 0.294637 0.532932 0.296903
v 0.294637 0.607577 -0.300024
v 0.358786 0.705647 -0.297108
v 0.358786 0.705647 0.296045
v 0.358786 0.735009 -0.297108
v 0.358786 0.735009 0.296045
v 0.304350 0.705647 0.296045
v 0.304350 0.705647 -0.297108
v 0.304350 0.735009 0.296045
v 0.304350 0.735009 -0.297108
v 0.358786 0.705647 0.270006
v 0.358786 0.705647 -0.271069
v 0.304350 0.018911 -0.297108
v 0.304350 0.018911 -0.258765
v 0.304350 0.705647 0.270006
v 0.304350 0.705647 -0.271069
v 0.358786 0.018911 -0.297108
v 0.358786 0.018911 -0.258765
v 0.358786 0.018911 0.296045
v 0.304350 0.018911 0.296045
v 0.358786 0.018911 0.270006
v 0.304350 0.018911 0.270006
v 0.348241 0.050996 -0.285087
v 0.348241 0.050996 0.283283
v 0.348241 0.121153 -0.285087
v 0.348241 0.121153 0.283283
v 0.348241 0.050996 0.257539
v 0.348241 0.050996 -0.259343
v 0.319495 0.050996 -0.259343
v 0.319495 0.050996 -0.285087
v 0.319495 0.050996 0.283283
v 0.319495 0.121153 0.283283
v 0.319495 0.121153 -0.285087
v 0.319495 0.050996 0.257539
v 0.318706 0.050996 -0.266458
v 0.318706 0.121153 -0.266458
v 0.292962 0.050996 -0.266458
v 0.292962 0.050996 -0.295204
v 0.318706 0.050996 -0.295204
v 0.318706 0.121153 -0.295204
v 0.294637 0.607577 -0.197126
v 0.294637 0.905005 -0.321619
v 0.267279 0.932339 -0.295687
v 0.286624 0.924333 -0.314615
v 0.267279 0.932339 -0.247504
v 0.294637 0.905005 -0.218721
v 0.286624 0.924333 -0.227742
v 0.294637 0.589729 0.298220
v 0.294637 0.607577 0.280372
v 0.294637 0.602349 0.292992
v 0.358786 0.453489 0.296045
v 0.304350 0.453489 0.296045
v 0.304350 0.453489 0.270006
v 0.358786 0.453489 0.270006
v 0.358786 0.523440 0.296045
v 0.304350 0.523440 0.296045
v 0.304350 0.523440 0.270006
v 0.358786 0.523440 0.270006
v 0.304350 0.524842 -0.297108
v 0.304350 0.461363 -0.297108
v 0.304350 0.461363 -0.258765
v 0.304350 0.524842 -0.271069
v 0.358786 0.461363 -0.258765
v 0.358786 0.524842 -0.271069
v 0.358786 0.461363 -0.297108
v 0.358786 0.524842 -0.297108
vn -0.0000 1.0000 -0.0000
vn -0.0000 -0.0000 1.0000
vn -1.0000 -0.0000 -0.0000
vn -0.0000 -0.0000 -1.0000
vn -0.4636 -0.0399 -0.8851
vn 0.4636 -0.0399 -0.8851
vn -0.0000 -0.0176 -0.9998
vn -0.0000 0.7071 0.7071
vn -0.0000 0.9808 0.1951
vn -0.0000 -1.0000 -0.0000
vn 1.0000 -0.0000 -0.0000
vn 0.1979 0.9589 -0.2033
vn 0.4967 0.6988 -0.5147
vn -0.4967 0.6988 -0.5147
vn -0.1979 0.9589 -0.2033
vn -0.5458 0.6136 0.5707
vn -0.6874 0.2710 0.6738
vn -0.6872 0.2003 -0.6983
vn 0.5458 0.6136 0.5707
vn 0.6874 0.2710 0.6738
vn 0.6872 0.2003 -0.6983
vn -0.4981 0.7219 0.4803
vn 0.4981 0.7219 0.4803
vn 0.1993 0.9605 0.1940
vn -0.1993 0.9605 0.1940
vn -0.0000 0.3827 0.9239
vn -0.0000 -0.0232 0.9997
vt 0.556231 0.896136
vt 0.556231 0.865869
vt 0.731818 0.783222
vt 0.697744 0.783222
vt 0.731818 0.817200
vt 0.731818 0.816329
vt 0.731818 0.817296
vt 0.731818 0.790457
vt 0.556231 0.886047
vt 0.556231 0.875958
vt 0.556232 0.865869
vt 0.727924 0.785145
vt 0.731248 0.783518
vt 0.731248 0.790190
vt 0.727924 0.788533
vt 0.697744 0.817296
vt 0.556232 0.875958
vt 0.556231 0.896136
s 0
usemtl Palette
f 4/1/1 75/1/1 74/2/1 3/2/1
f 73/1/2 75/1/2 4/1/2 2/1/2
f 1/2/3 2/1/3 4/1/3 3/2/3
f 3/2/4 74/2/4 72/2/4 1/2/4
s 1
f 7/3/5 80/3/6 78/3/7 76/4/7 5/3/7
f 55/5/8 128/5/8 127/6/9 54/6/9
s 0
f 114/2/1 118/2/1 45/2/1 41/2/1
f 5/3/3 6/7/3 53/7/3 55/5/3 54/6/3 46/8/3 7/3/3
f 26/9/10 27/9/10 25/1/10 24/1/10
f 22/2/10 18/2/10 19/10/10 23/10/10
f 66/10/11 19/10/11 18/2/11 65/11/11
f 10/2/4 15/2/4 13/2/4 8/2/4
f 70/2/3 22/2/3 23/10/3 68/10/3
f 9/1/2 12/1/2 14/1/2 11/1/2
f 11/1/1 14/1/1 15/2/1 10/2/1
f 58/9/4 27/9/4 26/9/4 59/9/4
f 56/1/2 24/1/2 25/1/2 57/1/2
f 17/10/10 21/10/10 20/9/10 16/9/10
f 21/10/11 13/2/11 15/2/11 14/1/11 12/1/11 20/9/11
f 65/11/4 18/2/4 22/2/4 70/2/4
f 10/2/3 8/2/3 17/10/3 16/9/3 9/1/3 11/1/3
f 68/10/2 23/10/2 19/10/2 66/10/2
f 57/1/11 25/1/11 27/9/11 58/9/11
f 59/9/3 26/9/3 24/1/3 56/1/3
f 30/2/3 28/2/3 33/10/3 32/9/3 29/1/3 31/1/3
f 38/2/11 37/1/11 36/1/11 39/9/11 34/10/11 35/2/11
f 30/2/1 31/1/1 37/1/1 38/2/1
f 29/1/10 32/9/10 39/9/10 36/1/10
s 1
f 121/12/12 122/13/13 49/13/14 48/12/15
s 0
f 32/9/10 33/10/10 34/10/10 39/9/10
f 118/2/4 117/2/4 116/10/4 43/10/4 44/2/4 45/2/4
f 33/10/10 28/2/10 35/2/10 34/10/10
f 43/10/10 116/10/10 115/10/10 42/10/10
f 114/2/2 41/2/2 40/2/2 42/10/2 115/10/2 113/2/2
f 42/10/10 40/2/10 44/2/10 43/10/10
s 1
f 7/3/5 46/8/16 51/8/17 47/3/18
f 119/8/19 124/8/20 51/8/17 46/8/16
f 122/13/13 120/3/21 47/3/18 49/13/14
f 52/14/22 125/14/23 123/15/24 50/15/25
f 50/15/25 48/12/15 49/13/14 52/14/22
f 52/14/22 49/13/14 47/3/18 51/8/17
f 51/8/17 124/8/20 125/14/23 52/14/22
s 0
f 50/15/1 123/15/1 121/12/1 48/12/1
s 1
f 47/3/18 120/3/21 80/3/6 7/3/5
f 53/7/26 126/7/26 128/5/8 55/5/8
f 54/6/9 127/6/9 119/8/19 46/8/16
s 0
f 79/7/27 126/7/27 53/7/27 6/7/27 77/16/27
f 13/2/4 64/2/4 71/11/4 8/2/4
f 17/10/2 69/10/2 67/17/2 21/10/2
f 20/9/4 62/9/4 63/9/4 16/9/4
f 9/1/2 60/18/2 61/1/2 12/1/2
f 12/1/11 61/1/11 62/9/11 20/9/11
f 16/9/3 63/9/3 60/18/3 9/1/3
f 8/2/3 71/11/3 69/10/3 17/10/3
f 21/10/11 67/17/11 64/2/11 13/2/11
f 72/2/11 74/2/11 75/1/11 73/1/11
f 78/3/11 80/3/11 119/8/11 127/6/11 128/5/11 126/7/11 79/7/11
f 99/9/10 97/1/10 98/1/10 100/9/10
f 95/2/10 96/10/10 92/10/10 91/2/10
f 139/10/3 138/11/3 91/2/3 92/10/3
f 83/2/4 81/2/4 86/2/4 88/2/4
f 143/2/11 141/10/11 96/10/11 95/2/11
f 82/1/2 84/1/2 87/1/2 85/1/2
f 84/1/1 83/2/1 88/2/1 87/1/1
f 131/9/4 132/9/4 99/9/4 100/9/4
f 129/1/2 130/1/2 98/1/2 97/1/2
f 90/10/10 89/9/10 93/9/10 94/10/10
f 94/10/3 93/9/3 85/1/3 87/1/3 88/2/3 86/2/3
f 138/11/4 143/2/4 95/2/4 91/2/4
f 83/2/11 84/1/11 82/1/11 89/9/11 90/10/11 81/2/11
f 141/10/2 139/10/2 92/10/2 96/10/2
f 130/1/3 131/9/3 100/9/3 98/1/3
f 132/9/11 129/1/11 97/1/11 99/9/11
f 103/2/11 104/1/11 102/1/11 105/9/11 106/10/11 101/2/11
f 111/2/3 108/2/3 107/10/3 112/9/3 109/1/3 110/1/3
f 103/2/1 111/2/1 110/1/1 104/1/1
f 102/1/10 109/1/10 112/9/10 105/9/10
f 105/9/10 112/9/10 107/10/10 106/10/10
f 106/10/10 107/10/10 108/2/10 101/2/10
f 115/10/10 116/10/10 117/2/10 113/2/10
s 1
f 80/3/6 120/3/21 124/8/20 119/8/19
f 123/15/24 125/14/23 122/13/13 121/12/12
f 125/14/23 124/8/20 120/3/21 122/13/13
s 0
f 86/2/4 81/2/4 144/11/4 137/2/4
f 90/10/2 94/10/2 140/17/2 142/10/2
f 93/9/4 89/9/4 136/9/4 135/9/4
f 82/1/2 85/1/2 134/1/2 133/18/2
f 85/1/3 93/9/3 135/9/3 134/1/3
f 89/9/11 82/1/11 133/18/11 136/9/11
f 81/2/11 90/10/11 142/10/11 144/11/11
f 94/10/3 86/2/3 137/2/3 140/17/3
f 1/2/10 72/2/10 73/1/10 2/1/10
l 76 77
