# Blender 4.4.1
# www.blender.org
mtllib Clock_A.mtl
o Clock_A
v -0.007733 -0.004778 0.011314
v 0.007733 -0.004778 0.011314
v -0.007733 0.155079 0.011314
v 0.007733 0.155079 0.011314
v 0.007733 0.155079 0.000000
v -0.007733 0.155079 0.000000
v 0.007733 -0.004778 -0.000000
v -0.007733 -0.004778 -0.000000
vn -0.0000 -0.0000 1.0000
vn -1.0000 -0.0000 -0.0000
vn 1.0000 -0.0000 -0.0000
vn -0.0000 -1.0000 -0.0000
vn -0.0000 -0.0000 -1.0000
vn -0.0000 1.0000 -0.0000
vt 0.119070 0.941658
vt 0.151259 0.941658
vt 0.151259 0.973847
vt 0.119070 0.973847
s 0
usemtl Palette
f 1/1/1 2/2/1 4/3/1 3/4/1
f 6/4/2 8/1/2 1/1/2 3/4/2
f 7/2/3 5/3/3 4/3/3 2/2/3
f 8/1/4 7/2/4 2/2/4 1/1/4
f 8/1/5 6/4/5 5/3/5 7/2/5
f 5/3/6 6/4/6 3/4/6 4/3/6
