# Blender 4.4.1
# www.blender.org
mtllib Clock.mtl
o Clock
v 0.000000 0.200000 -0.019404
v -0.100000 0.173205 -0.019404
v -0.173205 0.100000 -0.019404
v -0.200000 0.000000 -0.019404
v -0.173205 -0.100000 -0.019404
v -0.100000 -0.173205 -0.019404
v 0.000000 -0.200000 -0.019404
v 0.100000 -0.173205 -0.019404
v 0.173205 -0.100000 -0.019404
v 0.200000 0.000000 -0.019404
v 0.173205 0.100000 -0.019404
v 0.100000 0.173205 -0.019404
v -0.083839 0.145214 0.028181
v -0.100000 0.173205 0.014808
v 0.000000 0.200000 0.014808
v 0.000000 0.167679 0.028181
v -0.145214 0.083839 0.028181
v -0.173205 0.100000 0.014808
v -0.167679 -0.000000 0.028181
v -0.200000 0.000000 0.014808
v -0.145214 -0.083839 0.028181
v -0.173205 -0.100000 0.014808
v -0.083839 -0.145214 0.028181
v -0.100000 -0.173205 0.014808
v -0.000000 -0.167679 0.028181
v 0.000000 -0.200000 0.014808
v 0.083839 -0.145214 0.028181
v 0.100000 -0.173205 0.014808
v 0.145214 -0.083839 0.028181
v 0.173205 -0.100000 0.014808
v 0.167679 -0.000000 0.028181
v 0.200000 0.000000 0.014808
v 0.145214 0.083839 0.028181
v 0.173205 0.100000 0.014808
v 0.083839 0.145214 0.028181
v 0.100000 0.173205 0.014808
v -0.000000 0.186155 0.028181
v 0.093078 0.161215 0.028181
v 0.161215 0.093078 0.028181
v 0.186155 0.000000 0.028181
v 0.161215 -0.093078 0.028181
v 0.093078 -0.161215 0.028181
v 0.000000 -0.186155 0.028181
v -0.093078 -0.161215 0.028181
v -0.161215 -0.093078 0.028181
v -0.186155 0.000000 0.028181
v -0.161215 0.093078 0.028181
v -0.093078 0.161215 0.028181
v 0.000000 0.167679 0.012385
v 0.083839 0.145214 0.012385
v 0.145214 0.083839 0.012385
v 0.167679 -0.000000 0.012385
v 0.145214 -0.083839 0.012385
v 0.083839 -0.145214 0.012385
v -0.000000 -0.167679 0.012385
v -0.083839 -0.145214 0.012385
v -0.145214 -0.083839 0.012385
v -0.167679 -0.000000 0.012385
v -0.145214 0.083839 0.012385
v -0.083839 0.145214 0.012385
vn 0.8660 0.5000 -0.0000
vn 0.5000 0.8660 -0.0000
vn 0.4647 0.8048 0.3692
vn 0.8048 0.4647 0.3692
vn -0.5000 -0.8660 -0.0000
vn -0.0000 -1.0000 -0.0000
vn -0.0000 -0.9293 0.3692
vn -0.4647 -0.8048 0.3692
vn 0.8660 -0.5000 -0.0000
vn 1.0000 -0.0000 -0.0000
vn 0.9293 -0.0000 0.3692
vn 0.8048 -0.4647 0.3692
vn 0.5000 -0.8660 -0.0000
vn 0.4647 -0.8048 0.3692
vn -0.8660 -0.5000 -0.0000
vn -0.8048 -0.4647 0.3692
vn -0.5000 0.8660 -0.0000
vn -0.8660 0.5000 -0.0000
vn -0.8048 0.4647 0.3692
vn -0.4647 0.8048 0.3692
vn -0.0000 1.0000 -0.0000
vn -0.0000 0.9293 0.3692
vn -1.0000 -0.0000 -0.0000
vn -0.9293 -0.0000 0.3692
vn -0.0000 -0.0000 -1.0000
vn -0.0000 0.4257 0.9049
vn 0.2129 0.3687 0.9049
vn 0.3687 0.2129 0.9049
vn 0.4257 -0.0000 0.9049
vn 0.3687 -0.2129 0.9049
vn 0.2129 -0.3687 0.9049
vn -0.0000 -0.4257 0.9049
vn -0.2129 -0.3687 0.9049
vn -0.3687 -0.2129 0.9049
vn -0.4257 -0.0000 0.9049
vn -0.3687 0.2129 0.9049
vn -0.2129 0.3687 0.9049
vn -0.9659 -0.2588 -0.0000
vn -0.0000 -0.0000 1.0000
vn 0.9659 -0.2588 -0.0000
vn 0.2588 0.9659 -0.0000
vn -0.9659 0.2588 -0.0000
vn 0.7071 -0.7071 -0.0000
vn -0.2588 -0.9659 -0.0000
vn 0.7071 0.7071 -0.0000
vn -0.7071 0.7071 -0.0000
vn 0.2588 -0.9659 -0.0000
vn -0.7071 -0.7071 -0.0000
vn 0.9659 0.2588 -0.0000
vn -0.2588 0.9659 -0.0000
vt 0.820972 0.716708
vt 0.814735 0.722944
vt 0.797698 0.693435
vt 0.806217 0.691153
vt 0.820972 0.699671
vt 0.823254 0.708190
vt 0.814735 0.693435
vt 0.791462 0.699671
vt 0.797698 0.722944
vt 0.791462 0.716708
vt 0.806217 0.725227
vt 0.789180 0.708190
vt 0.806217 0.724048
vt 0.814146 0.721923
vt 0.819950 0.716119
vt 0.822075 0.708190
vt 0.819950 0.700261
vt 0.814146 0.694456
vt 0.806217 0.692332
vt 0.798288 0.694457
vt 0.792484 0.700261
vt 0.790359 0.708190
vt 0.792484 0.716119
vt 0.798288 0.721923
vt 0.820521 0.708190
vt 0.818604 0.715342
vt 0.806217 0.722494
vt 0.813369 0.720577
vt 0.818604 0.701038
vt 0.813369 0.695802
vt 0.806217 0.693886
vt 0.799065 0.695803
vt 0.793830 0.701038
vt 0.791913 0.708190
vt 0.793830 0.715342
vt 0.799065 0.720577
vt 0.474704 0.786608
vt 0.443606 0.778275
vt 0.420840 0.755509
vt 0.412507 0.724411
vt 0.420840 0.693312
vt 0.443606 0.670547
vt 0.474704 0.662214
vt 0.505803 0.670546
vt 0.528568 0.693313
vt 0.536901 0.724411
vt 0.528568 0.755510
vt 0.505803 0.778276
s 1
usemtl Palette
f 11/1/1 12/2/2 36/2/3 34/1/4
f 6/3/5 7/4/6 26/4/7 24/3/8
f 9/5/9 10/6/10 32/6/11 30/5/12
f 7/4/6 8/7/13 28/7/14 26/4/7
f 5/8/15 6/3/5 24/3/8 22/8/16
f 10/6/10 11/1/1 34/1/4 32/6/11
f 2/9/17 3/10/18 18/10/19 14/9/20
f 12/2/2 1/11/21 15/11/22 36/2/3
f 8/7/13 9/5/9 30/5/12 28/7/14
f 1/11/21 2/9/17 14/9/20 15/11/22
f 4/12/23 5/8/15 22/8/16 20/12/24
s 0
f 1/11/25 12/2/25 11/1/25 10/6/25 9/5/25 8/7/25 7/4/25 6/3/25 5/8/25 4/12/25 3/10/25 2/9/25
s 1
f 3/10/18 4/12/23 20/12/24 18/10/19
f 37/13/26 38/14/27 36/2/3 15/11/22
f 38/14/27 39/15/28 34/1/4 36/2/3
f 39/15/28 40/16/29 32/6/11 34/1/4
f 40/16/29 41/17/30 30/5/12 32/6/11
f 41/17/30 42/18/31 28/7/14 30/5/12
f 42/18/31 43/19/32 26/4/7 28/7/14
f 43/19/32 44/20/33 24/3/8 26/4/7
f 44/20/33 45/21/34 22/8/16 24/3/8
f 45/21/34 46/22/35 20/12/24 22/8/16
f 46/22/35 47/23/36 18/10/19 20/12/24
f 47/23/36 48/24/37 14/9/20 18/10/19
f 48/24/37 37/13/26 15/11/22 14/9/20
s 0
f 31/25/38 33/26/38 51/26/38 52/25/38
s 1
f 16/27/39 35/28/39 38/14/27 37/13/26
f 35/28/39 33/26/39 39/15/28 38/14/27
f 33/26/39 31/25/39 40/16/29 39/15/28
f 31/25/39 29/29/39 41/17/30 40/16/29
f 29/29/39 27/30/39 42/18/31 41/17/30
f 27/30/39 25/31/39 43/19/32 42/18/31
f 25/31/39 23/32/39 44/20/33 43/19/32
f 23/32/39 21/33/39 45/21/34 44/20/33
f 21/33/39 19/34/39 46/22/35 45/21/34
f 19/34/39 17/35/39 47/23/36 46/22/35
f 17/35/39 13/36/39 48/24/37 47/23/36
f 13/36/39 16/27/39 37/13/26 48/24/37
s 0
f 17/35/40 19/34/40 58/34/40 59/35/40
f 23/32/41 25/31/41 55/31/41 56/32/41
f 29/29/42 31/25/42 52/25/42 53/29/42
f 13/36/43 17/35/43 59/35/43 60/36/43
f 35/28/44 16/27/44 49/27/44 50/28/44
f 21/33/45 23/32/45 56/32/45 57/33/45
f 27/30/46 29/29/46 53/29/46 54/30/46
f 16/27/47 13/36/47 60/36/47 49/27/47
f 33/26/48 35/28/48 50/28/48 51/26/48
f 19/34/49 21/33/49 57/33/49 58/34/49
f 25/31/50 27/30/50 54/30/50 55/31/50
usemtl BoardDocs
f 49/37/39 60/38/39 59/39/39 58/40/39 57/41/39 56/42/39 55/43/39 54/44/39 53/45/39 52/46/39 51/47/39 50/48/39
