# Blender 4.4.1
# www.blender.org
mtllib CoffeeCup_Filled.mtl
o CoffeeCup_Filled
v -0.032467 0.100530 -0.041482
v -0.008518 -0.000575 -0.056539
v -0.036787 -0.000575 -0.048964
v -0.057482 -0.000575 -0.028270
v -0.065056 -0.000575 -0.000000
v -0.057482 -0.000575 0.028269
v -0.036787 -0.000575 0.048963
v -0.008518 -0.000575 0.056538
v 0.019751 -0.000575 0.048963
v 0.040446 -0.000575 0.028269
v 0.048020 -0.000575 -0.000000
v 0.040446 -0.000575 -0.028270
v 0.019751 -0.000575 -0.048964
v -0.008518 0.100530 -0.047899
v -0.049999 0.100530 -0.023950
v -0.056417 0.100530 -0.000000
v -0.049999 0.100530 0.023949
v -0.032467 0.100530 0.041481
v -0.008518 0.100530 0.047898
v 0.015431 0.100530 0.041481
v 0.032963 0.100530 0.023949
v 0.039381 0.100530 -0.000000
v 0.032963 0.100530 -0.023950
v 0.015431 0.100530 -0.041482
v 0.043693 0.020109 0.009012
v 0.043693 0.020109 -0.009013
v 0.043693 0.013483 0.009012
v 0.043693 0.013483 -0.009013
v 0.043693 0.101968 -0.009013
v 0.043693 0.101968 0.009012
v -0.008518 0.115989 -0.056539
v 0.019751 0.115989 -0.048964
v 0.040446 0.115989 -0.028270
v 0.048020 0.115989 -0.000000
v 0.040446 0.115989 0.028269
v 0.019751 0.115989 0.048963
v -0.008518 0.115989 0.056538
v -0.036787 0.115989 0.048963
v -0.057482 0.115989 0.028269
v -0.065056 0.115989 -0.000000
v -0.057482 0.115989 -0.028270
v -0.036787 0.115989 -0.048964
v -0.008518 0.115989 -0.047899
v 0.015431 0.115989 -0.041482
v 0.032963 0.115989 -0.023950
v 0.039381 0.115989 -0.000000
v 0.032963 0.115989 0.023949
v 0.015431 0.115989 0.041481
v -0.008518 0.115989 0.047898
v -0.032467 0.115989 0.041481
v -0.049999 0.115989 0.023949
v -0.056417 0.115989 -0.000000
v -0.049999 0.115989 -0.023950
v -0.032467 0.115989 -0.041482
v 0.043693 0.095341 0.009012
v 0.043693 0.095341 -0.009013
v 0.063004 0.101968 0.009012
v 0.090767 0.074205 0.009012
v 0.073629 0.099854 0.009012
v 0.082636 0.093836 0.009012
v 0.088654 0.084829 0.009012
v 0.090767 0.074205 -0.009013
v 0.063004 0.101968 -0.009013
v 0.088654 0.084829 -0.009013
v 0.082636 0.093836 -0.009013
v 0.073629 0.099854 -0.009013
v 0.061723 0.095341 -0.009013
v 0.084467 0.072596 -0.009013
v 0.070427 0.093610 -0.009013
v 0.077806 0.088679 -0.009013
v 0.082736 0.081300 -0.009013
v 0.084467 0.072596 0.009012
v 0.061723 0.095341 0.009012
v 0.082736 0.081300 0.009012
v 0.077806 0.088679 0.009012
v 0.070427 0.093610 0.009012
v 0.084467 0.043416 -0.009013
v 0.061161 0.020109 -0.009013
v 0.082693 0.034497 -0.009013
v 0.077641 0.026936 -0.009013
v 0.070080 0.021883 -0.009013
v 0.061161 0.020109 0.009012
v 0.084467 0.043416 0.009012
v 0.070080 0.021883 0.009012
v 0.077641 0.026936 0.009012
v 0.082693 0.034497 0.009012
v 0.061868 0.013483 -0.009013
v 0.090767 0.042382 -0.009013
v 0.072927 0.015682 -0.009013
v 0.082303 0.021947 -0.009013
v 0.088567 0.031323 -0.009013
v 0.090767 0.042382 0.009012
v 0.061868 0.013483 0.009012
v 0.088567 0.031323 0.009012
v 0.082303 0.021947 0.009012
v 0.072927 0.015682 0.009012
vn 0.5000 -0.0000 0.8660
vn -0.0000 -0.0000 1.0000
vn -0.8660 -0.0000 -0.5000
vn -0.5000 -0.0000 -0.8660
vn 0.8660 -0.0000 -0.5000
vn 1.0000 -0.0000 -0.0000
vn -1.0000 -0.0000 -0.0000
vn 0.8660 -0.0000 0.5000
vn 0.0980 0.9952 -0.0000
vn -0.0000 1.0000 -0.0000
vn -0.0000 -0.0000 -1.0000
vn -0.5000 -0.0000 0.8660
vn 0.5000 -0.0000 -0.8660
vn -0.8660 -0.0000 0.5000
vn -0.0000 -1.0000 -0.0000
vn -0.9952 0.0980 -0.0000
vn -0.9952 -0.0980 -0.0000
vn -0.0980 0.9952 -0.0000
vn -0.0980 -0.9952 -0.0000
vn 0.9952 0.0980 -0.0000
vn 0.9239 0.3827 -0.0000
vn 0.7071 0.7071 -0.0000
vn 0.3827 0.9239 -0.0000
vn -0.3827 -0.9239 -0.0000
vn -0.7071 -0.7071 -0.0000
vn -0.9239 -0.3827 -0.0000
vn -0.9239 0.3827 -0.0000
vn -0.7071 0.7071 -0.0000
vn -0.3827 0.9239 -0.0000
vn 0.9952 -0.0980 -0.0000
vn 0.0980 -0.9952 -0.0000
vn 0.3827 -0.9239 -0.0000
vn 0.7071 -0.7071 -0.0000
vn 0.9239 -0.3827 -0.0000
vt 0.716484 0.771874
vt 0.707966 0.769592
vt 0.693211 0.795147
vt 0.699447 0.801383
vt 0.722720 0.795147
vt 0.725003 0.786629
vt 0.690929 0.786629
vt 0.722720 0.778110
vt 0.722720 0.795148
vt 0.707966 0.803666
vt 0.699447 0.771874
vt 0.716484 0.801383
vt 0.693211 0.778110
vt 0.714159 0.718710
vt 0.706942 0.716776
vt 0.701659 0.711493
vt 0.699726 0.704276
vt 0.701659 0.697059
vt 0.706942 0.691776
vt 0.714159 0.689843
vt 0.721376 0.691776
vt 0.726659 0.697060
vt 0.728593 0.704276
vt 0.726659 0.711493
vt 0.721376 0.716776
vt 0.720466 0.793846
vt 0.722400 0.786629
vt 0.693532 0.786629
vt 0.695466 0.793846
vt 0.715183 0.799129
vt 0.695466 0.779412
vt 0.707966 0.801062
vt 0.725003 0.786629
vt 0.700749 0.774129
vt 0.720466 0.779412
vt 0.715183 0.774129
vt 0.707966 0.772195
vt 0.700749 0.799129
s 1
usemtl Palette
f 9/1/1 36/1/1 37/2/2 8/2/2
f 4/3/3 41/3/3 42/4/4 3/4/4
f 12/5/5 33/5/5 34/6/6 11/6/6
f 5/7/7 40/7/7 41/3/3 4/3/3
f 10/8/8 35/8/8 36/1/1 9/1/1
f 57/6/9 63/9/9 29/5/10 30/6/10
f 3/4/4 42/4/4 31/10/11 2/10/11
f 8/2/2 37/2/2 38/11/12 7/11/12
f 13/12/13 32/12/13 33/5/5 12/5/5
f 6/13/14 39/13/14 40/7/7 5/7/7
s 0
f 14/14/10 1/15/10 15/16/10 16/17/10 17/18/10 18/19/10 19/20/10 20/21/10 21/22/10 22/23/10 23/24/10 24/25/10
s 1
f 7/11/12 38/11/12 39/13/14 6/13/14
s 0
f 2/10/15 13/12/15 12/5/15 11/6/15 10/8/15 9/1/15 8/2/15 7/11/15 6/13/15 5/7/15 4/3/15 3/4/15
s 1
f 11/6/6 34/6/6 35/8/8 10/8/8
f 23/26/14 22/27/7 46/27/7 45/26/14
f 16/28/6 15/29/8 53/29/8 52/28/6
f 24/30/12 23/26/14 45/26/14 44/30/12
f 17/31/5 16/28/6 52/28/6 51/31/5
f 77/5/16 83/6/16 72/6/17 68/9/17
f 14/32/2 24/30/12 44/30/12 43/32/2
s 0
f 30/6/2 55/6/2 73/6/2 76/33/2 75/33/2 74/33/2 72/6/2 83/6/2 86/6/2 85/33/2 84/33/2 82/6/2 25/6/2 27/6/2 93/6/2 96/33/2 95/33/2 94/6/2 92/6/2 58/6/2 61/33/2 60/33/2 59/6/2 57/6/2
s 1
f 18/34/13 17/31/5 51/31/5 50/34/13
s 0
f 87/5/11 28/5/11 26/5/11 78/5/11 81/9/11 80/9/11 79/9/11 77/5/11 68/5/11 71/9/11 70/5/11 69/9/11 67/9/11 56/5/11 29/5/11 63/9/11 66/9/11 65/5/11 64/9/11 62/5/11 88/9/11 91/5/11 90/5/11 89/9/11
f 43/32/10 44/30/10 32/12/10 31/10/10
f 44/30/10 45/26/10 33/5/10 32/12/10
f 45/26/10 46/27/10 34/6/10 33/5/10
f 46/27/10 47/35/10 35/8/10 34/6/10
f 47/35/10 48/36/10 36/1/10 35/8/10
f 48/36/10 49/37/10 37/2/10 36/1/10
f 49/37/10 50/34/10 38/11/10 37/2/10
f 50/34/10 51/31/10 39/13/10 38/11/10
f 51/31/10 52/28/10 40/7/10 39/13/10
f 52/28/10 53/29/10 41/3/10 40/7/10
f 53/29/10 54/38/10 42/4/10 41/3/10
f 54/38/10 43/32/10 31/10/10 42/4/10
s 1
f 78/5/18 26/5/10 25/6/10 82/6/18
f 15/29/8 1/38/1 54/38/1 53/29/8
f 22/27/7 21/35/3 47/35/3 46/27/7
f 1/38/1 14/32/2 43/32/2 54/38/1
f 21/35/3 20/36/4 48/36/4 47/35/3
f 73/6/19 55/6/15 56/5/15 67/9/19
f 20/36/4 19/37/11 49/37/11 48/36/4
f 19/37/11 18/34/13 50/34/13 49/37/11
f 2/10/11 31/10/11 32/12/13 13/12/13
f 62/5/20 64/9/21 61/33/21 58/6/20
f 64/9/21 65/5/22 60/33/22 61/33/21
f 65/5/22 66/9/23 59/6/23 60/33/22
f 66/9/23 63/9/9 57/6/9 59/6/23
f 67/9/19 69/9/24 76/33/24 73/6/19
f 69/9/24 70/5/25 75/33/25 76/33/24
f 70/5/25 71/9/26 74/33/26 75/33/25
f 71/9/26 68/9/17 72/6/17 74/33/26
f 77/5/16 79/9/27 86/6/27 83/6/16
f 79/9/27 80/9/28 85/33/28 86/6/27
f 80/9/28 81/9/29 84/33/29 85/33/28
f 81/9/29 78/5/18 82/6/18 84/33/29
f 88/5/30 62/5/20 58/6/20 92/6/30
f 87/9/31 89/9/32 96/33/32 93/6/31
f 89/9/32 90/5/33 95/33/33 96/33/32
f 90/5/33 91/5/34 94/6/34 95/33/33
f 91/5/34 88/5/30 92/6/30 94/6/34
f 87/9/31 93/6/31 27/6/15 28/5/15
