# Blender 4.4.1
# www.blender.org
mtllib CoffeeTable.mtl
o CoffeeTable
v 0.656159 -0.001885 0.295311
v 0.656159 -0.001885 0.235916
v 0.715555 -0.001885 0.295311
v 0.715555 -0.001885 0.235916
v 0.658078 -0.001885 -0.236841
v 0.658078 -0.001885 -0.294159
v 0.715395 -0.001885 -0.236841
v 0.715395 -0.001885 -0.294159
v 0.731454 0.509382 -0.314810
v 0.731454 0.509382 0.314810
v 0.731454 0.181138 0.314810
v 0.731454 0.181138 -0.314810
v 0.584029 0.215275 -0.294159
v 0.584029 0.215275 -0.236841
v 0.526711 0.215275 -0.294159
v 0.526711 0.215275 -0.236841
v 0.584188 0.215275 0.235916
v 0.584188 0.215275 0.295311
v 0.524792 0.215275 0.235916
v 0.524792 0.215275 0.295311
v 0.693125 0.220780 -0.314810
v 0.693125 0.469740 -0.314810
v 0.693125 0.220780 0.314810
v 0.693125 0.469740 0.314810
v 0.731454 0.509382 -0.104937
v 0.731454 0.509382 0.104937
v 0.731454 0.181138 0.104937
v 0.731454 0.181138 -0.104937
v -0.656159 -0.001885 0.295311
v -0.656159 -0.001885 0.235916
v -0.715555 -0.001885 0.295311
v -0.715555 -0.001885 0.235916
v -0.658078 -0.001885 -0.236841
v -0.658078 -0.001885 -0.294159
v -0.715395 -0.001885 -0.236841
v -0.715395 -0.001885 -0.294159
v -0.731454 0.509382 -0.314810
v -0.731454 0.509382 0.314810
v -0.731454 0.181138 0.314810
v -0.731454 0.181138 -0.314810
v -0.584029 0.215275 -0.294159
v -0.584029 0.215275 -0.236841
v -0.526711 0.215275 -0.294159
v -0.526711 0.215275 -0.236841
v -0.584188 0.215275 0.235916
v -0.584188 0.215275 0.295311
v -0.524792 0.215275 0.235916
v -0.524792 0.215275 0.295311
v -0.693125 0.220780 -0.314810
v -0.693125 0.469740 -0.314810
v -0.693125 0.220780 0.314810
v -0.693125 0.469740 0.314810
v -0.731454 0.509382 -0.104937
v -0.731454 0.509382 0.104937
v -0.731454 0.181138 0.104937
v -0.731454 0.181138 -0.104937
vn 0.8556 0.5176 -0.0000
vn -0.0000 -1.0000 -0.0000
vn -0.0000 -0.0000 1.0000
vn -0.0000 -0.0000 -1.0000
vn -0.0000 1.0000 -0.0000
vn 1.0000 -0.0000 -0.0000
vn -1.0000 -0.0000 -0.0000
vn -0.8556 -0.5176 -0.0000
vn -0.8556 0.5176 -0.0000
vn 0.8556 -0.5176 -0.0000
vt 0.137109 0.956626
vt 0.137109 0.966389
vt 0.127345 0.956626
vt 0.127345 0.966389
vt 0.878085 0.987365
vt 0.878484 0.987365
vt 0.878085 0.977029
vt 0.878484 0.977029
vt 0.960970 0.966952
vt 0.960970 0.970397
vt 0.878484 0.980474
vt 0.878484 0.983920
vt 0.966637 0.957689
vt 0.966637 0.968024
s 0
usemtl Palette
f 4/1/1 17/1/1 18/2/1 3/2/1
f 2/3/2 4/1/2 3/2/2 1/4/2
f 23/5/3 11/6/3 10/6/3 24/5/3
f 22/7/4 50/7/4 37/8/4 9/8/4
f 23/5/3 51/5/3 39/6/3 11/6/3
f 22/7/4 9/8/4 12/8/4 21/7/4
f 6/3/2 8/1/2 7/2/2 5/4/2
f 25/9/5 53/9/5 54/10/5 26/10/5
f 27/10/2 55/10/2 56/9/2 28/9/2
f 9/8/5 37/8/5 53/11/5 25/11/5
f 28/11/2 56/11/2 40/8/2 12/8/2
f 26/12/6 10/6/6 11/6/6 27/12/6
f 22/13/7 21/13/7 23/14/7 24/14/7
f 5/4/8 16/4/8 15/3/8 6/3/8
f 6/3/4 15/3/4 13/1/4 8/1/4
f 7/2/3 14/2/3 16/4/3 5/4/3
f 2/3/4 19/3/4 17/1/4 4/1/4
f 8/1/1 13/1/1 14/2/1 7/2/1
f 3/2/3 18/2/3 20/4/3 1/4/3
f 1/4/8 20/4/8 19/3/8 2/3/8
f 49/13/5 51/14/5 23/14/5 21/13/5
f 11/6/2 39/6/2 55/12/2 27/12/2
f 9/8/6 25/11/6 28/11/6 12/8/6
f 25/9/6 26/10/6 27/10/6 28/9/6
f 49/7/4 21/7/4 12/8/4 40/8/4
f 26/12/5 54/12/5 38/6/5 10/6/5
f 24/14/2 52/14/2 50/13/2 22/13/2
f 32/1/9 31/2/9 46/2/9 45/1/9
f 30/3/2 29/4/2 31/2/2 32/1/2
f 51/5/3 52/5/3 38/6/3 39/6/3
f 50/7/4 49/7/4 40/8/4 37/8/4
f 34/3/2 33/4/2 35/2/2 36/1/2
f 54/12/7 55/12/7 39/6/7 38/6/7
f 50/13/6 52/14/6 51/14/6 49/13/6
f 33/4/10 34/3/10 43/3/10 44/4/10
f 34/3/4 36/1/4 41/1/4 43/3/4
f 35/2/3 33/4/3 44/4/3 42/2/3
f 30/3/4 32/1/4 45/1/4 47/3/4
f 36/1/9 35/2/9 42/2/9 41/1/9
f 31/2/3 29/4/3 48/4/3 46/2/3
f 29/4/10 30/3/10 47/3/10 48/4/10
f 37/8/7 40/8/7 56/11/7 53/11/7
f 53/9/7 56/9/7 55/10/7 54/10/7
f 52/5/3 24/5/3 10/6/3 38/6/3
