# Blender 4.4.1
# www.blender.org
mtllib Computer_Keyboard.mtl
o Computer_Keyboard
v -0.219316 -0.002436 0.086127
v -0.219316 -0.002436 -0.083885
v 0.219316 -0.002436 0.086127
v 0.219316 -0.002436 -0.083885
v -0.219316 0.031692 -0.083885
v 0.219316 0.031692 -0.083885
v 0.091447 0.037618 -0.049594
v 0.194262 0.037618 -0.049595
v -0.193495 0.038896 -0.064202
v 0.061984 0.038896 -0.064200
v 0.061984 0.037250 -0.045387
v -0.193495 0.037249 -0.045385
v -0.193495 0.034909 -0.023952
v 0.123393 0.034909 -0.023951
v 0.123394 0.030359 0.028056
v 0.060628 0.030359 0.028060
v 0.060628 0.027219 0.063949
v -0.193495 0.027218 0.063953
v 0.068009 0.027219 0.063950
v 0.118246 0.027219 0.063952
v 0.118246 0.028723 0.046755
v 0.102333 0.028723 0.046754
v 0.102333 0.030093 0.031093
v 0.083541 0.030093 0.031095
v 0.083549 0.028723 0.046755
v 0.068009 0.028723 0.046756
v 0.194262 0.038896 -0.064200
v 0.091446 0.038896 -0.064202
v 0.194262 0.034991 -0.024892
v 0.194262 0.028724 0.046750
v 0.141391 0.034991 -0.024893
v 0.141391 0.028723 0.046753
v 0.091447 0.026231 -0.050590
v 0.091446 0.027510 -0.065198
v 0.194262 0.026232 -0.050592
v -0.193495 0.027510 -0.065198
v 0.061984 0.027509 -0.065196
v 0.061984 0.025863 -0.046383
v -0.193495 0.025863 -0.046381
v -0.193495 0.023523 -0.024949
v 0.123393 0.023523 -0.024947
v 0.123394 0.018973 0.027060
v 0.060628 0.018972 0.027064
v 0.060628 0.015833 0.062953
v -0.193495 0.015832 0.062957
v 0.068009 0.015832 0.062954
v 0.118246 0.015832 0.062955
v 0.118246 0.017337 0.045758
v 0.102333 0.017337 0.045758
v 0.102333 0.018707 0.030097
v 0.083541 0.018707 0.030099
v 0.083549 0.017337 0.045758
v 0.068009 0.017337 0.045760
v 0.194262 0.023605 -0.025889
v 0.194262 0.017337 0.045753
v 0.194262 0.027509 -0.065196
v 0.141391 0.017337 0.045757
v 0.141391 0.023605 -0.025890
v -0.219316 0.002872 0.086127
v -0.219316 0.019285 0.070975
v -0.219316 0.010634 0.084097
v -0.219316 0.016642 0.078551
v 0.219316 0.019285 0.070975
v 0.219316 0.002871 0.086127
v 0.219316 0.016642 0.078551
v 0.219316 0.010634 0.084097
vn -0.0000 0.9785 0.2063
vn -0.0000 0.9968 0.0799
vn -0.0000 -0.0000 -1.0000
vn -0.0000 -0.0000 1.0000
vn -0.0000 0.1275 0.9918
vn -0.0000 -1.0000 -0.0000
vn 1.0000 -0.0000 -0.0000
vn -0.0000 0.9962 0.0872
vn 0.0001 -0.0872 0.9962
vn -0.0000 -0.0872 0.9962
vn -0.0001 0.0872 -0.9962
vn -1.0000 -0.0000 -0.0000
vn -0.0000 0.0872 -0.9962
vn -1.0000 -0.0000 0.0005
vn -0.0000 0.8362 0.5485
vn -0.0000 0.4800 0.8773
vt 0.721615 0.811738
vt 0.721615 0.801430
vt 0.721615 0.790114
vt 0.721615 0.779806
vt 0.782126 0.698790
vt 0.785898 0.698790
vt 0.785898 0.710107
vt 0.782126 0.710107
vt 0.782126 0.721423
vt 0.783102 0.721423
vt 0.783102 0.732739
vt 0.782126 0.732739
vt 0.785898 0.720414
vt 0.785541 0.720919
vt 0.784514 0.721287
vt 0.789199 0.711504
vt 0.789199 0.704886
vt 0.789199 0.703844
vt 0.789199 0.711680
vt 0.789199 0.715490
vt 0.789199 0.713688
vt 0.789199 0.702792
vt 0.789199 0.698046
vt 0.789199 0.714332
vt 0.789199 0.714029
vt 0.789199 0.719251
vt 0.789199 0.718578
vt 0.789199 0.717837
vt 0.789199 0.716994
vt 0.789199 0.717733
vt 0.789199 0.716819
vt 0.789199 0.717276
vt 0.789199 0.719998
vt 0.789199 0.717639
vt 0.789199 0.721517
vt 0.789199 0.724157
vt 0.789199 0.719569
vt 0.887816 0.725170
vt 0.887816 0.727665
vt 0.887816 0.708476
vt 0.887816 0.715878
vt 0.887816 0.721694
vt 0.887816 0.720898
vt 0.887816 0.718383
vt 0.887816 0.718097
vt 0.887816 0.721507
vt 0.887816 0.715711
vt 0.887816 0.709460
vt 0.887816 0.721596
vt 0.887816 0.702999
vt 0.887816 0.723331
vt 0.887816 0.720733
vt 0.887816 0.707482
vt 0.887816 0.721165
vt 0.887816 0.723735
vt 0.887816 0.723030
vt 0.887816 0.717775
vt 0.887816 0.722394
vt 0.887816 0.719477
vt 0.721615 0.779291
vt 0.721615 0.812253
vt 0.714907 0.776010
vt 0.714907 0.787326
vt 0.713538 0.787326
vt 0.713538 0.776010
vt 0.712111 0.787326
vt 0.712111 0.776010
vt 0.782126 0.687474
vt 0.783102 0.687474
vt 0.784515 0.687609
vt 0.785541 0.687979
vt 0.785898 0.688483
s 1
usemtl Palette
f 63/1/1 6/2/2 5/3/2 60/4/1
s 0
f 2/5/3 5/6/3 6/7/3 4/8/3
s 1
f 3/9/4 64/10/5 59/11/5 1/12/4
s 0
f 2/5/6 4/8/6 3/9/6 1/12/6
f 4/8/7 6/7/7 63/13/7 65/14/7 66/15/7 64/10/7 3/9/7
f 27/16/8 28/17/8 7/18/8 8/19/8
f 10/16/8 9/17/8 12/18/8 11/19/8
f 15/20/8 14/21/8 13/22/8 18/23/8 17/24/8 16/25/8
f 21/26/8 22/27/8 23/28/8 24/29/8 25/30/8 26/31/8 19/32/8 20/33/8
f 31/34/8 32/35/8 30/36/8 29/37/8
f 32/38/9 57/38/9 55/39/9 30/39/9
f 7/40/10 33/40/10 35/41/10 8/41/10
f 23/42/11 50/42/11 51/43/11 24/43/11
f 17/44/7 44/44/7 43/45/7 16/45/7
f 31/46/12 58/46/12 57/38/12 32/38/12
f 10/47/13 37/47/13 36/48/13 9/48/13
f 24/43/14 51/43/14 52/49/14 25/49/14
f 18/50/10 45/50/10 44/44/10 17/44/10
f 29/51/13 54/51/13 58/46/13 31/46/13
f 11/41/7 38/41/7 37/47/7 10/47/7
f 25/49/11 52/49/11 53/52/11 26/52/11
f 13/53/12 40/53/12 45/50/12 18/50/12
f 12/40/10 39/40/10 38/41/10 11/41/10
f 26/52/12 53/52/12 46/54/12 19/54/12
f 19/54/10 46/54/10 47/55/10 20/55/10
f 9/48/12 36/48/12 39/40/12 12/40/12
f 30/39/7 55/39/7 54/51/7 29/51/7
f 20/55/7 47/55/7 48/56/7 21/56/7
f 14/57/13 41/57/13 40/53/13 13/53/13
f 27/47/13 56/47/13 34/48/13 28/48/13
f 21/56/13 48/56/13 49/58/13 22/58/13
f 15/59/7 42/59/7 41/57/7 14/57/7
f 8/41/7 35/41/7 56/47/7 27/47/7
f 28/48/12 34/48/12 33/40/12 7/40/12
f 22/58/7 49/58/7 50/42/7 23/42/7
f 16/45/9 43/45/9 42/59/9 15/59/9
s 1
f 63/1/1 60/4/1 62/60/15 65/61/15
f 65/62/15 62/63/15 61/64/16 66/65/16
f 66/65/16 61/64/16 59/66/5 64/67/5
s 0
f 1/68/12 59/69/12 61/70/12 62/71/12 60/72/12 5/6/12 2/5/12
