# Blender 4.4.1
# www.blender.org
mtllib Computer_Case.mtl
o Computer_Case
v 0.089343 0.092465 0.089927
v -0.087389 -0.002436 0.181106
v 0.089343 0.379632 -0.135020
v 0.089343 0.092465 -0.135020
v -0.087389 0.411443 -0.183242
v -0.087389 -0.002436 -0.183242
v 0.089343 0.370681 0.089927
v 0.089343 0.379632 0.080977
v 0.089343 0.377010 0.087306
v -0.087389 0.411443 0.136848
v -0.087389 0.367185 0.181106
v -0.087389 0.398480 0.168143
v 0.089343 0.411443 -0.183242
v 0.089343 -0.002436 -0.183242
v 0.089343 -0.002436 0.181106
v 0.089343 0.411443 0.136848
v 0.089343 0.398480 0.168143
v 0.089343 0.367185 0.181106
v -0.080485 0.318753 0.182774
v -0.080485 0.357677 0.182774
v 0.082439 0.318753 0.182774
v 0.082439 0.357677 0.182774
v 0.082439 0.318753 0.176723
v -0.080485 0.318753 0.176723
v 0.082439 0.357677 0.176723
v -0.080485 0.357677 0.176723
v -0.080485 0.276439 0.182774
v -0.080485 0.315363 0.182774
v 0.082439 0.276439 0.182774
v 0.082439 0.315363 0.182774
v 0.082439 0.276439 0.176723
v -0.080485 0.276439 0.176723
v 0.082439 0.315363 0.176723
v -0.080485 0.315363 0.176723
v -0.080485 0.233955 0.182774
v -0.080485 0.272879 0.182774
v 0.082439 0.233955 0.182774
v 0.082439 0.272879 0.182774
v 0.082439 0.233955 0.176723
v -0.080485 0.233955 0.176723
v 0.082439 0.272879 0.176723
v -0.080485 0.272879 0.176723
v -0.080485 0.192362 0.183716
v -0.080485 0.207104 0.183716
v 0.082439 0.192362 0.183716
v 0.082439 0.207104 0.183716
v 0.082439 0.192362 0.177665
v -0.080485 0.192362 0.177665
v 0.082439 0.207104 0.177665
v -0.080485 0.207104 0.177665
v -0.000000 0.137805 0.174570
v -0.000000 0.134169 0.184570
v 0.010501 0.133983 0.174570
v 0.008164 0.131197 0.184570
v 0.016089 0.124304 0.174570
v 0.012508 0.123673 0.184570
v 0.014149 0.113299 0.174570
v 0.011000 0.115117 0.184570
v 0.005588 0.106115 0.174570
v 0.004344 0.109532 0.184570
v -0.005588 0.106115 0.174570
v -0.004344 0.109532 0.184570
v -0.014149 0.113299 0.174570
v -0.011000 0.115117 0.184570
v -0.016089 0.124304 0.174570
v -0.012509 0.123673 0.184570
v -0.010502 0.133983 0.174570
v -0.008165 0.131197 0.184570
v -0.000000 0.137805 0.184570
v 0.010501 0.133983 0.184570
v 0.016089 0.124304 0.184570
v 0.014149 0.113299 0.184570
v 0.005588 0.106115 0.184570
v -0.005588 0.106115 0.184570
v -0.014149 0.113299 0.184570
v -0.016089 0.124304 0.184570
v -0.010502 0.133983 0.184570
vn -0.0000 1.0000 -0.0000
vn -0.0000 -0.0000 -1.0000
vn -1.0000 -0.0000 -0.0000
vn -0.0000 -1.0000 -0.0000
vn -0.0000 -0.0000 1.0000
vn -0.0000 0.9239 0.3827
vn -0.0000 0.3827 0.9239
vn 1.0000 -0.0000 -0.0000
vn 0.6428 0.7660 -0.0000
vn 0.9848 0.1737 -0.0000
vn 0.8660 -0.5000 -0.0000
vn 0.3420 -0.9397 -0.0000
vn -0.3420 -0.9397 -0.0000
vn -0.8660 -0.5000 -0.0000
vn -0.9848 0.1737 -0.0000
vn -0.6428 0.7660 -0.0000
vt 0.051230 0.967837
vt 0.109279 0.960292
vt 0.119127 0.960292
vt 0.121642 0.967837
vt 0.111794 0.967837
vt 0.120589 0.967837
vt 0.121539 0.967837
vt 0.116824 0.950233
vt 0.107368 0.961399
vt 0.116163 0.961399
vt 0.049620 0.967837
vt 0.049517 0.967837
vt 0.121942 0.963008
vt 0.120991 0.963008
vt 0.960708 0.703253
vt 0.960708 0.703253
vt 0.968593 0.703253
vt 0.968631 0.703253
vt 0.968558 0.703253
vt 0.968364 0.703253
vt 0.042363 0.967837
vt 0.041381 0.967837
vt 0.050249 0.967837
vt 0.042363 0.967837
vt 0.050286 0.967837
vt 0.051127 0.967837
vt 0.050214 0.967836
vt 0.050176 0.967837
vt 0.050019 0.967836
vt 0.105759 0.966227
vt 0.114554 0.966227
vt 0.114554 0.966227
vt 0.050176 0.967837
vt 0.818143 0.687745
vt 0.818143 0.721820
vt 0.814357 0.721820
vt 0.814357 0.687745
vt 0.810571 0.721820
vt 0.810571 0.687745
vt 0.806785 0.721820
vt 0.806785 0.687745
vt 0.802999 0.721820
vt 0.802999 0.687745
vt 0.799213 0.721820
vt 0.799213 0.687745
vt 0.795427 0.721820
vt 0.795427 0.687745
vt 0.791641 0.721820
vt 0.791641 0.687745
vt 0.787855 0.721820
vt 0.787855 0.687745
vt 0.784068 0.721820
vt 0.784068 0.687745
vt 0.118810 0.874031
vt 0.118039 0.874031
vt 0.120865 0.874031
vt 0.124036 0.874031
vt 0.127302 0.874031
vt 0.130567 0.874031
vt 0.133738 0.874031
vt 0.136564 0.874031
vt 0.135793 0.874031
vt 0.790721 0.721820
vt 0.807704 0.721820
vt 0.808475 0.721820
vt 0.805649 0.721820
vt 0.802478 0.721820
vt 0.799213 0.721820
vt 0.795947 0.721820
vt 0.792776 0.721820
vt 0.789950 0.721820
s 0
usemtl Palette
f 16/1/1 13/1/1 5/1/1 10/1/1
f 6/2/2 5/3/2 13/3/2 14/2/2
f 10/4/3 5/4/3 6/5/3 2/5/3 11/6/3 12/7/3
f 2/8/4 6/8/4 14/8/4 15/8/4
f 2/9/5 15/9/5 18/10/5 11/10/5
f 10/11/6 12/12/6 17/12/6 16/11/6
f 12/13/7 11/14/7 18/14/7 17/13/7
f 1/15/8 4/16/8 3/17/8 8/18/8 9/19/8 7/20/8
f 4/21/8 14/22/8 13/1/8 3/23/8
f 1/24/8 15/22/8 14/22/8 4/21/8
f 8/25/8 16/1/8 17/26/8 9/27/8
f 9/27/8 17/26/8 18/28/8 7/29/8
f 7/29/8 18/28/8 15/22/8 1/24/8
f 3/23/8 13/1/8 16/1/8 8/25/8
f 19/30/5 21/30/5 22/31/5 20/32/5
f 27/30/5 29/30/5 30/31/5 28/32/5
f 20/33/3 26/33/3 24/22/3 19/22/3
f 22/28/1 25/28/1 26/33/1 20/33/1
f 21/22/8 23/22/8 25/28/8 22/28/8
f 19/22/4 24/22/4 23/22/4 21/22/4
f 28/33/3 34/33/3 32/22/3 27/22/3
f 30/28/1 33/28/1 34/33/1 28/33/1
f 29/22/8 31/22/8 33/28/8 30/28/8
f 27/22/4 32/22/4 31/22/4 29/22/4
f 35/30/5 37/30/5 38/31/5 36/32/5
f 36/33/3 42/33/3 40/22/3 35/22/3
f 38/28/1 41/28/1 42/33/1 36/33/1
f 37/22/8 39/22/8 41/28/8 38/28/8
f 35/22/4 40/22/4 39/22/4 37/22/4
f 43/30/5 45/30/5 46/31/5 44/32/5
f 44/33/3 50/33/3 48/22/3 43/22/3
f 46/28/1 49/28/1 50/33/1 44/33/1
f 45/22/8 47/22/8 49/28/8 46/28/8
f 43/22/4 48/22/4 47/22/4 45/22/4
s 1
f 51/34/1 69/35/1 70/36/9 53/37/9
f 53/37/9 70/36/9 71/38/10 55/39/10
f 55/39/10 71/38/10 72/40/11 57/41/11
f 57/41/11 72/40/11 73/42/12 59/43/12
f 59/43/12 73/42/12 74/44/13 61/45/13
f 61/45/13 74/44/13 75/46/14 63/47/14
f 63/47/14 75/46/14 76/48/15 65/49/15
f 65/49/15 76/48/15 77/50/16 67/51/16
f 67/51/16 77/50/16 69/52/1 51/53/1
s 0
f 52/54/5 68/55/5 66/56/5 64/57/5 62/58/5 60/59/5 58/60/5 56/61/5 54/62/5
f 52/63/5 54/64/5 70/36/5 69/52/5
f 54/64/5 56/65/5 71/38/5 70/36/5
f 56/65/5 58/66/5 72/40/5 71/38/5
f 58/66/5 60/67/5 73/42/5 72/40/5
f 60/67/5 62/68/5 74/44/5 73/42/5
f 62/68/5 64/69/5 75/46/5 74/44/5
f 64/69/5 66/70/5 76/48/5 75/46/5
f 66/70/5 68/71/5 77/50/5 76/48/5
f 68/71/5 52/63/5 69/52/5 77/50/5
