# Blender 4.4.1
# www.blender.org
mtllib Computer_Old_Monitor.mtl
o Computer_Old_Monitor
v -0.195426 0.087565 0.064490
v -0.195426 0.476930 0.030425
v -0.221863 0.051706 -0.042056
v -0.221863 0.493743 -0.080730
v 0.195426 0.087565 0.064490
v 0.195426 0.476930 0.030425
v 0.221863 0.051706 -0.042056
v 0.221863 0.493743 -0.080730
v -0.173657 0.052487 -0.296375
v -0.173657 0.398480 -0.326645
v 0.173657 0.052487 -0.296375
v 0.173657 0.398480 -0.326645
v -0.221863 0.061229 0.066794
v -0.221863 0.503266 0.028121
v 0.221863 0.503266 0.028121
v 0.221863 0.061229 0.066794
v -0.180238 0.101485 0.049322
v -0.180238 0.460589 0.017905
v 0.180238 0.101485 0.049322
v 0.180238 0.460589 0.017905
v -0.135447 0.147023 0.055902
v -0.083590 0.199338 0.058882
v -0.135447 0.416885 0.032292
v -0.083590 0.365882 0.044311
v 0.135447 0.147023 0.055902
v 0.083590 0.199338 0.058882
v 0.135447 0.416885 0.032292
v 0.083590 0.365882 0.044311
v -0.063234 0.025866 -0.162834
v 0.000000 -0.003974 -0.198392
v -0.072541 -0.003974 -0.178954
v -0.125645 -0.003974 -0.125851
v -0.145082 -0.003974 -0.053310
v -0.125645 -0.003974 0.019231
v -0.072541 -0.003974 0.072335
v 0.000000 -0.003974 0.091772
v 0.072541 -0.003974 0.072335
v 0.125645 -0.003974 0.019231
v 0.145082 -0.003974 -0.053310
v 0.125645 -0.003974 -0.125851
v 0.072541 -0.003974 -0.178954
v 0.000000 0.025866 -0.179777
v -0.109524 0.025866 -0.116543
v -0.126467 0.025866 -0.053310
v -0.109524 0.025866 0.009924
v -0.063234 0.025866 0.056214
v 0.000000 0.025866 0.073158
v 0.063234 0.025866 0.056214
v 0.109524 0.025866 0.009924
v 0.126467 0.025866 -0.053310
v 0.109524 0.025866 -0.116543
v 0.063234 0.025866 -0.162834
v -0.053153 0.025866 -0.106337
v 0.002987 0.070391 -0.149219
v -0.067032 0.070391 -0.120216
v -0.096035 0.070391 -0.050197
v -0.067032 0.070391 0.019822
v 0.002987 0.070391 0.048825
v 0.073006 0.070391 0.019822
v 0.102009 0.070391 -0.050197
v 0.073006 0.070391 -0.120216
v 0.002987 0.025866 -0.129591
v -0.076407 0.025866 -0.050197
v -0.053153 0.025866 0.005943
v 0.002987 0.025866 0.029197
v 0.059127 0.025866 0.005943
v 0.082381 0.025866 -0.050197
v 0.059127 0.025866 -0.106337
vn -1.0000 -0.0000 -0.0000
vn -0.0000 0.9325 -0.3612
vn 1.0000 -0.0000 -0.0000
vn -0.0000 0.7368 0.6761
vn -0.0000 0.9962 -0.0872
vn -0.0000 -0.0872 -0.9962
vn -0.9824 -0.0163 -0.1863
vn 0.9824 -0.0163 -0.1863
vn -0.0000 -1.0000 -0.0031
vn -0.0000 0.0872 0.9962
vn 0.1159 -0.0295 0.9928
vn 0.1159 0.2014 0.9726
vn 0.1048 0.1906 0.9760
vn 0.1048 -0.0182 0.9943
vn 0.6750 0.0643 0.7350
vn -0.0000 -0.6082 0.7938
vn -0.6750 0.0643 0.7350
vn -0.1159 -0.0295 0.9928
vn -0.1048 -0.0182 0.9943
vn -0.1159 0.2014 0.9726
vn -0.1048 0.1906 0.9760
vn -0.0541 0.0330 0.9980
vn -0.0541 0.1408 0.9886
vn 0.0541 0.0330 0.9980
vn 0.0541 0.1408 0.9886
vn -0.0000 -0.9962 0.0872
vn 0.6057 0.5161 0.6057
vn -0.8273 0.5161 -0.2217
vn 0.6057 0.5161 -0.6057
vn -0.8273 0.5161 0.2217
vn 0.8273 0.5161 0.2217
vn -0.2217 0.5161 -0.8273
vn -0.6057 0.5161 -0.6057
vn 0.2217 0.5161 0.8273
vn 0.2217 0.5161 -0.8273
vn -0.6057 0.5161 0.6057
vn -0.0000 1.0000 -0.0000
vn -0.2217 0.5161 0.8273
vn -0.0000 -1.0000 -0.0000
vn 0.8273 0.5161 -0.2217
vn 0.8556 0.3772 0.3544
vn -0.3544 0.3772 0.8556
vn 0.3544 0.3772 -0.8556
vn -0.3544 0.3772 -0.8556
vn 0.3544 0.3772 0.8556
vn -0.8556 0.3772 -0.3544
vn 0.8556 0.3772 -0.3544
vn -0.8556 0.3772 0.3544
vt 0.448340 0.763399
vt 0.460236 0.763399
vt 0.460236 0.775295
vt 0.448340 0.775295
vt 0.472131 0.787190
vt 0.460236 0.787190
vt 0.448340 0.787190
vt 0.460236 0.799085
vt 0.448340 0.799085
vt 0.528911 0.791637
vt 0.528911 0.781159
vt 0.472131 0.799085
vt 0.791964 0.718093
vt 0.780068 0.718093
vt 0.449049 0.810271
vt 0.459527 0.810271
vt 0.460236 0.810980
vt 0.448340 0.810980
vt 0.459527 0.799794
vt 0.449049 0.799794
vt 0.995652 0.569069
vt 0.995652 0.999612
vt 0.942155 0.946114
vt 0.942155 0.622567
vt 0.539389 0.791637
vt 0.539389 0.781159
vt 0.565110 0.569069
vt 0.618607 0.622567
vt 0.565110 0.999612
vt 0.618607 0.946114
vt 0.680544 0.684503
vt 0.680544 0.884178
vt 0.880219 0.684503
vt 0.880219 0.884178
vt 0.804247 0.701992
vt 0.804247 0.713887
vt 0.469974 0.788051
vt 0.471804 0.789881
vt 0.463143 0.794881
vt 0.462473 0.792381
vt 0.471804 0.794881
vt 0.469974 0.796711
vt 0.471804 0.794881
vt 0.463143 0.789881
vt 0.472473 0.792381
vt 0.472474 0.792381
vt 0.467473 0.797381
vt 0.464974 0.796711
vt 0.467473 0.787381
vt 0.464974 0.788051
vt 0.793982 0.714987
vt 0.796482 0.714317
vt 0.798312 0.712487
vt 0.798982 0.709987
vt 0.798312 0.707487
vt 0.796482 0.705657
vt 0.793982 0.704987
vt 0.791482 0.705657
vt 0.789651 0.707487
vt 0.788982 0.709987
vt 0.789651 0.712487
vt 0.791482 0.714317
vt 0.469573 0.794481
s 0
usemtl Palette
f 13/1/1 14/2/1 4/3/1 3/4/1
f 4/5/2 8/6/2 12/6/2 10/5/2
f 7/7/3 8/6/3 15/8/3 16/9/3
f 1/10/4 5/11/4 19/11/4 17/10/4
f 8/6/5 4/5/5 14/12/5 15/8/5
f 9/4/6 10/3/6 12/6/6 11/7/6
f 3/4/7 4/3/7 10/3/7 9/4/7
f 8/6/8 7/7/8 11/7/8 12/6/8
f 7/13/9 3/14/9 9/14/9 11/13/9
f 1/15/10 2/16/10 14/17/10 13/18/10
f 6/19/10 5/20/10 16/9/10 15/8/10
f 5/20/10 1/15/10 13/18/10 16/9/10
f 2/16/10 6/19/10 15/8/10 14/17/10
f 2/25/15 1/10/15 17/10/15 18/25/15
f 6/26/16 2/25/16 18/25/16 20/26/16
f 5/11/17 6/26/17 20/26/17 19/11/17
f 16/35/26 13/36/26 3/36/26 7/35/26
f 37/37/27 38/38/27 49/38/27 48/37/27
f 32/39/28 33/40/28 44/40/28 43/39/28
f 40/41/29 41/42/29 52/42/29 51/43/29
f 33/40/30 34/44/30 45/44/30 44/40/30
f 38/38/31 39/45/31 50/46/31 49/38/31
f 30/47/32 31/48/32 29/48/32 42/47/32
f 31/48/33 32/39/33 43/39/33 29/48/33
f 36/49/34 37/37/34 48/37/34 47/49/34
f 41/42/35 30/47/35 42/47/35 52/42/35
f 34/44/36 35/50/36 46/50/36 45/44/36
f 42/47/37 29/48/37 43/39/37 44/40/37 45/44/37 46/50/37 47/49/37 48/37/37 49/38/37 50/46/37 51/43/37 52/42/37
f 35/50/38 36/49/38 47/49/38 46/50/38
f 30/51/39 41/52/39 40/53/39 39/54/39 38/55/39 37/56/39 36/57/39 35/58/39 34/59/39 33/60/39 32/61/39 31/62/39
f 39/45/40 40/41/40 51/43/40 50/46/40
f 55/63/41 56/63/41 63/63/41 53/63/41
f 61/63/42 54/63/42 62/63/42 68/63/42
f 57/63/43 58/63/43 65/63/43 64/63/43
f 58/63/44 59/63/44 66/63/44 65/63/44
f 54/63/45 55/63/45 53/63/45 62/63/45
f 59/63/46 60/63/46 67/63/46 66/63/46
f 56/63/47 57/63/47 64/63/47 63/63/47
f 60/63/48 61/63/48 68/63/48 67/63/48
s 1
usemtl Screen
f 19/21/11 20/22/12 27/23/13 25/24/14
f 17/27/18 19/21/11 25/24/14 21/28/19
f 20/22/12 18/29/20 23/30/21 27/23/13
f 22/31/22 24/32/23 23/30/21 21/28/19
f 24/32/23 22/31/22 26/33/24 28/34/25
f 28/34/25 26/33/24 25/24/14 27/23/13
f 21/28/19 25/24/14 26/33/24 22/31/22
f 27/23/13 23/30/21 24/32/23 28/34/25
f 18/29/20 17/27/18 21/28/19 23/30/21
