# Blender 4.4.1
# www.blender.org
mtllib Computer_Old.mtl
o Computer_Old
v -0.176152 0.148184 0.041203
v -0.176152 0.500488 0.041203
v -0.199981 0.124355 -0.057287
v -0.199981 0.524318 -0.057287
v 0.176152 0.148184 0.041203
v 0.176152 0.500488 0.041203
v 0.199981 0.124355 -0.057287
v 0.199981 0.524318 -0.057287
v -0.132485 0.169080 -0.230230
v -0.132485 0.434050 -0.230230
v 0.132485 0.169080 -0.230230
v 0.132485 0.434050 -0.230230
v -0.199981 0.124355 0.041203
v -0.199981 0.524318 0.041203
v 0.199981 0.524318 0.041203
v 0.199981 0.124355 0.041203
v -0.162462 0.161875 0.028677
v -0.162462 0.486798 0.028677
v 0.162462 0.161875 0.028677
v 0.162462 0.486798 0.028677
v -0.219316 -0.000367 0.066958
v -0.219316 0.125586 0.058090
v -0.219316 -0.000367 -0.265611
v -0.219316 0.125586 -0.265611
v 0.219316 -0.000367 0.066958
v 0.219316 0.125586 0.058090
v 0.219316 -0.000367 -0.265611
v 0.219316 0.125586 -0.265611
v -0.219316 0.041617 0.066958
v -0.219316 0.083602 0.066958
v 0.219316 0.083602 0.066958
v 0.219316 0.041617 0.066958
v -0.122088 0.202248 0.038162
v -0.075346 0.248991 0.044948
v -0.122088 0.446424 0.038162
v -0.075346 0.399682 0.044948
v 0.122088 0.202248 0.038162
v 0.075346 0.248991 0.044948
v 0.122088 0.446424 0.038162
v 0.075346 0.399682 0.044948
vn -1.0000 -0.0000 -0.0000
vn -0.0000 0.8865 -0.4627
vn 1.0000 -0.0000 -0.0000
vn -0.0000 0.6750 0.7378
vn -0.0000 1.0000 -0.0000
vn -0.0000 -0.0000 -1.0000
vn -0.9316 -0.0000 -0.3636
vn 0.9316 -0.0000 -0.3636
vn -0.0000 -0.9681 -0.2504
vn -0.0000 -0.0000 1.0000
vn 0.1159 -0.1159 0.9865
vn 0.1159 0.1159 0.9865
vn 0.1048 0.1048 0.9889
vn 0.1048 -0.1048 0.9889
vn 0.6750 -0.0000 0.7378
vn -0.0000 -0.6750 0.7378
vn -0.6750 -0.0000 0.7378
vn -0.1159 -0.1159 0.9865
vn -0.1048 -0.1048 0.9889
vn -0.1159 0.1159 0.9865
vn -0.1048 0.1048 0.9889
vn -0.0000 0.2067 0.9784
vn -0.0000 -1.0000 -0.0000
vn -0.0541 -0.0541 0.9971
vn -0.0541 0.0541 0.9971
vn 0.0541 -0.0541 0.9971
vn 0.0541 0.0541 0.9971
vt 0.371674 0.773399
vt 0.383569 0.773399
vt 0.383569 0.785295
vt 0.371674 0.785295
vt 0.395464 0.797190
vt 0.383569 0.797190
vt 0.371674 0.797190
vt 0.383569 0.809085
vt 0.371674 0.809085
vt 0.452244 0.801637
vt 0.452244 0.791159
vt 0.395464 0.809085
vt 0.791964 0.718093
vt 0.780068 0.718093
vt 0.372382 0.820271
vt 0.382860 0.820271
vt 0.383569 0.820980
vt 0.371674 0.820980
vt 0.382860 0.809794
vt 0.372382 0.809794
vt 0.995652 0.569069
vt 0.995652 0.999612
vt 0.942155 0.946114
vt 0.942155 0.622567
vt 0.462722 0.801637
vt 0.462722 0.791159
vt 0.565110 0.569069
vt 0.618607 0.622567
vt 0.565110 0.999612
vt 0.618607 0.946114
vt 0.379604 0.809085
vt 0.379604 0.820980
vt 0.542157 0.793262
vt 0.554052 0.793262
vt 0.554052 0.805157
vt 0.542157 0.805157
vt 0.375639 0.809085
vt 0.375639 0.820980
vt 0.375639 0.773399
vt 0.379604 0.773399
vt 0.680544 0.684503
vt 0.680544 0.884178
vt 0.880219 0.684503
vt 0.880219 0.884178
s 0
usemtl Palette
f 13/1/1 14/2/1 4/3/1 3/4/1
f 4/5/2 8/6/2 12/6/2 10/5/2
f 7/7/3 8/6/3 15/8/3 16/9/3
f 1/10/4 5/11/4 19/11/4 17/10/4
f 8/6/5 4/5/5 14/12/5 15/8/5
f 9/4/6 10/3/6 12/6/6 11/7/6
f 3/4/7 4/3/7 10/3/7 9/4/7
f 8/6/8 7/7/8 11/7/8 12/6/8
f 7/13/9 3/14/9 9/14/9 11/13/9
f 1/15/10 2/16/10 14/17/10 13/18/10
f 6/19/10 5/20/10 16/9/10 15/8/10
f 5/20/10 1/15/10 13/18/10 16/9/10
f 2/16/10 6/19/10 15/8/10 14/17/10
f 2/25/15 1/10/15 17/10/15 18/25/15
f 6/26/16 2/25/16 18/25/16 20/26/16
f 5/11/17 6/26/17 20/26/17 19/11/17
f 31/31/22 26/8/22 22/17/22 30/32/22
f 23/33/23 27/34/23 25/35/23 21/36/23
f 28/6/5 24/5/5 22/12/5 26/8/5
f 25/9/10 32/37/10 29/38/10 21/18/10
f 32/37/10 31/31/10 30/32/10 29/38/10
f 27/7/3 28/6/3 26/8/3 31/31/3 32/37/3 25/9/3
f 23/4/6 24/3/6 28/6/6 27/7/6
f 29/39/1 30/40/1 22/2/1 24/3/1 23/4/1 21/1/1
s 1
usemtl Screen
f 19/21/11 20/22/12 39/23/13 37/24/14
f 17/27/18 19/21/11 37/24/14 33/28/19
f 20/22/12 18/29/20 35/30/21 39/23/13
f 34/41/24 36/42/25 35/30/21 33/28/19
f 36/42/25 34/41/24 38/43/26 40/44/27
f 40/44/27 38/43/26 37/24/14 39/23/13
f 33/28/19 37/24/14 38/43/26 34/41/24
f 39/23/13 35/30/21 36/42/25 40/44/27
f 18/29/20 17/27/18 33/28/19 35/30/21
