# Blender 4.4.1
# www.blender.org
mtllib Controller_2.mtl
o Controller_2
v -0.038186 0.008482 -0.148109
v -0.045803 0.011852 0.168025
v 0.045803 0.011852 0.168025
v 0.038187 0.008482 -0.148109
v -0.039952 0.016053 0.025668
v -0.039952 0.016053 0.042057
v -0.015851 0.016053 0.042057
v -0.015851 0.016053 0.025668
v -0.039952 0.010693 0.025668
v -0.039952 0.010693 0.042057
v -0.015851 0.010693 0.042057
v -0.015851 0.010693 0.025668
v -0.027519 0.016053 -0.135382
v -0.032397 0.016053 -0.133607
v -0.034993 0.016053 -0.129111
v -0.034091 0.016053 -0.123998
v -0.030114 0.016053 -0.120661
v -0.024923 0.016053 -0.120661
v -0.020946 0.016053 -0.123998
v -0.020045 0.016053 -0.129111
v -0.022640 0.016053 -0.133607
v -0.032397 0.007976 -0.133607
v -0.027519 0.007976 -0.135382
v -0.034993 0.007976 -0.129111
v -0.034091 0.007976 -0.123998
v -0.030114 0.007976 -0.120661
v -0.024923 0.007976 -0.120661
v -0.020946 0.007976 -0.123998
v -0.020045 0.007976 -0.129111
v -0.022640 0.007976 -0.133607
v -0.011223 0.016053 0.025668
v -0.011223 0.016053 0.042057
v 0.012877 0.016053 0.042057
v 0.012877 0.016053 0.025668
v -0.011223 0.010693 0.025668
v -0.011223 0.010693 0.042057
v 0.012877 0.010693 0.042057
v 0.012877 0.010693 0.025668
v 0.015903 0.016053 0.025668
v 0.015903 0.016053 0.042057
v 0.040003 0.016053 0.042057
v 0.040003 0.016053 0.025668
v 0.015903 0.010693 0.025668
v 0.015903 0.010693 0.042057
v 0.040003 0.010693 0.042057
v 0.040003 0.010693 0.025668
v -0.039952 0.016053 0.048120
v -0.039952 0.016053 0.064509
v -0.015851 0.016053 0.064509
v -0.015851 0.016053 0.048120
v -0.039952 0.010693 0.048120
v -0.039952 0.010693 0.064509
v -0.015851 0.010693 0.064509
v -0.015851 0.010693 0.048120
v -0.011223 0.016053 0.048120
v -0.011223 0.016053 0.064509
v 0.012877 0.016053 0.064509
v 0.012877 0.016053 0.048120
v -0.011223 0.010693 0.048120
v -0.011223 0.010693 0.064509
v 0.012877 0.010693 0.064509
v 0.012877 0.010693 0.048120
v 0.015903 0.016053 0.048120
v 0.015903 0.016053 0.064509
v 0.040003 0.016053 0.064509
v 0.040003 0.016053 0.048120
v 0.015903 0.010693 0.048120
v 0.015903 0.010693 0.064509
v 0.040003 0.010693 0.064509
v 0.040003 0.010693 0.048120
v -0.039952 0.016053 0.069472
v -0.039952 0.016053 0.085861
v -0.015851 0.016053 0.085861
v -0.015851 0.016053 0.069472
v -0.039952 0.010693 0.069472
v -0.039952 0.010693 0.085861
v -0.015851 0.010693 0.085861
v -0.015851 0.010693 0.069472
v -0.011223 0.016053 0.069472
v -0.011223 0.016053 0.085861
v 0.012877 0.016053 0.085861
v 0.012877 0.016053 0.069472
v -0.011223 0.010693 0.069472
v -0.011223 0.010693 0.085861
v 0.012877 0.010693 0.085861
v 0.012877 0.010693 0.069472
v 0.015903 0.016053 0.069472
v 0.015903 0.016053 0.085861
v 0.040003 0.016053 0.085861
v 0.040003 0.016053 0.069472
v 0.015903 0.010693 0.069472
v 0.015903 0.010693 0.085861
v 0.040003 0.010693 0.085861
v 0.040003 0.010693 0.069472
v -0.039952 0.016053 0.089908
v -0.039952 0.016053 0.106296
v -0.015851 0.016053 0.106296
v -0.015851 0.016053 0.089908
v -0.039952 0.010693 0.089908
v -0.039952 0.010693 0.106296
v -0.015851 0.010693 0.106296
v -0.015851 0.010693 0.089908
v -0.011223 0.016053 0.089908
v -0.011223 0.016053 0.106296
v 0.012877 0.016053 0.106296
v 0.012877 0.016053 0.089908
v -0.011223 0.010693 0.089908
v -0.011223 0.010693 0.106296
v 0.012877 0.010693 0.106296
v 0.012877 0.010693 0.089908
v 0.015903 0.016053 0.089908
v 0.015903 0.016053 0.106296
v 0.040003 0.016053 0.106296
v 0.040003 0.016053 0.089908
v 0.015903 0.010693 0.089908
v 0.015903 0.010693 0.106296
v 0.040003 0.010693 0.106296
v 0.040003 0.010693 0.089908
v -0.005983 0.016053 -0.134076
v -0.010021 0.016053 -0.132606
v -0.012171 0.016053 -0.128884
v -0.011424 0.016053 -0.124651
v -0.008132 0.016053 -0.121888
v -0.003833 0.016053 -0.121888
v -0.000541 0.016053 -0.124651
v 0.000205 0.016053 -0.128884
v -0.001944 0.016053 -0.132606
v -0.010021 0.007976 -0.132606
v -0.005983 0.007976 -0.134076
v -0.012171 0.007976 -0.128884
v -0.011424 0.007976 -0.124651
v -0.008132 0.007976 -0.121888
v -0.003833 0.007976 -0.121888
v -0.000541 0.007976 -0.124651
v 0.000205 0.007976 -0.128884
v -0.001944 0.007976 -0.132606
v -0.039952 0.016053 -0.047212
v -0.039952 0.016053 -0.039018
v -0.015851 0.016053 -0.034921
v -0.015851 0.016053 -0.051310
v -0.039952 0.010693 -0.047212
v -0.039952 0.010693 -0.039018
v -0.015851 0.010693 -0.034921
v -0.015851 0.010693 -0.051310
v 0.015903 0.016053 -0.051310
v 0.015903 0.016053 -0.034921
v 0.040003 0.016053 -0.039018
v 0.040003 0.016053 -0.047212
v 0.015903 0.010693 -0.051310
v 0.015903 0.010693 -0.034921
v 0.040003 0.010693 -0.039018
v 0.040003 0.010693 -0.047212
v -0.004069 0.010693 -0.083089
v 0.004125 0.010693 -0.083089
v 0.008222 0.010693 -0.058988
v -0.008167 0.010693 -0.058988
v -0.004069 0.016053 -0.083089
v 0.004125 0.016053 -0.083089
v 0.008222 0.016053 -0.058988
v -0.008167 0.016053 -0.058988
v -0.008526 0.016053 -0.051310
v -0.008526 0.016053 -0.034921
v 0.010181 0.016053 -0.034921
v 0.010181 0.016053 -0.051310
v -0.008526 0.010693 -0.051310
v -0.008526 0.010693 -0.034921
v 0.010181 0.010693 -0.034921
v 0.010181 0.010693 -0.051310
v -0.008167 0.010693 -0.027234
v 0.008222 0.010693 -0.027234
v 0.004125 0.010693 -0.003134
v -0.004069 0.010693 -0.003134
v -0.008167 0.016053 -0.027234
v 0.008222 0.016053 -0.027234
v 0.004125 0.016053 -0.003134
v -0.004069 0.016053 -0.003134
v -0.035894 -0.011852 0.158116
v -0.045803 -0.001943 0.168025
v 0.035894 -0.011852 0.158116
v 0.045803 -0.001943 0.168025
v -0.038186 0.001427 -0.148109
v -0.035894 -0.011852 -0.138200
v 0.035894 -0.011852 -0.138200
v 0.038187 0.001427 -0.148109
v 0.045803 0.011852 -0.148109
v -0.045803 0.011852 -0.148109
v -0.045803 -0.001943 -0.148109
v 0.045803 -0.001943 -0.148109
vn -0.0000 -0.0000 1.0000
vn -0.0000 1.0000 -0.0000
vn 1.0000 -0.0000 -0.0000
vn -0.0000 -0.0000 -1.0000
vn -0.0000 -1.0000 -0.0000
vn -1.0000 -0.0000 -0.0000
vn -0.8660 -0.0000 -0.5000
vn 0.3420 -0.0000 -0.9397
vn 0.6428 -0.0000 0.7660
vn -0.9848 -0.0000 0.1736
vn 0.9848 -0.0000 0.1736
vn -0.6428 -0.0000 0.7660
vn -0.3420 -0.0000 -0.9397
vn 0.8660 -0.0000 -0.5000
vn -0.1676 -0.0000 -0.9859
vn -0.1676 -0.0000 0.9859
vn 0.1676 -0.0000 -0.9859
vn 0.1676 -0.0000 0.9859
vn 0.9859 -0.0000 -0.1676
vn -0.9859 -0.0000 -0.1676
vn 0.9859 -0.0000 0.1676
vn -0.9859 -0.0000 0.1676
vn -0.7071 -0.7071 -0.0000
vn -0.0000 -0.7071 0.7071
vn 0.7071 -0.7071 -0.0000
vn -0.0000 -0.7071 -0.7071
vt 0.031932 0.951544
vt 0.064121 0.951544
vt 0.064121 0.951544
vt 0.064121 0.983733
vt 0.031932 0.983733
vt 0.064121 0.983733
vt 0.148237 0.967638
vt 0.118416 0.967638
vt 0.118416 0.967638
vt 0.148237 0.967638
vt 0.035414 0.952621
vt 0.035414 0.982656
vt 0.060639 0.982656
vt 0.060639 0.952621
vt 0.197254 0.859375
vt 0.231328 0.859375
vt 0.231328 0.893449
vt 0.197254 0.893449
vt 0.810730 0.855633
vt 0.630894 0.968003
vt 0.031932 0.951544
vt 0.031932 0.983733
vt 0.062937 0.983733
vt 0.033116 0.983733
vt 0.033116 0.983733
vt 0.062937 0.983733
s 0
usemtl Palette
f 178/1/1 180/2/1 3/3/1 2/1/1
f 2/1/2 3/3/2 185/4/2 186/5/2
f 180/3/3 188/6/3 185/4/3 3/3/3
f 184/7/4 181/8/4 1/9/4 4/10/4
f 177/11/5 182/12/5 183/13/5 179/14/5
f 6/15/2 7/16/2 8/17/2 5/18/2
f 8/17/4 12/17/4 9/18/4 5/18/4
f 6/15/1 10/15/1 11/16/1 7/16/1
f 7/16/3 11/16/3 12/17/3 8/17/3
f 5/18/6 9/18/6 10/15/6 6/15/6
f 14/19/2 15/19/2 16/19/2 17/19/2 18/19/2 19/19/2 20/19/2 21/19/2 13/19/2
f 14/19/7 22/19/7 24/19/7 15/19/7
f 21/19/8 30/19/8 23/19/8 13/19/8
f 18/19/9 27/19/9 28/19/9 19/19/9
f 15/19/10 24/19/10 25/19/10 16/19/10
f 19/19/11 28/19/11 29/19/11 20/19/11
f 16/19/12 25/19/12 26/19/12 17/19/12
f 13/19/13 23/19/13 22/19/13 14/19/13
f 20/19/14 29/19/14 30/19/14 21/19/14
f 17/19/1 26/19/1 27/19/1 18/19/1
f 32/15/2 33/16/2 34/17/2 31/18/2
f 34/17/4 38/17/4 35/18/4 31/18/4
f 32/15/1 36/15/1 37/16/1 33/16/1
f 33/16/3 37/16/3 38/17/3 34/17/3
f 31/18/6 35/18/6 36/15/6 32/15/6
f 40/15/2 41/16/2 42/17/2 39/18/2
f 42/17/4 46/17/4 43/18/4 39/18/4
f 40/15/1 44/15/1 45/16/1 41/16/1
f 41/16/3 45/16/3 46/17/3 42/17/3
f 39/18/6 43/18/6 44/15/6 40/15/6
f 48/15/2 49/16/2 50/17/2 47/18/2
f 50/17/4 54/17/4 51/18/4 47/18/4
f 48/15/1 52/15/1 53/16/1 49/16/1
f 49/16/3 53/16/3 54/17/3 50/17/3
f 47/18/6 51/18/6 52/15/6 48/15/6
f 56/15/2 57/16/2 58/17/2 55/18/2
f 58/17/4 62/17/4 59/18/4 55/18/4
f 56/15/1 60/15/1 61/16/1 57/16/1
f 57/16/3 61/16/3 62/17/3 58/17/3
f 55/18/6 59/18/6 60/15/6 56/15/6
f 64/15/2 65/16/2 66/17/2 63/18/2
f 66/17/4 70/17/4 67/18/4 63/18/4
f 64/15/1 68/15/1 69/16/1 65/16/1
f 65/16/3 69/16/3 70/17/3 66/17/3
f 63/18/6 67/18/6 68/15/6 64/15/6
f 72/15/2 73/16/2 74/17/2 71/18/2
f 74/17/4 78/17/4 75/18/4 71/18/4
f 72/15/1 76/15/1 77/16/1 73/16/1
f 73/16/3 77/16/3 78/17/3 74/17/3
f 71/18/6 75/18/6 76/15/6 72/15/6
f 80/15/2 81/16/2 82/17/2 79/18/2
f 82/17/4 86/17/4 83/18/4 79/18/4
f 80/15/1 84/15/1 85/16/1 81/16/1
f 81/16/3 85/16/3 86/17/3 82/17/3
f 79/18/6 83/18/6 84/15/6 80/15/6
f 88/15/2 89/16/2 90/17/2 87/18/2
f 90/17/4 94/17/4 91/18/4 87/18/4
f 88/15/1 92/15/1 93/16/1 89/16/1
f 89/16/3 93/16/3 94/17/3 90/17/3
f 87/18/6 91/18/6 92/15/6 88/15/6
f 96/15/2 97/16/2 98/17/2 95/18/2
f 98/17/4 102/17/4 99/18/4 95/18/4
f 96/15/1 100/15/1 101/16/1 97/16/1
f 97/16/3 101/16/3 102/17/3 98/17/3
f 95/18/6 99/18/6 100/15/6 96/15/6
f 104/15/2 105/16/2 106/17/2 103/18/2
f 106/17/4 110/17/4 107/18/4 103/18/4
f 104/15/1 108/15/1 109/16/1 105/16/1
f 105/16/3 109/16/3 110/17/3 106/17/3
f 103/18/6 107/18/6 108/15/6 104/15/6
f 112/15/2 113/16/2 114/17/2 111/18/2
f 114/17/4 118/17/4 115/18/4 111/18/4
f 112/15/1 116/15/1 117/16/1 113/16/1
f 113/16/3 117/16/3 118/17/3 114/17/3
f 111/18/6 115/18/6 116/15/6 112/15/6
f 120/20/2 121/20/2 122/20/2 123/20/2 124/20/2 125/20/2 126/20/2 127/20/2 119/20/2
f 120/20/7 128/20/7 130/20/7 121/20/7
f 127/20/8 136/20/8 129/20/8 119/20/8
f 124/20/9 133/20/9 134/20/9 125/20/9
f 121/20/10 130/20/10 131/20/10 122/20/10
f 125/20/11 134/20/11 135/20/11 126/20/11
f 122/20/12 131/20/12 132/20/12 123/20/12
f 119/20/13 129/20/13 128/20/13 120/20/13
f 126/20/14 135/20/14 136/20/14 127/20/14
f 123/20/1 132/20/1 133/20/1 124/20/1
f 138/15/2 139/16/2 140/17/2 137/18/2
f 140/17/15 144/17/15 141/18/15 137/18/15
f 138/15/16 142/15/16 143/16/16 139/16/16
f 139/16/3 143/16/3 144/17/3 140/17/3
f 137/18/6 141/18/6 142/15/6 138/15/6
f 146/15/2 147/16/2 148/17/2 145/18/2
f 148/17/17 152/17/17 149/18/17 145/18/17
f 146/15/18 150/15/18 151/16/18 147/16/18
f 147/16/3 151/16/3 152/17/3 148/17/3
f 145/18/6 149/18/6 150/15/6 146/15/6
f 158/16/4 154/16/4 153/17/4 157/17/4
f 159/15/19 155/15/19 154/16/19 158/16/19
f 157/17/20 153/17/20 156/18/20 160/18/20
f 159/15/2 158/16/2 157/17/2 160/18/2
f 160/18/1 156/18/1 155/15/1 159/15/1
f 162/15/2 163/16/2 164/17/2 161/18/2
f 164/17/4 168/17/4 165/18/4 161/18/4
f 162/15/1 166/15/1 167/16/1 163/16/1
f 163/16/3 167/16/3 168/17/3 164/17/3
f 161/18/6 165/18/6 166/15/6 162/15/6
f 174/16/4 170/16/4 169/17/4 173/17/4
f 175/15/21 171/15/21 170/16/21 174/16/21
f 173/17/22 169/17/22 172/18/22 176/18/22
f 175/15/2 174/16/2 173/17/2 176/18/2
f 176/18/1 172/18/1 171/15/1 175/15/1
f 182/12/23 177/11/23 178/21/23 187/5/23
f 177/11/24 179/14/24 180/2/24 178/1/24
f 179/14/25 183/13/25 188/6/25 180/3/25
f 183/13/26 182/12/26 187/22/26 188/4/26
f 187/5/6 178/21/6 2/1/6 186/5/6
f 4/23/4 1/24/4 186/5/4 185/4/4
f 181/25/4 184/26/4 188/4/4 187/22/4
f 1/24/4 181/25/4 187/22/4 186/5/4
f 184/26/4 4/23/4 185/4/4 188/4/4
