# Blender 4.4.1
# www.blender.org
mtllib Controller_1.mtl
o Controller_1
v -0.033940 0.006851 -0.090993
v -0.033940 0.006851 -0.045214
v 0.033942 0.006851 -0.045214
v 0.033942 0.006851 -0.090993
v -0.033917 -0.013686 0.099293
v -0.042239 -0.013686 0.090971
v -0.039802 -0.013686 0.096856
v 0.042242 -0.013686 0.090971
v 0.033920 -0.013686 0.099293
v 0.039804 -0.013686 0.096856
v -0.042239 -0.013686 -0.090971
v -0.033917 -0.013686 -0.099293
v -0.039802 -0.013686 -0.096856
v 0.033920 -0.013686 -0.099293
v 0.042242 -0.013686 -0.090971
v 0.039804 -0.013686 -0.096856
v -0.033917 0.006851 -0.099293
v -0.042239 0.006851 -0.090971
v -0.036355 0.006851 -0.093409
v -0.039802 0.006851 -0.096856
v -0.042239 0.006851 0.090971
v -0.033917 0.006851 0.099293
v -0.041718 0.006851 0.090987
v -0.039802 0.006851 0.096856
v 0.033920 0.006851 0.099293
v 0.042242 0.006851 0.090971
v 0.041721 0.006851 0.090987
v 0.039804 0.006851 0.096856
v 0.042242 0.006851 -0.090971
v 0.033920 0.006851 -0.099293
v 0.036357 0.006851 -0.093409
v 0.039804 0.006851 -0.096856
v -0.029452 0.011290 -0.034434
v -0.029452 0.011290 -0.022945
v -0.003799 0.011290 -0.022945
v -0.003799 0.011290 -0.034434
v -0.029452 0.001080 -0.034434
v -0.029452 0.001080 -0.022945
v -0.003799 0.001080 -0.022945
v -0.003799 0.001080 -0.034434
v 0.004316 0.011290 -0.034434
v 0.004316 0.011290 -0.022945
v 0.029969 0.011290 -0.022945
v 0.029969 0.011290 -0.034434
v 0.004316 0.001080 -0.034434
v 0.004316 0.001080 -0.022945
v 0.029969 0.001080 -0.022945
v 0.029969 0.001080 -0.034434
v -0.029452 0.011290 0.020122
v -0.029452 0.011290 0.031611
v -0.003799 0.011290 0.031611
v -0.003799 0.011290 0.020122
v -0.029452 0.001080 0.020122
v -0.029452 0.001080 0.031611
v -0.003799 0.001080 0.031611
v -0.003799 0.001080 0.020122
v 0.004316 0.011290 0.020122
v 0.004316 0.011290 0.031611
v 0.029969 0.011290 0.031611
v 0.029969 0.011290 0.020122
v 0.004316 0.001080 0.020122
v 0.004316 0.001080 0.031611
v 0.029969 0.001080 0.031611
v 0.029969 0.001080 0.020122
v -0.029452 0.011290 0.041042
v -0.029452 0.011290 0.052531
v -0.003799 0.011290 0.052531
v -0.003799 0.011290 0.041042
v -0.029452 0.001080 0.041042
v -0.029452 0.001080 0.052531
v -0.003799 0.001080 0.052531
v -0.003799 0.001080 0.041042
v 0.004316 0.011290 0.041042
v 0.004316 0.011290 0.052531
v 0.029969 0.011290 0.052531
v 0.029969 0.011290 0.041042
v 0.004316 0.001080 0.041042
v 0.004316 0.001080 0.052531
v 0.029969 0.001080 0.052531
v 0.029969 0.001080 0.041042
vn -0.1951 -0.0000 0.9808
vn 0.1951 -0.0000 0.9808
vn -0.0000 1.0000 -0.0000
vn 0.9808 -0.0000 0.1951
vn 0.9808 -0.0000 -0.1951
vn 0.1951 -0.0000 -0.9808
vn -0.1951 -0.0000 -0.9808
vn -0.0000 -1.0000 -0.0000
vn -0.9808 -0.0000 -0.1951
vn -0.7071 -0.0000 -0.7071
vn 0.7071 -0.0000 -0.7071
vn 0.7071 -0.0000 0.7071
vn -0.9808 -0.0000 0.1951
vn -0.7071 -0.0000 0.7071
vn 1.0000 -0.0000 -0.0000
vn -1.0000 -0.0000 -0.0000
vn -0.0000 -0.0000 -1.0000
vn -0.0000 -0.0000 1.0000
vt 0.358617 0.779940
vt 0.385978 0.779940
vt 0.282063 0.782199
vt 0.309443 0.782199
vt 0.309443 0.813425
vt 0.282063 0.813425
vt 0.358608 0.781364
vt 0.358608 0.812590
vt 0.357634 0.813004
vt 0.355260 0.812586
vt 0.355260 0.781368
vt 0.355470 0.780029
vt 0.389334 0.781368
vt 0.389334 0.812586
vt 0.385978 0.814014
vt 0.358617 0.814014
vt 0.355588 0.780079
vt 0.355588 0.813875
vt 0.389007 0.813875
vt 0.389007 0.780079
vt 0.385987 0.812590
vt 0.386961 0.813004
vt 0.385987 0.781364
vt 0.389124 0.780029
vt 0.356243 0.814014
vt 0.355260 0.814014
vt 0.355260 0.780358
vt 0.355260 0.779940
vt 0.388351 0.779940
vt 0.389334 0.779940
vt 0.389334 0.813596
vt 0.389334 0.814014
vt 0.699387 0.774423
vt 0.726767 0.774423
vt 0.726767 0.805649
vt 0.699387 0.805649
s 1
usemtl Palette
f 5/1/1 9/2/2 25/2/2 22/1/1
s 0
f 2/3/3 3/4/3 4/5/3 1/6/3
f 2/7/3 1/8/3 19/9/3 18/10/3 21/11/3 23/12/3
s 1
f 8/13/4 15/14/5 29/14/5 26/13/4
f 14/15/6 12/16/7 17/16/7 30/15/6
s 0
f 5/1/8 7/17/8 6/11/8 11/10/8 13/18/8 12/16/8 14/15/8 16/19/8 15/14/8 8/13/8 10/20/8 9/2/8
f 1/8/3 4/21/3 31/22/3 30/15/3 17/16/3 19/9/3
f 4/21/3 3/23/3 27/24/3 26/13/3 29/14/3 31/22/3
f 3/23/3 2/7/3 23/12/3 22/1/3 25/2/3 27/24/3
f 17/16/3 20/25/3 19/9/3
f 20/25/3 18/26/3 19/9/3
f 21/11/3 24/27/3 23/12/3
f 24/27/3 22/28/3 23/12/3
f 25/2/3 28/29/3 27/24/3
f 28/29/3 26/30/3 27/24/3
f 29/14/3 32/31/3 31/22/3
f 32/31/3 30/32/3 31/22/3
s 1
f 11/10/9 18/10/9 20/26/10 13/18/10
f 13/18/10 20/26/10 17/16/7 12/16/7
f 29/14/5 15/14/5 16/19/11 32/32/11
f 32/32/11 16/19/11 14/15/6 30/15/6
f 8/13/4 26/13/4 28/30/12 10/20/12
f 10/20/12 28/30/12 25/2/2 9/2/2
f 21/11/13 6/11/13 7/17/14 24/28/14
f 24/28/14 7/17/14 5/1/1 22/1/1
f 11/10/9 6/11/13 21/11/13 18/10/9
s 0
f 34/33/3 35/34/3 36/35/3 33/36/3
f 42/33/3 43/34/3 44/35/3 41/36/3
f 35/34/15 39/34/15 40/35/15 36/35/15
f 33/36/16 37/36/16 38/33/16 34/33/16
f 36/35/17 40/35/17 37/36/17 33/36/17
f 34/33/18 38/33/18 39/34/18 35/34/18
f 43/34/15 47/34/15 48/35/15 44/35/15
f 41/36/16 45/36/16 46/33/16 42/33/16
f 44/35/17 48/35/17 45/36/17 41/36/17
f 42/33/18 46/33/18 47/34/18 43/34/18
f 50/33/3 51/34/3 52/35/3 49/36/3
f 58/33/3 59/34/3 60/35/3 57/36/3
f 51/34/15 55/34/15 56/35/15 52/35/15
f 49/36/16 53/36/16 54/33/16 50/33/16
f 52/35/17 56/35/17 53/36/17 49/36/17
f 50/33/18 54/33/18 55/34/18 51/34/18
f 59/34/15 63/34/15 64/35/15 60/35/15
f 57/36/16 61/36/16 62/33/16 58/33/16
f 60/35/17 64/35/17 61/36/17 57/36/17
f 58/33/18 62/33/18 63/34/18 59/34/18
f 66/33/3 67/34/3 68/35/3 65/36/3
f 74/33/3 75/34/3 76/35/3 73/36/3
f 67/34/15 71/34/15 72/35/15 68/35/15
f 65/36/16 69/36/16 70/33/16 66/33/16
f 68/35/17 72/35/17 69/36/17 65/36/17
f 66/33/18 70/33/18 71/34/18 67/34/18
f 75/34/15 79/34/15 80/35/15 76/35/15
f 73/36/16 77/36/16 78/33/16 74/33/16
f 76/35/17 80/35/17 77/36/17 73/36/17
f 74/33/18 78/33/18 79/34/18 75/34/18
