# Blender 4.4.1
# www.blender.org
mtllib Door_Handle1.mtl
o Door_Handle1
v 0.040285 -0.023150 0.003918
v 0.040285 0.023150 0.003918
v 0.040285 -0.023150 -0.052390
v 0.040285 0.023150 -0.052390
v 0.086585 -0.023150 0.048472
v 0.086585 0.023150 0.048472
v 0.086585 -0.023150 -0.052390
v 0.086585 0.023150 -0.052390
v -0.126870 -0.023150 0.003918
v -0.126870 0.023150 0.003918
v -0.126870 0.023150 0.048472
v -0.126870 -0.023150 0.048472
vn -1.0000 -0.0000 -0.0000
vn 1.0000 -0.0000 -0.0000
vn -0.0000 -0.0000 1.0000
vn -0.0000 -1.0000 -0.0000
vn -0.0000 1.0000 -0.0000
vn -0.0000 -0.0000 -1.0000
vt 0.121637 0.858299
vt 0.131947 0.858299
vt 0.131947 0.868608
vt 0.121637 0.868608
vt 0.121637 0.878918
vt 0.131947 0.878918
vt 0.131947 0.889227
vt 0.121637 0.889227
vt 0.111328 0.878918
vt 0.111328 0.889227
vt 0.142256 0.878918
vt 0.142256 0.889227
vt 0.131947 0.899536
vt 0.121637 0.899536
s 0
usemtl Palette
f 1/1/1 2/2/1 4/3/1 3/4/1
f 7/5/2 8/6/2 6/7/2 5/8/2
f 5/8/3 6/7/3 11/7/3 12/8/3
f 3/9/4 7/5/4 5/8/4 1/10/4
f 8/6/5 4/11/5 2/12/5 6/7/5
f 12/8/1 11/7/1 10/13/1 9/14/1
f 2/2/6 1/1/6 9/1/6 10/2/6
f 1/10/4 5/8/4 12/8/4 9/10/4
f 6/7/5 2/12/5 10/12/5 11/7/5
