# Blender 4.4.1
# www.blender.org
mtllib Door_Handle2.mtl
o Door_Handle2
v 0.316396 0.023150 -0.012963
v 0.316396 -0.023150 -0.012963
v 0.356596 0.023150 -0.057517
v 0.356596 -0.023150 -0.057517
v -0.316396 0.023150 -0.012963
v -0.316396 -0.023150 -0.012963
v -0.356596 -0.023150 -0.057517
v -0.356596 0.023150 -0.057517
v 0.346396 0.023150 0.035240
v 0.346396 -0.023150 0.035240
v 0.386596 0.023150 0.035240
v 0.386596 -0.023150 0.035240
v -0.346396 0.023150 0.035240
v -0.346396 -0.023150 0.035240
v -0.386596 -0.023150 0.035240
v -0.386596 0.023150 0.035240
vn -0.0000 -0.0000 -1.0000
vn -0.0000 1.0000 -0.0000
vn -0.0000 -0.0000 1.0000
vn -0.0000 -1.0000 -0.0000
vn 0.9515 -0.0000 -0.3077
vn -0.8490 -0.0000 0.5284
vn 0.8490 -0.0000 0.5284
vn -0.9515 -0.0000 -0.3077
vt 0.211306 0.895810
vt 0.221616 0.895810
vt 0.200997 0.895810
vt 0.221616 0.864882
vt 0.211306 0.864882
vt 0.231925 0.895810
s 0
usemtl Palette
f 3/1/1 4/2/1 7/2/1 8/1/1
f 5/3/2 8/1/2 16/1/2 13/3/2
f 2/4/3 1/5/3 5/5/3 6/4/3
f 1/3/2 3/1/2 8/1/2 5/3/2
f 4/2/4 2/6/4 6/6/4 7/2/4
f 2/6/4 4/2/4 12/2/4 10/6/4
f 4/2/5 3/1/5 11/1/5 12/2/5
f 3/1/2 1/3/2 9/3/2 11/1/2
f 1/5/6 2/4/6 10/4/6 9/5/6
f 6/4/7 5/5/7 13/5/7 14/4/7
f 7/2/4 6/6/4 14/6/4 15/2/4
f 8/1/8 7/2/8 15/2/8 16/1/8
