# Blender 4.4.1
# www.blender.org
mtllib Door_Frame.mtl
o Door_Frame
v -0.085113 0.000000 0.125875
v -0.085113 2.100655 0.125875
v -0.085113 0.000000 -0.125875
v -0.085113 2.100655 -0.125875
v 1.050826 0.000000 0.125875
v 1.050826 2.100655 0.125875
v 1.050826 0.000000 -0.125875
v 1.050826 2.100655 -0.125875
v 0.019107 0.000000 -0.125875
v 0.019107 0.000000 0.125875
v 0.000830 2.020291 0.125875
v 0.000830 2.020291 -0.125875
v 0.964883 2.020291 -0.125875
v 0.946606 0.000000 -0.125875
v 0.946606 0.000000 0.125875
v 0.964883 2.020291 0.125875
vn -1.0000 -0.0000 -0.0000
vn 1.0000 -0.0000 -0.0000
vn -0.0000 1.0000 -0.0000
vn 1.0000 0.0090 -0.0000
vn -1.0000 0.0090 -0.0000
vn -0.0000 -1.0000 -0.0000
vn -0.0000 -0.0000 -1.0000
vn -0.0000 -0.0000 1.0000
vt 0.034699 0.941879
vt 0.044438 0.941879
vt 0.044438 0.951618
vt 0.034699 0.951618
vt 0.034699 0.961357
vt 0.044438 0.961357
vt 0.044438 0.971096
vt 0.034699 0.971096
vt 0.054177 0.961357
vt 0.054177 0.971096
s 0
usemtl Palette
f 1/1/1 2/2/1 4/3/1 3/4/1
f 7/5/2 8/6/2 6/7/2 5/8/2
f 8/6/3 4/9/3 2/10/3 6/7/3
f 10/1/4 9/4/4 12/3/4 11/2/4
f 14/5/5 15/8/5 16/7/5 13/6/5
f 13/6/6 16/7/6 11/10/6 12/9/6
f 7/5/7 14/5/7 13/6/7 8/6/7
f 4/3/7 12/3/7 9/4/7 3/4/7
f 1/1/8 10/1/8 11/2/8 2/2/8
f 6/7/8 16/7/8 15/8/8 5/8/8
f 8/6/7 13/6/7 12/9/7 4/9/7
f 2/10/8 11/10/8 16/7/8 6/7/8
