# Blender 4.4.1
# www.blender.org
mtllib FileCabinet_Small.mtl
o FileCabinet_Small
v -0.107311 1.021875 0.310932
v 0.106561 1.021875 0.310932
v 0.106561 1.021875 -0.234318
v -0.107311 1.021875 -0.234318
v -0.131825 1.021875 0.310932
v 0.131075 1.021875 0.310932
v 0.131075 1.021875 -0.263305
v -0.131825 1.021875 -0.263305
v -0.131825 0.000000 -0.263305
v 0.131075 0.000000 -0.263305
v 0.131075 0.000000 0.310932
v -0.131825 0.000000 0.310932
v -0.107311 0.000000 -0.234318
v 0.106561 0.000000 -0.234318
v 0.106561 0.000000 0.310932
v -0.107311 0.000000 0.310932
v -0.116738 0.017541 -0.244927
v 0.115987 0.017541 -0.244927
v -0.116738 0.017541 0.306647
v 0.115987 0.017541 0.306647
v -0.116738 0.034747 -0.244927
v 0.115987 0.034747 -0.244927
v -0.116738 0.034747 0.306647
v 0.115987 0.034747 0.306647
v -0.137700 1.021875 -0.269115
v 0.136950 1.021875 -0.269115
v -0.137700 1.021875 0.333133
v 0.136950 1.021875 0.333133
v -0.137700 1.050000 -0.269115
v 0.136950 1.050000 -0.269115
v -0.137700 1.050000 0.333133
v 0.136950 1.050000 0.333133
vn -0.0000 -0.0000 1.0000
vn -1.0000 -0.0000 -0.0000
vn -0.0000 1.0000 -0.0000
vn 1.0000 -0.0000 -0.0000
vn -0.0000 -0.0000 -1.0000
vn -0.0000 -1.0000 -0.0000
vt 0.042402 0.978629
vt 0.042402 0.979085
vt 0.042402 0.967844
vt 0.042402 0.963017
vt 0.042402 0.983456
vt 0.042402 0.961540
vt 0.042402 0.984933
vt 0.042402 0.967388
s 0
usemtl Palette
f 15/1/1 11/2/1 6/2/1 2/1/1
f 14/3/2 15/1/2 2/1/2 3/3/2
f 13/4/1 14/3/1 3/3/1 4/4/1
f 1/5/3 4/4/3 8/6/3 5/7/3
f 4/4/3 3/3/3 7/8/3 8/6/3
f 3/3/3 2/1/3 6/2/3 7/8/3
f 11/2/4 10/8/4 7/8/4 6/2/4
f 9/6/2 12/7/2 5/7/2 8/6/2
f 10/8/5 9/6/5 8/6/5 7/8/5
f 16/5/4 13/4/4 4/4/4 1/5/4
f 12/7/1 16/5/1 1/5/1 5/7/1
f 13/4/6 9/6/6 10/8/6 14/3/6
f 14/3/6 10/8/6 11/2/6 15/1/6
f 16/5/6 12/7/6 9/6/6 13/4/6
f 19/4/6 17/6/6 18/8/6 20/3/6
f 23/4/3 24/3/3 22/8/3 21/6/3
f 20/3/1 24/3/1 23/4/1 19/4/1
f 27/4/6 25/6/6 26/8/6 28/3/6
f 31/4/3 32/3/3 30/8/3 29/6/3
f 28/3/1 32/3/1 31/4/1 27/4/1
f 26/8/5 25/6/5 29/6/5 30/8/5
f 28/3/4 26/8/4 30/8/4 32/3/4
f 25/6/2 27/4/2 31/4/2 29/6/2
