# Blender 4.4.1
# www.blender.org
mtllib FileCabinet_Small_Drawer_A.mtl
o FileCabinet_Small_Drawer_A
v 0.111863 -0.012462 0.278481
v 0.111863 -0.012462 -0.275955
v -0.112613 -0.012462 -0.275955
v -0.112613 -0.012462 0.278481
v -0.062293 0.114632 0.307675
v -0.062293 0.131299 0.307675
v -0.062293 0.092695 0.263473
v -0.062293 0.131299 0.263473
v 0.061128 0.114632 0.307675
v 0.061128 0.131299 0.307675
v 0.061128 0.092695 0.263473
v 0.061128 0.131299 0.263473
v 0.086339 0.002731 0.253443
v 0.086339 0.002731 -0.250917
v -0.087088 0.002731 -0.250917
v -0.087088 0.002731 0.253443
v 0.091744 0.145758 -0.255836
v 0.091744 0.145758 0.258363
v -0.092494 0.145758 0.258363
v -0.092494 0.145758 -0.255836
v -0.112613 0.145758 0.278481
v -0.112613 0.145758 -0.275955
v 0.111863 0.145758 0.278481
v 0.111863 0.145758 -0.275955
v -0.092494 0.027008 0.258363
v -0.092494 0.027008 -0.255836
v 0.091744 0.027008 0.258363
v 0.091744 0.027008 -0.255836
vn -0.0000 -1.0000 -0.0000
vn -1.0000 -0.0000 -0.0000
vn 1.0000 -0.0000 -0.0000
vn -0.0000 -0.0000 1.0000
vn -0.0000 -0.8958 0.4445
vn -0.0000 1.0000 -0.0000
vn -0.0000 -0.0000 -1.0000
vt 0.778641 0.696871
vt 0.784832 0.696871
vt 0.784832 0.709252
vt 0.778641 0.709252
vt 0.708840 0.937219
vt 0.718806 0.937219
vt 0.718806 0.947185
vt 0.708840 0.947185
vt 0.708840 0.957150
vt 0.718806 0.957150
vt 0.718806 0.967116
vt 0.708840 0.967116
vt 0.718806 0.977081
vt 0.708840 0.977081
vt 0.698875 0.957150
vt 0.698875 0.967116
vt 0.728772 0.957150
vt 0.728772 0.967116
vt 0.791023 0.709239
vt 0.791023 0.696885
vt 0.797214 0.690680
vt 0.797214 0.715443
vt 0.797214 0.709252
vt 0.797214 0.696871
vt 0.784832 0.690680
vt 0.784832 0.715443
vt 0.791023 0.715443
vt 0.791023 0.690680
vt 0.791023 0.709252
vt 0.791023 0.696871
vt 0.791023 0.714109
vt 0.791023 0.692014
s 0
usemtl Palette
f 3/1/1 2/2/1 1/3/1 4/4/1
f 5/5/2 6/6/2 8/7/2 7/8/2
f 11/9/3 12/10/3 10/11/3 9/12/3
f 9/12/4 10/11/4 6/13/4 5/14/4
f 7/15/5 11/9/5 9/12/5 5/16/5
f 12/10/6 8/17/6 6/18/6 10/11/6
f 18/19/2 17/20/2 28/20/2 27/19/2
f 15/21/6 16/22/6 13/23/6 14/24/6
f 3/25/2 4/26/2 21/27/2 22/28/2
f 1/3/4 23/29/4 21/27/4 4/26/4
f 2/2/3 24/30/3 23/29/3 1/3/3
f 3/25/7 22/28/7 24/30/7 2/2/7
f 19/31/6 20/32/6 22/28/6 21/27/6
f 18/19/6 19/31/6 21/27/6 23/29/6
f 17/20/6 18/19/6 23/29/6 24/30/6
f 20/32/6 17/20/6 24/30/6 22/28/6
f 25/31/6 27/19/6 28/20/6 26/32/6
f 20/32/3 19/31/3 25/31/3 26/32/3
f 17/20/4 20/32/4 26/32/4 28/20/4
f 19/31/7 18/19/7 27/19/7 25/31/7
