# Blender 4.4.1
# www.blender.org
mtllib Food_CheeseSlice_Copy.mtl
o Food_CheeseSlice_Copy
v 0.092743 0.004555 -0.078418
v 0.076350 0.000000 0.092742
v -0.086170 0.004555 0.092742
v 0.092743 0.000000 -0.078418
v 0.076350 0.004555 0.092742
v -0.086170 0.000000 0.092742
v 0.070292 0.000000 -0.087527
v 0.012587 0.000000 -0.092742
v -0.033403 0.000000 -0.058211
v -0.033403 0.004555 -0.058211
v 0.062693 0.000000 -0.004977
v 0.062693 0.004555 -0.004977
v -0.008001 0.000000 0.092065
v -0.008001 0.004555 0.092065
v 0.085226 0.000000 -0.014690
v -0.028934 0.000000 -0.042732
v 0.085226 0.004555 -0.014690
v -0.028934 0.004555 -0.042732
v 0.012587 0.004555 -0.092742
v 0.070292 0.004555 -0.087527
v 0.063341 0.000000 0.040356
v -0.009011 0.000000 0.072958
v -0.047508 0.000000 -0.065996
v 0.063341 0.004555 0.040356
v -0.047508 0.004555 -0.065996
v -0.009011 0.004555 0.072958
v 0.053628 0.000000 0.017823
v 0.053628 0.004555 0.017823
v -0.062987 0.000000 -0.061527
v -0.062987 0.004555 -0.061527
v 0.003785 0.000000 0.058732
v 0.003785 0.004555 0.058732
v -0.066303 0.000000 -0.031943
v -0.066303 0.004555 -0.031943
v 0.092743 0.000000 0.046575
v 0.092743 0.004555 0.046575
v -0.070772 0.000000 -0.047422
v -0.070772 0.004555 -0.047422
v -0.046278 0.000000 0.021235
v -0.046278 0.004555 0.021235
v 0.092743 0.000000 -0.011701
v 0.092743 0.004555 -0.011701
v -0.035600 0.000000 0.025658
v -0.035600 0.004555 0.025658
v 0.062325 0.000000 -0.067433
v 0.062325 0.004555 -0.067433
v -0.092741 0.000000 0.032613
v -0.092741 0.004555 0.032613
v -0.087530 0.000000 0.033408
v -0.087530 0.004555 0.033408
v 0.034559 0.000000 -0.059629
v 0.034559 0.004555 -0.059629
v -0.031177 0.000000 0.036336
v -0.031177 0.004555 0.036336
v -0.076275 0.000000 0.048716
v -0.076275 0.004555 0.048716
v -0.092741 0.000000 0.077497
v -0.061380 0.000000 0.036336
v -0.079141 0.000000 0.067498
v -0.056957 0.000000 0.047015
v 0.015046 0.000000 -0.074505
v 0.015046 0.004555 -0.074505
v -0.056957 0.000000 0.025658
v -0.052198 0.000000 -0.024158
v -0.046278 0.000000 0.051438
v -0.079141 0.004555 0.067498
v -0.035600 0.000000 0.047015
v -0.035600 0.004555 0.047015
v -0.004966 0.000000 -0.012164
v -0.036719 0.000000 -0.028626
v 0.020034 0.000000 -0.037164
v -0.092741 0.004555 0.077497
v 0.022893 0.000000 0.057721
v 0.022893 0.004555 0.057721
v 0.002356 0.000000 -0.029842
v -0.046278 0.004555 0.051438
v -0.052198 0.004555 -0.024158
v 0.037659 -0.000000 0.072020
v 0.037659 0.004555 0.072020
v -0.036719 0.004555 -0.028626
v -0.056957 0.004555 0.047015
v 0.035325 0.000000 0.092742
v 0.035325 0.004555 0.092742
v -0.007249 0.000000 0.092742
v -0.007249 0.004555 0.092742
v -0.061380 0.004555 0.036336
v -0.072967 0.000000 0.092742
v -0.062694 0.000000 0.077391
v -0.042294 0.000000 0.077427
v -0.028974 0.000000 0.092742
v 0.002356 0.000000 0.005513
v -0.056957 0.004555 0.025658
v 0.020034 0.000000 0.012836
v 0.037711 0.000000 0.005513
v 0.045034 0.000000 -0.012164
v 0.037711 0.000000 -0.029842
v -0.062694 0.004555 0.077391
v -0.042294 0.004555 0.077427
v -0.028974 0.004555 0.092742
v -0.072967 0.004555 0.092742
v 0.002356 0.004555 0.005513
v 0.020034 0.004555 0.012836
v 0.037711 0.004555 0.005513
v 0.045034 0.004555 -0.012164
v 0.037711 0.004555 -0.029842
v -0.004966 0.004555 -0.012164
v 0.020034 0.004555 -0.037164
v 0.002356 0.004555 -0.029842
v -0.092741 0.004555 -0.052777
v -0.079146 0.004555 -0.092742
v -0.079146 0.000000 -0.092742
v -0.092741 0.000000 -0.052777
v -0.083003 0.000000 -0.067196
v -0.083003 0.004555 -0.067196
v 0.092743 0.000000 0.058273
v 0.092743 0.004555 0.058273
v 0.077250 0.000000 0.069893
v 0.077250 0.004555 0.069893
vn -0.8287 -0.0000 -0.5596
vn 0.3760 -0.0000 -0.9266
vn -0.0000 -1.0000 -0.0000
vn -0.0000 1.0000 -0.0000
vn 0.9992 -0.0000 0.0393
vn -0.0000 -0.0000 1.0000
vn 1.0000 -0.0000 -0.0000
vn -0.9183 -0.0000 0.3958
vn -1.0000 -0.0000 -0.0000
vn -0.7071 -0.0000 0.7071
vn -0.7071 -0.0000 -0.7071
vn -0.0000 -0.0000 -1.0000
vn 0.7071 -0.0000 -0.7071
vn 0.7071 -0.0000 0.7071
vn 0.0143 -0.0000 0.9999
vn 0.7171 -0.0000 0.6969
vn 0.9999 -0.0000 -0.0143
vn 0.6336 -0.0000 -0.7737
vn 0.2070 -0.0000 -0.9784
vn -0.3695 -0.0000 0.9292
vn -0.1508 -0.0000 0.9886
vn -0.5177 -0.0000 0.8556
vn -0.9710 -0.0000 0.2390
vn -0.8556 -0.0000 -0.5177
vn -0.5924 -0.0000 -0.8057
vn 0.6239 -0.0000 0.7815
vn 0.9938 -0.0000 0.1114
vn 0.1114 -0.0000 -0.9938
vn 0.7815 -0.0000 -0.6239
vn -0.6239 -0.0000 -0.7815
vn -0.9938 -0.0000 -0.1114
vn -0.7815 -0.0000 0.6239
vn -0.1114 -0.0000 0.9938
vn -0.9296 -0.0000 -0.3686
vn -0.6696 -0.0000 -0.7427
vn 0.1876 -0.0000 -0.9823
vn 0.8645 -0.0000 -0.5027
vn 0.9910 -0.0000 -0.1336
vn -0.3506 -0.0000 0.9365
vn 0.4309 -0.0000 0.9024
vn -0.9412 -0.0000 0.3379
vn -0.9937 -0.0000 -0.1119
vn 0.6688 -0.0000 -0.7435
vn 0.9024 -0.0000 -0.4309
vn 0.9428 -0.0000 0.3334
vn 0.4703 -0.0000 0.8825
vn -0.4154 -0.0000 0.9096
vn -0.7545 -0.0000 0.6563
vn 0.8311 -0.0000 0.5561
vn -0.9888 -0.0000 -0.1493
vn 0.6000 -0.0000 0.8000
vt 0.876305 0.794742
vt 0.876284 0.794610
vt 0.876305 0.794744
vt 0.876625 0.794854
vt 0.876669 0.794846
vt 0.876623 0.794929
vt 0.876295 0.793819
vt 0.876321 0.793923
vt 0.876326 0.793870
vt 0.876306 0.793757
vt 0.876419 0.794472
vt 0.876429 0.794546
vt 0.876460 0.794368
vt 0.876452 0.794277
vt 0.876298 0.793274
vt 0.876284 0.793414
vt 0.876313 0.793505
vt 0.876355 0.793817
vt 0.876383 0.793870
vt 0.876395 0.793996
vt 0.876383 0.794122
vt 0.876355 0.794174
vt 0.876326 0.794122
vt 0.876284 0.793826
vt 0.876313 0.794977
vt 0.876503 0.794977
vt 0.876508 0.794810
vt 0.876549 0.794673
vt 0.876606 0.794745
vt 0.876669 0.794233
vt 0.876654 0.794260
vt 0.876597 0.794057
vt 0.876549 0.794206
vt 0.876534 0.794368
vt 0.876497 0.794435
vt 0.876436 0.794602
vt 0.876426 0.794744
vt 0.876397 0.794815
vt 0.876365 0.794774
vt 0.876349 0.794645
vt 0.876358 0.794502
vt 0.876387 0.794431
vt 0.876445 0.794206
vt 0.876460 0.794043
vt 0.876497 0.793976
vt 0.876534 0.794043
vt 0.876588 0.793962
vt 0.876608 0.793755
vt 0.876669 0.793698
vt 0.876669 0.793590
vt 0.876638 0.793490
vt 0.876637 0.793282
vt 0.876556 0.793302
vt 0.876554 0.793478
vt 0.876524 0.793595
vt 0.876485 0.793586
vt 0.876458 0.793455
vt 0.876460 0.793280
vt 0.876462 0.793274
vt 0.876417 0.793274
vt 0.876397 0.793389
vt 0.876359 0.793416
vt 0.876325 0.793274
vt 0.876542 0.794134
vt 0.876541 0.794126
vt 0.876597 0.794064
vt 0.876320 0.793931
vt 0.876307 0.793750
vt 0.876319 0.793678
vt 0.876298 0.793280
vt 0.876327 0.793312
vt 0.876550 0.793274
vt 0.876635 0.793274
vt 0.876633 0.793475
vt 0.876659 0.793571
vt 0.876656 0.793672
vt 0.876452 0.794285
vt 0.876428 0.794539
vt 0.876607 0.794171
vt 0.876314 0.793996
vt 0.879837 0.795528
vt 0.879837 0.794752
vt 0.878875 0.794752
vt 0.878875 0.795528
vt 0.877913 0.794752
vt 0.877913 0.795528
vt 0.877488 0.794752
vt 0.876950 0.794752
vt 0.876950 0.795528
vt 0.875988 0.794752
vt 0.875988 0.795528
vt 0.875026 0.794752
vt 0.875026 0.795528
vt 0.874064 0.794752
vt 0.874064 0.795528
vt 0.873639 0.794752
vt 0.873101 0.794752
vt 0.873101 0.795528
vt 0.872139 0.794752
vt 0.872139 0.795528
vt 0.872139 0.794971
vt 0.872139 0.795576
vt 0.873101 0.795576
vt 0.873101 0.794971
vt 0.874064 0.794971
vt 0.874064 0.795576
vt 0.875026 0.795576
vt 0.875026 0.794971
vt 0.875988 0.794971
vt 0.875988 0.795576
vt 0.879520 0.795576
vt 0.879837 0.795576
vt 0.879837 0.794971
vt 0.879520 0.794971
vt 0.873592 0.795576
vt 0.879142 0.795527
vt 0.879142 0.794745
vt 0.878875 0.794745
vt 0.878875 0.795527
vt 0.878406 0.795527
vt 0.877913 0.794745
vt 0.877913 0.795527
vt 0.876950 0.794745
vt 0.876950 0.795527
vt 0.876095 0.794745
vt 0.876095 0.795527
vt 0.872139 0.794565
vt 0.872139 0.795487
vt 0.873101 0.795487
vt 0.873101 0.794565
vt 0.875026 0.794565
vt 0.874064 0.794565
vt 0.874064 0.795487
vt 0.875026 0.795487
vt 0.875988 0.794565
vt 0.875988 0.795487
vt 0.876950 0.795487
vt 0.876536 0.794565
vt 0.877913 0.794565
vt 0.876950 0.794565
vt 0.877913 0.795487
vt 0.878875 0.795487
vt 0.878875 0.794565
vt 0.879837 0.795487
vt 0.879837 0.794565
vt 0.877760 0.795576
vt 0.877760 0.794971
vt 0.877173 0.794971
vt 0.877173 0.795576
vt 0.874304 0.794971
vt 0.874304 0.795576
vt 0.874115 0.794752
vt 0.874115 0.795528
vt 0.878875 0.794465
vt 0.878875 0.795465
vt 0.879837 0.795465
vt 0.879837 0.794465
vt 0.877913 0.794465
vt 0.877913 0.795465
vt 0.876950 0.794465
vt 0.876950 0.795465
vt 0.875988 0.794465
vt 0.875988 0.795465
vt 0.875026 0.794465
vt 0.875026 0.795465
vt 0.874064 0.794465
vt 0.874561 0.795465
vt 0.874064 0.795465
vt 0.873101 0.794465
vt 0.873101 0.795465
vt 0.872139 0.794465
vt 0.872139 0.795465
vt 0.879837 0.795527
vt 0.879837 0.794745
vt 0.878083 0.794745
vt 0.878083 0.795527
vt 0.873101 0.795527
vt 0.873101 0.794745
vt 0.872139 0.794745
vt 0.872139 0.795527
s 0
usemtl Palette
f 113/1/1 112/2/1 109/2/1 114/3/1
f 20/4/2 1/5/2 4/5/2 7/6/2
f 49/7/3 58/8/3 60/9/3 55/10/3
f 70/11/3 16/12/3 75/13/3 69/14/3
f 6/15/3 57/16/3 59/17/3 55/10/3 60/9/3 65/18/3 67/19/3 53/20/3 43/21/3 39/22/3 63/23/3 58/8/3 49/7/3 47/24/3 112/2/3 113/1/3 111/25/3 8/26/3 61/27/3 51/28/3 45/29/3 7/6/3 4/5/3 41/30/3 15/31/3 11/32/3 95/33/3 96/34/3 71/35/3 75/13/3 16/36/3 9/37/3 23/38/3 29/39/3 37/40/3 33/41/3 64/42/3 70/11/3 69/43/3 91/44/3 93/45/3 94/46/3 27/47/3 21/48/3 35/49/3 115/50/3 117/51/3 2/52/3 82/53/3 78/54/3 73/55/3 31/56/3 22/57/3 13/58/3 84/59/3 90/60/3 89/61/3 88/62/3 87/63/3
f 95/64/3 11/32/3 27/47/3 94/46/3
f 104/65/4 103/46/4 28/47/4 12/66/4
f 81/9/4 86/67/4 50/7/4 56/68/4
f 81/9/4 56/69/4 66/17/4 72/16/4 3/70/4 100/71/4 97/62/4 98/61/4 99/60/4 85/59/4 14/58/4 26/57/4 32/56/4 74/55/4 79/54/4 83/72/4 5/73/4 118/74/4 116/75/4 36/76/4 24/48/4 28/47/4 103/46/4 102/45/4 101/44/4 106/77/4 80/11/4 77/42/4 34/41/4 38/40/4 30/39/4 25/38/4 10/37/4 18/78/4 108/13/4 107/35/4 105/34/4 104/65/4 12/79/4 17/31/4 42/30/4 1/5/4 20/4/4 46/29/4 52/28/4 62/27/4 19/26/4 110/25/4 114/3/4 109/2/4 48/24/4 50/7/4 86/80/4 92/23/4 40/22/4 44/21/4 54/20/4 68/19/4 76/18/4
f 18/78/4 80/11/4 106/77/4 108/13/4
f 117/51/5 118/74/5 5/73/5 2/52/5
f 90/60/6 84/59/6 85/59/6 99/60/6
f 100/63/6 3/70/6 6/15/6 87/63/6
f 41/30/7 4/5/7 1/5/7 42/30/7
f 6/15/8 3/70/8 72/16/8 57/16/8
f 48/24/9 109/2/9 112/2/9 47/24/9
s 1
f 107/81/6 71/82/6 96/83/10 105/84/10
f 96/83/10 95/85/9 104/86/9 105/84/10
f 95/87/9 94/88/11 103/89/11 104/86/9
f 94/88/11 93/90/12 102/91/12 103/89/11
f 93/90/12 91/92/13 101/93/13 102/91/12
f 101/93/13 91/92/13 69/94/7 106/95/7
f 106/95/7 69/96/7 75/97/14 108/98/14
f 108/98/14 75/97/14 71/99/6 107/100/6
f 15/101/15 17/102/15 12/103/16 11/104/16
f 27/105/17 28/106/17 24/107/18 21/108/18
f 35/109/19 21/108/18 24/107/18 36/110/19
f 42/111/20 17/112/15 15/113/15 41/114/20
f 12/115/16 28/106/17 27/105/17 11/104/16
f 48/116/21 47/117/21 49/118/22 50/119/22
f 56/120/23 50/119/22 49/118/22 55/121/23
f 56/122/23 55/121/23 59/123/24 66/124/24
f 59/123/24 57/125/25 72/126/25 66/124/24
f 29/127/26 30/128/26 38/129/27 37/130/27
f 64/131/28 33/132/29 34/133/29 77/134/28
f 70/135/30 64/131/28 77/134/28 80/136/30
f 18/137/31 16/138/31 70/135/30 80/136/30
f 9/139/32 16/140/31 18/137/31 10/141/32
f 25/142/33 23/143/33 9/139/32 10/141/32
f 30/144/26 29/145/26 23/143/33 25/142/33
f 37/130/27 38/129/27 34/133/29 33/132/29
f 20/146/34 7/147/34 45/148/35 46/149/35
f 46/149/35 45/148/35 51/109/36 52/110/36
f 52/110/36 51/109/36 61/108/37 62/107/37
f 8/150/38 19/151/38 62/107/37 61/108/37
f 73/83/39 74/84/39 32/81/40 31/82/40
f 78/85/41 79/86/41 74/84/39 73/83/39
f 79/86/41 78/85/41 82/88/42 83/89/42
f 84/152/43 13/94/44 14/95/44 85/153/43
f 22/97/45 26/98/45 14/95/44 13/94/44
f 31/99/40 32/100/40 26/98/45 22/97/45
f 43/154/10 44/155/10 40/156/6 39/157/6
f 44/155/10 43/154/10 53/158/9 54/159/9
f 54/159/9 53/158/9 67/160/11 68/161/11
f 67/160/11 65/162/12 76/163/12 68/161/11
f 65/162/12 60/164/13 81/165/13 76/163/12
f 81/165/13 60/164/13 58/166/7 86/167/7
f 86/168/7 58/166/7 63/169/14 92/170/14
f 92/170/14 63/169/14 39/171/6 40/172/6
f 97/173/46 88/174/46 89/118/47 98/119/47
f 89/118/47 90/175/48 99/176/48 98/119/47
f 100/177/49 87/178/49 88/179/46 97/180/46
s 0
f 116/50/7 115/50/7 35/49/7 36/49/7
f 111/25/12 110/25/12 19/26/12 8/26/12
f 113/1/50 114/3/50 110/25/50 111/25/50
f 2/73/6 5/73/6 83/72/6 82/72/6
f 117/51/51 115/50/51 116/50/51 118/74/51
