# Blender 4.4.1
# www.blender.org
mtllib Food_LettuceSlice.mtl
o Food_LettuceSlice
v -0.026317 -0.000209 0.120186
v -0.001363 0.002065 0.122600
v -0.040120 -0.003620 0.095807
v -0.066885 -0.000209 0.095666
v -0.105405 -0.000209 0.050376
v -0.092960 -0.000209 -0.022315
v -0.075314 -0.003620 -0.005885
v -0.058430 0.002065 -0.036098
v -0.051413 -0.000209 -0.081547
v -0.019454 -0.000209 -0.063829
v -0.006794 -0.000209 -0.085613
v 0.026370 -0.005555 -0.099491
v 0.070117 -0.000209 -0.080267
v 0.050873 0.001352 -0.053349
v 0.094824 -0.000209 -0.047472
v 0.087822 -0.000209 -0.026302
v 0.115850 -0.005319 -0.028480
v 0.106135 -0.005319 0.012536
v 0.068148 -0.000209 0.022477
v 0.057805 -0.000209 0.047881
v 0.081105 -0.005319 0.046134
v 0.054803 0.001352 0.089491
v 0.022838 -0.005555 0.096642
v -0.074854 -0.003620 0.041777
v -0.021051 0.002065 0.066052
v -0.037968 0.002065 0.007672
v 0.011755 -0.005555 -0.060580
v 0.001913 -0.005555 -0.029085
v -0.001368 -0.005555 0.025374
v 0.036033 0.001352 -0.013996
v 0.034063 0.001352 0.026027
v -0.001060 0.013193 0.122623
v -0.026014 0.008714 0.120209
v -0.039817 0.005303 0.095830
v -0.066582 0.008714 0.095689
v -0.105102 0.005239 0.050399
v -0.092657 0.005239 -0.022291
v -0.075011 0.005303 -0.005862
v -0.058127 0.010988 -0.036075
v -0.051110 0.004469 -0.081524
v -0.019151 0.006674 -0.063806
v -0.006491 0.008714 -0.085590
v 0.026673 0.000589 -0.099468
v 0.070420 0.004684 -0.080244
v 0.051176 0.007292 -0.053325
v 0.095127 0.005731 -0.047449
v 0.088125 0.005731 -0.026279
v 0.116153 -0.000241 -0.028457
v 0.106438 -0.000241 0.012559
v 0.068450 0.008714 0.022500
v 0.058108 0.008714 0.047904
v 0.081408 0.003604 0.046157
v 0.055105 0.010276 0.089515
v 0.023141 0.000589 0.096665
v -0.074552 0.005303 0.041800
v -0.037665 0.013193 0.007696
v -0.020749 0.013193 0.066075
v 0.012058 0.000589 -0.060557
v 0.002216 0.000589 -0.029062
v -0.001065 0.000589 0.025397
v 0.036335 0.010276 -0.013973
v 0.034366 0.010276 0.026050
vn -0.2219 -0.9721 0.0762
vn -0.1064 -0.9912 0.0785
vn 0.1624 -0.9864 -0.0256
vn 0.1192 -0.9892 0.0848
vn -0.0334 -0.9994 -0.0121
vn -0.0478 -0.9987 -0.0193
vn 0.1319 -0.9894 -0.0606
vn -0.2158 -0.9761 0.0261
vn 0.1944 -0.9788 -0.0648
vn -0.1874 -0.9798 -0.0704
vn -0.2078 -0.9779 -0.0227
vn -0.1615 -0.9845 -0.0682
vn 0.1637 -0.9858 -0.0374
vn -0.0363 -0.9989 0.0309
vn -0.1379 -0.9903 -0.0137
vn 0.1925 -0.9812 0.0107
vn 0.1678 -0.9841 0.0585
vn -0.0305 -0.9995 -0.0015
vn -0.1623 -0.9853 -0.0531
vn -0.0735 -0.9973 0.0086
vn -0.2126 -0.9769 0.0213
vn 0.3506 0.9287 -0.1204
vn 0.0478 0.9964 -0.0701
vn -0.2370 0.9698 0.0572
vn -0.1001 0.9908 -0.0908
vn 0.0618 0.9977 -0.0269
vn 0.0411 0.9982 -0.0445
vn -0.1813 0.9799 0.0833
vn 0.3432 0.9383 -0.0415
vn -0.2672 0.9595 0.0891
vn 0.2776 0.9550 0.1043
vn 0.2915 0.9565 -0.0117
vn 0.1788 0.9774 0.1129
vn -0.2156 0.9761 0.0258
vn 0.0369 0.9940 -0.1028
vn -0.0026 1.0000 -0.0003
vn -0.2652 0.9641 -0.0147
vn -0.1863 0.9768 -0.1060
vn 0.0885 0.9961 0.0044
vn 0.2277 0.9728 0.0422
vn 0.0735 0.9973 -0.0086
vn 0.2126 0.9769 -0.0213
vn 0.4039 -0.0183 -0.9146
vn -0.9841 0.0554 -0.1685
vn -0.0737 0.0051 -0.9973
vn 0.8108 -0.0478 0.5833
vn 0.6799 -0.0263 -0.7329
vn 0.8525 -0.0303 0.5218
vn 0.1324 -0.0029 -0.9912
vn -0.8750 0.0310 -0.4832
vn 0.2212 -0.0119 0.9751
vn 0.9482 -0.0496 0.3136
vn -0.9867 0.0445 -0.1566
vn 0.7258 -0.0273 0.6873
vn -0.0964 0.0006 0.9953
vn -0.0758 0.0084 -0.9971
vn 0.4853 -0.0219 -0.8741
vn -0.8715 0.0283 0.4895
vn 0.9714 -0.0590 0.2301
vn -0.8648 0.0346 -0.5009
vn -0.0056 -0.0024 1.0000
vn 0.2507 -0.0141 0.9680
vn -0.3828 0.0182 -0.9236
vn -0.7620 0.0300 0.6469
vn 0.9257 -0.0324 0.3769
vt 0.882767 0.861616
vt 0.878510 0.887958
vt 0.883052 0.879216
vt 0.885236 0.866534
vt 0.878870 0.865625
vt 0.875622 0.867443
vt 0.869776 0.878226
vt 0.873543 0.877438
vt 0.879520 0.861616
vt 0.889003 0.900572
vt 0.889523 0.897844
vt 0.891991 0.894855
vt 0.884940 0.894575
vt 0.897837 0.893557
vt 0.894849 0.886931
vt 0.888467 0.886761
vt 0.891861 0.881085
vt 0.888053 0.879687
vt 0.879080 0.891991
vt 0.883307 0.889073
vt 0.890432 0.870302
vt 0.882767 0.898492
vt 0.879649 0.896025
vt 0.871465 0.881085
vt 0.874583 0.889789
vt 0.873413 0.898234
vt 0.869646 0.883942
vt 0.902644 0.888879
vt 0.899137 0.884722
vt 0.893550 0.877577
vt 0.895499 0.874069
s 0
usemtl Palette
f 2/1/1 25/2/1 29/3/1 23/4/1
f 3/5/2 4/6/2 5/7/2 24/8/2
f 2/1/3 1/9/3 3/5/3 25/2/3
f 12/10/4 13/11/4 14/12/4 27/13/4
f 14/12/5 15/14/5 16/15/5 30/16/5
f 16/15/6 19/17/6 31/18/6
f 3/5/7 24/8/7 26/19/7 25/2/7
f 25/2/8 26/19/8 28/20/8 29/3/8
f 31/18/9 22/21/9 23/4/9 29/3/9
f 11/22/10 12/10/10 27/13/10
f 26/19/11 10/23/11 28/20/11
f 10/23/12 11/22/12 27/13/12 28/20/12
f 24/8/13 7/24/13 8/25/13 26/19/13
f 8/25/14 9/26/14 10/23/14 26/19/14
f 5/7/15 6/27/15 7/24/15 24/8/15
f 30/16/16 31/18/16 29/3/16 28/20/16
f 14/12/17 30/16/17 28/20/17 27/13/17
f 16/15/18 31/18/18 30/16/18
f 19/17/19 16/15/19 17/28/19 18/29/19
f 19/17/20 20/30/20 22/21/20 31/18/20
f 20/30/21 21/31/21 22/21/21
f 32/1/22 54/4/22 60/3/22 57/2/22
f 34/5/23 55/8/23 36/7/23 35/6/23
f 32/1/24 57/2/24 34/5/24 33/9/24
f 43/10/25 58/13/25 45/12/25 44/11/25
f 45/12/26 61/16/26 47/15/26 46/14/26
f 47/15/27 62/18/27 50/17/27
f 34/5/28 57/2/28 56/19/28 55/8/28
f 57/2/29 60/3/29 59/20/29 56/19/29
f 62/18/30 60/3/30 54/4/30 53/21/30
f 42/22/31 58/13/31 43/10/31
f 56/19/32 59/20/32 41/23/32
f 41/23/33 59/20/33 58/13/33 42/22/33
f 55/8/34 56/19/34 39/25/34 38/24/34
f 39/25/35 56/19/35 41/23/35 40/26/35
f 36/7/36 55/8/36 38/24/36 37/27/36
f 61/16/37 59/20/37 60/3/37 62/18/37
f 45/12/38 58/13/38 59/20/38 61/16/38
f 47/15/39 61/16/39 62/18/39
f 50/17/40 49/29/40 48/28/40 47/15/40
f 50/17/41 62/18/41 53/21/41 51/30/41
f 51/30/42 53/21/42 52/31/42
f 13/11/43 12/10/43 43/10/43 44/11/43
f 6/27/44 5/7/44 36/7/44 37/27/44
f 21/31/45 20/30/45 51/30/45 52/31/45
f 14/12/46 13/11/46 44/11/46 45/12/46
f 7/24/47 6/27/47 37/27/47 38/24/47
f 22/21/48 21/31/48 52/31/48 53/21/48
f 15/14/49 14/12/49 45/12/49 46/14/49
f 8/25/50 7/24/50 38/24/50 39/25/50
f 23/4/51 22/21/51 53/21/51 54/4/51
f 16/15/52 15/14/52 46/14/52 47/15/52
f 9/26/53 8/25/53 39/25/53 40/26/53
f 2/1/54 23/4/54 54/4/54 32/1/54
f 1/9/55 2/1/55 32/1/55 33/9/55
f 17/28/56 16/15/56 47/15/56 48/28/56
f 10/23/57 9/26/57 40/26/57 41/23/57
f 3/5/58 1/9/58 33/9/58 34/5/58
f 18/29/59 17/28/59 48/28/59 49/29/59
f 11/22/60 10/23/60 41/23/60 42/22/60
f 4/6/61 3/5/61 34/5/61 35/6/61
f 19/17/62 18/29/62 49/29/62 50/17/62
f 12/10/63 11/22/63 42/22/63 43/10/63
f 5/7/64 4/6/64 35/6/64 36/7/64
f 20/30/65 19/17/65 50/17/65 51/30/65
