# Blender 4.4.1
# www.blender.org
mtllib Fruit_Banana.mtl
o Fruit_Banana
v -0.004947 0.006329 0.011783
v 0.004948 0.006329 0.011783
v -0.004947 0.003993 0.002209
v 0.004948 0.003993 0.002209
v -0.006541 0.235335 0.005657
v 0.006541 0.235335 0.005657
v -0.006529 0.235270 -0.008804
v 0.006529 0.235270 -0.008803
v 0.011449 0.215929 -0.024462
v 0.011451 0.215937 -0.001173
v -0.011451 0.215937 -0.001173
v -0.011449 0.215929 -0.024462
v 0.016299 0.137613 -0.016339
v -0.016299 0.137613 -0.048937
v 0.016299 0.137613 -0.048937
v -0.016299 0.137613 -0.016339
v 0.015931 0.081665 -0.012223
v -0.015931 0.081662 -0.044094
v 0.015931 0.081662 -0.044094
v -0.015931 0.081665 -0.012223
v 0.014436 0.193052 -0.036471
v -0.014436 0.193053 -0.007581
v 0.014436 0.193053 -0.007581
v -0.014436 0.193052 -0.036471
v -0.005670 0.004665 0.007739
v 0.000001 0.006083 0.013205
v 0.005671 0.004665 0.007739
v 0.000001 0.003247 0.002279
v -0.007803 0.236246 -0.001065
v 0.000000 0.236232 0.007953
v 0.007803 0.236246 -0.001065
v 0.000000 0.236008 -0.009399
v 0.009546 0.009723 0.010526
v -0.009546 0.008693 -0.008474
v 0.000000 0.216237 0.003127
v 0.000000 0.216210 -0.028029
v -0.015354 0.216239 -0.012698
v 0.015354 0.216239 -0.012698
v 0.015672 0.166035 -0.013359
v -0.015672 0.166036 -0.044698
v 0.016385 0.110076 -0.048473
v -0.016385 0.110076 -0.015702
v 0.022411 0.137614 -0.032638
v -0.022411 0.137614 -0.032638
v 0.000000 0.137614 -0.055047
v -0.000000 0.137614 -0.010225
v 0.016385 0.110076 -0.015702
v -0.016385 0.110076 -0.048473
v 0.014735 0.052866 -0.034586
v -0.014735 0.052939 -0.005113
v -0.000000 0.081665 -0.006236
v 0.000000 0.081662 -0.050052
v -0.021905 0.081664 -0.028165
v 0.021905 0.081664 -0.028165
v 0.014735 0.052939 -0.005113
v -0.014735 0.052866 -0.034586
v 0.012937 0.025580 -0.022146
v -0.012937 0.025883 0.003699
v 0.012937 0.025883 0.003699
v -0.012937 0.025580 -0.022146
v 0.009546 0.008693 -0.008474
v -0.009546 0.009723 0.010526
v 0.015672 0.166036 -0.044698
v -0.015672 0.166035 -0.013359
v 0.019790 0.193099 -0.022042
v -0.019790 0.193099 -0.022042
v -0.000000 0.193097 -0.041690
v -0.000000 0.193099 -0.002123
v 0.022529 0.110076 -0.032089
v -0.022529 0.110076 -0.032089
v 0.000000 0.110076 -0.054614
v -0.000000 0.110076 -0.009554
v 0.000000 0.052949 0.000425
v 0.000000 0.052847 -0.040086
v -0.020256 0.052898 -0.019850
v 0.020256 0.052898 -0.019850
v 0.017765 0.025713 -0.009189
v -0.017765 0.025713 -0.009189
v -0.000000 0.025501 -0.026963
v 0.000000 0.025924 0.008549
v 0.000000 0.009857 0.014103
v -0.000000 0.008413 -0.011921
v -0.013038 0.009135 0.001162
v 0.013038 0.009135 0.001162
v 0.021541 0.166042 -0.029035
v -0.021541 0.166042 -0.029035
v -0.000000 0.166042 -0.050540
v -0.000000 0.166041 -0.007472
v 0.007349 0.258011 0.012265
v 0.007349 0.248273 0.022178
v -0.007345 0.258011 0.012265
v -0.007345 0.248273 0.022178
v 0.005802 0.245729 0.002745
v -0.005798 0.245729 0.002745
v 0.005803 0.240164 0.010847
v -0.005799 0.240164 0.010847
v -0.003940 0.002262 0.004626
v -0.004517 0.003279 0.008945
v -0.003940 0.004952 0.012001
v 0.000001 0.004882 0.013149
v 0.003942 0.004952 0.012001
v 0.004518 0.003279 0.008945
v 0.003942 0.002262 0.004626
v 0.000001 0.001678 0.004747
v 0.000001 0.002592 0.010277
vn -0.5645 -0.3686 0.7385
vn -0.7386 -0.6544 0.1622
vn -0.5696 -0.7645 0.3018
vn -0.4799 -0.4723 0.7393
vn 0.5645 -0.3685 0.7386
vn -0.0000 -0.1094 0.9940
vn -0.0000 -0.4572 0.8894
vn 0.4800 -0.4723 0.7393
vn 0.3950 -0.8840 -0.2503
vn 0.7386 -0.6543 0.1622
vn 0.5697 -0.7645 0.3018
vn 0.4455 -0.8820 -0.1536
vn -0.3949 -0.8840 -0.2502
vn -0.0000 -0.8919 -0.4523
vn -0.0000 -0.9833 -0.1821
vn -0.4454 -0.8821 -0.1536
vn -0.9664 0.2570 0.0063
vn -0.9705 0.2406 0.0138
vn -0.5640 0.6271 -0.5373
vn -0.6186 0.5081 -0.5994
vn -0.0000 0.5833 -0.8123
vn -0.0000 0.7156 -0.6986
vn 0.5640 0.6270 -0.5373
vn 0.6186 0.5081 -0.5994
vn 0.9706 0.2403 0.0138
vn 0.9664 0.2570 0.0063
vn -0.0000 -0.2347 0.9721
vn -0.0000 -0.5068 0.8621
vn -0.7664 -0.2047 0.6089
vn -0.7344 -0.0516 0.6768
vn -0.0000 0.3996 -0.9167
vn -0.6677 0.3300 -0.6673
vn -0.0000 -0.2091 0.9779
vn -0.7196 -0.0994 0.6872
vn -0.9918 0.1275 -0.0074
vn 0.6677 0.3300 -0.6673
vn 0.9918 0.1275 -0.0074
vn 0.7344 -0.0516 0.6768
vn 0.7663 -0.2051 0.6088
vn 0.7196 -0.0994 0.6872
vn 0.7148 0.1060 0.6912
vn 0.9988 -0.0459 -0.0148
vn 0.9999 -0.0108 -0.0130
vn 0.7146 0.0459 0.6981
vn 0.6890 -0.1869 -0.7002
vn 0.6984 -0.0649 -0.7128
vn 0.6967 0.0555 -0.7152
vn 0.9997 0.0190 -0.0162
vn 0.7169 -0.0191 0.6969
vn -0.6890 -0.1869 -0.7002
vn -0.9988 -0.0459 -0.0148
vn -0.9999 -0.0108 -0.0130
vn -0.6984 -0.0649 -0.7128
vn -0.7148 0.1060 0.6912
vn -0.7146 0.0459 0.6981
vn -0.7169 -0.0191 0.6969
vn -0.9997 0.0190 -0.0162
vn -0.6967 0.0555 -0.7152
vn -0.0000 -0.2390 -0.9710
vn -0.0000 -0.0859 -0.9963
vn -0.0000 0.0691 -0.9976
vn -0.0000 0.1733 0.9849
vn -0.0000 0.0709 0.9975
vn -0.0000 -0.0365 0.9993
vn -0.0000 0.0792 0.9969
vn 0.6873 -0.2018 0.6978
vn 0.7199 0.1464 0.6784
vn -0.0000 0.3081 0.9513
vn -0.7199 0.1464 0.6784
vn -0.0000 0.2588 0.9659
vn -0.7094 0.1570 0.6871
vn 0.7094 0.1570 0.6871
vn 0.6441 -0.4521 -0.6171
vn -0.0000 -0.5393 -0.8421
vn -0.0000 -0.3761 -0.9266
vn 0.6783 -0.2977 -0.6718
vn -0.6783 -0.2977 -0.6718
vn -0.6441 -0.4521 -0.6171
vn -0.9824 -0.1866 -0.0010
vn -0.9968 -0.0793 -0.0063
vn 0.9824 -0.1866 -0.0010
vn 0.9968 -0.0793 -0.0063
vn 0.8536 -0.5141 0.0840
vn 0.5292 -0.7330 -0.4275
vn -0.5292 -0.7330 -0.4275
vn -0.8536 -0.5142 0.0840
vn -0.6872 -0.2019 0.6978
vn -0.0000 -0.8023 -0.5969
vn 0.9986 0.0520 -0.0129
vn 0.7152 -0.0849 0.6938
vn 0.6896 0.1813 -0.7011
vn -0.9986 0.0520 -0.0129
vn -0.6896 0.1813 -0.7011
vn -0.7152 -0.0849 0.6938
vn -0.0000 0.2291 -0.9734
vn -0.0000 -0.1466 0.9892
vn -0.0000 0.6126 -0.7904
vn -0.0000 0.7133 0.7008
vn 0.6488 -0.4345 0.6247
vn -0.6487 -0.4343 0.6250
vn -0.7002 0.6111 -0.3693
vn 0.7003 0.6109 -0.3694
vn 0.9944 -0.0807 -0.0686
vn -0.9944 -0.0807 -0.0686
vn -0.0000 -0.8132 0.5820
vn -0.0000 -0.9122 0.4098
vt 0.450298 0.865869
vt 0.450298 0.881003
vt 0.480565 0.865869
vt 0.465431 0.865869
vt 0.480565 0.896136
vt 0.480565 0.881003
vt 0.450298 0.896136
vt 0.465431 0.891932
vt 0.782583 0.794490
vt 0.786539 0.794511
vt 0.788405 0.803030
vt 0.786477 0.805103
vt 0.796924 0.808486
vt 0.796924 0.804896
vt 0.805442 0.803030
vt 0.807371 0.805103
vt 0.807309 0.794511
vt 0.811265 0.794489
vt 0.796924 0.779608
vt 0.796924 0.784126
vt 0.788405 0.785993
vt 0.782619 0.780207
vt 0.796924 0.810044
vt 0.785704 0.806411
vt 0.796924 0.781266
vt 0.780301 0.781443
vt 0.780943 0.795973
vt 0.808144 0.806411
vt 0.812905 0.795973
vt 0.811228 0.780207
vt 0.805443 0.785993
vt 0.813547 0.781443
vt 0.813961 0.791091
vt 0.813961 0.801324
vt 0.813572 0.801591
vt 0.813961 0.792202
vt 0.813961 0.811549
vt 0.810600 0.809595
vt 0.808589 0.808220
vt 0.813291 0.800694
vt 0.813958 0.791216
vt 0.782041 0.810078
vt 0.780383 0.801334
vt 0.780188 0.802016
vt 0.780135 0.811384
vt 0.782066 0.792601
vt 0.782583 0.793750
vt 0.780249 0.791421
vt 0.779980 0.801366
vt 0.780353 0.811212
vt 0.797169 0.811295
vt 0.796576 0.811247
vt 0.796405 0.811023
vt 0.797175 0.791279
vt 0.797211 0.792255
vt 0.797055 0.790735
vt 0.797043 0.779864
vt 0.809229 0.783354
vt 0.812737 0.783045
vt 0.797481 0.782640
vt 0.785443 0.786762
vt 0.797532 0.787014
vt 0.785263 0.790516
vt 0.813705 0.786713
vt 0.813961 0.811549
vt 0.797363 0.811066
vt 0.797483 0.811115
vt 0.784811 0.807979
vt 0.783746 0.808345
vt 0.781005 0.796976
vt 0.781081 0.799104
vt 0.813839 0.796832
vt 0.813936 0.799042
vt 0.813488 0.795626
vt 0.779887 0.811549
vt 0.780478 0.795765
vt 0.785092 0.783832
vt 0.796924 0.811075
vt 0.779887 0.777474
vt 0.796924 0.777474
vt 0.813961 0.777474
vt 0.813961 0.811548
vt 0.796924 0.806816
vt 0.779887 0.811548
vt 0.779887 0.794511
vt 0.813961 0.794511
vt 0.813201 0.798638
vt 0.813907 0.786754
vt 0.808264 0.807391
vt 0.780556 0.798720
vt 0.785219 0.807619
vt 0.779940 0.786754
vt 0.796833 0.810536
vt 0.796924 0.786655
vt 0.526707 0.716301
vt 0.526707 0.716301
vt 0.527950 0.715198
vt 0.463528 0.862843
vt 0.463528 0.862843
vt 0.464829 0.864543
vt 0.804149 0.784550
vt 0.804150 0.784550
vt 0.802999 0.785471
vt 0.802592 0.782817
vt 0.802173 0.784696
vt 0.802173 0.784695
vt 0.802592 0.782817
vt 0.529415 0.717113
vt 0.528264 0.718034
vt 0.529415 0.717113
vt 0.801348 0.783920
vt 0.801348 0.783920
vt 0.802998 0.785471
vt 0.802998 0.785471
vt 0.465431 0.880582
s 1
usemtl Palette
f 1/1/1 25/2/2 98/2/3 99/1/4
f 2/3/5 26/4/6 100/4/7 101/3/8
f 4/5/9 27/6/10 102/6/11 103/5/12
f 3/7/13 28/8/14 104/8/15 97/7/16
f 37/9/17 29/10/18 7/11/19 12/12/20
f 36/13/21 32/14/22 8/15/23 9/16/24
f 9/16/24 8/15/23 31/17/25 38/18/26
f 35/19/27 30/20/28 5/21/29 11/22/30
f 11/22/30 5/21/29 29/10/18 37/9/17
f 32/14/22 36/13/21 12/12/20 7/11/19
f 12/12/20 36/13/21 67/23/31 24/24/32
f 68/25/33 35/19/27 11/22/30 22/26/34
f 22/26/34 11/22/30 37/9/17 66/27/35
f 67/23/31 36/13/21 9/16/24 21/28/36
f 21/28/36 9/16/24 38/18/26 65/29/37
f 66/27/35 37/9/17 12/12/20 24/24/32
f 30/20/28 35/19/27 10/30/38 6/31/39
f 65/29/37 38/18/26 10/30/38 23/32/40
f 17/33/41 54/34/42 69/35/43 47/36/44
f 54/34/42 19/37/45 41/38/46 69/35/43
f 69/35/43 41/38/46 15/39/47 43/40/48
f 47/36/44 69/35/43 43/40/48 13/41/49
f 18/42/50 53/43/51 70/44/52 48/45/53
f 53/43/51 20/46/54 42/47/55 70/44/52
f 70/44/52 42/47/55 16/48/56 44/49/57
f 48/45/53 70/44/52 44/49/57 14/50/58
f 19/37/45 52/51/59 71/52/60 41/38/46
f 52/51/59 18/42/50 48/45/53 71/52/60
f 71/52/60 48/45/53 14/50/58 45/53/61
f 41/38/46 71/52/60 45/53/61 15/39/47
f 20/46/54 51/54/62 72/55/63 42/47/55
f 51/54/62 17/33/41 47/36/44 72/55/63
f 72/55/63 47/36/44 13/41/49 46/56/64
f 42/47/55 72/55/63 46/56/64 16/48/56
f 81/57/65 33/58/66 59/59/67 80/60/68
f 58/61/69 80/60/68 73/62/70 50/63/71
f 73/62/70 55/64/72 17/33/41 51/54/62
f 50/63/71 73/62/70 51/54/62 20/46/54
f 80/60/68 59/59/67 55/64/72 73/62/70
f 57/65/73 79/66/74 74/67/75 49/37/76
f 74/67/75 56/68/77 18/42/50 52/51/59
f 49/37/76 74/67/75 52/51/59 19/37/45
f 79/66/74 60/69/78 56/68/77 74/67/75
f 60/69/78 78/70/79 75/71/80 56/68/77
f 75/71/80 50/63/71 20/46/54 53/43/51
f 56/68/77 75/71/80 53/43/51 18/42/50
f 78/70/79 58/61/69 50/63/71 75/71/80
f 59/59/67 77/72/81 76/73/82 55/64/72
f 76/73/82 49/37/76 19/37/45 54/34/42
f 55/64/72 76/73/82 54/34/42 17/33/41
f 38/18/26 31/17/25 6/31/39 10/30/38
f 33/58/66 84/74/83 77/72/81 59/59/67
f 84/74/83 61/37/84 57/65/73 77/72/81
f 34/75/85 83/76/86 78/70/79 60/69/78
f 83/76/86 62/77/87 58/61/69 78/70/79
f 61/37/84 82/78/88 79/66/74 57/65/73
f 82/78/88 34/75/85 60/69/78 79/66/74
f 62/77/87 81/57/65 80/60/68 58/61/69
f 1/79/1 26/80/6 81/57/65 62/77/87
f 26/80/6 2/81/5 33/58/66 81/57/65
f 4/82/9 28/83/14 82/78/88 61/37/84
f 28/83/14 3/84/13 34/75/85 82/78/88
f 3/84/13 25/85/2 83/76/86 34/75/85
f 25/85/2 1/79/1 62/77/87 83/76/86
f 2/81/5 27/86/10 84/74/83 33/58/66
f 27/86/10 4/82/9 61/37/84 84/74/83
f 13/41/49 43/40/48 85/87/89 39/88/90
f 43/40/48 15/39/47 63/89/91 85/87/89
f 85/87/89 63/89/91 21/28/36 65/29/37
f 39/88/90 85/87/89 65/29/37 23/32/40
f 14/50/58 44/49/57 86/90/92 40/91/93
f 44/49/57 16/48/56 64/92/94 86/90/92
f 86/90/92 64/92/94 22/26/34 66/27/35
f 40/91/93 86/90/92 66/27/35 24/24/32
f 15/39/47 45/53/61 87/93/95 63/89/91
f 45/53/61 14/50/58 40/91/93 87/93/95
f 87/93/95 40/91/93 24/24/32 67/23/31
f 63/89/91 87/93/95 67/23/31 21/28/36
f 16/48/56 46/56/64 88/94/96 64/92/94
f 46/56/64 13/41/49 39/88/90 88/94/96
f 88/94/96 39/88/90 23/32/40 68/25/33
f 64/92/94 88/94/96 68/25/33 22/26/34
s 0
f 93/95/97 94/96/97 91/97/97 89/97/97
f 89/98/98 91/99/98 92/100/98 90/100/98
s 1
f 95/101/99 96/102/100 30/103/28
f 96/102/100 94/104/101 29/105/18
f 95/101/99 31/106/25 93/107/102
s 0
f 90/108/103 95/109/103 93/95/103 89/97/103
f 92/110/104 91/97/104 94/96/104 96/109/104
f 90/108/105 92/110/105 96/109/105 95/109/105
s 1
f 8/111/23 32/111/22 93/107/102
f 93/107/102 32/111/22 94/104/101
f 94/104/101 32/111/22 7/112/19
f 93/107/102 31/106/25 8/111/23
f 31/106/25 95/101/99 6/113/39
f 30/103/28 6/113/39 95/101/99
f 30/103/28 96/102/100 5/114/29
f 29/105/18 94/104/101 7/112/19
f 29/105/18 5/114/29 96/102/100
f 77/72/81 57/65/73 49/37/76 76/73/82
f 10/30/38 35/19/27 68/25/33 23/32/40
f 99/1/4 98/2/3 105/115/106 100/4/7
f 98/2/3 97/7/16 104/8/15 105/115/106
f 105/115/106 104/8/15 103/5/12 102/6/11
f 100/4/7 105/115/106 102/6/11 101/3/8
f 28/8/14 4/5/9 103/5/12 104/8/15
f 27/6/10 2/3/5 101/3/8 102/6/11
f 26/4/6 1/1/1 99/1/4 100/4/7
f 25/2/2 3/7/13 97/7/16 98/2/3
