# Blender 4.4.1
# www.blender.org
mtllib Fruit_Apple.mtl
o Fruit_Apple
v 0.001815 0.006089 -0.002832
v 0.036180 0.021205 0.022135
v -0.011311 0.021205 0.037566
v -0.040662 0.021205 -0.002832
v -0.011311 0.021205 -0.043231
v 0.036180 0.021205 -0.027799
v 0.017882 0.073201 0.046618
v -0.040250 0.073201 0.027730
v -0.040250 0.073201 -0.033394
v 0.017882 0.073201 -0.052282
v 0.053810 0.073201 -0.002832
v 0.001815 0.089272 -0.002832
v -0.005900 0.003246 0.020913
v 0.022015 -0.002247 0.011843
v 0.014299 0.016641 0.035589
v 0.042214 0.016641 -0.002832
v 0.022015 0.003246 -0.017507
v -0.023152 -0.002247 -0.002832
v -0.030868 0.016641 0.020913
v -0.005900 -0.002247 -0.026578
v -0.030868 0.016641 -0.026578
v 0.014299 0.016641 -0.041253
v 0.053971 0.047203 0.014114
v 0.053971 0.047203 -0.019778
v 0.001815 0.047203 0.052008
v 0.034050 0.047203 0.041535
v -0.050341 0.047203 0.014114
v -0.030419 0.047203 0.041535
v -0.030419 0.047203 -0.047198
v -0.050341 0.047203 -0.019778
v 0.034050 0.047203 -0.047198
v 0.001815 0.047203 -0.057672
v 0.041821 0.077765 0.026234
v -0.013466 0.077765 0.044198
v -0.047635 0.077765 -0.002832
v -0.013466 0.077765 -0.049862
v 0.041821 0.077765 -0.031898
v 0.011259 0.096653 0.026234
v 0.032377 0.096653 -0.002832
v -0.022910 0.096653 0.015132
v -0.022910 0.096653 -0.020796
v 0.011259 0.096653 -0.031898
v 0.000348 0.091718 -0.005885
v -0.001314 0.092539 -0.001353
v 0.009168 0.088413 0.004127
v 0.007449 0.089528 0.008829
v 0.011475 0.109803 0.004774
v -0.000541 0.113441 -0.014933
v -0.002432 0.114371 -0.009743
v 0.013970 0.108110 -0.001364
v 0.006048 0.091079 -0.003517
v 0.005674 0.093429 -0.002744
v 0.006741 0.087226 0.001307
v 0.006495 0.089827 0.002070
v 0.018959 0.099642 -0.001440
v 0.017883 0.102933 -0.009498
v 0.017453 0.105613 -0.008608
v 0.019237 0.095981 -0.002352
v 0.001432 0.094760 -0.000333
v -0.000542 0.092172 -0.000578
v 0.005682 0.088823 0.002866
v 0.002427 0.088976 0.004122
v -0.002074 0.105181 0.016440
v -0.005465 0.113843 0.010109
v -0.008924 0.113775 0.011319
v 0.002452 0.104758 0.014738
vn 0.0399 -0.9988 0.0290
vn 0.6954 -0.5111 0.5052
vn -0.2574 -0.5535 0.7921
vn -0.8595 -0.5111 -0.0000
vn -0.2656 -0.5111 -0.8174
vn 0.6738 -0.5535 -0.4895
vn 0.2846 0.3893 0.8760
vn -0.7452 0.3893 0.5414
vn -0.7452 0.3893 -0.5414
vn 0.2846 0.3893 -0.8760
vn 0.9211 0.3893 -0.0000
vn -0.0000 1.0000 -0.0000
vn -0.1399 -0.8917 0.4305
vn 0.2849 -0.9359 0.2070
vn 0.2302 -0.5888 0.7748
vn 0.8080 -0.5888 -0.0205
vn 0.3662 -0.8917 -0.2660
vn -0.3810 -0.9232 0.0503
vn -0.6417 -0.5888 0.4915
vn -0.0699 -0.9232 -0.3778
vn -0.6711 -0.5585 -0.4876
vn 0.2691 -0.5888 -0.7621
vn 0.9381 -0.1423 0.3157
vn 0.9381 -0.1423 -0.3157
vn -0.0104 -0.1423 0.9898
vn 0.5902 -0.1423 0.7947
vn -0.9445 -0.1423 0.2960
vn -0.5734 -0.1423 0.8068
vn -0.5734 -0.1423 -0.8068
vn -0.9445 -0.1423 -0.2960
vn 0.5902 -0.1423 -0.7947
vn -0.0104 -0.1423 -0.9898
vn 0.7088 0.4820 0.5150
vn -0.2708 0.4820 0.8333
vn -0.8762 0.4820 -0.0000
vn -0.2708 0.4820 -0.8333
vn 0.7088 0.4820 -0.5150
vn 0.1184 0.9237 0.3643
vn 0.3831 0.9237 -0.0000
vn -0.3099 0.9237 0.2252
vn -0.3099 0.9237 -0.2252
vn 0.1184 0.9237 -0.3643
vn -0.1458 -0.4132 -0.8989
vn -0.9325 0.0993 0.3471
vn 0.9626 -0.2430 -0.1198
vn 0.3161 0.1034 0.9431
vn 0.2991 0.5948 0.7461
vn -0.1325 0.4201 -0.8977
vn -0.6605 0.7502 0.0287
vn 0.9264 0.2796 -0.2522
vn 0.0130 -0.4813 -0.8764
vn -0.7317 0.6747 -0.0963
vn 0.6209 -0.7521 0.2209
vn 0.1549 0.1398 0.9780
vn 0.5578 0.4742 0.6812
vn 0.4336 -0.0024 -0.9011
vn 0.1427 0.9233 -0.3566
vn 0.8263 -0.5505 0.1191
vn 0.3238 0.5279 -0.7851
vn -0.9483 -0.2369 -0.2112
vn 0.9142 -0.0812 0.3971
vn -0.2599 -0.6370 0.7258
vn -0.2724 -0.0749 0.9593
vn 0.2562 0.9358 -0.2420
vn -0.7567 0.6418 0.1245
vn 0.8245 0.1741 0.5385
vt 0.782851 0.867137
vt 0.784400 0.869820
vt 0.781303 0.869820
vt 0.785949 0.872503
vt 0.787498 0.869820
vt 0.789047 0.872503
vt 0.807633 0.867137
vt 0.809182 0.869820
vt 0.806084 0.869820
vt 0.801437 0.867137
vt 0.802986 0.869820
vt 0.799888 0.869820
vt 0.795242 0.867137
vt 0.796791 0.869820
vt 0.793693 0.869820
vt 0.787498 0.875186
vt 0.779754 0.872503
vt 0.782851 0.872503
vt 0.781302 0.875185
vt 0.804535 0.872503
vt 0.807633 0.872503
vt 0.806084 0.875186
vt 0.798340 0.872503
vt 0.801437 0.872503
vt 0.799888 0.875186
vt 0.792144 0.872503
vt 0.795242 0.872503
vt 0.793693 0.875186
vt 0.784400 0.875186
vt 0.778205 0.875186
vt 0.802986 0.875186
vt 0.796791 0.875186
vt 0.790595 0.875186
vt 0.782851 0.877868
vt 0.785949 0.877868
vt 0.784400 0.880551
vt 0.776656 0.877868
vt 0.779754 0.877868
vt 0.778205 0.880551
vt 0.801437 0.877868
vt 0.804535 0.877868
vt 0.802986 0.880551
vt 0.795242 0.877868
vt 0.798340 0.877868
vt 0.796791 0.880551
vt 0.789047 0.877868
vt 0.792144 0.877868
vt 0.790596 0.880551
vt 0.785484 0.868625
vt 0.788582 0.868625
vt 0.787033 0.871308
vt 0.793693 0.880551
vt 0.791680 0.868625
vt 0.794777 0.868625
vt 0.793228 0.871308
vt 0.799888 0.880551
vt 0.797875 0.868625
vt 0.800973 0.868625
vt 0.799424 0.871308
vt 0.806084 0.880551
vt 0.807633 0.877868
vt 0.773094 0.868625
vt 0.776191 0.868625
vt 0.774643 0.871308
vt 0.781302 0.880551
vt 0.779289 0.868625
vt 0.782387 0.868625
vt 0.780838 0.871308
vt 0.787498 0.880551
vt 0.809182 0.875186
vt 0.810730 0.872503
vt 0.790596 0.869820
vt 0.789047 0.867137
vt 0.556851 0.877446
vt 0.557332 0.878279
vt 0.976110 0.879993
vt 0.976652 0.880930
vt 0.976652 0.880930
s 1
usemtl Palette
f 1/1/1 14/2/14 13/3/13
f 2/4/2 14/5/14 16/6/16
f 1/7/1 13/8/13 18/9/18
f 1/10/1 18/11/18 20/12/20
f 1/13/1 20/14/20 17/15/17
f 2/4/2 16/6/16 23/16/23
f 3/17/3 15/18/15 25/19/25
f 4/20/4 19/21/19 27/22/27
f 5/23/5 21/24/21 29/25/29
f 6/26/6 22/27/22 31/28/31
f 2/4/2 23/16/23 26/29/26
f 3/17/3 25/19/25 28/30/28
f 4/20/4 27/22/27 30/31/30
f 5/23/5 29/25/29 32/32/32
f 6/26/6 31/28/31 24/33/24
f 7/34/7 33/35/33 38/36/38
f 8/37/8 34/38/34 40/39/40
f 9/40/9 35/41/35 41/42/41
f 10/43/10 36/44/36 42/45/42
f 11/46/11 37/47/37 39/48/39
f 39/49/39 42/50/42 12/51/12
f 39/48/39 37/47/37 42/52/42
f 37/47/37 10/43/10 42/52/42
f 42/53/42 41/54/41 12/55/12
f 42/45/42 36/44/36 41/56/41
f 36/44/36 9/40/9 41/56/41
f 41/57/41 40/58/40 12/59/12
f 41/42/41 35/41/35 40/60/40
f 35/41/35 8/61/8 40/60/40
f 40/62/40 38/63/38 12/64/12
f 40/39/40 34/38/34 38/65/38
f 34/38/34 7/34/7 38/65/38
f 38/66/38 39/67/39 12/68/12
f 38/36/38 33/35/33 39/69/39
f 33/35/33 11/46/11 39/69/39
f 24/33/24 37/47/37 11/46/11
f 24/33/24 31/28/31 37/47/37
f 31/28/31 10/43/10 37/47/37
f 32/32/32 36/44/36 10/43/10
f 32/32/32 29/25/29 36/44/36
f 29/25/29 9/40/9 36/44/36
f 30/31/30 35/41/35 9/40/9
f 30/31/30 27/22/27 35/41/35
f 27/22/27 8/61/8 35/41/35
f 28/30/28 34/38/34 8/37/8
f 28/30/28 25/19/25 34/38/34
f 25/19/25 7/34/7 34/38/34
f 26/29/26 33/35/33 7/34/7
f 26/29/26 23/16/23 33/35/33
f 23/16/23 11/46/11 33/35/33
f 31/28/31 32/32/32 10/43/10
f 31/28/31 22/27/22 32/32/32
f 22/27/22 5/23/5 32/32/32
f 29/25/29 30/31/30 9/40/9
f 29/25/29 21/24/21 30/31/30
f 21/24/21 4/20/4 30/31/30
f 27/22/27 28/70/28 8/61/8
f 27/22/27 19/21/19 28/70/28
f 19/21/19 3/71/3 28/70/28
f 25/19/25 26/29/26 7/34/7
f 25/19/25 15/18/15 26/29/26
f 15/18/15 2/4/2 26/29/26
f 23/16/23 24/33/24 11/46/11
f 23/16/23 16/6/16 24/33/24
f 16/6/16 6/26/6 24/33/24
f 17/15/17 22/27/22 6/26/6
f 17/15/17 20/14/20 22/27/22
f 20/14/20 5/23/5 22/27/22
f 20/12/20 21/24/21 5/23/5
f 20/12/20 18/11/18 21/24/21
f 18/11/18 4/20/4 21/24/21
f 18/9/18 19/21/19 4/20/4
f 18/9/18 13/8/13 19/21/19
f 13/8/13 3/71/3 19/21/19
f 16/6/16 17/72/17 6/26/6
f 16/6/16 14/5/14 17/72/17
f 14/5/14 1/73/1 17/72/17
f 13/3/13 15/18/15 3/17/3
f 13/3/13 14/2/14 15/18/15
f 14/2/14 2/4/2 15/18/15
f 49/74/49 44/75/44 46/75/46 47/74/47
f 48/74/48 50/74/50 45/75/45 43/75/43
f 48/74/48 43/75/43 44/75/44 49/74/49
f 45/75/45 50/74/50 47/74/47 46/75/46
f 49/74/49 47/74/47 50/74/50 48/74/48
f 57/76/57 52/77/52 54/77/54 55/76/55
f 56/76/56 58/76/58 53/78/53 51/78/51
f 56/76/56 51/78/51 52/77/52 57/76/57
f 53/78/53 58/76/58 55/76/55 54/77/54
f 57/76/57 55/76/55 58/76/58 56/76/56
f 65/76/65 60/77/60 62/77/62 63/76/63
f 64/76/64 66/76/66 61/78/61 59/78/59
f 64/76/64 59/78/59 60/77/60 65/76/65
f 61/78/61 66/76/66 63/76/63 62/77/62
f 65/76/65 63/76/63 66/76/66 64/76/64
