# Blender 4.4.1
# www.blender.org
mtllib Fruit_Plate2.mtl
o Fruit_Plate2
v -0.076537 0.052309 -0.133312
v 0.002140 0.004639 -0.059653
v -0.029344 0.004639 -0.051217
v -0.052393 0.004639 -0.028168
v -0.060829 0.004639 0.003317
v -0.052393 0.004639 0.034802
v -0.029344 0.004639 0.057850
v 0.002140 0.004639 0.066287
v 0.033625 0.004639 0.057850
v 0.056674 0.004639 0.034802
v 0.065110 0.004639 0.003317
v 0.056674 0.004639 -0.028168
v 0.033625 0.004639 -0.051217
v 0.003461 0.052309 -0.154747
v -0.135100 0.052309 -0.074749
v -0.156535 0.052309 0.005249
v -0.135100 0.052309 0.085247
v -0.076537 0.052309 0.143810
v 0.003461 0.052309 0.165246
v 0.083459 0.052309 0.143810
v 0.142022 0.052309 0.085247
v 0.163458 0.052309 0.005249
v 0.142022 0.052309 -0.074749
v 0.083459 0.052309 -0.133312
v 0.003461 0.052309 -0.182013
v 0.097092 0.052309 -0.156925
v 0.165635 0.052309 -0.088382
v 0.190723 0.052309 0.005249
v 0.165635 0.052309 0.098880
v 0.097092 0.052309 0.167423
v 0.003461 0.052309 0.192511
v -0.090170 0.052309 0.167423
v -0.158713 0.052309 0.098880
v -0.183801 0.052309 0.005249
v -0.158713 0.052309 -0.088382
v -0.090170 0.052309 -0.156925
v 0.003463 0.008779 -0.046244
v 0.029212 0.008779 -0.039344
v 0.048061 0.008779 -0.020495
v 0.054961 0.008779 0.005254
v 0.048061 0.008779 0.031003
v 0.029212 0.008779 0.049852
v 0.003463 0.008779 0.056752
v -0.022286 0.008779 0.049852
v -0.041135 0.008779 0.031003
v -0.048035 0.008779 0.005254
v -0.041135 0.008779 -0.020495
v -0.022286 0.008779 -0.039344
v 0.080807 0.027595 -0.130509
v 0.137837 0.027595 -0.073478
v 0.002901 0.027595 0.160238
v -0.075004 0.027595 0.139363
v 0.137837 0.027595 0.082333
v 0.080807 0.027595 0.139363
v -0.152910 0.027595 0.004427
v -0.132035 0.027595 -0.073478
v 0.158712 0.027595 0.004427
v -0.132035 0.027595 0.082333
v 0.002901 0.027595 -0.151384
v -0.075004 0.027595 -0.130509
v 0.068862 0.030544 0.118528
v 0.003462 0.030544 0.136052
v 0.116738 0.030544 -0.060149
v 0.134262 0.030544 0.005251
v -0.127339 0.030544 0.005251
v -0.109815 0.030544 -0.060149
v -0.061939 0.030544 0.118528
v 0.116738 0.030544 0.070652
v -0.061939 0.030544 -0.108025
v 0.003462 0.030544 -0.125549
v 0.068862 0.030544 -0.108025
v -0.109815 0.030544 0.070652
vn -0.0009 -0.8808 -0.4736
vn -0.2377 -0.8799 -0.4114
vn -0.3149 -0.7765 -0.5457
vn 0.0012 -0.7783 -0.6279
vn 0.3972 -0.8888 0.2285
vn 0.4612 -0.8873 -0.0013
vn 0.6111 -0.7916 0.0017
vn 0.5253 -0.7946 0.3043
vn -0.0009 -0.8885 0.4589
vn 0.2286 -0.8893 0.3962
vn 0.3031 -0.7955 0.5247
vn 0.0012 -0.7940 0.6080
vn 0.2337 -0.8826 -0.4078
vn 0.3132 -0.7821 -0.5386
vn -0.4051 -0.8843 0.2320
vn -0.2324 -0.8867 0.3997
vn -0.3047 -0.7904 0.5315
vn -0.5348 -0.7856 0.3112
vn 0.4023 -0.8850 -0.2342
vn 0.5353 -0.7870 -0.3066
vn -0.4103 -0.8804 -0.2378
vn -0.4712 -0.8820 -0.0014
vn -0.6247 -0.7809 0.0018
vn -0.5451 -0.7775 -0.3136
vn -0.0000 0.8864 -0.4630
vn -0.2315 0.8864 -0.4010
vn -0.0776 0.9879 -0.1345
vn -0.0000 0.9879 -0.1552
vn -0.0002 -0.9898 -0.1423
vn 0.0704 -0.9899 -0.1227
vn 0.1215 -0.9901 -0.0706
vn 0.1396 -0.9902 -0.0003
vn 0.1204 -0.9903 0.0693
vn 0.0693 -0.9903 0.1202
vn -0.0002 -0.9903 0.1391
vn -0.0702 -0.9902 0.1209
vn -0.1222 -0.9900 0.0700
vn -0.1418 -0.9899 -0.0004
vn -0.1232 -0.9898 -0.0714
vn -0.0713 -0.9898 -0.1235
vn -0.0000 1.0000 -0.0000
vn -0.0000 0.9879 0.1552
vn 0.0776 0.9879 0.1344
vn 0.1344 0.9879 0.0776
vn 0.1552 0.9879 -0.0000
vn 0.1344 0.9879 -0.0776
vn 0.0776 0.9879 -0.1344
vn -0.1344 0.9879 -0.0776
vn -0.1552 0.9879 -0.0000
vn -0.1344 0.9879 0.0776
vn -0.0776 0.9879 0.1344
vn -0.4630 0.8864 -0.0000
vn -0.4010 0.8864 0.2315
vn 0.4009 0.8864 0.2315
vn 0.4630 0.8864 -0.0000
vn 0.2315 0.8864 -0.4010
vn -0.4010 0.8864 -0.2315
vn 0.2315 0.8864 0.4009
vn -0.2315 0.8864 0.4009
vn -0.0000 0.8864 0.4630
vn 0.4010 0.8864 -0.2315
vn 0.5977 0.8017 -0.0000
vn 0.5176 0.8017 -0.2988
vn -0.5176 0.8017 0.2988
vn -0.2988 0.8018 0.5176
vn -0.0000 0.8018 0.5976
vn 0.2988 0.8018 0.5176
vn -0.2989 0.8017 -0.5176
vn -0.5176 0.8017 -0.2988
vn 0.2989 0.8017 -0.5176
vn 0.5176 0.8018 0.2988
vn -0.5977 0.8017 -0.0000
vn -0.0000 0.8017 -0.5977
vt 0.717088 0.820642
vt 0.708570 0.818359
vt 0.731843 0.795086
vt 0.734125 0.803604
vt 0.734125 0.803604
vt 0.717088 0.786567
vt 0.725607 0.788850
vt 0.725607 0.818359
vt 0.702334 0.795086
vt 0.708570 0.788850
vt 0.731843 0.812123
vt 0.731843 0.812123
vt 0.702334 0.812123
vt 0.700051 0.803604
vt 0.702334 0.812123
vt 0.717088 0.789048
vt 0.724366 0.790998
vt 0.717088 0.818161
vt 0.724366 0.816211
vt 0.729695 0.810883
vt 0.731645 0.803604
vt 0.729695 0.796326
vt 0.709810 0.790998
vt 0.704482 0.796326
vt 0.702532 0.803604
vt 0.704482 0.810883
vt 0.709810 0.816211
s 1
usemtl Palette
f 59/1/1 60/2/2 36/2/3 25/1/4
f 53/3/5 57/4/6 28/5/7 29/3/8
f 51/6/9 54/7/10 30/7/11 31/6/12
f 49/8/13 59/1/1 25/1/4 26/8/14
f 58/9/15 52/10/16 32/10/17 33/9/18
f 57/4/6 50/11/19 27/12/20 28/5/7
f 56/13/21 55/14/22 34/14/23 35/15/24
f 54/7/10 53/3/5 29/3/8 30/7/11
f 52/10/16 51/6/9 31/6/12 32/10/17
f 50/11/19 49/8/13 26/8/14 27/12/20
f 62/16/25 61/17/26 42/17/27 43/16/28
f 60/2/2 56/13/21 35/15/24 36/2/3
f 2/1/29 13/8/30 12/12/31 11/5/32 10/3/33 9/7/34 8/6/35 7/10/36 6/9/37 5/14/38 4/15/39 3/2/40
f 55/14/22 58/9/15 33/9/18 34/14/23
s 0
f 14/18/41 24/19/41 26/8/41 25/1/41
f 24/19/41 23/20/41 27/12/41 26/8/41
f 23/20/41 22/21/41 28/5/41 27/12/41
f 22/21/41 21/22/41 29/3/41 28/5/41
f 21/22/41 20/17/41 30/7/41 29/3/41
f 20/17/41 19/16/41 31/6/41 30/7/41
f 19/16/41 18/23/41 32/10/41 31/6/41
f 18/23/41 17/24/41 33/9/41 32/10/41
f 17/24/41 16/25/41 34/14/41 33/9/41
f 16/25/41 15/26/41 35/15/41 34/14/41
f 15/26/41 1/27/41 36/2/41 35/15/41
f 1/27/41 14/18/41 25/1/41 36/2/41
s 1
f 37/18/42 48/27/43 47/26/44 46/25/45 45/24/46 44/23/47 43/16/28 42/17/27 41/22/48 40/21/49 39/20/50 38/19/51
f 64/21/52 63/20/53 39/20/50 40/21/49
f 66/26/54 65/25/55 46/25/45 47/26/44
f 67/23/56 62/16/25 43/16/28 44/23/47
f 68/22/57 64/21/52 40/21/49 41/22/48
f 69/27/58 66/26/54 47/26/44 48/27/43
f 71/19/59 70/18/60 37/18/42 38/19/51
f 72/24/61 67/23/56 44/23/47 45/24/46
f 61/17/26 68/22/57 41/22/48 42/17/27
f 70/18/60 69/27/58 48/27/43 37/18/42
f 63/20/53 71/19/59 38/19/51 39/20/50
f 65/25/55 72/24/61 45/24/46 46/25/45
f 5/14/38 6/9/37 58/9/15 55/14/22
f 3/2/40 4/15/39 56/13/21 60/2/2
f 12/12/31 13/8/30 49/8/13 50/11/19
f 7/10/36 8/6/35 51/6/9 52/10/16
f 9/7/34 10/3/33 53/3/5 54/7/10
f 4/15/39 5/14/38 55/14/22 56/13/21
f 11/5/32 12/12/31 50/11/19 57/4/6
f 6/9/37 7/10/36 52/10/16 58/9/15
f 13/8/30 2/1/29 59/1/1 49/8/13
f 8/6/35 9/7/34 54/7/10 51/6/9
f 10/3/33 11/5/32 57/4/6 53/3/5
f 2/1/29 3/2/40 60/2/2 59/1/1
f 16/25/62 17/24/63 72/24/61 65/25/55
f 23/20/64 24/19/65 71/19/59 63/20/53
f 14/18/66 1/27/67 69/27/58 70/18/60
f 20/17/68 21/22/69 68/22/57 61/17/26
f 17/24/63 18/23/70 67/23/56 72/24/61
f 24/19/65 14/18/66 70/18/60 71/19/59
f 1/27/67 15/26/71 66/26/54 69/27/58
f 21/22/69 22/21/72 64/21/52 68/22/57
f 18/23/70 19/16/73 62/16/25 67/23/56
f 15/26/71 16/25/62 65/25/55 66/26/54
f 22/21/72 23/20/64 63/20/53 64/21/52
f 19/16/73 20/17/68 61/17/26 62/16/25
