# Blender 4.4.1
# www.blender.org
mtllib Lamp_1.mtl
o Lamp_1
v 0.000000 -0.002285 -0.112966
v 0.043230 -0.002285 -0.104367
v 0.079879 -0.002285 -0.079879
v 0.104367 -0.002285 -0.043230
v 0.112966 -0.002285 0.000000
v 0.104367 -0.002285 0.043230
v 0.079879 -0.002285 0.079879
v 0.043230 -0.002285 0.104367
v 0.000000 -0.002285 0.112966
v -0.043230 -0.002285 0.104367
v -0.079879 -0.002285 0.079879
v -0.104367 -0.002285 0.043230
v -0.112966 -0.002285 -0.000000
v -0.104367 -0.002285 -0.043230
v -0.079879 -0.002285 -0.079879
v -0.043230 -0.002285 -0.104367
v -0.040819 0.017398 -0.098547
v -0.075425 0.017398 -0.075425
v -0.098547 0.017398 -0.040820
v -0.106667 0.017398 -0.000000
v -0.098547 0.017398 0.040820
v -0.075425 0.017398 0.075425
v -0.040819 0.017398 0.098547
v 0.000000 0.017398 0.106667
v 0.040820 0.017398 0.098547
v 0.075425 0.017398 0.075425
v 0.098547 0.017398 0.040820
v 0.106667 0.017398 0.000000
v 0.098547 0.017398 -0.040820
v 0.075425 0.017398 -0.075425
v 0.040820 0.017398 -0.098547
v 0.000000 0.017398 -0.106667
v -0.007639 0.039527 -0.018442
v -0.000000 0.039527 -0.019961
v -0.014115 0.039527 -0.014115
v -0.019961 0.039527 -0.000000
v -0.018442 0.039527 -0.007639
v -0.018442 0.039527 0.007639
v -0.014115 0.039527 0.014115
v -0.007639 0.039527 0.018442
v 0.000000 0.039527 0.019961
v 0.007639 0.039527 0.018442
v 0.014115 0.039527 0.014115
v 0.018442 0.039527 0.007639
v 0.019961 0.039527 0.000000
v 0.018442 0.039527 -0.007639
v 0.014115 0.039527 -0.014115
v 0.007639 0.039527 -0.018442
v -0.021951 0.039527 -0.052996
v 0.000000 0.039527 -0.057362
v -0.040561 0.039527 -0.040561
v -0.057362 0.039527 -0.000000
v -0.052996 0.039527 -0.021952
v -0.052996 0.039527 0.021952
v -0.040561 0.039527 0.040561
v -0.021951 0.039527 0.052996
v 0.000000 0.039527 0.057362
v 0.021952 0.039527 0.052996
v 0.040561 0.039527 0.040561
v 0.052996 0.039527 0.021952
v 0.057362 0.039527 0.000000
v 0.052996 0.039527 -0.021952
v 0.040561 0.039527 -0.040561
v 0.021952 0.039527 -0.052996
v -0.007639 1.432757 -0.018442
v 0.000000 1.432757 -0.019961
v -0.014115 1.432757 -0.014115
v -0.019961 1.432757 -0.000000
v -0.018442 1.432757 -0.007639
v -0.018442 1.432757 0.007639
v -0.014115 1.432757 0.014115
v -0.007639 1.432757 0.018442
v 0.000000 1.432757 0.019961
v 0.007639 1.432757 0.018442
v 0.014115 1.432757 0.014115
v 0.018442 1.432757 0.007639
v 0.019961 1.432757 0.000000
v 0.018442 1.432757 -0.007639
v 0.014115 1.432757 -0.014115
v 0.007639 1.432757 -0.018442
v -0.067013 1.329253 -0.161785
v 0.000000 1.329253 -0.175115
v -0.123825 1.329253 -0.123825
v -0.175115 1.329253 0.000000
v -0.161785 1.329253 -0.067014
v -0.161785 1.329253 0.067014
v -0.123825 1.329253 0.123825
v -0.067014 1.329253 0.161785
v 0.000000 1.329253 0.175115
v 0.067014 1.329253 0.161785
v 0.123825 1.329253 0.123825
v 0.161785 1.329253 0.067014
v 0.175115 1.329253 0.000000
v 0.161785 1.329253 -0.067014
v 0.123825 1.329253 -0.123825
v 0.067014 1.329253 -0.161785
v -0.053236 1.511324 -0.128523
v 0.000000 1.511324 -0.139112
v -0.098367 1.511324 -0.098367
v -0.139112 1.511324 0.000000
v -0.128523 1.511324 -0.053236
v -0.128523 1.511324 0.053236
v -0.098367 1.511324 0.098367
v -0.053236 1.511324 0.128523
v 0.000000 1.511324 0.139112
v 0.053236 1.511324 0.128523
v 0.098367 1.511324 0.098367
v 0.128523 1.511324 0.053236
v 0.139112 1.511324 0.000000
v 0.128523 1.511324 -0.053236
v 0.098367 1.511324 -0.098367
v 0.053236 1.511324 -0.128523
v -0.067014 1.511324 -0.161785
v 0.000000 1.511324 -0.175115
v -0.123825 1.511324 -0.123825
v -0.175115 1.511324 0.000000
v -0.161785 1.511324 -0.067014
v -0.161785 1.511324 0.067014
v -0.123825 1.511324 0.123825
v -0.067014 1.511324 0.161785
v 0.000000 1.511324 0.175115
v 0.067014 1.511324 0.161785
v 0.123825 1.511324 0.123825
v 0.161785 1.511324 0.067014
v 0.175115 1.511324 0.000000
v 0.161785 1.511324 -0.067014
v 0.123825 1.511324 -0.123825
v 0.067014 1.511324 -0.161785
v -0.053236 1.329253 -0.128523
v 0.000000 1.329253 -0.139112
v -0.098367 1.329253 -0.098367
v -0.139112 1.329253 0.000000
v -0.128523 1.329253 -0.053236
v -0.128523 1.329253 0.053236
v -0.098367 1.329253 0.098367
v -0.053236 1.329253 0.128523
v 0.000000 1.329253 0.139112
v 0.053236 1.329253 0.128523
v 0.098367 1.329253 0.098367
v 0.128523 1.329253 0.053236
v 0.139112 1.329253 0.000000
v 0.128523 1.329253 -0.053236
v 0.098367 1.329253 -0.098367
v 0.053236 1.329253 -0.128523
v -0.007639 1.457466 -0.018442
v -0.000000 1.457466 -0.019961
v -0.014115 1.457466 -0.014115
v -0.019961 1.457466 -0.000000
v -0.018442 1.457466 -0.007639
v -0.018442 1.457466 0.007639
v -0.014115 1.457466 0.014115
v -0.007639 1.457466 0.018442
v -0.000000 1.457466 0.019961
v 0.007639 1.457466 0.018442
v 0.014115 1.457466 0.014115
v 0.018442 1.457466 0.007639
v 0.019961 1.457466 0.000000
v 0.018442 1.457466 -0.007639
v 0.014115 1.457466 -0.014115
v 0.007639 1.457466 -0.018442
v -0.139812 1.432757 -0.023840
v -0.138293 1.432757 -0.031479
v -0.023840 1.432757 0.139812
v -0.031479 1.432757 0.138293
v 0.139812 1.432757 0.023840
v 0.138293 1.432757 0.031479
v 0.023840 1.432757 -0.139812
v 0.031479 1.432757 -0.138293
v -0.139812 1.457465 -0.023840
v -0.138293 1.457465 -0.031479
v -0.023840 1.457466 0.139812
v -0.031479 1.457466 0.138293
v 0.139812 1.457466 0.023840
v 0.138293 1.457466 0.031479
v 0.023840 1.457466 -0.139812
v 0.031479 1.457466 -0.138293
vn -0.6735 0.3048 -0.6735
vn -0.5420 0.6422 -0.5420
vn -0.2933 0.6422 -0.7082
vn -0.3645 0.3048 -0.8799
vn -0.3645 0.3048 0.8799
vn -0.2933 0.6422 0.7082
vn -0.5420 0.6422 0.5420
vn -0.6735 0.3048 0.6735
vn -0.8799 0.3048 0.3645
vn -0.7082 0.6422 0.2934
vn -0.7666 0.6422 -0.0000
vn -0.9524 0.3048 -0.0000
vn 0.6735 0.3048 0.6735
vn 0.5420 0.6422 0.5420
vn 0.2934 0.6422 0.7082
vn 0.3645 0.3048 0.8799
vn 0.3645 0.3048 -0.8799
vn 0.2933 0.6422 -0.7082
vn 0.5420 0.6422 -0.5420
vn 0.6735 0.3048 -0.6735
vn -0.8799 0.3048 -0.3645
vn -0.7082 0.6422 -0.2934
vn -0.0000 0.3048 0.9524
vn -0.0000 0.6422 0.7666
vn 0.8799 0.3048 -0.3645
vn 0.7082 0.6422 -0.2934
vn 0.7666 0.6422 -0.0000
vn 0.9524 0.3048 -0.0000
vn -0.0000 0.6422 -0.7666
vn -0.0000 0.3048 -0.9524
vn 0.8799 0.3048 0.3645
vn 0.7082 0.6422 0.2934
vn -0.0000 -1.0000 -0.0000
vn -0.1655 0.9722 -0.1655
vn -0.0896 0.9722 -0.2163
vn -0.2515 0.7538 -0.6071
vn -0.4647 0.7538 -0.4647
vn -0.7071 -0.0000 -0.7071
vn -0.3827 -0.0000 -0.9239
vn 0.2163 0.9722 0.0896
vn 0.1655 0.9722 0.1655
vn -0.2341 0.9722 -0.0000
vn -0.2163 0.9722 -0.0896
vn 0.2341 0.9722 -0.0000
vn -0.2163 0.9722 0.0896
vn 0.2163 0.9722 -0.0896
vn -0.1655 0.9722 0.1655
vn 0.1655 0.9722 -0.1655
vn -0.0896 0.9722 0.2163
vn 0.0896 0.9722 -0.2163
vn -0.0000 0.9722 0.2341
vn -0.0000 0.9722 -0.2341
vn 0.0896 0.9722 0.2163
vn -0.0000 0.7538 -0.6571
vn -0.6571 0.7538 -0.0000
vn -0.6071 0.7538 -0.2515
vn -0.6071 0.7538 0.2515
vn -0.4647 0.7538 0.4647
vn -0.2515 0.7538 0.6071
vn -0.0000 0.7538 0.6571
vn 0.2515 0.7538 0.6071
vn 0.4647 0.7538 0.4647
vn 0.6071 0.7538 0.2515
vn 0.6571 0.7538 -0.0000
vn 0.6071 0.7538 -0.2515
vn 0.4647 0.7538 -0.4647
vn 0.2515 0.7538 -0.6071
vn 0.8973 -0.2860 -0.3363
vn 0.9239 -0.0000 -0.3827
vn 0.6894 0.6657 -0.2856
vn 0.3659 0.8557 -0.3659
vn 0.7003 -0.2860 0.6541
vn 0.7071 -0.0000 0.7071
vn -0.8973 -0.2860 0.3363
vn -0.7003 -0.2860 -0.6541
vn -0.9239 -0.0000 0.3827
vn -0.7071 -0.0000 0.7071
vn 0.7071 -0.0000 -0.7071
vn -0.6541 -0.2860 0.7003
vn 0.6541 -0.2860 -0.7003
vn 0.3363 -0.2860 0.8973
vn -0.3363 -0.2860 -0.8973
vn 0.3827 -0.0000 0.9239
vn -1.0000 -0.0000 -0.0000
vn -0.9239 -0.0000 -0.3827
vn 0.9239 -0.0000 0.3827
vn 1.0000 -0.0000 -0.0000
vn -0.3827 -0.0000 0.9239
vn 0.3827 -0.0000 -0.9239
vn -0.0000 -0.0000 1.0000
vn -0.0000 -0.0000 -1.0000
vn -0.0000 1.0000 -0.0000
vn -0.3659 0.8557 -0.3659
vn -0.2856 0.6657 -0.6894
vn -0.5276 0.6657 -0.5276
vn -0.1980 0.8557 -0.4781
vn -0.3659 0.8557 0.3659
vn -0.6894 0.6657 0.2856
vn -0.5276 0.6657 0.5276
vn -0.4781 0.8557 0.1980
vn 0.3659 0.8557 0.3659
vn 0.2856 0.6657 0.6894
vn 0.5276 0.6657 0.5276
vn 0.1980 0.8557 0.4781
vn 0.5276 0.6657 -0.5276
vn 0.4781 0.8557 -0.1980
vn 0.6935 0.7071 0.1380
vn 0.6935 -0.7071 0.1379
vn -0.1380 -0.7071 0.6935
vn -0.1379 0.7071 0.6935
vn 0.6935 0.7071 0.1379
vn -0.6935 0.7071 -0.1379
vn -0.1380 0.7071 0.6935
vn -0.1379 -0.7071 0.6935
vn -0.6935 -0.7071 -0.1380
vn -0.6935 -0.7071 -0.1379
vn 0.1379 0.7071 -0.6935
vn 0.1380 0.7071 -0.6935
vn 0.1379 -0.7071 -0.6935
vt 0.716268 0.787345
vt 0.716268 0.787345
vt 0.720086 0.789896
vt 0.720086 0.768155
vt 0.716268 0.770705
vt 0.716268 0.770705
vt 0.713718 0.774522
vt 0.712822 0.779025
vt 0.732909 0.770705
vt 0.729091 0.768155
vt 0.729091 0.789896
vt 0.732909 0.787345
vt 0.732909 0.787345
vt 0.713718 0.783528
vt 0.724588 0.767259
vt 0.735459 0.783528
vt 0.736355 0.779025
vt 0.724588 0.790792
vt 0.735459 0.774522
vt 0.722561 0.783920
vt 0.720842 0.782771
vt 0.724588 0.784323
vt 0.719290 0.779025
vt 0.719694 0.781053
vt 0.719694 0.776998
vt 0.720842 0.775279
vt 0.722561 0.774130
vt 0.724588 0.773727
vt 0.726616 0.774130
vt 0.728335 0.775279
vt 0.729483 0.776998
vt 0.729886 0.779025
vt 0.729483 0.781053
vt 0.728335 0.782771
vt 0.726616 0.783920
vt 0.704227 0.881322
vt 0.704000 0.882463
vt 0.698490 0.880181
vt 0.699136 0.879214
vt 0.696350 0.883350
vt 0.695947 0.881322
vt 0.706140 0.879295
vt 0.706543 0.881322
vt 0.696350 0.879295
vt 0.706140 0.883350
vt 0.697499 0.877576
vt 0.704991 0.885068
vt 0.699217 0.876427
vt 0.703272 0.886217
vt 0.701245 0.876024
vt 0.701245 0.886620
vt 0.703272 0.876427
vt 0.699217 0.886217
vt 0.697499 0.885068
vt 0.704991 0.877576
vt 0.700104 0.884077
vt 0.701245 0.884304
vt 0.699136 0.883431
vt 0.698263 0.881322
vt 0.698490 0.882463
vt 0.700104 0.878567
vt 0.701245 0.878340
vt 0.702386 0.878567
vt 0.703353 0.879214
vt 0.704000 0.880181
vt 0.703353 0.883431
vt 0.702386 0.884077
s 1
usemtl Palette
f 15/1/1 18/2/2 17/3/3 16/3/4
f 10/4/5 23/4/6 22/5/7 11/6/8
f 12/7/9 21/7/10 20/8/11 13/8/12
f 7/9/13 26/9/14 25/10/15 8/10/16
f 2/11/17 31/11/18 30/12/19 3/13/20
f 14/14/21 19/14/22 18/2/2 15/1/1
f 9/15/23 24/15/24 23/4/6 10/4/5
f 4/16/25 29/16/26 28/17/27 5/17/28
f 16/3/4 17/3/3 32/18/29 1/18/30
f 11/6/8 22/5/7 21/7/10 12/7/9
f 6/19/31 27/19/32 26/9/14 7/9/13
f 1/18/30 32/18/29 31/11/18 2/11/17
f 13/8/12 20/8/11 19/14/22 14/14/21
f 8/10/16 25/10/15 24/15/24 9/15/23
f 3/13/20 30/12/19 29/16/26 4/16/25
f 5/17/28 28/17/27 27/19/32 6/19/31
s 0
f 1/18/33 2/11/33 3/13/33 4/16/33 5/17/33 6/19/33 7/9/33 8/10/33 9/15/33 10/4/33 11/6/33 12/7/33 13/8/33 14/14/33 15/1/33 16/3/33
s 1
f 18/2/2 51/2/34 49/3/35 17/3/3
f 33/20/36 35/21/37 67/21/38 65/20/39
f 27/19/32 60/19/40 59/9/41 26/9/14
f 20/8/11 52/8/42 53/14/43 19/14/22
f 28/17/27 61/17/44 60/19/40 27/19/32
f 21/7/10 54/7/45 52/8/42 20/8/11
f 29/16/26 62/16/46 61/17/44 28/17/27
f 22/5/7 55/5/47 54/7/45 21/7/10
f 30/12/19 63/12/48 62/16/46 29/16/26
f 23/4/6 56/4/49 55/5/47 22/5/7
f 31/11/18 64/11/50 63/12/48 30/12/19
f 24/15/24 57/15/51 56/4/49 23/4/6
f 32/18/29 50/18/52 64/11/50 31/11/18
f 25/10/15 58/10/53 57/15/51 24/15/24
f 17/3/3 49/3/35 50/18/52 32/18/29
f 19/14/22 53/14/43 51/2/34 18/2/2
f 26/9/14 59/9/41 58/10/53 25/10/15
f 33/20/36 34/22/54 50/18/52 49/3/35
f 35/21/37 33/20/36 49/3/35 51/2/34
f 36/23/55 37/24/56 53/14/43 52/8/42
f 38/25/57 36/23/55 52/8/42 54/7/45
f 39/26/58 38/25/57 54/7/45 55/5/47
f 40/27/59 39/26/58 55/5/47 56/4/49
f 41/28/60 40/27/59 56/4/49 57/15/51
f 42/29/61 41/28/60 57/15/51 58/10/53
f 43/30/62 42/29/61 58/10/53 59/9/41
f 44/31/63 43/30/62 59/9/41 60/19/40
f 45/32/64 44/31/63 60/19/40 61/17/44
f 46/33/65 45/32/64 61/17/44 62/16/46
f 47/34/66 46/33/65 62/16/46 63/12/48
f 48/35/67 47/34/66 63/12/48 64/11/50
f 34/22/54 48/35/67 64/11/50 50/18/52
f 37/24/56 35/21/37 51/2/34 53/14/43
f 77/32/68 78/33/69 158/33/70 157/32/71
f 43/30/62 44/31/63 76/31/72 75/30/73
f 37/24/56 36/23/55 68/23/74 69/24/75
f 44/31/63 45/32/64 77/32/68 76/31/72
f 36/23/55 38/25/57 70/25/76 68/23/74
f 45/32/64 46/33/65 78/33/69 77/32/68
f 38/25/57 39/26/58 71/26/77 70/25/76
f 46/33/65 47/34/66 79/34/78 78/33/69
f 39/26/58 40/27/59 72/27/79 71/26/77
f 47/34/66 48/35/67 80/35/80 79/34/78
f 40/27/59 41/28/60 73/28/81 72/27/79
f 48/35/67 34/22/54 66/22/82 80/35/80
f 41/28/60 42/29/61 74/29/83 73/28/81
f 34/22/54 33/20/36 65/20/39 66/22/82
f 35/21/37 37/24/56 69/24/75 67/21/38
f 42/29/61 43/30/62 75/30/73 74/29/83
f 109/36/84 110/37/76 142/37/76 141/36/84
f 102/38/69 103/39/78 135/39/78 134/38/69
f 85/40/85 84/41/84 116/41/84 117/40/85
f 92/42/86 93/43/87 125/43/87 124/42/86
f 84/41/84 86/44/76 118/44/76 116/41/84
f 93/43/87 94/45/69 126/45/69 125/43/87
f 86/44/76 87/46/77 119/46/77 118/44/76
f 94/45/69 95/47/78 127/47/78 126/45/69
f 87/46/77 88/48/88 120/48/88 119/46/77
f 95/47/78 96/49/89 128/49/89 127/47/78
f 88/48/88 89/50/90 121/50/90 120/48/88
f 96/49/89 82/51/91 114/51/91 128/49/89
f 89/50/90 90/52/83 122/52/83 121/50/90
f 82/51/91 81/53/39 113/53/39 114/51/91
f 83/54/38 85/40/85 117/40/85 115/54/38
f 90/52/83 91/55/73 123/55/73 122/52/83
f 81/53/39 83/54/38 115/54/38 113/53/39
f 91/55/73 92/42/86 124/42/86 123/55/73
s 0
f 97/56/92 98/57/92 114/51/92 113/53/92
f 99/58/92 97/56/92 113/53/92 115/54/92
f 100/59/92 101/60/92 117/40/92 116/41/92
f 102/38/92 100/59/92 116/41/92 118/44/92
f 103/39/92 102/38/92 118/44/92 119/46/92
f 104/61/92 103/39/92 119/46/92 120/48/92
f 105/62/92 104/61/92 120/48/92 121/50/92
f 106/63/92 105/62/92 121/50/92 122/52/92
f 107/64/92 106/63/92 122/52/92 123/55/92
f 108/65/92 107/64/92 123/55/92 124/42/92
f 109/36/92 108/65/92 124/42/92 125/43/92
f 110/37/92 109/36/92 125/43/92 126/45/92
f 111/66/92 110/37/92 126/45/92 127/47/92
f 112/67/92 111/66/92 127/47/92 128/49/92
f 98/57/92 112/67/92 128/49/92 114/51/92
f 101/60/92 99/58/92 115/54/92 117/40/92
s 1
f 110/37/76 111/66/77 143/66/77 142/37/76
f 103/39/78 104/61/89 136/61/89 135/39/78
f 111/66/77 112/67/88 144/67/88 143/66/77
f 104/61/89 105/62/91 137/62/91 136/61/89
f 112/67/88 98/57/90 130/57/90 144/67/88
f 105/62/91 106/63/39 138/63/39 137/62/91
f 98/57/90 97/56/83 129/56/83 130/57/90
f 99/58/73 101/60/86 133/60/86 131/58/73
f 106/63/39 107/64/38 139/64/38 138/63/39
f 97/56/83 99/58/73 131/58/73 129/56/83
f 107/64/38 108/65/85 140/65/85 139/64/38
f 101/60/86 100/59/87 132/59/87 133/60/86
f 108/65/85 109/36/84 141/36/84 140/65/85
f 100/59/87 102/38/69 134/38/69 132/59/87
s 0
f 129/56/33 131/58/33 83/54/33 81/53/33
f 131/58/33 133/60/33 85/40/33 83/54/33
f 133/60/33 132/59/33 84/41/33 85/40/33
f 132/59/33 134/38/33 86/44/33 84/41/33
f 134/38/33 135/39/33 87/46/33 86/44/33
f 135/39/33 136/61/33 88/48/33 87/46/33
f 136/61/33 137/62/33 89/50/33 88/48/33
f 137/62/33 138/63/33 90/52/33 89/50/33
f 138/63/33 139/64/33 91/55/33 90/52/33
f 139/64/33 140/65/33 92/42/33 91/55/33
f 140/65/33 141/36/33 93/43/33 92/42/33
f 141/36/33 142/37/33 94/45/33 93/43/33
f 142/37/33 143/66/33 95/47/33 94/45/33
f 143/66/33 144/67/33 96/49/33 95/47/33
f 144/67/33 130/57/33 82/51/33 96/49/33
f 130/57/33 129/56/33 81/53/33 82/51/33
s 1
f 146/22/93 145/20/94 147/21/95 149/24/96 148/23/97 150/25/98 151/26/99 152/27/100 153/28/101 154/29/102 155/30/103 156/31/104 157/32/71 158/33/70 159/34/105 160/35/106
f 70/25/76 71/26/77 151/26/99 150/25/98
f 78/33/69 79/34/78 159/34/105 158/33/70
f 71/26/77 72/27/79 152/27/100 151/26/99
f 79/34/78 80/35/80 160/35/106 159/34/105
f 73/28/81 153/28/101 171/28/107 163/28/108
f 156/31/104 76/31/72 166/31/109 174/31/110
f 73/28/81 74/29/83 154/29/102 153/28/101
f 66/22/82 65/20/39 145/20/94 146/22/93
f 67/21/38 69/24/75 149/24/96 147/21/95
f 74/29/83 75/30/73 155/30/103 154/29/102
f 65/20/39 67/21/38 147/21/95 145/20/94
f 75/30/73 76/31/72 156/31/104 155/30/103
f 160/35/106 80/35/80 168/35/108 176/35/111
f 146/22/93 160/35/106 176/35/111 175/22/112
f 68/23/74 70/25/76 150/25/98 148/23/97
f 68/23/74 148/23/97 169/23/113 161/23/114
f 72/27/79 73/28/81 163/28/108 164/27/115
f 66/22/82 146/22/93 175/22/112 167/22/116
f 80/35/80 66/22/82 167/22/116 168/35/108
f 148/23/97 149/24/96 170/24/117 169/23/113
f 77/32/68 157/32/71 173/32/118 165/32/119
f 157/32/71 156/31/104 174/31/110 173/32/118
f 149/24/96 69/24/75 162/24/119 170/24/117
f 69/24/75 68/23/74 161/23/114 162/24/119
f 76/31/72 77/32/68 165/32/119 166/31/109
f 153/28/101 152/27/100 172/27/112 171/28/107
f 152/27/100 72/27/79 164/27/115 172/27/112
