# Blender 4.4.1
# www.blender.org
mtllib Lamp_1_Small.mtl
o Lamp_1_Small
v 0.031117 -0.002285 -0.075124
v 0.075123 -0.002285 -0.031118
v 0.075123 -0.002285 0.031116
v 0.031117 -0.002285 0.075122
v -0.031118 -0.002285 0.075122
v -0.075124 -0.002285 0.031116
v -0.075124 -0.002285 -0.031118
v -0.031118 -0.002285 -0.075124
v -0.029746 0.007145 -0.071813
v -0.071812 0.007145 -0.029747
v -0.071812 0.007145 0.029744
v -0.029746 0.007145 0.071811
v 0.029745 0.007145 0.071811
v 0.071811 0.007145 0.029744
v 0.071811 0.007145 -0.029746
v 0.029745 0.007145 -0.071813
v -0.005864 0.015950 -0.014156
v -0.014156 0.015950 -0.005864
v -0.014156 0.015950 0.005863
v -0.005864 0.015950 0.014155
v 0.005863 0.015950 0.014155
v 0.014156 0.015950 0.005863
v 0.014156 0.015950 -0.005864
v 0.005863 0.015950 -0.014156
v -0.021793 0.015950 -0.052612
v -0.052611 0.015950 -0.021793
v -0.052611 0.015950 0.021791
v -0.021793 0.015950 0.052610
v 0.021792 0.015950 0.052610
v 0.052610 0.015950 0.021791
v 0.052610 0.015950 -0.021793
v 0.021792 0.015950 -0.052612
v -0.005864 0.344416 -0.014156
v -0.014156 0.344416 -0.005864
v -0.014156 0.344416 0.005863
v -0.005864 0.344416 0.014155
v 0.005863 0.344416 0.014155
v 0.014156 0.344416 0.005863
v 0.014156 0.344416 -0.005864
v 0.005863 0.344416 -0.014156
v -0.040772 0.257991 -0.098431
v -0.000001 0.257991 -0.106541
v -0.075336 0.257991 -0.075336
v -0.106541 0.257991 -0.000001
v -0.098431 0.257991 -0.040772
v -0.098431 0.257991 0.040770
v -0.075336 0.257991 0.075334
v -0.040772 0.257991 0.098430
v -0.000001 0.257991 0.106539
v 0.040771 0.257991 0.098430
v 0.075335 0.257991 0.075334
v 0.098430 0.257991 0.040770
v 0.106540 0.257991 -0.000001
v 0.098430 0.257991 -0.040772
v 0.075335 0.257991 -0.075336
v 0.040771 0.257991 -0.098431
v -0.032389 0.410843 -0.078195
v -0.000001 0.410843 -0.084637
v -0.059847 0.410843 -0.059848
v -0.084637 0.410843 -0.000001
v -0.078194 0.410843 -0.032390
v -0.078194 0.410843 0.032388
v -0.059847 0.410843 0.059846
v -0.032389 0.410843 0.078193
v -0.000001 0.410843 0.084635
v 0.032388 0.410843 0.078193
v 0.059846 0.410843 0.059846
v 0.078193 0.410843 0.032388
v 0.084636 0.410843 -0.000001
v 0.078193 0.410843 -0.032390
v 0.059846 0.410843 -0.059848
v 0.032388 0.410843 -0.078195
v -0.040772 0.410843 -0.098431
v -0.000001 0.410843 -0.106541
v -0.075336 0.410843 -0.075336
v -0.106541 0.410843 -0.000001
v -0.098431 0.410843 -0.040772
v -0.098431 0.410843 0.040770
v -0.075336 0.410843 0.075334
v -0.040772 0.410843 0.098430
v -0.000001 0.410843 0.106539
v 0.040771 0.410843 0.098430
v 0.075335 0.410843 0.075334
v 0.098430 0.410843 0.040770
v 0.106540 0.410843 -0.000001
v 0.098430 0.410843 -0.040772
v 0.075335 0.410843 -0.075336
v 0.040771 0.410843 -0.098431
v -0.032389 0.257991 -0.078195
v -0.000001 0.257991 -0.084637
v -0.059847 0.257991 -0.059848
v -0.084637 0.257991 -0.000001
v -0.078194 0.257991 -0.032390
v -0.078194 0.257991 0.032388
v -0.059847 0.257991 0.059846
v -0.032389 0.257991 0.078193
v -0.000001 0.257991 0.084635
v 0.032388 0.257991 0.078193
v 0.059846 0.257991 0.059846
v 0.078193 0.257991 0.032388
v 0.084636 0.257991 -0.000001
v 0.078193 0.257991 -0.032390
v 0.059846 0.257991 -0.059848
v 0.032388 0.257991 -0.078195
vn 0.7031 0.6488 0.2912
vn 0.8636 0.3553 0.3577
vn 0.8636 0.3553 -0.3577
vn 0.7031 0.6488 -0.2912
vn 0.2912 0.6488 0.7031
vn 0.3577 0.3553 0.8636
vn -0.2912 0.6488 0.7031
vn -0.3577 0.3553 0.8636
vn -0.2912 0.6488 -0.7031
vn 0.2912 0.6488 -0.7031
vn 0.3577 0.3553 -0.8636
vn -0.3577 0.3553 -0.8636
vn -0.7031 0.6488 -0.2912
vn -0.2270 0.9693 -0.0940
vn -0.0940 0.9693 -0.2270
vn -0.7031 0.6488 0.2912
vn -0.8636 0.3553 0.3577
vn -0.8636 0.3553 -0.3577
vn -0.0000 -1.0000 -0.0000
vn 0.0940 0.9693 0.2270
vn 0.2270 0.9693 0.0940
vn 0.2275 0.8042 0.5491
vn 0.5491 0.8042 0.2275
vn 0.7173 0.6303 0.2971
vn 0.2971 0.6303 0.7173
vn -0.2270 0.9693 0.0940
vn 0.2270 0.9693 -0.0940
vn -0.0940 0.9693 0.2270
vn 0.0940 0.9693 -0.2270
vn -0.2275 0.8042 -0.5491
vn 0.2275 0.8042 -0.5491
vn -0.5491 0.8042 -0.2275
vn -0.5491 0.8042 0.2275
vn -0.2275 0.8042 0.5491
vn 0.5491 0.8042 -0.2275
vn -0.7173 0.6303 -0.2971
vn -0.2971 0.6303 -0.7173
vn -0.7173 0.6303 0.2971
vn -0.2971 0.6303 0.7173
vn 0.7173 0.6303 -0.2971
vn 0.2971 0.6303 -0.7173
vn -1.0000 -0.0000 -0.0000
vn -0.9239 -0.0000 0.3827
vn 0.9239 -0.0000 -0.3827
vn 0.7071 -0.0000 -0.7071
vn -0.9239 -0.0000 -0.3827
vn 0.9239 -0.0000 0.3827
vn 1.0000 -0.0000 -0.0000
vn -0.7071 -0.0000 0.7071
vn -0.3827 -0.0000 0.9239
vn 0.3827 -0.0000 -0.9239
vn -0.0000 -0.0000 1.0000
vn -0.0000 -0.0000 -1.0000
vn 0.3827 -0.0000 0.9239
vn -0.3827 -0.0000 -0.9239
vn -0.7071 -0.0000 -0.7071
vn 0.7071 -0.0000 0.7071
vn -0.0000 1.0000 -0.0000
vt 0.735459 0.774522
vt 0.735459 0.783528
vt 0.729091 0.768155
vt 0.720086 0.768155
vt 0.720086 0.789896
vt 0.729091 0.789896
vt 0.713718 0.783528
vt 0.713718 0.774522
vt 0.726616 0.774130
vt 0.729483 0.776998
vt 0.722561 0.783920
vt 0.726616 0.783920
vt 0.719694 0.781053
vt 0.719694 0.776998
vt 0.722561 0.774130
vt 0.729483 0.781053
vt 0.704227 0.881322
vt 0.704000 0.882463
vt 0.698490 0.880181
vt 0.699136 0.879214
vt 0.696350 0.883350
vt 0.695947 0.881322
vt 0.706140 0.879295
vt 0.706543 0.881322
vt 0.696350 0.879295
vt 0.706140 0.883350
vt 0.697499 0.877576
vt 0.704991 0.885068
vt 0.699217 0.876427
vt 0.703272 0.886217
vt 0.701245 0.876024
vt 0.701245 0.886620
vt 0.703272 0.876427
vt 0.699217 0.886217
vt 0.697499 0.885068
vt 0.704991 0.877576
vt 0.700104 0.884077
vt 0.701245 0.884304
vt 0.699136 0.883431
vt 0.698263 0.881322
vt 0.698490 0.882463
vt 0.700104 0.878567
vt 0.701245 0.878340
vt 0.702386 0.878567
vt 0.703353 0.879214
vt 0.704000 0.880181
vt 0.703353 0.883431
vt 0.702386 0.884077
s 1
usemtl Palette
f 14/1/1 3/1/2 2/2/3 15/2/4
f 3/1/2 14/1/1 13/3/5 4/3/6
f 4/3/6 13/3/5 12/4/7 5/4/8
f 9/5/9 16/6/10 1/6/11 8/5/12
f 10/7/13 26/7/14 25/5/15 9/5/9
f 15/2/4 2/2/3 1/6/11 16/6/10
f 11/8/16 6/8/17 5/4/8 12/4/7
f 10/7/13 7/7/18 6/8/17 11/8/16
s 0
f 1/6/19 2/2/19 3/1/19 4/3/19 5/4/19 6/8/19 7/7/19 8/5/19
s 1
f 29/3/20 13/3/5 14/1/1 30/1/21
f 21/9/22 22/10/23 38/10/24 37/9/25
f 11/8/16 27/8/26 26/7/14 10/7/13
f 15/2/4 31/2/27 30/1/21 14/1/1
f 12/4/7 28/4/28 27/8/26 11/8/16
f 16/6/10 32/6/29 31/2/27 15/2/4
f 13/3/5 29/3/20 28/4/28 12/4/7
f 9/5/9 25/5/15 32/6/29 16/6/10
f 17/11/30 24/12/31 32/6/29 25/5/15
f 18/13/32 17/11/30 25/5/15 26/7/14
f 19/14/33 18/13/32 26/7/14 27/8/26
f 20/15/34 19/14/33 27/8/26 28/4/28
f 21/9/22 20/15/34 28/4/28 29/3/20
f 22/10/23 21/9/22 29/3/20 30/1/21
f 23/16/35 22/10/23 30/1/21 31/2/27
f 24/12/31 23/16/35 31/2/27 32/6/29
f 17/11/30 18/13/32 34/13/36 33/11/37
f 33/11/37 34/13/36 35/14/38 36/15/39 37/9/25 38/10/24 39/16/40 40/12/41
f 18/13/32 19/14/33 35/14/38 34/13/36
f 22/10/23 23/16/35 39/16/40 38/10/24
f 19/14/33 20/15/34 36/15/39 35/14/38
f 23/16/35 24/12/31 40/12/41 39/16/40
f 20/15/34 21/9/22 37/9/25 36/15/39
f 17/11/30 33/11/37 40/12/41 24/12/31
f 69/17/42 70/18/43 102/18/43 101/17/42
f 62/19/44 63/20/45 95/20/45 94/19/44
f 45/21/46 44/22/42 76/22/42 77/21/46
f 52/23/47 53/24/48 85/24/48 84/23/47
f 44/22/42 46/25/43 78/25/43 76/22/42
f 53/24/48 54/26/44 86/26/44 85/24/48
f 46/25/43 47/27/49 79/27/49 78/25/43
f 54/26/44 55/28/45 87/28/45 86/26/44
f 47/27/49 48/29/50 80/29/50 79/27/49
f 55/28/45 56/30/51 88/30/51 87/28/45
f 48/29/50 49/31/52 81/31/52 80/29/50
f 56/30/51 42/32/53 74/32/53 88/30/51
f 49/31/52 50/33/54 82/33/54 81/31/52
f 42/32/53 41/34/55 73/34/55 74/32/53
f 43/35/56 45/21/46 77/21/46 75/35/56
f 50/33/54 51/36/57 83/36/57 82/33/54
f 41/34/55 43/35/56 75/35/56 73/34/55
f 51/36/57 52/23/47 84/23/47 83/36/57
s 0
f 57/37/58 58/38/58 74/32/58 73/34/58
f 59/39/58 57/37/58 73/34/58 75/35/58
f 60/40/58 61/41/58 77/21/58 76/22/58
f 62/19/58 60/40/58 76/22/58 78/25/58
f 63/20/58 62/19/58 78/25/58 79/27/58
f 64/42/58 63/20/58 79/27/58 80/29/58
f 65/43/58 64/42/58 80/29/58 81/31/58
f 66/44/58 65/43/58 81/31/58 82/33/58
f 67/45/58 66/44/58 82/33/58 83/36/58
f 68/46/58 67/45/58 83/36/58 84/23/58
f 69/17/58 68/46/58 84/23/58 85/24/58
f 70/18/58 69/17/58 85/24/58 86/26/58
f 71/47/58 70/18/58 86/26/58 87/28/58
f 72/48/58 71/47/58 87/28/58 88/30/58
f 58/38/58 72/48/58 88/30/58 74/32/58
f 61/41/58 59/39/58 75/35/58 77/21/58
s 1
f 70/18/43 71/47/49 103/47/49 102/18/43
f 63/20/45 64/42/51 96/42/51 95/20/45
f 71/47/49 72/48/50 104/48/50 103/47/49
f 64/42/51 65/43/53 97/43/53 96/42/51
f 72/48/50 58/38/52 90/38/52 104/48/50
f 65/43/53 66/44/55 98/44/55 97/43/53
f 58/38/52 57/37/54 89/37/54 90/38/52
f 59/39/57 61/41/47 93/41/47 91/39/57
f 66/44/55 67/45/56 99/45/56 98/44/55
f 57/37/54 59/39/57 91/39/57 89/37/54
f 67/45/56 68/46/46 100/46/46 99/45/56
f 61/41/47 60/40/48 92/40/48 93/41/47
f 68/46/46 69/17/42 101/17/42 100/46/46
f 60/40/48 62/19/44 94/19/44 92/40/48
s 0
f 89/37/19 91/39/19 43/35/19 41/34/19
f 91/39/19 93/41/19 45/21/19 43/35/19
f 93/41/19 92/40/19 44/22/19 45/21/19
f 92/40/19 94/19/19 46/25/19 44/22/19
f 94/19/19 95/20/19 47/27/19 46/25/19
f 95/20/19 96/42/19 48/29/19 47/27/19
f 96/42/19 97/43/19 49/31/19 48/29/19
f 97/43/19 98/44/19 50/33/19 49/31/19
f 98/44/19 99/45/19 51/36/19 50/33/19
f 99/45/19 100/46/19 52/23/19 51/36/19
f 100/46/19 101/17/19 53/24/19 52/23/19
f 101/17/19 102/18/19 54/26/19 53/24/19
f 102/18/19 103/47/19 55/28/19 54/26/19
f 103/47/19 104/48/19 56/30/19 55/28/19
f 104/48/19 90/38/19 42/32/19 56/30/19
f 90/38/19 89/37/19 41/34/19 42/32/19
s 1
f 7/7/18 10/7/13 9/5/9 8/5/12
