# Blender 4.4.1
# www.blender.org
mtllib Marker.mtl
o Marker
v 0.006907 0.101239 -0.000000
v -0.004884 0.101239 0.004884
v 0.004884 0.101239 -0.004884
v -0.000000 0.101239 -0.006907
v -0.000000 0.101239 0.006907
v 0.004884 0.101239 0.004884
v -0.004884 0.101239 -0.004884
v -0.006907 0.101239 -0.000000
v 0.006370 0.003459 -0.006370
v 0.009008 0.003459 -0.000000
v 0.006370 0.003459 0.006369
v -0.009007 0.003459 -0.000000
v 0.000001 0.003459 -0.009008
v -0.006369 0.003459 -0.006370
v -0.006369 0.003459 0.006369
v 0.000001 0.003459 0.009008
v 0.004325 0.003459 -0.004325
v 0.006116 0.003459 -0.000000
v 0.004325 0.003459 0.004324
v 0.000000 0.003459 0.006116
v -0.004324 0.003459 0.004324
v -0.006116 0.003459 -0.000000
v 0.000000 0.003459 -0.006116
v -0.004324 0.003459 -0.004325
v 0.000000 -0.000963 -0.006116
v -0.004324 -0.000963 -0.004325
v -0.006116 -0.000963 -0.000000
v -0.004324 -0.000963 0.004324
v 0.000000 -0.000963 0.006116
v 0.004325 -0.000963 0.004324
v 0.006116 -0.000963 -0.000000
v 0.004325 -0.000963 -0.004325
v -0.006369 0.098423 -0.006370
v 0.000001 0.098423 -0.009008
v 0.009008 0.098423 -0.000000
v 0.006370 0.098423 0.006369
v 0.000001 0.098423 0.009008
v -0.006369 0.098423 0.006369
v -0.009007 0.098423 -0.000000
v 0.006370 0.098423 -0.006370
v -0.002694 0.105308 -0.002694
v 0.000000 0.105308 -0.003810
v 0.003810 0.105308 0.000000
v 0.002694 0.105308 0.002695
v 0.000000 0.105308 0.003811
v -0.002694 0.105308 0.002695
v -0.003810 0.105308 0.000000
v 0.002694 0.105308 -0.002694
v -0.004115 0.105308 -0.004115
v 0.000000 0.105308 -0.005819
v 0.005819 0.105308 0.000000
v 0.004115 0.105308 0.004115
v 0.000000 0.105308 0.005820
v -0.004115 0.105308 0.004115
v -0.005819 0.105308 0.000000
v 0.004115 0.105308 -0.004115
v -0.002694 0.110801 -0.002694
v 0.000000 0.110801 -0.003810
v 0.003810 0.110801 0.000000
v 0.002694 0.110801 0.002695
v 0.000000 0.110801 0.003811
v -0.002694 0.110801 0.002695
v -0.003810 0.110801 0.000000
v 0.002694 0.110801 -0.002694
v -0.001612 0.110395 0.000901
v -0.001612 0.115750 0.000901
v -0.001612 0.110395 -0.000901
v -0.001612 0.114956 -0.000901
v 0.001612 0.110395 0.000901
v 0.001612 0.115750 0.000901
v 0.001612 0.110395 -0.000901
v 0.001612 0.114956 -0.000901
v -0.006369 0.083213 -0.006370
v -0.006369 0.052568 -0.006370
v -0.006369 0.052568 0.006369
v -0.006369 0.083213 0.006369
v -0.009007 0.083213 -0.000000
v -0.009007 0.052568 -0.000000
v 0.006370 0.052568 -0.006370
v 0.006370 0.083213 -0.006370
v 0.000001 0.052568 -0.009008
v 0.000001 0.083213 -0.009008
v 0.009008 0.083213 -0.000000
v 0.009008 0.052568 -0.000000
v 0.000001 0.083213 0.009008
v 0.000001 0.052568 0.009008
v 0.006370 0.052568 0.006369
v 0.006370 0.083213 0.006369
vn -0.0000 -1.0000 -0.0000
vn -0.7071 -0.0000 0.7071
vn -0.6758 0.2941 0.6758
vn -0.9558 0.2941 -0.0000
vn -1.0000 -0.0000 -0.0000
vn -0.7071 -0.0000 -0.7071
vn -0.6758 0.2941 -0.6758
vn -0.0000 0.2942 -0.9557
vn -0.0000 -0.0000 -1.0000
vn -0.8905 0.4551 -0.0000
vn -0.9661 0.2582 -0.0000
vn -0.6831 0.2583 -0.6831
vn -0.6296 0.4551 -0.6296
vn -0.3827 -0.0000 -0.9239
vn 1.0000 -0.0000 -0.0000
vn 0.9557 0.2942 -0.0000
vn 0.6758 0.2942 0.6758
vn 0.7071 -0.0000 0.7071
vn 0.6758 0.2942 -0.6758
vn 0.7071 -0.0000 -0.7071
vn -0.0000 0.2942 0.9558
vn -0.0000 -0.0000 1.0000
vn 0.3827 -0.0000 -0.9239
vn -0.9239 -0.0000 0.3827
vn 0.9239 -0.0000 0.3827
vn -0.3827 -0.0000 0.9239
vn 0.3827 -0.0000 0.9239
vn 0.9239 -0.0000 -0.3827
vn -0.9239 -0.0000 -0.3827
vn -0.0000 0.4552 -0.8904
vn 0.6296 0.4551 0.6296
vn 0.8904 0.4552 -0.0000
vn -0.6297 0.4550 0.6296
vn -0.0000 0.4551 0.8905
vn 0.6296 0.4552 -0.6296
vn -0.0000 0.2581 0.9661
vn -0.6831 0.2581 0.6832
vn -0.0000 0.2583 -0.9661
vn 0.6831 0.2583 -0.6831
vn 0.6831 0.2581 0.6832
vn 0.9661 0.2582 -0.0000
vn -0.0000 1.0000 -0.0000
vn -0.0000 0.9151 -0.4033
vt 0.706262 0.776407
vt 0.694215 0.781397
vt 0.718309 0.805491
vt 0.723299 0.793444
vt 0.706141 0.783100
vt 0.701151 0.795148
vt 0.701151 0.795148
vt 0.706141 0.807195
vt 0.718188 0.812185
vt 0.700045 0.790036
vt 0.703862 0.799252
vt 0.718309 0.781397
vt 0.775429 0.725348
vt 0.787476 0.730338
vt 0.735225 0.795148
vt 0.735225 0.795148
vt 0.730235 0.783100
vt 0.730235 0.807195
vt 0.718188 0.778110
vt 0.718188 0.778110
vt 0.799523 0.725348
vt 0.689225 0.793444
vt 0.775429 0.701254
vt 0.770439 0.713301
vt 0.804513 0.713301
vt 0.799523 0.701254
vt 0.787476 0.696264
vt 0.694215 0.805491
vt 0.706262 0.810481
vt 0.713077 0.803069
vt 0.713077 0.807073
vt 0.701030 0.802083
vt 0.722292 0.780821
vt 0.725124 0.777989
vt 0.730114 0.790036
vt 0.726109 0.790036
vt 0.703862 0.780821
vt 0.701030 0.777989
vt 0.713077 0.772999
vt 0.713077 0.777004
vt 0.696040 0.790036
vt 0.722292 0.799252
vt 0.725124 0.802083
vt 0.803732 0.705564
vt 0.797698 0.703065
vt 0.797698 0.720130
vt 0.797698 0.724630
vt 0.788483 0.720813
vt 0.791665 0.717631
vt 0.806913 0.702382
vt 0.810731 0.711597
vt 0.806231 0.711597
vt 0.791665 0.705564
vt 0.788483 0.702382
vt 0.797698 0.698565
vt 0.784666 0.711597
vt 0.789165 0.711597
vt 0.803732 0.717631
vt 0.806913 0.720813
vt 0.289804 0.684607
vt 0.298323 0.684607
vt 0.298323 0.693125
vt 0.289804 0.693125
vt 0.298323 0.701644
vt 0.289804 0.701644
vt 0.298323 0.710162
vt 0.289804 0.710162
vt 0.298323 0.718681
vt 0.289804 0.718681
vt 0.306841 0.701644
vt 0.306841 0.710162
vt 0.273619 0.715273
vt 0.273619 0.715273
vt 0.278609 0.727320
vt 0.302703 0.727320
vt 0.307693 0.715273
vt 0.290656 0.698236
vt 0.278609 0.703226
vt 0.302703 0.703226
vt 0.718188 0.812185
vt 0.290656 0.732311
s 0
usemtl Palette
f 20/1/1 16/1/1 15/2/1 21/2/1
f 17/3/1 9/3/1 10/4/1 18/4/1
s 1
f 76/5/2 38/5/3 39/6/4 77/7/5
f 73/8/6 33/8/7 34/9/8 82/9/9
f 8/10/10 55/10/11 49/11/12 7/11/13
s 0
f 18/4/1 10/4/1 11/12/1 19/12/1
f 26/13/14 24/13/14 23/14/14 25/14/14
s 1
f 83/15/15 35/16/16 36/17/17 88/17/18
f 82/9/9 34/9/8 40/18/19 80/18/20
f 88/17/18 36/17/17 37/19/21 85/20/22
s 0
f 25/14/23 23/14/23 17/21/23 32/21/23
f 21/2/1 15/2/1 12/22/1 22/22/1
f 28/23/24 21/23/24 22/24/24 27/24/24
f 31/25/25 18/25/25 19/26/25 30/26/25
f 29/27/26 20/27/26 21/23/26 28/23/26
f 30/26/27 19/26/27 20/27/27 29/27/27
f 32/21/28 17/21/28 18/25/28 31/25/28
f 27/24/29 22/24/29 24/13/29 26/13/29
s 1
f 85/20/22 37/19/21 38/5/3 76/5/2
s 0
f 24/28/1 14/28/1 13/29/1 23/29/1
f 23/29/1 13/29/1 9/3/1 17/3/1
f 19/12/1 11/12/1 16/1/1 20/1/1
f 22/22/1 12/22/1 14/28/1 24/28/1
s 1
f 80/18/20 40/18/19 35/16/16 83/15/15
f 77/7/5 39/6/4 33/8/7 73/8/6
s 0
f 25/14/1 32/21/1 31/25/1 30/26/1 29/27/1 28/23/1 27/24/1 26/13/1
s 1
f 4/30/30 34/31/8 33/32/7 7/11/13
f 6/33/31 36/34/17 35/35/16 1/36/32
f 2/37/33 38/38/3 37/39/21 5/40/34
f 5/40/34 37/39/21 36/34/17 6/33/31
f 7/11/13 33/32/7 39/41/4 8/10/10
f 3/42/35 40/43/19 34/31/8 4/30/30
f 1/36/32 35/35/16 40/43/19 3/42/35
f 8/10/10 39/41/4 38/38/3 2/37/33
s 0
f 44/44/27 60/44/27 61/45/27 45/45/27
s 1
f 5/40/34 53/40/36 54/37/37 2/37/33
f 7/11/13 49/11/12 50/30/38 4/30/30
f 2/37/33 54/37/37 55/10/11 8/10/10
f 4/30/30 50/30/38 56/42/39 3/42/35
f 6/33/31 52/33/40 53/40/36 5/40/34
f 1/36/32 51/36/41 52/33/40 6/33/31
f 3/42/35 56/42/39 51/36/41 1/36/32
s 0
f 42/46/42 50/47/42 49/48/42 41/49/42
f 44/44/42 52/50/42 51/51/42 43/52/42
f 46/53/42 54/54/42 53/55/42 45/45/42
f 45/45/42 53/55/42 52/50/42 44/44/42
f 41/49/42 49/48/42 55/56/42 47/57/42
f 48/58/42 56/59/42 50/47/42 42/46/42
f 43/52/42 51/51/42 56/59/42 48/58/42
f 47/57/42 55/56/42 54/54/42 46/53/42
f 58/46/42 57/49/42 63/57/42 62/53/42 61/45/42 60/44/42 59/52/42 64/58/42
f 43/52/25 59/52/25 60/44/25 44/44/25
f 48/58/28 64/58/28 59/52/28 43/52/28
f 47/57/29 63/57/29 57/49/29 41/49/29
f 45/45/26 61/45/26 62/53/26 46/53/26
f 41/49/14 57/49/14 58/46/14 42/46/14
f 46/53/24 62/53/24 63/57/24 47/57/24
f 42/46/23 58/46/23 64/58/23 48/58/23
f 65/60/5 66/61/5 68/62/5 67/63/5
f 67/63/9 68/62/9 72/64/9 71/65/9
f 71/65/15 72/64/15 70/66/15 69/67/15
f 69/67/22 70/66/22 66/68/22 65/69/22
f 72/64/43 68/70/43 66/71/43 70/66/43
s 1
f 12/6/5 78/6/5 74/8/6 14/8/6
f 78/72/5 77/73/5 73/74/6 74/74/6
f 9/18/20 79/18/20 84/16/15 10/16/15
f 79/75/20 80/75/20 83/76/15 84/76/15
f 16/19/22 86/19/22 75/5/2 15/5/2
f 86/77/22 85/77/22 76/78/2 75/78/2
f 11/17/18 87/17/18 86/19/22 16/19/22
f 87/79/18 88/79/18 85/77/22 86/77/22
f 13/9/9 81/80/9 79/18/20 9/18/20
f 81/81/9 82/81/9 80/75/20 79/75/20
f 10/16/15 84/16/15 87/17/18 11/17/18
f 84/76/15 83/76/15 88/79/18 87/79/18
f 14/8/6 74/8/6 81/80/9 13/9/9
f 74/74/6 73/74/6 82/81/9 81/81/9
f 15/5/2 75/5/2 78/6/5 12/6/5
f 75/78/2 76/78/2 77/73/5 78/72/5
