# Blender 4.4.1
# www.blender.org
mtllib MarkerEraser.mtl
o MarkerEraser
v 0.061312 -0.001729 -0.021739
v -0.061312 -0.001729 -0.021739
v 0.061312 -0.001729 0.021741
v -0.061312 -0.001729 0.021741
v 0.061312 0.011857 -0.021739
v -0.061312 0.011857 -0.021739
v -0.061312 0.011857 0.021741
v 0.061312 0.011857 0.021741
v 0.058409 0.007880 -0.026861
v 0.067137 0.007880 -0.019136
v 0.062773 0.007880 -0.025826
v 0.065968 0.007880 -0.022999
v -0.067139 0.007880 -0.019136
v -0.058411 0.007880 -0.026861
v -0.065970 0.007880 -0.022999
v -0.062775 0.007880 -0.025826
v -0.058411 0.007880 0.026863
v -0.067139 0.007880 0.019137
v -0.062775 0.007880 0.025828
v -0.065970 0.007880 0.023000
v 0.067137 0.007880 0.019137
v 0.058409 0.007880 0.026863
v 0.065968 0.007880 0.023000
v 0.062773 0.007880 0.025828
v 0.067137 0.028640 -0.019136
v 0.058409 0.028640 -0.026861
v 0.065968 0.028640 -0.022999
v 0.062773 0.028640 -0.025826
v -0.058411 0.028640 -0.026861
v -0.067139 0.028640 -0.019136
v -0.062775 0.028640 -0.025826
v -0.065970 0.028640 -0.022999
v -0.067139 0.028640 0.019137
v -0.058411 0.028640 0.026863
v -0.065970 0.028640 0.023000
v -0.062775 0.028640 0.025828
v 0.058409 0.028640 0.026863
v 0.067137 0.028640 0.019137
v 0.062773 0.028640 0.025828
v 0.065968 0.028640 0.023000
vn -0.0000 -1.0000 -0.0000
vn 1.0000 -0.0000 -0.0000
vn -1.0000 -0.0000 -0.0000
vn -0.0000 -0.0000 1.0000
vn -0.0000 -0.0000 -1.0000
vn -0.0000 1.0000 -0.0000
vn 0.9571 -0.0000 0.2897
vn 0.6628 -0.0000 0.7488
vn 0.2308 -0.0000 0.9730
vn -0.9571 -0.0000 0.2897
vn -0.6628 -0.0000 0.7488
vn -0.2308 -0.0000 0.9730
vn -0.9571 -0.0000 -0.2897
vn -0.6628 -0.0000 -0.7488
vn -0.2308 -0.0000 -0.9730
vn 0.9571 -0.0000 -0.2897
vn 0.6628 -0.0000 -0.7488
vn 0.2308 -0.0000 -0.9730
vt 0.120752 0.948398
vt 0.120752 0.980587
vt 0.152940 0.980587
vt 0.152940 0.948398
vt 0.308474 0.692445
vt 0.308474 0.716719
vt 0.274400 0.692445
vt 0.274499 0.689995
vt 0.275508 0.687764
vt 0.276615 0.687545
vt 0.306259 0.687545
vt 0.307367 0.687764
vt 0.308375 0.689995
vt 0.308375 0.719169
vt 0.307367 0.721400
vt 0.306259 0.721619
vt 0.276615 0.721619
vt 0.275508 0.721400
vt 0.274499 0.719169
vt 0.274400 0.716719
s 0
usemtl Palette
f 4/1/1 2/2/1 1/3/1 3/4/1
f 3/4/2 1/3/2 5/3/2 8/4/2
f 2/2/3 4/1/3 7/1/3 6/2/3
f 4/1/4 3/4/4 8/4/4 7/1/4
f 1/3/5 2/2/5 6/2/5 5/3/5
f 21/5/2 10/6/2 25/6/2 38/5/2
f 33/7/6 35/8/6 36/9/6 34/10/6 37/11/6 39/12/6 40/13/6 38/5/6 25/6/6 27/14/6 28/15/6 26/16/6 29/17/6 31/18/6 32/19/6 30/20/6
f 17/10/1 19/9/1 20/8/1 18/7/1 13/20/1 15/19/1 16/18/1 14/17/1 9/16/1 11/15/1 12/14/1 10/6/1 21/5/1 23/13/1 24/12/1 22/11/1
f 13/20/3 18/7/3 33/7/3 30/20/3
f 17/10/4 22/11/4 37/11/4 34/10/4
f 21/5/7 38/5/7 40/13/7 23/13/7
f 23/13/8 40/13/8 39/12/8 24/12/8
f 24/12/9 39/12/9 37/11/9 22/11/9
f 33/7/10 18/7/10 20/8/10 35/8/10
f 35/8/11 20/8/11 19/9/11 36/9/11
f 36/9/12 19/9/12 17/10/12 34/10/12
f 13/20/13 30/20/13 32/19/13 15/19/13
f 15/19/14 32/19/14 31/18/14 16/18/14
f 16/18/15 31/18/15 29/17/15 14/17/15
f 25/6/16 10/6/16 12/14/16 27/14/16
f 27/14/17 12/14/17 11/15/17 28/15/17
f 28/15/18 11/15/18 9/16/18 26/16/18
f 9/16/5 14/17/5 29/17/5 26/16/5
