# Blender 4.4.1
# www.blender.org
mtllib Microwave_Old_B.mtl
o Microwave_Old_B
v 0.631333 0.471927 -0.014950
v 0.631333 0.020205 -0.014950
v 0.631333 0.471927 0.011752
v 0.631333 0.020205 0.011752
v 0.556821 0.105721 -0.014950
v 0.556821 0.386412 -0.014950
v 0.058838 0.105721 -0.014950
v 0.058838 0.386412 -0.014950
v 0.058838 0.105721 0.011752
v 0.058838 0.386412 0.011752
v 0.556821 0.105721 0.011752
v 0.556821 0.386412 0.011752
v -0.017110 0.448114 -0.014950
v 0.006702 0.471927 -0.014950
v -0.001298 0.454123 -0.014950
v -0.010136 0.464953 -0.014950
v 0.006702 0.020205 -0.014950
v -0.017110 0.044018 -0.014950
v -0.001298 0.038010 -0.014950
v -0.010136 0.027180 -0.014950
v 0.006702 0.471927 0.011752
v -0.017110 0.448114 0.011752
v -0.001298 0.454123 0.011752
v -0.010136 0.464953 0.011752
v -0.017110 0.044018 0.011752
v 0.006702 0.020205 0.011752
v -0.001298 0.038010 0.011752
v -0.010136 0.027180 0.011752
vn -0.0000 -0.0000 -1.0000
vn -0.0000 -0.0000 1.0000
vn -0.0000 -1.0000 -0.0000
vn -0.0000 1.0000 -0.0000
vn 1.0000 -0.0000 -0.0000
vn -1.0000 -0.0000 -0.0000
vn -0.9239 0.3827 -0.0000
vn -0.3827 0.9239 -0.0000
vn -0.3827 -0.9239 -0.0000
vn -0.9239 -0.3827 -0.0000
vt 0.372181 0.792204
vt 0.372181 0.791617
vt 0.372181 0.791617
vt 0.372181 0.787283
vt 0.372181 0.787220
vt 0.372181 0.787694
vt 0.372181 0.787693
vt 0.372181 0.787095
vt 0.372181 0.787220
vt 0.372181 0.787095
vt 0.372181 0.787150
s 0
usemtl Palette
f 1/1/1 2/1/1 5/2/1 6/3/1
f 12/3/2 3/1/2 21/4/2 23/5/2 10/6/2
f 6/3/3 12/3/3 10/6/3 8/7/3
f 5/2/4 7/6/4 9/7/4 11/2/4
f 11/2/2 4/1/2 3/1/2 12/3/2
f 10/6/2 23/5/2 22/8/2 25/8/2 27/5/2 9/7/2
f 2/1/1 17/4/1 19/9/1 7/6/1 5/2/1
f 1/1/5 3/1/5 4/1/5 2/1/5
f 14/4/4 21/4/4 3/1/4 1/1/4
f 7/6/1 19/5/1 18/8/1 13/8/1 15/5/1 8/7/1
f 10/6/5 9/7/5 7/6/5 8/7/5
f 6/3/6 5/2/6 11/2/6 12/3/6
f 9/7/2 27/5/2 26/4/2 4/1/2 11/2/2
f 2/1/3 4/1/3 26/4/3 17/4/3
f 18/8/6 25/8/6 22/8/6 13/8/6
f 13/8/1 16/10/1 15/5/1
f 16/10/1 14/8/1 15/5/1
f 17/4/1 20/11/1 19/5/1
f 20/11/1 18/8/1 19/5/1
f 21/4/2 24/11/2 23/5/2
f 24/11/2 22/8/2 23/5/2
f 25/8/2 28/8/2 27/5/2
f 28/8/2 26/8/2 27/5/2
f 13/8/7 22/8/7 24/8/7 16/8/7
f 16/8/8 24/8/8 21/4/8 14/4/8
f 17/4/9 26/4/9 28/8/9 20/8/9
f 20/8/10 28/8/10 25/8/10 18/8/10
f 8/7/1 15/5/1 14/4/1 1/1/1 6/3/1
