# Blender 4.4.1
# www.blender.org
mtllib Microwave_New_B.mtl
o Microwave_New_B
v 0.603137 0.471927 -0.014950
v -0.017110 0.471927 -0.014950
v -0.017110 0.020205 -0.014950
v 0.603137 0.020205 -0.014950
v -0.017110 0.471927 0.011752
v 0.603137 0.471927 0.011752
v 0.603137 0.020205 0.011752
v -0.017110 0.020205 0.011752
v 0.528625 0.105721 -0.014950
v 0.528625 0.386412 -0.014950
v 0.030642 0.105721 -0.014950
v 0.030642 0.386412 -0.014950
v 0.030642 0.105721 0.011752
v 0.030642 0.386412 0.011752
v 0.528625 0.105721 0.011752
v 0.528625 0.386412 0.011752
vn -0.0000 -0.0000 -1.0000
vn -0.0000 -1.0000 -0.0000
vn -0.0000 1.0000 -0.0000
vn -0.0000 -0.0000 1.0000
vn 1.0000 -0.0000 -0.0000
vn -1.0000 -0.0000 -0.0000
vt 0.706146 0.800597
vt 0.706146 0.800010
vt 0.706146 0.795488
vt 0.706146 0.796086
vt 0.706146 0.796086
s 0
usemtl Palette
f 1/1/1 4/1/1 9/2/1 10/2/1
f 4/1/1 3/3/1 11/4/1 9/2/1
f 10/2/2 16/2/2 14/4/2 12/5/2
f 9/2/3 11/4/3 13/5/3 15/2/3
f 15/2/4 7/1/4 6/1/4 16/2/4
f 16/2/4 6/1/4 5/3/4 14/4/4
f 4/1/2 7/1/2 8/3/2 3/3/2
f 1/1/5 6/1/5 7/1/5 4/1/5
f 3/3/6 8/3/6 5/3/6 2/3/6
f 2/3/3 5/3/3 6/1/3 1/1/3
f 14/4/5 13/5/5 11/4/5 12/5/5
f 10/2/6 9/2/6 15/2/6 16/2/6
f 14/4/4 5/3/4 8/3/4 13/5/4
f 13/5/4 8/3/4 7/1/4 15/2/4
f 11/4/1 3/3/1 2/3/1 12/5/1
f 12/5/1 2/3/1 1/1/1 10/2/1
