# Blender 4.4.1
# www.blender.org
mtllib Nature_Deco_Small.mtl
o Nature_Deco_Small
v -0.131117 0.655235 0.581117
v 0.131117 0.655235 0.581117
v -0.131117 0.655235 -0.581117
v 0.131117 0.655235 -0.581117
v 0.187500 0.000000 -0.637500
v -0.187500 0.000000 -0.637500
v 0.187500 0.000000 0.637500
v -0.187500 0.000000 0.637500
v -0.187500 0.655235 -0.637500
v -0.187500 0.655235 0.637500
v 0.187500 0.655235 0.637500
v 0.187500 0.655235 -0.637500
v -0.131117 0.590003 -0.581117
v -0.131117 0.590003 0.581117
v 0.131117 0.590003 0.581117
v 0.131117 0.590003 -0.581117
vn -0.0000 -0.0000 -1.0000
vn -1.0000 -0.0000 -0.0000
vn -0.0000 -0.0000 1.0000
vn -0.0000 -1.0000 -0.0000
vn 1.0000 -0.0000 -0.0000
vn -0.0000 1.0000 -0.0000
vt 0.968976 0.728959
vt 0.936787 0.728959
vt 0.936787 0.696771
vt 0.964136 0.727536
vt 0.941627 0.727536
vt 0.968976 0.696771
vt 0.941627 0.698194
vt 0.964136 0.698194
vt 0.035377 0.448860
vt 0.059204 0.448860
vt 0.059204 0.479921
vt 0.035377 0.479921
s 0
usemtl Palette
f 5/1/1 6/2/1 9/2/1 12/1/1
f 6/2/2 8/3/2 10/3/2 9/2/2
f 4/4/3 3/5/3 13/5/3 16/4/3
f 8/3/4 6/2/4 5/1/4 7/6/4
f 7/6/5 5/1/5 12/1/5 11/6/5
f 8/3/3 7/6/3 11/6/3 10/3/3
f 1/7/6 3/5/6 9/2/6 10/3/6
f 2/8/6 1/7/6 10/3/6 11/6/6
f 4/4/6 2/8/6 11/6/6 12/1/6
f 3/5/6 4/4/6 12/1/6 9/2/6
f 14/9/6 15/10/6 16/11/6 13/12/6
f 1/7/1 2/8/1 15/8/1 14/7/1
f 2/8/2 4/4/2 16/4/2 15/8/2
f 3/5/5 1/7/5 14/7/5 13/5/5
