# Blender 4.4.1
# www.blender.org
mtllib Nature_Deco_2_Small.mtl
o Nature_Deco_2_Small
v -0.000000 -0.002285 -0.074871
v -0.000000 0.570452 -0.103038
v 0.028652 -0.002285 -0.069171
v 0.039431 0.570452 -0.095195
v 0.052941 -0.002285 -0.052941
v 0.072859 0.570452 -0.072859
v 0.069171 -0.002285 -0.028652
v 0.095195 0.570452 -0.039431
v 0.074871 -0.002285 0.000000
v 0.103038 0.570452 0.000000
v 0.069171 -0.002285 0.028652
v 0.095195 0.570452 0.039431
v 0.052941 -0.002285 0.052941
v 0.072859 0.570452 0.072859
v 0.028652 -0.002285 0.069171
v 0.039431 0.570452 0.095195
v 0.000000 -0.002285 0.074871
v 0.000000 0.570452 0.103038
v -0.028652 -0.002285 0.069171
v -0.039431 0.570452 0.095195
v -0.052941 -0.002285 0.052941
v -0.072859 0.570452 0.072859
v -0.069171 -0.002285 0.028652
v -0.095195 0.570452 0.039431
v -0.074870 -0.002285 -0.000000
v -0.103038 0.570452 0.000000
v -0.069171 -0.002285 -0.028652
v -0.095195 0.570452 -0.039431
v -0.052941 -0.002285 -0.052941
v -0.072859 0.570452 -0.072859
v -0.028652 -0.002285 -0.069171
v -0.039431 0.570452 -0.095195
v 0.051656 0.570452 -0.124709
v -0.000000 0.570452 -0.134985
v 0.095448 0.570452 -0.095448
v 0.124709 0.570452 -0.051656
v 0.134985 0.570452 0.000000
v 0.124709 0.570452 0.051656
v 0.095448 0.570452 0.095448
v 0.051656 0.570452 0.124709
v 0.000000 0.570452 0.134985
v -0.051656 0.570452 0.124709
v -0.095448 0.570452 0.095449
v -0.124709 0.570452 0.051656
v -0.134985 0.570452 -0.000000
v -0.124709 0.570452 -0.051656
v -0.095448 0.570452 -0.095449
v -0.051656 0.570452 -0.124709
v 0.039431 0.542833 -0.095195
v -0.000000 0.542833 -0.103038
v 0.072859 0.542833 -0.072859
v 0.095195 0.542833 -0.039431
v 0.103038 0.542833 0.000000
v 0.095195 0.542833 0.039431
v 0.072859 0.542833 0.072859
v 0.039431 0.542833 0.095195
v 0.000000 0.542833 0.103038
v -0.039431 0.542833 0.095195
v -0.072859 0.542833 0.072859
v -0.095195 0.542833 0.039431
v -0.103038 0.542833 0.000000
v -0.095195 0.542833 -0.039431
v -0.072859 0.542833 -0.072859
v -0.039431 0.542833 -0.095195
vn -0.0000 -0.1044 -0.9945
vn 0.3806 -0.1044 -0.9188
vn 0.7032 -0.1044 -0.7032
vn 0.9188 -0.1044 -0.3806
vn 0.9945 -0.1044 -0.0000
vn 0.9188 -0.1044 0.3806
vn 0.7032 -0.1044 0.7032
vn 0.3806 -0.1044 0.9188
vn -0.0000 -0.1044 0.9945
vn -0.3806 -0.1044 0.9188
vn -0.7032 -0.1044 0.7032
vn -0.9188 -0.1044 0.3806
vn -0.9945 -0.1044 -0.0000
vn -0.9188 -0.1044 -0.3806
vn -0.7032 -0.1044 -0.7032
vn -1.0000 -0.0000 -0.0000
vn -0.9239 -0.0000 0.3827
vn -0.3806 -0.1044 -0.9188
vn -0.0000 -1.0000 -0.0000
vn -0.0000 1.0000 -0.0000
vn 1.0000 -0.0000 -0.0000
vn 0.9239 -0.0000 -0.3827
vn -0.9239 -0.0000 -0.3827
vn 0.9239 -0.0000 0.3827
vn -0.7071 -0.0000 -0.7071
vn 0.7071 -0.0000 0.7071
vn -0.3827 -0.0000 -0.9239
vn 0.3827 -0.0000 0.9239
vn -0.0000 -0.0000 -1.0000
vn -0.3827 -0.0000 0.9239
vn -0.0000 -0.0000 1.0000
vn 0.3827 -0.0000 -0.9239
vn -0.7071 -0.0000 0.7071
vn 0.7071 -0.0000 -0.7071
vt 0.736845 0.791282
vt 0.736845 0.815795
vt 0.733781 0.815795
vt 0.733781 0.791282
vt 0.730717 0.815795
vt 0.730717 0.791282
vt 0.727653 0.815795
vt 0.727653 0.791282
vt 0.724588 0.815795
vt 0.724588 0.791282
vt 0.721524 0.815795
vt 0.721524 0.791282
vt 0.718460 0.815795
vt 0.718460 0.791282
vt 0.715396 0.815795
vt 0.715396 0.791282
vt 0.712332 0.815795
vt 0.712332 0.791282
vt 0.709267 0.815795
vt 0.709267 0.791282
vt 0.706203 0.815795
vt 0.706203 0.791282
vt 0.703139 0.815795
vt 0.703139 0.791282
vt 0.700075 0.815795
vt 0.700075 0.791282
vt 0.697011 0.815795
vt 0.697011 0.791282
vt 0.693947 0.815795
vt 0.693947 0.791282
vt 0.709057 0.779025
vt 0.708373 0.782462
vt 0.690882 0.815795
vt 0.690882 0.791282
vt 0.687818 0.815795
vt 0.687818 0.791282
vt 0.724588 0.790792
vt 0.729091 0.789896
vt 0.732909 0.787345
vt 0.735459 0.783528
vt 0.736355 0.779025
vt 0.735459 0.774522
vt 0.732909 0.770705
vt 0.729091 0.768155
vt 0.724588 0.767259
vt 0.720086 0.768155
vt 0.716268 0.770705
vt 0.713718 0.774522
vt 0.712822 0.779025
vt 0.713718 0.783528
vt 0.716268 0.787345
vt 0.720086 0.789896
vt 0.700075 0.788007
vt 0.703512 0.787323
vt 0.704578 0.789896
vt 0.700075 0.790792
vt 0.706426 0.785376
vt 0.708395 0.787345
vt 0.710946 0.783528
vt 0.711841 0.779025
vt 0.708373 0.775588
vt 0.710946 0.774522
vt 0.706426 0.772674
vt 0.708395 0.770705
vt 0.703512 0.770727
vt 0.704578 0.768155
vt 0.700075 0.770044
vt 0.700075 0.767259
vt 0.696638 0.770727
vt 0.695572 0.768155
vt 0.693724 0.772674
vt 0.691755 0.770705
vt 0.691777 0.775588
vt 0.689204 0.774522
vt 0.691093 0.779025
vt 0.688309 0.779025
vt 0.691777 0.782462
vt 0.689204 0.783528
vt 0.693724 0.785376
vt 0.691755 0.787345
vt 0.696638 0.787323
vt 0.695572 0.789896
vt 0.043090 0.484973
vt 0.039653 0.485656
vt 0.036215 0.484973
vt 0.033302 0.483026
vt 0.031355 0.480112
vt 0.030671 0.476675
vt 0.031355 0.473237
vt 0.033302 0.470324
vt 0.036215 0.468377
vt 0.039653 0.467693
vt 0.043090 0.468377
vt 0.046004 0.470324
vt 0.047951 0.473237
vt 0.048634 0.476675
vt 0.047951 0.480112
vt 0.046004 0.483026
s 1
usemtl Palette
f 1/1/1 34/2/1 33/3/2 3/4/2
f 3/4/2 33/3/2 35/5/3 5/6/3
f 5/6/3 35/5/3 36/7/4 7/8/4
f 7/8/4 36/7/4 37/9/5 9/10/5
f 9/10/5 37/9/5 38/11/6 11/12/6
f 11/12/6 38/11/6 39/13/7 13/14/7
f 13/14/7 39/13/7 40/15/8 15/16/8
f 15/16/8 40/15/8 41/17/9 17/18/9
f 17/18/9 41/17/9 42/19/10 19/20/10
f 19/20/10 42/19/10 43/21/11 21/22/11
f 21/22/11 43/21/11 44/23/12 23/24/12
f 23/24/12 44/23/12 45/25/13 25/26/13
f 25/26/13 45/25/13 46/27/14 27/28/14
f 27/28/14 46/27/14 47/29/15 29/30/15
f 10/31/16 8/32/17 52/32/17 53/31/16
f 29/30/15 47/29/15 48/33/18 31/34/18
f 31/34/18 48/33/18 34/35/1 1/36/1
s 0
f 1/37/19 3/38/19 5/39/19 7/40/19 9/41/19 11/42/19 13/43/19 15/44/19 17/45/19 19/46/19 21/47/19 23/48/19 25/49/19 27/50/19 29/51/19 31/52/19
f 2/53/20 4/54/20 33/55/20 34/56/20
f 4/54/20 6/57/20 35/58/20 33/55/20
f 6/57/20 8/32/20 36/59/20 35/58/20
f 8/32/20 10/31/20 37/60/20 36/59/20
f 10/31/20 12/61/20 38/62/20 37/60/20
f 12/61/20 14/63/20 39/64/20 38/62/20
f 14/63/20 16/65/20 40/66/20 39/64/20
f 16/65/20 18/67/20 41/68/20 40/66/20
f 18/67/20 20/69/20 42/70/20 41/68/20
f 20/69/20 22/71/20 43/72/20 42/70/20
f 22/71/20 24/73/20 44/74/20 43/72/20
f 24/73/20 26/75/20 45/76/20 44/74/20
f 26/75/20 28/77/20 46/78/20 45/76/20
f 28/77/20 30/79/20 47/80/20 46/78/20
f 30/79/20 32/81/20 48/82/20 47/80/20
f 32/81/20 2/53/20 34/56/20 48/82/20
f 49/83/20 50/84/20 64/85/20 63/86/20 62/87/20 61/88/20 60/89/20 59/90/20 58/91/20 57/92/20 56/93/20 55/94/20 54/95/20 53/96/20 52/97/20 51/98/20
s 1
f 26/75/21 24/73/22 60/73/22 61/75/21
f 12/61/23 10/31/16 53/31/16 54/61/23
f 28/77/24 26/75/21 61/75/21 62/77/24
f 14/63/25 12/61/23 54/61/23 55/63/25
f 30/79/26 28/77/24 62/77/24 63/79/26
f 16/65/27 14/63/25 55/63/25 56/65/27
f 32/81/28 30/79/26 63/79/26 64/81/28
f 18/67/29 16/65/27 56/65/27 57/67/29
f 4/54/30 2/53/31 50/53/31 49/54/30
f 2/53/31 32/81/28 64/81/28 50/53/31
f 20/69/32 18/67/29 57/67/29 58/69/32
f 6/57/33 4/54/30 49/54/30 51/57/33
f 22/71/34 20/69/32 58/69/32 59/71/34
f 8/32/17 6/57/33 51/57/33 52/32/17
f 24/73/22 22/71/34 59/71/34 60/73/22
