# Blender 4.4.1
# www.blender.org
mtllib Notepad.mtl
o Notepad
v 0.082742 0.011400 -0.130414
v 0.082742 0.011400 0.117290
v -0.082742 0.011400 0.117290
v -0.082742 0.011400 -0.130414
v -0.082742 0.002684 0.117290
v 0.082742 0.002684 0.117290
v -0.082742 0.002684 -0.128676
v 0.082742 0.002684 -0.128676
v 0.088659 0.006872 -0.122580
v 0.088659 0.006872 0.139262
v -0.088659 0.006872 0.139262
v -0.088659 0.006872 -0.122580
v -0.088659 0.000000 0.139262
v 0.088659 0.000000 0.139262
v -0.088659 0.000000 -0.122580
v 0.088659 0.000000 -0.122580
v 0.082742 0.011400 -0.093501
v -0.082742 0.011400 -0.093501
v -0.082742 0.002684 -0.093501
v 0.082742 0.002684 -0.093501
v 0.082742 0.017688 -0.114012
v 0.082742 0.002684 -0.114012
v -0.082742 0.017688 -0.114012
v -0.082742 0.002684 -0.114012
vn -0.0000 -0.1956 -0.9807
vn -0.0000 0.9337 -0.3580
vn 1.0000 -0.0000 -0.0000
vn -1.0000 -0.0000 -0.0000
vn -0.0000 -0.0000 1.0000
vn -0.0000 -0.0000 -1.0000
vn -0.0000 1.0000 -0.0000
vn -0.0000 -1.0000 -0.0000
vn -0.0000 0.9561 0.2931
vt 0.689225 0.810481
vt 0.723299 0.810481
vt 0.689225 0.808552
vt 0.723299 0.808552
vt 0.723299 0.806624
vt 0.723299 0.776407
vt 0.689225 0.776407
vt 0.523279 0.730532
vt 0.557353 0.730532
vt 0.523279 0.696458
vt 0.557353 0.696458
vt 0.689225 0.806624
s 0
usemtl Palette
f 7/1/1 4/1/1 1/2/1 8/2/1
f 23/3/2 21/4/2 1/2/2 4/1/2
f 20/5/3 17/5/3 2/6/3 6/6/3
f 24/3/4 23/3/4 4/1/4 7/1/4
f 6/6/5 2/6/5 3/7/5 5/7/5
f 15/8/6 12/8/6 9/9/6 16/9/6
f 11/10/7 10/11/7 9/9/7 12/8/7
f 16/9/3 9/9/3 10/11/3 14/11/3
f 13/10/4 11/10/4 12/8/4 15/8/4
f 14/11/5 10/11/5 11/10/5 13/10/5
f 13/10/8 15/8/8 16/9/8 14/11/8
f 5/7/4 3/7/4 18/12/4 19/12/4
f 22/4/3 21/4/3 17/5/3 20/5/3
f 3/7/7 2/6/7 17/5/7 18/12/7
f 8/2/3 1/2/3 21/4/3 22/4/3
f 19/12/4 18/12/4 23/3/4 24/3/4
f 18/12/9 17/5/9 21/4/9 23/3/9
f 19/12/8 24/3/8 7/1/8 8/2/8 22/4/8 20/5/8 6/6/8 5/7/8
