# Blender 4.4.1
# www.blender.org
mtllib Office_Desk_Door.mtl
o Office_Desk_Door
v -0.394128 0.799505 -0.007205
v -0.394128 -0.061418 -0.007205
v -0.009601 -0.061418 -0.007205
v -0.009601 0.799505 -0.007205
v -0.009601 -0.061418 0.034343
v -0.394128 -0.061418 0.034343
v -0.353207 0.452073 0.027747
v -0.353207 0.646517 0.027747
v -0.380612 0.646517 0.027747
v -0.380612 0.452073 0.027747
v -0.380612 0.646517 0.058589
v -0.380612 0.452073 0.058589
v -0.353207 0.646517 0.058589
v -0.353207 0.452073 0.058589
v -0.009601 0.799505 0.034343
v -0.394128 0.799505 0.034343
vn -0.0000 -1.0000 -0.0000
vn -0.0000 1.0000 -0.0000
vn -0.0000 -0.0000 -1.0000
vn -1.0000 -0.0000 -0.0000
vn 1.0000 -0.0000 -0.0000
vn -0.0000 -0.0000 1.0000
vt 0.537099 0.888981
vt 0.537099 0.885084
vt 0.545514 0.885084
vt 0.545514 0.888981
vt 0.210982 0.873627
vt 0.201509 0.873627
vt 0.201509 0.869239
vt 0.210982 0.869239
s 0
usemtl Palette
f 6/1/1 2/1/1 3/2/1 5/2/1
f 15/3/2 4/3/2 1/4/2 16/4/2
f 1/4/3 4/3/3 3/2/3 2/1/3
f 11/5/4 9/5/4 10/6/4 12/6/4
f 12/6/1 10/6/1 7/7/1 14/7/1
f 13/8/2 8/8/2 9/5/2 11/5/2
f 14/7/5 7/7/5 8/8/5 13/8/5
f 14/7/6 13/8/6 11/5/6 12/6/6
f 5/2/5 3/2/5 4/3/5 15/3/5
f 2/1/4 6/1/4 16/4/4 1/4/4
f 6/1/6 5/2/6 15/3/6 16/4/6
