# Blender 4.4.1
# www.blender.org
mtllib Office_CounterA2.mtl
o Office_CounterA2
v 0.458973 0.920912 0.240118
v 0.458973 0.920912 -0.234318
v 0.490000 0.920912 0.240118
v 0.490000 0.920912 -0.391360
v 0.490000 0.000000 -0.391360
v 0.490000 0.000000 0.240118
v 0.458973 0.000000 -0.234318
v 0.458973 0.000000 0.240118
v 0.476287 0.033393 -0.244927
v 0.476287 0.033393 0.235833
v 0.476287 0.074008 -0.244927
v 0.476287 0.074008 0.235833
v 0.500000 0.901286 -0.397169
v 0.500000 0.901286 0.588041
v 0.500000 0.949037 -0.397169
v 0.500000 0.949037 0.600735
v -0.458973 0.920912 0.240118
v -0.458973 0.920912 -0.234318
v -0.490000 0.920912 0.240118
v -0.490000 0.920912 -0.391360
v -0.490000 0.000000 -0.391360
v -0.490000 0.000000 0.240118
v -0.458973 0.000000 -0.234318
v -0.458973 0.000000 0.240118
v -0.476287 0.033393 -0.244927
v -0.476287 0.033393 0.235833
v -0.476287 0.074008 -0.244927
v -0.476287 0.074008 0.235833
v -0.500000 0.901286 -0.397169
v -0.500000 0.901286 0.588041
v -0.500000 0.949037 -0.397169
v -0.500000 0.949037 0.600735
vn -0.0000 -0.0000 1.0000
vn -1.0000 -0.0000 -0.0000
vn -0.0000 1.0000 -0.0000
vn 1.0000 -0.0000 -0.0000
vn -0.0000 -0.0000 -1.0000
vn -0.0000 -1.0000 -0.0000
vn -0.0000 -0.2569 0.9664
vt 0.711258 0.800089
vt 0.711258 0.800571
vt 0.711258 0.788671
vt 0.723183 0.790375
vt 0.723183 0.801792
vt 0.723183 0.802274
vt 0.723183 0.789893
vt 0.711258 0.788189
vt 0.895735 0.714511
vt 0.895735 0.714055
vt 0.802693 0.710232
vt 0.802693 0.709750
s 0
usemtl Palette
f 8/1/1 6/2/1 3/2/1 1/1/1
f 7/3/2 8/1/2 1/1/2 2/3/2
f 2/3/1 18/3/1 23/3/1 7/3/1
f 2/4/3 1/5/3 3/6/3 4/7/3
f 6/2/4 5/8/4 4/8/4 3/2/4
f 21/8/5 20/8/5 4/8/5 5/8/5
f 7/4/6 5/7/6 6/6/6 8/5/6
f 7/4/6 23/4/6 21/7/6 5/7/6
f 10/9/6 26/9/6 25/10/6 9/10/6
f 26/9/1 10/9/1 12/9/1 28/9/1
f 14/11/6 30/11/6 29/12/6 13/12/6
f 14/11/4 13/12/4 15/12/4 16/11/4
f 30/11/7 14/11/7 16/11/7 32/11/7
f 15/12/3 31/12/3 32/11/3 16/11/3
f 11/10/3 27/10/3 28/9/3 12/9/3
f 4/7/3 20/7/3 18/4/3 2/4/3
f 24/1/1 17/1/1 19/2/1 22/2/1
f 23/3/4 18/3/4 17/1/4 24/1/4
f 18/4/3 20/7/3 19/6/3 17/5/3
f 22/2/2 19/2/2 20/8/2 21/8/2
f 23/4/6 24/5/6 22/6/6 21/7/6
f 30/11/2 32/11/2 31/12/2 29/12/2
f 29/12/5 31/12/5 15/12/5 13/12/5
