# Blender 4.4.1
# www.blender.org
mtllib Office_Desk_4_Two.mtl
o Office_Desk_4_Two
v 1.184252 0.949037 -0.375000
v 1.184252 0.873724 -0.375000
v 1.184252 0.949037 0.375000
v 1.184252 0.873724 0.375000
v 1.128777 -0.001885 0.276829
v 1.128777 0.896389 0.276829
v 1.171511 -0.001885 0.276829
v 1.171511 0.896389 0.276829
v 1.171511 0.896389 -0.288485
v 1.171511 -0.001885 -0.288485
v 1.128777 -0.001885 -0.352898
v 1.128777 0.896389 -0.352898
v 1.128777 0.896389 -0.288485
v 1.128777 -0.001885 -0.288485
v 1.171511 -0.001885 -0.352898
v 1.171511 0.896389 -0.352898
v 0.577927 -0.001885 0.276829
v 0.577927 0.896389 0.276829
v 0.620661 -0.001885 0.276829
v 0.620661 0.896389 0.276829
v 0.620661 0.896389 -0.288485
v 0.620661 -0.001885 -0.288485
v 0.577927 0.896389 -0.288485
v 0.577927 -0.001885 -0.288485
v 1.180382 0.896389 -0.296773
v 1.180382 -0.001885 -0.296773
v 1.113241 -0.001885 -0.366269
v 1.113241 0.896389 -0.366269
v 1.180382 -0.001885 -0.366269
v 1.180382 0.896389 -0.366269
v 1.180382 0.896389 0.256957
v 1.180382 -0.001885 0.256957
v 1.180382 -0.001885 0.187460
v 1.180382 0.896389 0.187460
v 1.168932 0.896389 0.256957
v 1.168932 0.896389 0.187460
v 1.168932 -0.001885 0.187460
v 1.168932 -0.001885 0.256957
v 0.498470 0.896389 -0.366269
v 0.498470 -0.001885 -0.366269
v 0.428974 -0.001885 -0.366269
v 0.428974 0.896389 -0.366269
v 0.498470 0.896389 -0.354819
v 0.428974 0.896389 -0.354819
v 0.428974 -0.001885 -0.354819
v 0.498470 -0.001885 -0.354819
v -1.191115 0.949037 -0.375000
v -1.191115 0.873724 -0.375000
v -1.191115 0.949037 0.375000
v -1.191115 0.873724 0.375000
v -1.128777 -0.001885 0.276829
v -1.128777 0.896389 0.276829
v -1.171511 -0.001885 0.276829
v -1.171511 0.896389 0.276829
v -1.171511 0.896389 -0.288485
v -1.171511 -0.001885 -0.288485
v -1.128777 -0.001885 -0.352898
v -1.128777 0.896389 -0.352898
v -1.128777 0.896389 -0.288485
v -1.128777 -0.001885 -0.288485
v -1.171511 -0.001885 -0.352898
v -1.171511 0.896389 -0.352898
v -0.431305 0.873724 -0.375000
v -0.431305 0.949037 0.375000
v -0.431305 0.949037 -0.375000
v -0.431305 0.873724 0.375000
v -0.577927 -0.001885 0.276829
v -0.577927 0.896389 0.276829
v -0.620661 -0.001885 0.276829
v -0.620661 0.896389 0.276829
v -0.620661 0.896389 -0.288485
v -0.620661 -0.001885 -0.288485
v -0.577927 0.896389 -0.288485
v -0.577927 -0.001885 -0.288485
v -1.180382 0.896389 -0.296773
v -1.180382 -0.001885 -0.296773
v -1.113241 -0.001885 -0.366269
v -1.113241 0.896389 -0.366269
v -1.180382 -0.001885 -0.366269
v -1.180382 0.896389 -0.366269
v -0.498470 0.896389 -0.366269
v -0.498470 -0.001885 -0.366269
v -0.428974 -0.001885 -0.366269
v -0.428974 0.896389 -0.366269
v -0.498470 0.896389 -0.354819
v -0.428974 0.896389 -0.354819
v -0.428974 -0.001885 -0.354819
v -0.498470 -0.001885 -0.354819
v -1.135107 -0.001885 0.276829
v -1.135107 -0.001885 0.245952
v -1.135107 0.896389 0.276829
v -1.135107 0.896389 0.245952
v -1.184883 0.896389 0.320143
v -1.184883 -0.001885 0.320143
v -1.184883 -0.001885 0.389639
v -1.184883 0.896389 0.389639
v -1.173432 0.896389 0.320143
v -1.173432 0.896389 0.389639
v -1.173432 -0.001885 0.389639
v -1.173432 -0.001885 0.320143
v -1.191114 0.949037 3.019446
v -1.191114 0.873724 3.019446
v -0.431305 0.949037 3.019446
v -0.431305 0.873724 3.019446
v -0.541784 -0.001885 2.963971
v -0.541784 0.896389 2.963971
v -0.541784 -0.001885 3.006705
v -0.541784 0.896389 3.006705
v -1.107099 0.896389 3.006705
v -1.107099 -0.001885 3.006705
v -1.171511 -0.001885 2.963970
v -1.171511 0.896389 2.963970
v -1.128777 0.896389 2.963971
v -1.128777 -0.001885 2.963971
v -1.171511 -0.001885 3.006705
v -1.171511 0.896389 3.006705
v -0.541784 -0.001885 2.413121
v -0.541784 0.896389 2.413121
v -0.541784 -0.001885 2.455855
v -0.541784 0.896389 2.455855
v -1.107099 0.896389 2.455855
v -1.107099 -0.001885 2.455855
v -1.107099 0.896389 2.413121
v -1.107099 -0.001885 2.413121
v -1.115386 0.896389 3.015576
v -1.115386 -0.001885 3.015576
v -1.184883 -0.001885 2.948435
v -1.184883 0.896389 2.948435
v -1.184883 -0.001885 3.015576
v -1.184883 0.896389 3.015576
v -0.561656 0.896389 3.015576
v -0.561656 -0.001885 3.015576
v -0.631153 -0.001885 3.015576
v -0.631153 0.896389 3.015576
v -0.561656 0.896389 3.004126
v -0.631153 0.896389 3.004126
v -0.631153 -0.001885 3.004126
v -0.561656 -0.001885 3.004126
v -1.184883 0.896389 2.333664
v -1.184883 -0.001885 2.333664
v -1.184883 -0.001885 2.264168
v -1.184883 0.896389 2.264168
v -1.173432 0.896389 2.333664
v -1.173432 0.896389 2.264168
v -1.173432 -0.001885 2.264168
v -1.173432 -0.001885 2.333664
v -0.620661 0.896389 0.245952
v -0.620661 -0.001885 0.245952
v -0.577927 0.896389 0.245952
v -0.577927 -0.001885 0.245952
v -0.541784 -0.001885 0.853577
v -0.541784 0.896389 0.853577
v -0.541784 -0.001885 0.896311
v -0.541784 0.896389 0.896311
v -1.107099 0.896389 0.896311
v -1.107099 -0.001885 0.896311
v -1.107099 0.896389 0.853577
v -1.107099 -0.001885 0.853577
vn -0.0000 -0.0000 1.0000
vn 1.0000 -0.0000 -0.0000
vn -0.0000 -1.0000 -0.0000
vn -0.0000 -0.0000 -1.0000
vn -1.0000 -0.0000 -0.0000
vn -0.7192 -0.0000 0.6948
vn 0.7192 -0.0000 0.6948
vn -0.0000 1.0000 -0.0000
vn 0.6948 -0.0000 -0.7192
vt 0.464329 0.868146
vt 0.473509 0.868146
vt 0.531062 0.878184
vt 0.540243 0.878184
vt 0.540243 0.887365
vt 0.531062 0.887365
vt 0.464329 0.859823
vt 0.464329 0.860278
vt 0.473509 0.860278
vt 0.473509 0.859823
vt 0.464329 0.887365
vt 0.473509 0.887365
vt 0.473509 0.896545
vt 0.464329 0.896545
vt 0.473509 0.878184
vt 0.473509 0.879043
vt 0.464329 0.879043
vt 0.464329 0.878184
vt 0.464329 0.869004
vt 0.473509 0.869004
vt 0.455148 0.887365
vt 0.455148 0.879043
vt 0.455148 0.878184
vt 0.544056 0.889625
vt 0.544056 0.890483
vt 0.534876 0.890483
vt 0.534876 0.889625
vt 0.534876 0.880444
vt 0.544056 0.880444
vt 0.540243 0.879043
vt 0.531062 0.879043
vt 0.464329 0.886910
vt 0.473509 0.886910
vt 0.455148 0.886910
vt 0.473509 0.868146
s 0
usemtl Palette
f 60/1/1 14/1/1 13/2/1 59/2/1
f 2/3/2 1/4/2 3/5/2 4/6/2
f 66/6/3 50/6/3 48/3/3 63/3/3
f 66/6/1 4/6/1 3/5/1 64/5/1
f 63/3/4 48/3/4 47/4/4 65/4/4
f 67/7/2 150/8/2 149/9/2 68/10/2
f 5/7/5 6/10/5 13/2/5 14/1/5
f 7/11/1 8/12/1 6/13/1 5/14/1
f 16/15/2 9/16/2 10/17/2 15/18/2
f 9/16/2 8/12/2 7/11/2 10/17/2
f 11/19/4 12/20/4 16/15/4 15/18/4
f 10/17/3 7/11/3 5/21/3 14/22/3
f 15/18/3 10/17/3 14/22/3 11/23/3
f 57/23/3 11/23/3 14/22/3 60/22/3
f 58/20/4 12/20/4 11/19/4 57/19/4
f 17/7/5 18/10/5 23/2/5 24/1/5
f 19/11/1 20/12/1 18/13/1 17/14/1
f 21/16/2 20/12/2 19/11/2 22/17/2
f 22/17/3 19/11/3 17/21/3 24/22/3
f 30/24/2 25/25/2 26/26/2 29/27/2
f 27/28/4 28/29/4 30/24/4 29/27/4
f 27/28/6 26/26/6 25/25/6 28/29/6
f 29/27/3 26/26/3 27/28/3
f 34/4/2 31/30/2 32/31/2 33/3/2
f 31/30/1 35/30/1 38/31/1 32/31/1
f 33/3/4 37/3/4 36/4/4 34/4/4
f 42/24/4 39/25/4 40/26/4 41/27/4
f 39/25/2 43/25/2 46/26/2 40/26/2
f 41/27/5 45/27/5 44/24/5 42/24/5
f 48/3/5 50/6/5 49/5/5 47/4/5
f 148/32/3 69/11/3 89/11/3 90/32/3
f 4/6/3 66/6/3 63/3/3 2/3/3
f 51/7/2 60/1/2 59/2/2 52/10/2
f 53/11/1 51/14/1 52/13/1 54/12/1
f 62/15/5 61/18/5 56/17/5 55/16/5
f 55/16/5 56/17/5 53/11/5 54/12/5
f 57/19/4 61/18/4 62/15/4 58/20/4
f 56/17/3 60/22/3 51/21/3 53/11/3
f 61/18/3 57/23/3 60/22/3 56/17/3
f 71/16/5 72/17/5 148/32/5 147/33/5
f 50/3/5 102/3/5 101/4/5 49/4/5
f 66/6/3 104/6/3 102/3/3 50/3/3
f 150/8/2 74/1/2 73/2/2 149/9/2
f 69/11/1 67/14/1 68/13/1 70/12/1
f 69/11/1 70/12/1 91/12/1 89/11/1
f 148/32/3 150/34/3 67/21/3 69/11/3
f 80/24/5 79/27/5 76/26/5 75/25/5
f 77/28/4 79/27/4 80/24/4 78/29/4
f 77/28/7 78/29/7 75/25/7 76/26/7
f 79/27/3 77/28/3 76/26/3
f 84/24/4 83/27/4 82/26/4 81/25/4
f 81/25/5 82/26/5 88/26/5 85/25/5
f 83/27/2 84/24/2 86/24/2 87/27/2
f 65/4/8 64/5/8 3/5/8 1/4/8
f 72/17/3 74/22/3 150/34/3 148/32/3
f 147/33/4 148/32/4 90/32/4 92/33/4
f 47/4/8 49/5/8 64/5/8 65/4/8
f 101/4/8 103/5/8 64/5/8 49/4/8
f 104/6/2 66/6/2 64/5/2 103/5/2
f 96/24/5 93/25/5 94/26/5 95/27/5
f 93/25/4 97/25/4 100/26/4 94/26/4
f 95/27/1 99/27/1 98/24/1 96/24/1
f 102/3/1 104/6/1 103/5/1 101/4/1
f 105/7/4 114/1/4 113/2/4 106/10/4
f 107/11/2 105/14/2 106/13/2 108/12/2
f 116/15/1 115/18/1 110/17/1 109/16/1
f 109/16/1 110/17/1 107/11/1 108/12/1
f 111/19/5 115/18/5 116/15/5 112/20/5
f 110/17/3 114/22/3 105/21/3 107/11/3
f 115/18/3 111/23/3 114/22/3 110/17/3
f 117/7/4 124/1/4 123/2/4 118/10/4
f 119/11/2 117/14/2 118/13/2 120/12/2
f 121/16/1 122/17/1 119/11/1 120/12/1
f 122/17/3 124/22/3 117/21/3 119/11/3
f 130/24/1 129/27/1 126/26/1 125/25/1
f 127/28/5 129/27/5 130/24/5 128/29/5
f 127/28/9 128/29/9 125/25/9 126/26/9
f 129/27/3 127/28/3 126/26/3
f 134/24/1 133/27/1 132/26/1 131/25/1
f 131/25/2 132/26/2 138/26/2 135/25/2
f 133/27/5 134/24/5 136/24/5 137/27/5
f 142/24/5 141/27/5 140/26/5 139/25/5
f 139/25/1 140/26/1 146/26/1 143/25/1
f 141/27/4 142/24/4 144/24/4 145/27/4
f 2/3/4 63/3/4 65/4/4 1/4/4
f 112/20/5 54/20/5 53/19/5 111/19/5
f 111/23/3 53/23/3 51/22/3 114/22/3
f 114/1/2 51/1/2 52/35/2 113/2/2
f 151/7/4 158/1/4 157/2/4 152/10/4
f 153/11/2 151/14/2 152/13/2 154/12/2
f 155/16/1 156/17/1 153/11/1 154/12/1
f 156/17/3 158/22/3 151/21/3 153/11/3
