# Blender 4.4.1
# www.blender.org
mtllib Office_CounterB1.mtl
o Office_CounterB1
v 0.458973 0.878906 0.240118
v 0.458973 0.878906 -0.234318
v 0.500001 0.878906 0.240118
v 0.500001 0.878906 -0.391360
v 0.500001 0.000000 -0.391360
v 0.500001 0.000000 0.240118
v 0.458973 0.000000 -0.234318
v 0.458973 0.000000 0.240118
v 0.476287 0.033393 -0.244927
v 0.476287 0.033393 0.235833
v 0.476287 0.074008 -0.244927
v 0.476287 0.074008 0.235833
v 0.500000 0.878906 -0.397169
v 0.500000 0.878906 0.262319
v 0.500000 0.949037 -0.397169
v 0.500000 0.949037 0.262319
v -0.458973 0.878906 0.240118
v -0.458973 0.878906 -0.234318
v -0.500001 0.878906 0.240118
v -0.500001 0.878906 -0.391360
v -0.500001 0.000000 -0.391360
v -0.500001 0.000000 0.240118
v -0.458973 0.000000 -0.234318
v -0.458973 0.000000 0.240118
v -0.476287 0.033393 -0.244927
v -0.476287 0.033393 0.235833
v -0.476287 0.074008 -0.244927
v -0.476287 0.074008 0.235833
v -0.500000 0.878906 -0.397169
v -0.500000 0.878906 0.262319
v -0.500000 0.949037 -0.397169
v -0.500000 0.949037 0.262319
vn -0.0000 -0.0000 1.0000
vn -1.0000 -0.0000 -0.0000
vn 1.0000 -0.0000 -0.0000
vn -0.0000 -0.0000 -1.0000
vn -0.0000 -1.0000 -0.0000
vn -0.0000 1.0000 -0.0000
vt 0.711258 0.800089
vt 0.711258 0.800571
vt 0.711258 0.788671
vt 0.711258 0.788189
vt 0.723183 0.790375
vt 0.723183 0.789893
vt 0.723183 0.802274
vt 0.723183 0.801792
vt 0.895735 0.714511
vt 0.895735 0.714055
vt 0.802693 0.710232
vt 0.802693 0.709750
s 0
usemtl Palette
f 8/1/1 6/2/1 3/2/1 1/1/1
f 7/3/2 8/1/2 1/1/2 2/3/2
f 6/2/3 5/4/3 4/4/3 3/2/3
f 21/4/4 20/4/4 4/4/4 5/4/4
f 7/5/5 5/6/5 6/7/5 8/8/5
f 7/5/5 23/5/5 21/6/5 5/6/5
f 10/9/5 26/9/5 25/10/5 9/10/5
f 26/9/1 10/9/1 12/9/1 28/9/1
f 14/11/5 30/11/5 29/12/5 13/12/5
f 14/11/3 13/12/3 15/12/3 16/11/3
f 30/11/1 14/11/1 16/11/1 32/11/1
f 15/12/6 31/12/6 32/11/6 16/11/6
f 11/10/6 27/10/6 28/9/6 12/9/6
f 2/3/1 18/3/1 23/3/1 7/3/1
f 24/1/1 17/1/1 19/2/1 22/2/1
f 23/3/3 18/3/3 17/1/3 24/1/3
f 22/2/2 19/2/2 20/4/2 21/4/2
f 23/5/5 24/8/5 22/7/5 21/6/5
f 30/11/2 32/11/2 31/12/2 29/12/2
f 29/12/4 31/12/4 15/12/4 13/12/4
