# Blender 4.4.1
# www.blender.org
mtllib Office_Desk_1_Sep.mtl
o Office_Desk_1_Sep
v 0.682825 0.037198 -0.349868
v 0.682825 0.015873 -0.349868
v 0.682825 0.037198 0.276830
v 0.682825 0.015873 0.276830
v -0.682824 0.037198 -0.349868
v -0.682824 0.015873 -0.349868
v -0.682824 0.037198 0.276830
v -0.682824 0.015873 0.276830
v 0.131974 0.037198 0.276830
v 0.131974 0.527134 0.276830
v 0.174708 0.037198 0.276830
v 0.174708 0.527134 0.276830
v 0.174708 0.527134 -0.288484
v 0.174708 0.037198 -0.288484
v 0.131974 0.527134 -0.288484
v 0.131974 0.037198 -0.288484
vn 1.0000 -0.0000 -0.0000
vn -0.0000 -1.0000 -0.0000
vn -0.0000 -0.0000 1.0000
vn -0.0000 -0.0000 -1.0000
vn -1.0000 -0.0000 -0.0000
vn -0.0000 1.0000 -0.0000
vt 0.529156 0.878184
vt 0.538336 0.878184
vt 0.538336 0.887365
vt 0.529156 0.887365
vt 0.529156 0.859823
vt 0.538336 0.859823
vt 0.538336 0.868146
vt 0.529156 0.868146
vt 0.538336 0.896545
vt 0.529156 0.896545
vt 0.538336 0.879043
vt 0.529156 0.879043
s 0
usemtl Palette
f 2/1/1 1/2/1 3/3/1 4/4/1
f 4/4/2 8/4/2 6/1/2 2/1/2
f 8/4/3 4/4/3 3/3/3 7/3/3
f 2/1/4 6/1/4 5/2/4 1/2/4
f 6/1/5 8/4/5 7/3/5 5/2/5
f 5/2/6 7/3/6 3/3/6 1/2/6
f 9/5/5 10/6/5 15/7/5 16/8/5
f 11/4/3 12/3/3 10/9/3 9/10/3
f 13/11/1 12/3/1 11/4/1 14/12/1
