# Blender 4.4.1
# www.blender.org
mtllib Office_Desk_1.mtl
o Office_Desk_1
v 0.738299 0.949037 -0.375000
v 0.738299 0.873724 -0.375000
v 0.738299 0.949037 0.375000
v 0.738299 0.873724 0.375000
v 0.682824 -0.001885 0.276829
v 0.682824 0.896389 0.276829
v 0.725558 -0.001885 0.276829
v 0.725558 0.896389 0.276829
v 0.725558 0.896389 -0.288485
v 0.725558 -0.001885 -0.288485
v 0.682824 -0.001885 -0.352898
v 0.682824 0.896389 -0.352898
v 0.682824 0.896389 -0.288485
v 0.682824 -0.001885 -0.288485
v 0.725558 -0.001885 -0.352898
v 0.725558 0.896389 -0.352898
v 0.131974 0.527134 0.276829
v 0.131974 0.896389 0.276829
v 0.174708 0.527134 0.276829
v 0.174708 0.896389 0.276829
v 0.174708 0.896389 -0.288485
v 0.174708 0.527134 -0.288485
v 0.131974 0.896389 -0.288485
v 0.131974 0.527134 -0.288485
v -0.738299 0.949037 -0.375000
v -0.738299 0.873724 -0.375000
v -0.738299 0.949037 0.375000
v -0.738299 0.873724 0.375000
v -0.682824 -0.001885 0.276829
v -0.682824 0.896389 0.276829
v -0.725558 -0.001885 0.276829
v -0.725558 0.896389 0.276829
v -0.725558 0.896389 -0.288485
v -0.725558 -0.001885 -0.288485
v -0.682824 -0.001885 -0.352898
v -0.682824 0.896389 -0.352898
v -0.682824 0.896389 -0.288485
v -0.682824 -0.001885 -0.288485
v -0.725558 -0.001885 -0.352898
v -0.725558 0.896389 -0.352898
vn -0.0000 -0.0000 1.0000
vn 1.0000 -0.0000 -0.0000
vn -0.0000 -1.0000 -0.0000
vn -0.0000 -0.0000 -1.0000
vn -1.0000 -0.0000 -0.0000
vn -0.0000 1.0000 -0.0000
vt 0.529156 0.868146
vt 0.538336 0.868146
vt 0.529156 0.878184
vt 0.538336 0.878184
vt 0.538336 0.887365
vt 0.529156 0.887365
vt 0.529156 0.859823
vt 0.538336 0.859823
vt 0.538336 0.896545
vt 0.529156 0.896545
vt 0.538336 0.879043
vt 0.529156 0.879043
vt 0.529156 0.869004
vt 0.538336 0.869004
vt 0.519975 0.887365
vt 0.519975 0.879043
vt 0.519975 0.878184
s 0
usemtl Palette
f 38/1/1 14/1/1 13/2/1 37/2/1
f 2/3/2 1/4/2 3/5/2 4/6/2
f 4/6/3 28/6/3 26/3/3 2/3/3
f 28/6/1 4/6/1 3/5/1 27/5/1
f 2/3/4 26/3/4 25/4/4 1/4/4
f 5/7/5 6/8/5 13/2/5 14/1/5
f 7/6/1 8/5/1 6/9/1 5/10/1
f 16/4/2 9/11/2 10/12/2 15/3/2
f 9/11/2 8/5/2 7/6/2 10/12/2
f 11/13/4 12/14/4 16/4/4 15/3/4
f 10/12/3 7/6/3 5/15/3 14/16/3
f 15/3/3 10/12/3 14/16/3 11/17/3
f 35/17/3 11/17/3 14/16/3 38/16/3
f 36/14/4 12/14/4 11/13/4 35/13/4
f 17/7/5 18/8/5 23/2/5 24/1/5
f 19/6/1 20/5/1 18/9/1 17/10/1
f 21/11/2 20/5/2 19/6/2 22/12/2
f 22/12/3 19/6/3 17/15/3 24/16/3
f 26/3/5 28/6/5 27/5/5 25/4/5
f 29/7/2 38/1/2 37/2/2 30/8/2
f 31/6/1 29/10/1 30/9/1 32/5/1
f 40/4/5 39/3/5 34/12/5 33/11/5
f 33/11/5 34/12/5 31/6/5 32/5/5
f 35/13/4 39/3/4 40/4/4 36/14/4
f 34/12/3 38/16/3 29/15/3 31/6/3
f 39/3/3 35/17/3 38/16/3 34/12/3
f 25/4/6 27/5/6 3/5/6 1/4/6
