# Blender 4.4.1
# www.blender.org
mtllib Office_Files_E.mtl
o Office_Files_E
v 0.116862 0.187191 -0.033237
v 0.107180 -0.132564 -0.033237
v -0.115512 -0.132564 -0.033237
v -0.116862 0.187191 -0.033237
v -0.115512 -0.132564 -0.059575
v 0.107180 -0.132564 -0.059575
v -0.116862 0.187191 -0.059575
v 0.116862 0.187191 -0.059575
v 0.109243 0.187687 -0.005351
v 0.110057 -0.132564 -0.005351
v -0.111415 -0.132564 -0.005351
v -0.115895 0.182015 -0.005351
v -0.111415 -0.132564 -0.032687
v 0.110057 -0.132564 -0.032687
v -0.115895 0.182015 -0.032687
v 0.109243 0.187687 -0.032687
v 0.111451 -0.132564 0.061242
v -0.109344 -0.132564 0.061242
v -0.109344 -0.132564 0.022882
v 0.111451 -0.132564 0.022882
v 0.112337 0.187365 -0.005462
v -0.114655 0.186294 -0.005462
v -0.114655 0.186294 0.022831
v 0.112337 0.187365 0.022831
v 0.103995 -0.132564 -0.005462
v -0.119885 -0.132564 -0.005462
v -0.119885 -0.132564 0.022831
v 0.103995 -0.132564 0.022831
v 0.107363 0.187802 0.061242
v -0.117510 0.192560 0.061242
v -0.117510 0.192560 0.022882
v 0.107363 0.187802 0.022882
v 0.116862 0.187191 0.078532
v 0.107180 -0.132564 0.078532
v -0.115512 -0.132564 0.078532
v -0.116862 0.187191 0.078532
v -0.115512 -0.132564 0.061372
v 0.107180 -0.132564 0.061372
v -0.116862 0.187191 0.061372
v 0.116862 0.187191 0.061372
vn -0.0000 1.0000 -0.0000
vn -0.0000 -0.0000 1.0000
vn 0.9995 -0.0303 -0.0000
vn -1.0000 -0.0042 -0.0000
vn -0.0000 -1.0000 -0.0000
vn -0.0000 -0.0000 -1.0000
vn -0.0252 0.9997 -0.0000
vn 1.0000 0.0025 -0.0000
vn -0.9999 -0.0142 -0.0000
vn 0.9999 0.0128 -0.0000
vn 0.0212 0.9998 -0.0000
vn -0.9999 0.0164 -0.0000
vn 0.9997 -0.0261 -0.0000
vn -0.0047 1.0000 -0.0000
vn -0.9997 -0.0251 -0.0000
vt 0.689225 0.810481
vt 0.723299 0.810481
vt 0.689225 0.776407
vt 0.723299 0.776407
vt 0.723299 0.807491
vt 0.689225 0.807491
s 0
usemtl Palette
f 7/1/1 4/1/1 1/2/1 8/2/1
f 3/3/2 2/4/2 1/2/2 4/1/2
f 8/2/3 1/2/3 2/4/3 6/4/3
f 5/3/4 3/3/4 4/1/4 7/1/4
f 6/4/5 2/4/5 3/3/5 5/3/5
f 5/3/6 7/1/6 8/2/6 6/4/6
f 15/1/7 12/1/7 9/2/7 16/2/7
f 11/3/2 10/4/2 9/2/2 12/1/2
f 16/2/8 9/2/8 10/4/8 14/4/8
f 13/3/9 11/3/9 12/1/9 15/1/9
f 14/4/5 10/4/5 11/3/5 13/3/5
f 13/3/6 15/1/6 16/2/6 14/4/6
f 32/5/10 29/5/10 17/4/10 20/4/10
f 32/5/11 31/6/11 30/6/11 29/5/11
f 20/4/5 17/4/5 18/3/5 19/3/5
f 26/3/12 27/3/12 23/6/12 22/6/12
f 27/3/2 28/4/2 24/5/2 23/6/2
f 26/3/6 22/6/6 21/5/6 25/4/6
f 21/5/13 24/5/13 28/4/13 25/4/13
f 25/4/5 28/4/5 27/3/5 26/3/5
f 21/5/14 22/6/14 23/6/14 24/5/14
f 19/3/6 31/6/6 32/5/6 20/4/6
f 19/3/15 18/3/15 30/6/15 31/6/15
f 18/3/2 17/4/2 29/5/2 30/6/2
f 39/1/1 36/1/1 33/2/1 40/2/1
f 35/3/2 34/4/2 33/2/2 36/1/2
f 40/2/3 33/2/3 34/4/3 38/4/3
f 37/3/4 35/3/4 36/1/4 39/1/4
f 38/4/5 34/4/5 35/3/5 37/3/5
f 37/3/6 39/1/6 40/2/6 38/4/6
