# Blender 4.4.1
# www.blender.org
mtllib Office_Files_F.mtl
o Office_Files_F
v 0.116862 0.187191 -0.035702
v 0.107180 -0.132564 -0.035702
v -0.115512 -0.132564 -0.035702
v -0.116862 0.187191 -0.035702
v -0.115512 -0.132564 -0.060433
v 0.107180 -0.132564 -0.060433
v -0.116862 0.187191 -0.060433
v 0.116862 0.187191 -0.060433
v 0.109243 0.192045 -0.009141
v 0.110057 -0.132564 -0.009141
v -0.111415 -0.132564 -0.009141
v -0.124266 0.182015 -0.009141
v -0.111415 -0.132564 -0.036476
v 0.110057 -0.132564 -0.036476
v -0.124266 0.182015 -0.036476
v 0.109243 0.192045 -0.036476
v 0.105391 0.238216 -0.007103
v 0.111451 -0.132564 0.003771
v -0.109344 -0.132564 0.003771
v -0.127852 0.223222 -0.007103
v -0.109344 -0.132564 -0.009579
v 0.111451 -0.132564 -0.009579
v -0.127852 0.223222 -0.020453
v 0.105391 0.238216 -0.020453
v 0.116946 0.225808 0.047933
v 0.107147 -0.132564 0.047933
v -0.115557 -0.132564 0.047933
v -0.116779 0.225920 0.047933
v -0.115557 -0.132564 0.016369
v 0.107147 -0.132564 0.016369
v -0.116779 0.225920 0.016369
v 0.116946 0.225808 0.016369
v 0.110209 0.217059 0.016022
v 0.109702 -0.132564 0.015250
v -0.111934 -0.132564 0.015250
v -0.123351 0.208285 0.016022
v -0.111934 -0.132564 0.002738
v 0.109702 -0.132564 0.002738
v -0.123351 0.208285 0.003511
v 0.110209 0.217059 0.003511
v 0.107363 0.207554 0.003771
v -0.125881 0.192560 0.003771
v -0.125881 0.192560 -0.009579
v 0.107363 0.207554 -0.009579
v 0.116633 0.253542 0.045864
v 0.103995 -0.132564 0.060637
v -0.119885 -0.132564 0.060637
v -0.117031 0.258767 0.046845
v -0.119885 -0.132564 0.047287
v 0.103995 -0.132564 0.047287
v -0.117031 0.261231 0.033725
v 0.116633 0.256006 0.032743
v 0.115934 0.226994 0.060637
v -0.117730 0.232311 0.060637
v -0.117730 0.232311 0.047287
v 0.115934 0.226994 0.047287
v 0.116284 0.239788 0.059527
v 0.116284 0.242252 0.046406
v -0.117381 0.245013 0.060508
v -0.117381 0.247477 0.047388
v 0.116862 0.187191 0.078532
v 0.107180 -0.132564 0.078532
v -0.115512 -0.132564 0.078532
v -0.116862 0.187191 0.078532
v -0.115512 -0.132564 0.062112
v 0.107180 -0.132564 0.062112
v -0.116862 0.187191 0.062112
v 0.116862 0.187191 0.062112
vn -0.0000 1.0000 -0.0000
vn -0.0000 -0.0000 1.0000
vn 0.9995 -0.0303 -0.0000
vn -1.0000 -0.0042 -0.0000
vn -0.0000 -1.0000 -0.0000
vn -0.0000 -0.0000 -1.0000
vn -0.0429 0.9991 -0.0000
vn 1.0000 0.0025 -0.0000
vn -0.9992 -0.0408 -0.0000
vn -0.0642 0.9979 -0.0000
vn -0.0214 0.3329 0.9427
vn 0.9999 0.0120 -0.0000
vn -0.9979 -0.0642 -0.0000
vn 0.0214 -0.3329 -0.9427
vn 0.0005 1.0000 -0.0000
vn 0.9996 -0.0273 -0.0000
vn -1.0000 -0.0034 -0.0000
vn -0.0375 0.9993 -0.0000
vn -0.0000 -0.0022 1.0000
vn 1.0000 -0.0014 -0.0000
vn -0.9994 -0.0335 -0.0000
vn -0.9987 -0.0508 -0.0000
vn 0.9979 0.0642 -0.0000
vn 0.0227 0.9826 0.1846
vn 0.0187 0.7044 0.7096
vn 0.9994 -0.0332 -0.0000
vn -0.9995 0.0312 0.0059
vn -0.0187 -0.7044 -0.7096
vn -1.0000 0.0059 -0.0000
vn 0.9997 -0.0251 -0.0023
vn 0.9995 -0.0312 -0.0059
vn -0.0027 -0.0256 -0.9997
vn -0.9997 0.0251 0.0023
vn 0.0032 0.0485 0.9988
vn -0.0000 0.0022 -1.0000
vt 0.689225 0.810481
vt 0.723299 0.810481
vt 0.689225 0.776407
vt 0.723299 0.776407
vt 0.689225 0.807491
vt 0.723299 0.807491
vt 0.689225 0.808986
vt 0.723299 0.808986
s 0
usemtl Palette
f 7/1/1 4/1/1 1/2/1 8/2/1
f 3/3/2 2/4/2 1/2/2 4/1/2
f 8/2/3 1/2/3 2/4/3 6/4/3
f 5/3/4 3/3/4 4/1/4 7/1/4
f 6/4/5 2/4/5 3/3/5 5/3/5
f 5/3/6 7/1/6 8/2/6 6/4/6
f 15/1/7 12/1/7 9/2/7 16/2/7
f 11/3/2 10/4/2 9/2/2 12/1/2
f 16/2/8 9/2/8 10/4/8 14/4/8
f 13/3/9 11/3/9 12/1/9 15/1/9
f 14/4/5 10/4/5 11/3/5 13/3/5
f 13/3/6 15/1/6 16/2/6 14/4/6
f 23/1/10 20/1/10 17/2/10 24/2/10
f 42/5/11 41/6/11 17/2/11 20/1/11
f 44/6/12 41/6/12 18/4/12 22/4/12
f 43/5/13 42/5/13 20/1/13 23/1/13
f 22/4/5 18/4/5 19/3/5 21/3/5
f 43/5/14 23/1/14 24/2/14 44/6/14
f 31/1/15 28/1/15 25/2/15 32/2/15
f 27/3/2 26/4/2 25/2/2 28/1/2
f 32/2/16 25/2/16 26/4/16 30/4/16
f 29/3/17 27/3/17 28/1/17 31/1/17
f 30/4/5 26/4/5 27/3/5 29/3/5
f 29/3/6 31/1/6 32/2/6 30/4/6
f 39/1/18 36/1/18 33/2/18 40/2/18
f 35/3/19 34/4/19 33/2/19 36/1/19
f 40/2/20 33/2/20 34/4/20 38/4/20
f 38/4/5 34/4/5 35/3/5 37/3/5
f 37/3/21 35/3/21 36/1/21 39/1/21
f 21/3/6 43/5/6 44/6/6 22/4/6
f 21/3/22 19/3/22 42/5/22 43/5/22
f 24/2/23 17/2/23 41/6/23 44/6/23
f 19/3/2 18/4/2 41/6/2 42/5/2
f 51/1/24 48/1/24 45/2/24 52/2/24
f 59/7/25 57/8/25 45/2/25 48/1/25
f 56/6/26 53/6/26 46/4/26 50/4/26
f 60/7/27 59/7/27 48/1/27 51/1/27
f 50/4/5 46/4/5 47/3/5 49/3/5
f 60/7/28 51/1/28 52/2/28 58/8/28
f 49/3/6 55/5/6 56/6/6 50/4/6
f 49/3/29 47/3/29 54/5/29 55/5/29
f 58/8/30 57/8/30 53/6/30 56/6/30
f 47/3/2 46/4/2 53/6/2 54/5/2
f 52/2/31 45/2/31 57/8/31 58/8/31
f 55/5/32 60/7/32 58/8/32 56/6/32
f 55/5/33 54/5/33 59/7/33 60/7/33
f 54/5/34 53/6/34 57/8/34 59/7/34
f 37/3/35 39/1/35 40/2/35 38/4/35
f 67/1/1 64/1/1 61/2/1 68/2/1
f 63/3/2 62/4/2 61/2/2 64/1/2
f 68/2/3 61/2/3 62/4/3 66/4/3
f 65/3/4 63/3/4 64/1/4 67/1/4
f 66/4/5 62/4/5 63/3/5 65/3/5
f 65/3/6 67/1/6 68/2/6 66/4/6
