# Blender 4.4.1
# www.blender.org
mtllib Office_Deco.mtl
o Office_Deco
v 0.000000 0.000000 -0.123405
v 0.000000 0.761901 -0.200000
v 0.047225 0.000000 -0.114011
v 0.076537 0.761901 -0.184776
v 0.087261 0.000000 -0.087260
v 0.141421 0.761901 -0.141421
v 0.114012 0.000000 -0.047225
v 0.184776 0.761901 -0.076537
v 0.123405 0.000000 0.000000
v 0.200000 0.761901 -0.000000
v 0.114012 0.000000 0.047225
v 0.184776 0.761901 0.076537
v 0.087261 0.000000 0.087261
v 0.141421 0.761901 0.141421
v 0.047225 0.000000 0.114012
v 0.076537 0.761901 0.184776
v 0.000000 0.000000 0.123405
v 0.000000 0.761901 0.200000
v -0.047225 0.000000 0.114012
v -0.076537 0.761901 0.184776
v -0.087261 0.000000 0.087261
v -0.141421 0.761901 0.141421
v -0.114012 0.000000 0.047225
v -0.184776 0.761901 0.076537
v -0.123405 0.000000 0.000000
v -0.200000 0.761901 -0.000000
v -0.114012 0.000000 -0.047225
v -0.184776 0.761901 -0.076537
v -0.087261 0.000000 -0.087260
v -0.141421 0.761901 -0.141421
v -0.047225 0.000000 -0.114011
v -0.076537 0.761901 -0.184776
vn -0.0000 -0.1000 -0.9950
vn -0.0000 0.6281 -0.7781
vn 0.2978 0.6281 -0.7189
vn 0.3808 -0.1000 -0.9192
vn 0.5502 0.6281 -0.5502
vn 0.7036 -0.1000 -0.7036
vn 0.7189 0.6281 -0.2978
vn 0.9192 -0.1000 -0.3808
vn 0.7781 0.6281 -0.0000
vn 0.9950 -0.1000 -0.0000
vn 0.7189 0.6281 0.2978
vn 0.9192 -0.1000 0.3808
vn 0.5502 0.6281 0.5502
vn 0.7036 -0.1000 0.7036
vn 0.2978 0.6281 0.7189
vn 0.3808 -0.1000 0.9192
vn -0.0000 0.6281 0.7781
vn -0.0000 -0.1000 0.9950
vn -0.2978 0.6281 0.7189
vn -0.3808 -0.1000 0.9192
vn -0.5502 0.6281 0.5502
vn -0.7036 -0.1000 0.7036
vn -0.7189 0.6281 0.2978
vn -0.9192 -0.1000 0.3808
vn -0.7781 0.6281 -0.0000
vn -0.9950 -0.1000 -0.0000
vn -0.7189 0.6281 -0.2978
vn -0.9192 -0.1000 -0.3808
vn -0.5502 0.6281 -0.5502
vn -0.7036 -0.1000 -0.7036
vn -0.2978 0.6281 -0.7189
vn -0.3808 -0.1000 -0.9192
vn -0.0000 -1.0000 -0.0000
vt 0.730069 0.797376
vt 0.730069 0.814413
vt 0.727939 0.814413
vt 0.727939 0.797376
vt 0.725809 0.814413
vt 0.725809 0.797376
vt 0.723680 0.814413
vt 0.723680 0.797376
vt 0.721550 0.814413
vt 0.721550 0.797376
vt 0.719420 0.814413
vt 0.719420 0.797376
vt 0.717291 0.814413
vt 0.717291 0.797376
vt 0.715161 0.814413
vt 0.715161 0.797376
vt 0.713031 0.814413
vt 0.713031 0.797376
vt 0.710902 0.814413
vt 0.710902 0.797376
vt 0.708772 0.814413
vt 0.708772 0.797376
vt 0.706643 0.814413
vt 0.706643 0.797376
vt 0.704513 0.814413
vt 0.704513 0.797376
vt 0.702383 0.814413
vt 0.702383 0.797376
vt 0.700254 0.814413
vt 0.700254 0.797376
vt 0.707642 0.796412
vt 0.704513 0.797035
vt 0.701383 0.796412
vt 0.698730 0.794640
vt 0.696958 0.791986
vt 0.696335 0.788857
vt 0.696958 0.785728
vt 0.698730 0.783074
vt 0.701383 0.781302
vt 0.704513 0.780679
vt 0.707642 0.781302
vt 0.710295 0.783074
vt 0.712068 0.785728
vt 0.712691 0.788857
vt 0.712068 0.791986
vt 0.710295 0.794640
vt 0.698124 0.814413
vt 0.698124 0.797376
vt 0.695994 0.814413
vt 0.695994 0.797376
vt 0.721550 0.797035
vt 0.724680 0.796412
vt 0.727333 0.794640
vt 0.729105 0.791986
vt 0.729728 0.788857
vt 0.729105 0.785728
vt 0.727333 0.783074
vt 0.724680 0.781302
vt 0.721550 0.780679
vt 0.718421 0.781302
vt 0.715768 0.783074
vt 0.713995 0.785728
vt 0.713372 0.788857
vt 0.713995 0.791986
vt 0.715768 0.794640
vt 0.718421 0.796412
s 1
usemtl Palette
f 1/1/1 2/2/2 4/3/3 3/4/4
f 3/4/4 4/3/3 6/5/5 5/6/6
f 5/6/6 6/5/5 8/7/7 7/8/8
f 7/8/8 8/7/7 10/9/9 9/10/10
f 9/10/10 10/9/9 12/11/11 11/12/12
f 11/12/12 12/11/11 14/13/13 13/14/14
f 13/14/14 14/13/13 16/15/15 15/16/16
f 15/16/16 16/15/15 18/17/17 17/18/18
f 17/18/18 18/17/17 20/19/19 19/20/20
f 19/20/20 20/19/19 22/21/21 21/22/22
f 21/22/22 22/21/21 24/23/23 23/24/24
f 23/24/24 24/23/23 26/25/25 25/26/26
f 25/26/26 26/25/25 28/27/27 27/28/28
f 27/28/28 28/27/27 30/29/29 29/30/30
f 4/31/3 2/32/2 32/33/31 30/34/29 28/35/27 26/36/25 24/37/23 22/38/21 20/39/19 18/40/17 16/41/15 14/42/13 12/43/11 10/44/9 8/45/7 6/46/5
f 29/30/30 30/29/29 32/47/31 31/48/32
f 31/48/32 32/47/31 2/49/2 1/50/1
s 0
f 1/51/33 3/52/33 5/53/33 7/54/33 9/55/33 11/56/33 13/57/33 15/58/33 17/59/33 19/60/33 21/61/33 23/62/33 25/63/33 27/64/33 29/65/33 31/66/33
