# Blender 4.4.1
# www.blender.org
mtllib Office_Desk_4_Two_Alt.mtl
o Office_Desk_4_Two_Alt
v 1.184252 0.949037 -0.375000
v 1.184252 0.873724 -0.375000
v 1.184252 0.949037 0.375000
v 1.184252 0.873724 0.375000
v 1.128777 -0.001885 0.276829
v 1.128777 0.896389 0.276829
v 1.171511 -0.001885 0.276829
v 1.171511 0.896389 0.276829
v 1.171511 0.896389 -0.288485
v 1.171511 -0.001885 -0.288485
v 1.128777 -0.001885 -0.352898
v 1.128777 0.896389 -0.352898
v 1.128777 0.896389 -0.288485
v 1.128777 -0.001885 -0.288485
v 1.171511 -0.001885 -0.352898
v 1.171511 0.896389 -0.352898
v 0.577927 -0.001885 0.276829
v 0.577927 0.896389 0.276829
v 0.620661 -0.001885 0.276829
v 0.620661 0.896389 0.276829
v 0.620661 0.896389 -0.288485
v 0.620661 -0.001885 -0.288485
v 0.577927 0.896389 -0.288485
v 0.577927 -0.001885 -0.288485
v -1.191115 0.949037 -0.375000
v -1.191115 0.873724 -0.375000
v -1.191115 0.949037 0.375000
v -1.191115 0.873724 0.375000
v -1.128777 -0.001885 0.276829
v -1.128777 0.896389 0.276829
v -1.171511 -0.001885 0.276829
v -1.171511 0.896389 0.276829
v -1.171511 0.896389 -0.288485
v -1.171511 -0.001885 -0.288485
v -1.128777 -0.001885 -0.352898
v -1.128777 0.896389 -0.352898
v -1.128777 0.896389 -0.288485
v -1.128777 -0.001885 -0.288485
v -1.171511 -0.001885 -0.352898
v -1.171511 0.896389 -0.352898
v -0.431305 0.873724 -0.375000
v -0.431305 0.949037 0.375000
v -0.431305 0.949037 -0.375000
v -0.431305 0.873724 0.375000
v -0.577927 -0.001885 0.276829
v -0.577927 0.896389 0.276829
v -0.620661 -0.001885 0.276829
v -0.620661 0.896389 0.276829
v -0.620661 0.896389 -0.288485
v -0.620661 -0.001885 -0.288485
v -0.577927 0.896389 -0.288485
v -0.577927 -0.001885 -0.288485
v -1.135107 -0.001885 0.276829
v -1.135107 -0.001885 0.245952
v -1.135107 0.896389 0.276829
v -1.135107 0.896389 0.245952
v -1.191114 0.949037 3.019446
v -1.191114 0.873724 3.019446
v -0.431305 0.949037 3.019446
v -0.431305 0.873724 3.019446
v -0.541784 -0.001885 2.963971
v -0.541784 0.896389 2.963971
v -0.541784 -0.001885 3.006705
v -0.541784 0.896389 3.006705
v -1.107099 0.896389 3.006705
v -1.107099 -0.001885 3.006705
v -1.171511 -0.001885 2.963970
v -1.171511 0.896389 2.963970
v -1.128777 0.896389 2.963971
v -1.128777 -0.001885 2.963971
v -1.171511 -0.001885 3.006705
v -1.171511 0.896389 3.006705
v -0.541784 -0.001885 2.413121
v -0.541784 0.896389 2.413121
v -0.541784 -0.001885 2.455855
v -0.541784 0.896389 2.455855
v -1.107099 0.896389 2.455855
v -1.107099 -0.001885 2.455855
v -1.107099 0.896389 2.413121
v -1.107099 -0.001885 2.413121
v -0.620661 0.896389 0.245952
v -0.620661 -0.001885 0.245952
v -0.577927 0.896389 0.245952
v -0.577927 -0.001885 0.245952
v -0.541784 -0.001885 0.853577
v -0.541784 0.896389 0.853577
v -0.541784 -0.001885 0.896311
v -0.541784 0.896389 0.896311
v -1.107099 0.896389 0.896311
v -1.107099 -0.001885 0.896311
v -1.107099 0.896389 0.853577
v -1.107099 -0.001885 0.853577
vn -0.0000 -0.0000 1.0000
vn 1.0000 -0.0000 -0.0000
vn -0.0000 -1.0000 -0.0000
vn -0.0000 -0.0000 -1.0000
vn -1.0000 -0.0000 -0.0000
vn -0.0000 1.0000 -0.0000
vt 0.464329 0.868146
vt 0.473509 0.868146
vt 0.531062 0.878184
vt 0.540243 0.878184
vt 0.540243 0.887365
vt 0.531062 0.887365
vt 0.464329 0.859823
vt 0.464329 0.860278
vt 0.473509 0.860278
vt 0.473509 0.859823
vt 0.464329 0.887365
vt 0.473509 0.887365
vt 0.473509 0.896545
vt 0.464329 0.896545
vt 0.473509 0.878184
vt 0.473509 0.879043
vt 0.464329 0.879043
vt 0.464329 0.878184
vt 0.464329 0.869004
vt 0.473509 0.869004
vt 0.455148 0.887365
vt 0.455148 0.879043
vt 0.455148 0.878184
vt 0.464329 0.886910
vt 0.473509 0.886910
vt 0.455148 0.886910
vt 0.473509 0.868146
s 0
usemtl Palette
f 38/1/1 14/1/1 13/2/1 37/2/1
f 2/3/2 1/4/2 3/5/2 4/6/2
f 44/6/3 28/6/3 26/3/3 41/3/3
f 44/6/1 4/6/1 3/5/1 42/5/1
f 41/3/4 26/3/4 25/4/4 43/4/4
f 45/7/2 84/8/2 83/9/2 46/10/2
f 5/7/5 6/10/5 13/2/5 14/1/5
f 7/11/1 8/12/1 6/13/1 5/14/1
f 16/15/2 9/16/2 10/17/2 15/18/2
f 9/16/2 8/12/2 7/11/2 10/17/2
f 11/19/4 12/20/4 16/15/4 15/18/4
f 10/17/3 7/11/3 5/21/3 14/22/3
f 15/18/3 10/17/3 14/22/3 11/23/3
f 35/23/3 11/23/3 14/22/3 38/22/3
f 36/20/4 12/20/4 11/19/4 35/19/4
f 17/7/5 18/10/5 23/2/5 24/1/5
f 19/11/1 20/12/1 18/13/1 17/14/1
f 21/16/2 20/12/2 19/11/2 22/17/2
f 22/17/3 19/11/3 17/21/3 24/22/3
f 26/3/5 28/6/5 27/5/5 25/4/5
f 82/24/3 47/11/3 53/11/3 54/24/3
f 4/6/3 44/6/3 41/3/3 2/3/3
f 29/7/2 38/1/2 37/2/2 30/10/2
f 31/11/1 29/14/1 30/13/1 32/12/1
f 40/15/5 39/18/5 34/17/5 33/16/5
f 33/16/5 34/17/5 31/11/5 32/12/5
f 35/19/4 39/18/4 40/15/4 36/20/4
f 34/17/3 38/22/3 29/21/3 31/11/3
f 39/18/3 35/23/3 38/22/3 34/17/3
f 49/16/5 50/17/5 82/24/5 81/25/5
f 28/3/5 58/3/5 57/4/5 27/4/5
f 44/6/3 60/6/3 58/3/3 28/3/3
f 84/8/2 52/1/2 51/2/2 83/9/2
f 47/11/1 45/14/1 46/13/1 48/12/1
f 47/11/1 48/12/1 55/12/1 53/11/1
f 82/24/3 84/26/3 45/21/3 47/11/3
f 43/4/6 42/5/6 3/5/6 1/4/6
f 50/17/3 52/22/3 84/26/3 82/24/3
f 81/25/4 82/24/4 54/24/4 56/25/4
f 25/4/6 27/5/6 42/5/6 43/4/6
f 57/4/6 59/5/6 42/5/6 27/4/6
f 60/6/2 44/6/2 42/5/2 59/5/2
f 58/3/1 60/6/1 59/5/1 57/4/1
f 61/7/4 70/1/4 69/2/4 62/10/4
f 63/11/2 61/14/2 62/13/2 64/12/2
f 72/15/1 71/18/1 66/17/1 65/16/1
f 65/16/1 66/17/1 63/11/1 64/12/1
f 67/19/5 71/18/5 72/15/5 68/20/5
f 66/17/3 70/22/3 61/21/3 63/11/3
f 71/18/3 67/23/3 70/22/3 66/17/3
f 73/7/4 80/1/4 79/2/4 74/10/4
f 75/11/2 73/14/2 74/13/2 76/12/2
f 77/16/1 78/17/1 75/11/1 76/12/1
f 78/17/3 80/22/3 73/21/3 75/11/3
f 2/3/4 41/3/4 43/4/4 1/4/4
f 68/20/5 32/20/5 31/19/5 67/19/5
f 67/23/3 31/23/3 29/22/3 70/22/3
f 70/1/2 29/1/2 30/27/2 69/2/2
f 85/7/4 92/1/4 91/2/4 86/10/4
f 87/11/2 85/14/2 86/13/2 88/12/2
f 89/16/1 90/17/1 87/11/1 88/12/1
f 90/17/3 92/22/3 85/21/3 87/11/3
