# Blender 4.4.1
# www.blender.org
mtllib Office_Files_A.mtl
o Office_Files_A
v 0.116862 0.024731 -0.168859
v 0.116862 0.024731 0.181244
v -0.116862 0.024731 0.181244
v -0.116862 0.024731 -0.168859
v -0.116862 0.000000 0.181244
v 0.116862 0.000000 0.181244
v -0.116862 0.000000 -0.168859
v 0.116862 0.000000 -0.168859
v 0.109243 0.051292 -0.173712
v 0.124266 0.051292 0.176068
v -0.109243 0.051292 0.186097
v -0.124266 0.051292 -0.163683
v -0.109243 0.023956 0.186097
v 0.124266 0.023956 0.176068
v -0.124266 0.023956 -0.163683
v 0.109243 0.023956 -0.173712
v 0.105391 0.091254 -0.175995
v 0.127852 0.091254 0.173386
v -0.105391 0.091254 0.188381
v -0.127852 0.091254 -0.161001
v -0.105391 0.050853 0.188381
v 0.127852 0.050853 0.173386
v -0.127852 0.050853 -0.161001
v 0.105391 0.050853 -0.175995
v 0.116946 0.121669 -0.168803
v 0.116779 0.121669 0.181300
v -0.116946 0.121669 0.181188
v -0.116779 0.121669 -0.168915
v -0.116946 0.090105 0.181188
v 0.116779 0.090105 0.181300
v -0.116779 0.090105 -0.168915
v 0.116946 0.090105 -0.168803
v 0.110209 0.137659 -0.173122
v 0.123352 0.137659 0.176733
v -0.110209 0.137659 0.185508
v -0.123351 0.137659 -0.164348
v -0.110209 0.119921 0.185508
v 0.123352 0.119921 0.176733
v -0.123351 0.119921 -0.164348
v 0.110209 0.119921 -0.173122
vn -0.0000 -0.0000 -1.0000
vn -0.0000 1.0000 -0.0000
vn 1.0000 -0.0000 -0.0000
vn -1.0000 -0.0000 -0.0000
vn -0.0000 -0.0000 1.0000
vn -0.0000 -1.0000 -0.0000
vn -0.0429 -0.0000 -0.9991
vn 0.9991 -0.0000 -0.0429
vn -0.9991 -0.0000 0.0429
vn 0.0429 -0.0000 0.9991
vn -0.0642 -0.0000 -0.9979
vn 0.9979 -0.0000 -0.0642
vn -0.9979 -0.0000 0.0642
vn 0.0642 -0.0000 0.9979
vn 0.0005 -0.0000 -1.0000
vn 1.0000 -0.0000 0.0005
vn -1.0000 -0.0000 -0.0005
vn -0.0005 -0.0000 1.0000
vn -0.0375 -0.0000 -0.9993
vn 0.9993 -0.0000 -0.0375
vn -0.9993 -0.0000 0.0375
vn 0.0375 -0.0000 0.9993
vt 0.689225 0.810481
vt 0.723299 0.810481
vt 0.689225 0.776407
vt 0.723299 0.776407
s 0
usemtl Palette
f 7/1/1 4/1/1 1/2/1 8/2/1
f 3/3/2 2/4/2 1/2/2 4/1/2
f 8/2/3 1/2/3 2/4/3 6/4/3
f 5/3/4 3/3/4 4/1/4 7/1/4
f 6/4/5 2/4/5 3/3/5 5/3/5
f 5/3/6 7/1/6 8/2/6 6/4/6
f 15/1/7 12/1/7 9/2/7 16/2/7
f 11/3/2 10/4/2 9/2/2 12/1/2
f 16/2/8 9/2/8 10/4/8 14/4/8
f 13/3/9 11/3/9 12/1/9 15/1/9
f 14/4/10 10/4/10 11/3/10 13/3/10
f 13/3/6 15/1/6 16/2/6 14/4/6
f 23/1/11 20/1/11 17/2/11 24/2/11
f 19/3/2 18/4/2 17/2/2 20/1/2
f 24/2/12 17/2/12 18/4/12 22/4/12
f 21/3/13 19/3/13 20/1/13 23/1/13
f 22/4/14 18/4/14 19/3/14 21/3/14
f 21/3/6 23/1/6 24/2/6 22/4/6
f 31/1/15 28/1/15 25/2/15 32/2/15
f 27/3/2 26/4/2 25/2/2 28/1/2
f 32/2/16 25/2/16 26/4/16 30/4/16
f 29/3/17 27/3/17 28/1/17 31/1/17
f 30/4/18 26/4/18 27/3/18 29/3/18
f 29/3/6 31/1/6 32/2/6 30/4/6
f 39/1/19 36/1/19 33/2/19 40/2/19
f 35/3/2 34/4/2 33/2/2 36/1/2
f 40/2/20 33/2/20 34/4/20 38/4/20
f 37/3/21 35/3/21 36/1/21 39/1/21
f 38/4/22 34/4/22 35/3/22 37/3/22
f 37/3/6 39/1/6 40/2/6 38/4/6
