# Blender 4.4.1
# www.blender.org
mtllib Painting_Small2.mtl
o Painting_Small2
v -0.078380 -0.090856 0.048542
v -0.078380 0.098996 -0.020559
v -0.103893 -0.123536 0.032215
v -0.103893 0.113534 -0.054071
v 0.078380 -0.090856 0.048542
v 0.078380 0.098996 -0.020559
v 0.103893 -0.123536 0.032215
v 0.103893 0.113534 -0.054071
v -0.103893 -0.114466 0.057135
v -0.103893 0.122604 -0.029152
v 0.103893 0.122604 -0.029152
v 0.103893 -0.114466 0.057135
v -0.078380 -0.093666 0.040820
v -0.078380 0.096185 -0.028280
v 0.078380 0.096185 -0.028280
v 0.078380 -0.093666 0.040820
v -0.014633 -0.017449 -0.005609
v -0.014633 0.009037 -0.015250
v 0.014633 -0.017449 -0.005609
v 0.014633 0.009037 -0.015250
v -0.014179 -0.121500 -0.073594
v -0.014179 -0.121500 -0.051333
v 0.014179 -0.121500 -0.051333
v 0.014179 -0.121500 -0.073594
vn -1.0000 -0.0000 -0.0000
vn -0.0000 -0.3420 -0.9397
vn 1.0000 -0.0000 -0.0000
vn -0.0000 0.9397 -0.3420
vn -0.0000 -0.9397 0.3420
vn -0.0000 0.3420 0.9397
vn -0.0000 -1.0000 -0.0000
vn -0.0000 0.4081 -0.9130
vn -1.0000 -0.0028 -0.0023
vn 1.0000 -0.0028 -0.0023
vn -0.0000 -0.4023 0.9155
vt 0.532773 0.851771
vt 0.545980 0.851771
vt 0.545980 0.860659
vt 0.532773 0.860659
vt 0.545967 0.876919
vt 0.560013 0.876919
vt 0.560013 0.890965
vt 0.545967 0.890965
vt 0.532773 0.882503
vt 0.545980 0.882503
vt 0.545980 0.891391
vt 0.532773 0.891391
vt 0.533438 0.904259
vt 0.533438 0.891731
vt 0.519566 0.882503
vt 0.519566 0.891391
vt 0.559187 0.882503
vt 0.559187 0.891391
vt 0.545315 0.904259
vt 0.545980 0.904598
vt 0.532773 0.904598
vt 0.545315 0.891731
vt 0.842415 0.151347
vt 0.842415 0.493654
vt 0.554395 0.493654
vt 0.554395 0.151346
vt 0.535967 0.870252
vt 0.550013 0.870252
vt 0.550013 0.884298
vt 0.535967 0.884298
s 0
usemtl Palette
f 9/1/1 10/2/1 4/3/1 3/4/1
f 3/5/2 4/6/2 8/7/2 7/8/2
f 7/9/3 8/10/3 11/11/3 12/12/3
f 1/13/4 5/14/4 16/14/4 13/13/4
f 3/15/5 7/9/5 12/12/5 9/16/5
f 8/10/4 4/17/4 10/18/4 11/11/4
f 1/13/6 2/19/6 10/20/6 9/21/6
f 6/22/6 5/14/6 12/12/6 11/11/6
f 5/14/6 1/13/6 9/21/6 12/12/6
f 2/19/6 6/22/6 11/11/6 10/20/6
f 2/19/3 1/13/3 13/13/3 14/19/3
f 6/22/5 2/19/5 14/19/5 15/22/5
f 5/14/1 6/22/1 15/22/1 16/14/1
f 22/27/7 21/28/7 24/29/7 23/30/7
f 18/28/8 20/29/8 24/29/8 21/28/8
f 17/27/9 18/28/9 21/28/9 22/27/9
f 20/29/10 19/30/10 23/30/10 24/29/10
f 19/30/11 17/27/11 22/27/11 23/30/11
usemtl Painting
f 16/23/6 15/24/6 14/25/6 13/26/6
