# Blender 4.4.1
# www.blender.org
mtllib Painting_Small.mtl
o Painting_Small
v -0.093750 -0.093750 0.014709
v -0.093750 0.093750 0.014709
v -0.125851 -0.126143 -0.024694
v -0.125851 0.126142 -0.024694
v 0.093750 -0.093750 0.014709
v 0.093750 0.093750 0.014709
v 0.125851 -0.126143 -0.024694
v 0.125851 0.126142 -0.024694
v -0.125851 -0.126143 0.014709
v -0.125851 0.126142 0.014709
v 0.125851 0.126142 0.014709
v 0.125851 -0.126143 0.014709
v -0.093750 -0.093750 0.006492
v -0.093750 0.093750 0.006492
v 0.093750 0.093750 0.006492
v 0.093750 -0.093750 0.006492
vn -1.0000 -0.0000 -0.0000
vn -0.0000 -0.0000 -1.0000
vn 1.0000 -0.0000 -0.0000
vn -0.0000 1.0000 -0.0000
vn -0.0000 -1.0000 -0.0000
vn -0.0000 -0.0000 1.0000
vt 0.532773 0.851771
vt 0.545980 0.851771
vt 0.545980 0.864978
vt 0.532773 0.864978
vt 0.545967 0.876919
vt 0.560013 0.876919
vt 0.560013 0.890965
vt 0.545967 0.890965
vt 0.532773 0.878184
vt 0.545980 0.878184
vt 0.545980 0.891391
vt 0.532773 0.891391
vt 0.533438 0.904259
vt 0.533438 0.891731
vt 0.519566 0.878184
vt 0.519566 0.891391
vt 0.559187 0.878184
vt 0.559187 0.891391
vt 0.545315 0.904259
vt 0.545980 0.904598
vt 0.532773 0.904598
vt 0.545315 0.891731
vt 0.353654 0.151347
vt 0.353654 0.493654
vt 0.011346 0.493654
vt 0.011346 0.151346
s 0
usemtl Palette
f 9/1/1 10/2/1 4/3/1 3/4/1
f 3/5/2 4/6/2 8/7/2 7/8/2
f 7/9/3 8/10/3 11/11/3 12/12/3
f 1/13/4 5/14/4 16/14/4 13/13/4
f 3/15/5 7/9/5 12/12/5 9/16/5
f 8/10/4 4/17/4 10/18/4 11/11/4
f 1/13/6 2/19/6 10/20/6 9/21/6
f 6/22/6 5/14/6 12/12/6 11/11/6
f 5/14/6 1/13/6 9/21/6 12/12/6
f 2/19/6 6/22/6 11/11/6 10/20/6
f 2/19/3 1/13/3 13/13/3 14/19/3
f 6/22/5 2/19/5 14/19/5 15/22/5
f 5/14/1 6/22/1 15/22/1 16/14/1
usemtl Painting
f 16/23/6 15/24/6 14/25/6 13/26/6
