# Blender 4.4.1
# www.blender.org
mtllib Painting.mtl
o Painting
v -0.411791 -0.199428 0.014709
v -0.411791 0.199428 0.014709
v -0.434123 -0.221759 -0.014709
v -0.434123 0.221759 -0.014709
v 0.411791 -0.199428 0.014709
v 0.411791 0.199428 0.014709
v 0.434123 -0.221759 -0.014709
v 0.434123 0.221759 -0.014709
v -0.434123 -0.221759 0.014709
v -0.434123 0.221759 0.014709
v 0.434123 0.221759 0.014709
v 0.434123 -0.221759 0.014709
v -0.411791 -0.199428 0.006492
v -0.411791 0.199428 0.006492
v 0.411791 0.199428 0.006492
v 0.411791 -0.199428 0.006492
vn -1.0000 -0.0000 -0.0000
vn -0.0000 -0.0000 -1.0000
vn 1.0000 -0.0000 -0.0000
vn -0.0000 1.0000 -0.0000
vn -0.0000 -1.0000 -0.0000
vn -0.0000 -0.0000 1.0000
vt 0.532773 0.851771
vt 0.545980 0.851771
vt 0.545980 0.864978
vt 0.532773 0.864978
vt 0.545980 0.878184
vt 0.532773 0.878184
vt 0.545980 0.891391
vt 0.532773 0.891391
vt 0.533438 0.904259
vt 0.533438 0.891731
vt 0.519566 0.878184
vt 0.519566 0.891391
vt 0.559187 0.878184
vt 0.559187 0.891391
vt 0.545315 0.904259
vt 0.545980 0.904598
vt 0.532773 0.904598
vt 0.545315 0.891731
vt 0.994535 0.514057
vt 0.994535 0.990943
vt 0.009830 0.990943
vt 0.009830 0.514057
s 0
usemtl Palette
f 9/1/1 10/2/1 4/3/1 3/4/1
f 3/4/2 4/3/2 8/5/2 7/6/2
f 7/6/3 8/5/3 11/7/3 12/8/3
f 1/9/4 5/10/4 16/10/4 13/9/4
f 3/11/5 7/6/5 12/8/5 9/12/5
f 8/5/4 4/13/4 10/14/4 11/7/4
f 1/9/6 2/15/6 10/16/6 9/17/6
f 6/18/6 5/10/6 12/8/6 11/7/6
f 5/10/6 1/9/6 9/17/6 12/8/6
f 2/15/6 6/18/6 11/7/6 10/16/6
f 2/15/3 1/9/3 13/9/3 14/15/3
f 6/18/5 2/15/5 14/15/5 15/18/5
f 5/10/1 6/18/1 15/18/1 16/10/1
usemtl Painting
f 16/19/6 15/20/6 14/21/6 13/22/6
