# Blender 4.4.1
# www.blender.org
mtllib Paper_Stray.mtl
o Paper_Stray
v 0.125009 0.010825 -0.185681
v 0.125009 0.010825 0.198598
v -0.125009 0.010825 0.198598
v -0.125009 0.010825 -0.185681
v 0.134821 0.010825 -0.104612
v -0.125009 0.010825 -0.104612
v 0.125009 0.010825 -0.104612
v -0.134821 0.010825 -0.104612
v -0.125009 0.010825 0.113405
v 0.134821 0.010825 0.113407
v -0.134821 0.010825 0.113405
v 0.125009 0.010825 0.113407
v 0.134821 0.061179 -0.104612
v -0.134821 0.061179 0.113405
v 0.125009 0.061179 -0.185681
v -0.125009 0.061179 -0.185681
v 0.125009 0.061179 -0.104612
v -0.125009 0.061179 0.113405
v -0.125009 0.061179 0.198598
v 0.125009 0.061179 0.198598
v -0.125009 0.061179 -0.104612
v -0.134821 0.061179 -0.104612
v 0.134821 0.061179 0.113407
v 0.125009 0.061179 0.113407
v -0.129625 0.000000 0.208410
v -0.134821 0.000000 0.203214
v 0.134821 0.000000 0.203214
v 0.129625 0.000000 0.208410
v -0.134821 0.000000 -0.190298
v -0.129625 0.000000 -0.195493
v 0.129625 0.000000 -0.195493
v 0.134821 0.000000 -0.190298
v 0.129625 0.010825 -0.195493
v 0.134821 0.010825 -0.190298
v -0.134821 0.010825 -0.190298
v -0.129625 0.010825 -0.195493
v 0.134821 0.010825 0.203214
v 0.129625 0.010825 0.208410
v -0.129625 0.010825 0.208410
v -0.134821 0.010825 0.203214
v 0.134821 0.061179 -0.190298
v 0.129625 0.061179 -0.195493
v 0.131147 0.061179 -0.191819
v -0.129625 0.061179 -0.195493
v -0.134821 0.061179 -0.190298
v -0.131147 0.061179 -0.191819
v -0.134821 0.061179 0.203214
v -0.129625 0.061179 0.208410
v -0.131147 0.061179 0.204736
v 0.129625 0.061179 0.208410
v 0.134821 0.061179 0.203214
v 0.131147 0.061179 0.204736
vn 0.3827 -0.0000 -0.9239
vn -0.3827 -0.0000 -0.9239
vn -0.0000 -1.0000 -0.0000
vn -0.9239 -0.0000 0.3827
vn -1.0000 -0.0000 -0.0000
vn -0.9239 -0.0000 -0.3827
vn 0.9239 -0.0000 -0.3827
vn 1.0000 -0.0000 -0.0000
vn 0.9239 -0.0000 0.3827
vn -0.0000 -0.0000 1.0000
vn -0.0000 -0.0000 -1.0000
vn -0.3827 -0.0000 0.9239
vn 0.3827 -0.0000 0.9239
vn -0.0000 1.0000 -0.0000
vt 0.307818 0.740360
vt 0.275057 0.740360
vt 0.275057 0.706286
vt 0.274400 0.706724
vt 0.274400 0.739922
vt 0.308474 0.739922
vt 0.308474 0.706724
vt 0.307818 0.706286
vt 0.274400 0.706724
vt 0.274400 0.714301
vt 0.274400 0.732693
vt 0.308474 0.732693
vt 0.308474 0.714301
vt 0.307234 0.732693
vt 0.275640 0.714301
vt 0.307234 0.714301
vt 0.307234 0.739532
vt 0.275640 0.739532
vt 0.275640 0.732693
vt 0.275640 0.707114
vt 0.307234 0.707114
vt 0.308010 0.740050
vt 0.274864 0.740050
vt 0.274864 0.706596
vt 0.308010 0.706596
vt 0.274400 0.706724
vt 0.308474 0.740360
vt 0.274400 0.740360
vt 0.274400 0.706286
vt 0.308474 0.706286
s 1
usemtl Palette
f 33/1/1 36/2/2 44/2/2 42/1/1
f 30/2/2 36/2/2 33/1/1 31/1/1
s 0
f 25/3/3 26/4/3 29/5/3 30/2/3 31/1/3 32/6/3 27/7/3 28/8/3
s 1
f 26/4/4 40/9/4 11/10/5 8/11/5 35/5/6 29/5/6
f 32/6/7 34/6/7 5/12/8 10/13/8 37/7/9 27/7/9
s 0
f 7/14/10 5/12/10 13/12/10 17/14/10
f 9/15/11 11/10/11 14/10/11 18/15/11
s 1
f 35/5/6 8/11/5 22/11/5 45/5/6
f 39/3/12 38/8/13 50/8/13 48/3/12
s 0
f 5/12/14 7/14/14 12/16/14 10/13/14
f 12/16/14 7/14/14 1/17/14 4/18/14 6/19/14 9/15/14 3/20/14 2/21/14
f 10/13/11 12/16/11 24/16/11 23/13/11
f 2/21/11 3/20/11 19/20/11 20/21/11
f 11/10/14 9/15/14 6/19/14 8/11/14
f 15/17/14 17/14/14 13/12/14 41/6/14 43/22/14
f 22/11/14 21/19/14 16/18/14 46/23/14 45/5/14
f 20/21/14 19/20/14 49/24/14 48/3/14 50/8/14 52/25/14
f 23/13/14 24/16/14 20/21/14 52/25/14 51/7/14
f 19/20/14 18/15/14 14/10/14 47/26/14 49/24/14
f 16/18/14 15/17/14 43/22/14 42/1/14 44/2/14 46/23/14
f 8/11/10 6/19/10 21/19/10 22/11/10
f 4/18/10 1/17/10 15/17/10 16/18/10
s 1
f 11/10/5 40/26/4 47/9/4 14/10/5
s 0
f 1/17/5 7/14/5 17/14/5 15/17/5
s 1
f 37/7/9 10/13/8 23/13/8 51/7/9
s 0
f 6/19/8 4/18/8 16/18/8 21/19/8
f 3/20/8 9/15/8 18/15/8 19/20/8
f 12/16/5 2/21/5 20/21/5 24/16/5
s 1
f 5/12/8 34/6/7 41/6/7 13/12/8
s 0
f 41/6/14 42/27/14 43/22/14
f 44/2/14 45/28/14 46/23/14
f 47/9/14 48/29/14 49/24/14
f 50/8/14 51/30/14 52/25/14
s 1
f 31/1/1 33/1/1 34/6/7 32/6/7
f 29/5/6 35/5/6 36/2/2 30/2/2
f 40/9/4 26/4/4 25/3/12 39/3/12
f 38/8/13 28/8/13 27/7/9 37/7/9
f 44/2/2 36/2/2 35/5/6 45/5/6
f 33/1/1 42/1/1 41/6/7 34/6/7
f 39/3/12 48/3/12 47/9/4 40/26/4
f 50/8/13 38/8/13 37/7/9 51/7/9
f 28/8/13 38/8/13 39/3/12 25/3/12
