# Blender 4.4.1
# www.blender.org
mtllib Pen.mtl
o Pen
v 0.000579 0.009566 -0.003215
v -0.000680 0.009566 -0.002694
v -0.001201 0.009566 -0.001436
v -0.000680 0.009566 -0.000177
v 0.000579 0.009566 0.000344
v 0.001837 0.009566 -0.000177
v 0.002358 0.009566 -0.001436
v 0.001837 0.009566 -0.002694
v -0.002096 0.009566 -0.004110
v 0.000579 0.009566 -0.005218
v -0.003204 0.009566 -0.001436
v -0.002096 0.009566 0.001239
v 0.000579 0.009566 0.002347
v 0.003253 0.009566 0.001239
v 0.004361 0.009566 -0.001436
v 0.003253 0.009566 -0.004110
v -0.000680 0.003745 -0.002694
v 0.000579 0.003745 -0.003215
v -0.001201 0.003745 -0.001436
v -0.000680 0.003745 -0.000177
v 0.000579 0.003745 0.000344
v 0.001837 0.003745 -0.000177
v 0.002358 0.003745 -0.001436
v 0.001837 0.003745 -0.002694
v 0.000579 0.129807 -0.002367
v 0.001238 0.129807 -0.002094
v 0.001511 0.129807 -0.001436
v 0.001238 0.129807 -0.000777
v 0.000579 0.129807 -0.000504
v -0.000080 0.129807 -0.000777
v -0.000353 0.129807 -0.001436
v -0.000080 0.129807 -0.002094
v 0.006042 0.032170 0.004027
v 0.006072 0.062452 0.004058
v 0.004798 0.098626 0.002783
v 0.000578 0.098626 0.004531
v 0.000578 0.062452 0.006334
v 0.000578 0.032170 0.006290
v -0.003641 0.098626 0.002783
v -0.004916 0.062452 0.004058
v -0.004885 0.032170 0.004027
v -0.005389 0.098626 -0.001436
v -0.007192 0.062452 -0.001436
v -0.007149 0.032170 -0.001436
v -0.003641 0.098626 -0.005656
v -0.004916 0.062452 -0.006931
v -0.004885 0.032170 -0.006900
v 0.000578 0.032170 -0.009163
v 0.000578 0.062452 -0.009206
v 0.000578 0.098626 -0.007403
v 0.004798 0.098626 -0.005656
v 0.006072 0.062452 -0.006931
v 0.006042 0.032170 -0.006900
v 0.006545 0.098626 -0.001436
v 0.008348 0.062452 -0.001436
v 0.008305 0.032170 -0.001436
v -0.001719 0.124667 -0.003733
v -0.002462 0.118582 -0.004476
v 0.000578 0.118582 -0.005735
v 0.000579 0.124667 -0.004685
v -0.002671 0.124667 -0.001436
v -0.003721 0.118582 -0.001436
v -0.001719 0.124667 0.000862
v -0.002462 0.118582 0.001605
v 0.000579 0.124667 0.001814
v 0.000578 0.118582 0.002864
v 0.002876 0.124667 0.000862
v 0.003619 0.118582 0.001605
v 0.003828 0.124667 -0.001436
v 0.004878 0.118582 -0.001436
v 0.002876 0.124667 -0.003733
v 0.003619 0.118582 -0.004476
v 0.000579 0.129807 -0.003220
v 0.001840 0.129807 -0.002697
v 0.002363 0.129807 -0.001436
v 0.001840 0.129807 -0.000174
v 0.000579 0.129807 0.000348
v -0.000682 0.129807 -0.000174
v -0.001205 0.129807 -0.001436
v -0.000682 0.129807 -0.002697
v 0.000579 0.133300 -0.002295
v 0.001186 0.133300 -0.002043
v 0.001438 0.133300 -0.001436
v 0.001186 0.133300 -0.000828
v 0.000579 0.133300 -0.000577
v -0.000029 0.133300 -0.000828
v -0.000280 0.133300 -0.001436
v -0.000029 0.133300 -0.002043
v -0.005907 0.036599 0.007495
v -0.006792 0.054314 0.009273
v -0.000910 0.036599 0.009565
v -0.001783 0.054314 0.011348
v -0.001155 0.068327 0.010026
v -0.000164 0.026287 0.007906
v -0.006173 0.068327 0.007948
v -0.005154 0.026287 0.005839
v 0.000481 0.026290 0.006350
v -0.005528 0.068330 0.006392
v -0.004509 0.026290 0.004283
v -0.000510 0.068330 0.008470
v -0.001138 0.054317 0.009792
v -0.000265 0.036602 0.008009
v -0.005262 0.036602 0.005939
v -0.006147 0.054317 0.007717
vn 0.9756 0.2196 -0.0000
vn 0.6898 0.2196 -0.6898
vn 0.6800 0.2741 -0.6800
vn 0.9617 0.2741 -0.0000
vn -0.0000 0.2197 -0.9756
vn -0.0000 0.2742 -0.9617
vn -0.6898 0.2197 0.6898
vn -0.0000 0.2197 0.9756
vn -0.0000 0.2742 0.9617
vn -0.6800 0.2742 0.6800
vn 0.6898 0.2196 0.6898
vn 0.6800 0.2742 0.6800
vn -0.9756 0.2197 -0.0000
vn -0.9617 0.2742 -0.0000
vn -0.0000 -0.0000 -1.0000
vn 0.7071 -0.0000 -0.7071
vn -0.6898 0.2197 -0.6898
vn -0.6800 0.2742 -0.6800
vn -0.0000 0.0663 -0.9978
vn -0.7056 0.0663 -0.7056
vn -0.7015 0.1255 -0.7015
vn -0.0000 0.1255 -0.9921
vn -0.0000 -1.0000 -0.0000
vn 1.0000 -0.0000 -0.0000
vn 0.7071 -0.0000 0.7071
vn -0.0000 -0.0000 1.0000
vn -0.7071 -0.0000 0.7071
vn -1.0000 -0.0000 -0.0000
vn -0.7071 -0.0000 -0.7071
vn 0.7056 0.0663 -0.7056
vn 0.7015 0.1255 -0.7015
vn -0.9978 0.0663 -0.0000
vn -0.7056 0.0663 0.7056
vn -0.7015 0.1255 0.7015
vn -0.9921 0.1255 -0.0000
vn -0.0000 0.0662 0.9978
vn -0.0000 0.1255 0.9921
vn 0.7056 0.0662 0.7056
vn 0.7015 0.1254 0.7015
vn 0.9978 0.0663 -0.0000
vn 0.9921 0.1255 -0.0000
vn 0.3826 0.0192 -0.9237
vn -0.0000 -0.1719 -0.9851
vn -0.6966 -0.1719 -0.6966
vn -0.7045 -0.0852 -0.7045
vn -0.0000 -0.0852 -0.9964
vn -0.7069 0.0240 -0.7069
vn -0.0000 0.0240 -0.9997
vn 0.6966 -0.1719 -0.6966
vn 0.7045 -0.0852 -0.7045
vn 0.7069 0.0240 -0.7069
vn -0.0000 -0.1719 0.9851
vn 0.6966 -0.1719 0.6966
vn 0.7045 -0.0852 0.7045
vn -0.0000 -0.0852 0.9964
vn 0.7069 0.0240 0.7069
vn -0.0000 0.0240 0.9997
vn -0.6966 -0.1719 0.6966
vn -0.7045 -0.0852 0.7045
vn -0.7069 0.0240 0.7069
vn -0.9851 -0.1719 -0.0000
vn -0.9964 -0.0852 -0.0000
vn -0.9997 0.0240 -0.0000
vn 0.9851 -0.1719 -0.0000
vn 0.9964 -0.0852 -0.0000
vn 0.9997 0.0240 -0.0000
vn -0.0000 1.0000 -0.0000
vn -0.3826 0.0192 -0.9237
vn -0.9237 0.0192 0.3826
vn 0.3826 0.0192 0.9237
vn 0.9237 0.0192 -0.3826
vn -0.9237 0.0192 -0.3826
vn -0.3826 0.0192 0.9237
vn 0.9237 0.0192 0.3826
vn -0.9238 -0.0077 -0.3827
vn -0.9239 0.0046 -0.3827
vn 0.9239 0.0052 0.3827
vn -0.3806 0.1037 0.9189
vn 0.3769 0.1736 -0.9098
vn 0.9239 -0.0053 0.3827
vn 0.0008 -1.0000 -0.0018
vn -0.0008 1.0000 0.0018
vn -0.9239 -0.0059 -0.3827
vn 0.9239 0.0070 0.3827
vn 0.3806 -0.1037 -0.9189
vn 0.3803 0.1112 -0.9182
vn -0.3769 -0.1736 0.9098
vn -0.3803 -0.1112 0.9182
vt 0.398117 0.885012
vt 0.393126 0.897059
vt 0.393126 0.897059
vt 0.381079 0.902049
vt 0.381079 0.902049
vt 0.369032 0.872965
vt 0.381079 0.867975
vt 0.393127 0.872965
vt 0.393126 0.872965
vt 0.364042 0.885012
vt 0.364042 0.885012
vt 0.721596 0.794646
vt 0.727265 0.792298
vt 0.369032 0.897059
vt 0.690929 0.813387
vt 0.685260 0.811039
vt 0.678882 0.817417
vt 0.690929 0.822407
vt 0.682912 0.805370
vt 0.673892 0.805370
vt 0.685260 0.799701
vt 0.678882 0.793323
vt 0.690929 0.797353
vt 0.690929 0.788333
vt 0.696598 0.799701
vt 0.702976 0.793323
vt 0.698946 0.805370
vt 0.707966 0.805370
vt 0.696598 0.811039
vt 0.702976 0.817417
vt 0.729613 0.786629
vt 0.727265 0.780960
vt 0.721596 0.778612
vt 0.715927 0.780960
vt 0.713579 0.786629
vt 0.715927 0.792298
vt 0.393126 0.872965
vt 0.398116 0.885012
vt 0.797175 0.717889
vt 0.790883 0.720495
vt 0.381079 0.893910
vt 0.387371 0.891304
vt 0.389977 0.885012
vt 0.387371 0.878720
vt 0.381079 0.876114
vt 0.374788 0.878720
vt 0.372182 0.885012
vt 0.374788 0.891304
vt 0.784592 0.717889
vt 0.781986 0.711597
vt 0.784592 0.705306
vt 0.790883 0.702700
vt 0.797175 0.705306
vt 0.799781 0.711597
vt 0.711252 0.800138
vt 0.711252 0.800137
vt 0.723299 0.795147
s 1
usemtl Palette
f 69/1/1 71/2/2 74/3/3 75/1/4
f 71/2/2 60/4/5 73/5/6 74/3/3
f 63/6/7 65/7/8 77/7/9 78/6/10
f 65/7/8 67/8/11 76/9/12 77/7/9
f 67/8/11 69/1/1 75/1/4 76/9/12
f 61/10/13 63/6/7 78/6/10 79/11/14
f 1/12/15 8/13/16 24/13/16 18/12/15
f 60/4/5 57/14/17 80/14/18 73/5/6
f 50/5/19 45/14/20 58/14/21 59/5/22
s 0
f 1/15/23 2/16/23 9/17/23 10/18/23
f 2/16/23 3/19/23 11/20/23 9/17/23
f 3/19/23 4/21/23 12/22/23 11/20/23
f 4/21/23 5/23/23 13/24/23 12/22/23
f 5/23/23 6/25/23 14/26/23 13/24/23
f 6/25/23 7/27/23 15/28/23 14/26/23
f 7/27/23 8/29/23 16/30/23 15/28/23
f 8/29/23 1/15/23 10/18/23 16/30/23
f 18/12/23 24/13/23 23/31/23 22/32/23 21/33/23 20/34/23 19/35/23 17/36/23
s 1
f 7/31/24 6/32/25 22/32/25 23/31/24
f 5/33/26 4/34/27 20/34/27 21/33/26
f 3/35/28 2/36/29 17/36/29 19/35/28
f 8/13/16 7/31/24 23/31/24 24/13/16
f 6/32/25 5/33/26 21/33/26 22/32/25
f 4/34/27 3/35/28 19/35/28 20/34/27
f 2/36/29 1/12/15 18/12/15 17/36/29
f 51/3/30 50/5/19 59/5/22 72/3/31
f 42/11/32 39/6/33 64/6/34 62/11/35
f 39/6/33 36/7/36 66/7/37 64/6/34
f 36/7/36 35/9/38 68/37/39 66/7/37
f 35/9/38 54/1/40 70/38/41 68/37/39
f 54/1/40 51/3/30 72/3/31 70/38/41
f 45/14/20 42/11/32 62/11/35 58/14/21
s 0
f 26/39/42 25/40/42 81/40/42 82/39/42
s 1
f 10/5/43 9/14/44 47/14/45 48/5/46
f 48/5/46 47/14/45 46/14/47 49/5/48
f 49/5/48 46/14/47 45/14/20 50/5/19
f 16/3/49 10/5/43 48/5/46 53/3/50
f 53/3/50 48/5/46 49/5/48 52/3/51
f 52/3/51 49/5/48 50/5/19 51/3/30
f 13/7/52 14/9/53 33/9/54 38/7/55
f 38/7/55 33/9/54 34/9/56 37/7/57
f 37/7/57 34/9/56 35/9/38 36/7/36
f 12/6/58 13/7/52 38/7/55 41/6/59
f 38/7/55 37/7/57 40/6/60 41/6/59
f 40/6/60 37/7/57 36/7/36 39/6/33
f 11/11/61 12/6/58 41/6/59 44/11/62
f 44/11/62 41/6/59 40/6/60 43/11/63
f 43/11/63 40/6/60 39/6/33 42/11/32
f 9/14/44 11/11/61 44/11/62 47/14/45
f 47/14/45 44/11/62 43/11/63 46/14/47
f 46/14/47 43/11/63 42/11/32 45/14/20
f 14/9/53 15/1/64 56/1/65 33/9/54
f 33/9/54 56/1/65 55/1/66 34/9/56
f 34/9/56 55/1/66 54/1/40 35/9/38
f 15/1/64 16/3/49 53/3/50 56/1/65
f 56/1/65 53/3/50 52/3/51 55/1/66
f 55/1/66 52/3/51 51/3/30 54/1/40
f 60/4/5 71/2/2 72/3/31 59/5/22
f 71/2/2 69/1/1 70/38/41 72/3/31
f 69/1/1 67/8/11 68/37/39 70/38/41
f 67/8/11 65/7/8 66/7/37 68/37/39
f 65/7/8 63/6/7 64/6/34 66/7/37
f 63/6/7 61/10/13 62/11/35 64/6/34
f 61/10/13 57/14/17 58/14/21 62/11/35
f 57/14/17 60/4/5 59/5/22 58/14/21
f 57/14/17 61/10/13 79/11/14 80/14/18
s 0
f 25/41/67 26/42/67 74/3/67 73/5/67
f 26/42/67 27/43/67 75/1/67 74/3/67
f 27/43/67 28/44/67 76/9/67 75/1/67
f 28/44/67 29/45/67 77/7/67 76/9/67
f 29/45/67 30/46/67 78/6/67 77/7/67
f 30/46/67 31/47/67 79/11/67 78/6/67
f 31/47/67 32/48/67 80/14/67 79/11/67
f 32/48/67 25/41/67 73/5/67 80/14/67
f 81/40/67 88/49/67 87/50/67 86/51/67 85/52/67 84/53/67 83/54/67 82/39/67
f 25/40/68 32/49/68 88/49/68 81/40/68
f 31/50/69 30/51/69 86/51/69 87/50/69
f 29/52/70 28/53/70 84/53/70 85/52/70
f 27/54/71 26/39/71 82/39/71 83/54/71
f 32/49/72 31/50/72 87/50/72 88/49/72
f 30/51/73 29/52/73 85/52/73 86/51/73
f 28/53/74 27/54/74 83/54/74 84/53/74
f 90/55/75 104/55/75 103/56/75 89/55/75
f 95/55/76 98/55/76 104/55/76 90/55/76
f 94/57/77 97/57/77 102/57/77 91/57/77
f 90/55/78 92/57/78 93/57/78 95/55/78
f 102/57/79 97/57/79 99/55/79 103/56/79
f 92/57/80 101/57/80 100/57/80 93/57/80
f 96/55/81 99/55/81 97/57/81 94/57/81
f 93/57/82 100/57/82 98/55/82 95/55/82
f 89/55/83 103/56/83 99/55/83 96/55/83
f 91/57/84 102/57/84 101/57/84 92/57/84
f 100/57/85 101/57/85 104/55/85 98/55/85
f 101/57/86 102/57/86 103/56/86 104/55/86
f 96/55/87 94/57/87 91/57/87 89/55/87
f 89/55/88 91/57/88 92/57/88 90/55/88
