# Blender 4.4.1
# www.blender.org
mtllib Pencil_1.mtl
o Pencil_1
v -0.002441 0.122005 -0.002442
v -0.000000 -0.000963 -0.003783
v -0.002675 -0.000963 -0.002675
v -0.003783 -0.000963 -0.000001
v -0.002675 -0.000963 0.002674
v -0.000000 -0.000963 0.003782
v 0.002675 -0.000963 0.002674
v 0.003782 -0.000963 -0.000001
v 0.002675 -0.000963 -0.002675
v -0.000000 0.120356 -0.003783
v -0.003783 0.120356 -0.000001
v -0.002441 0.122005 0.002441
v -0.000000 0.120356 0.003782
v 0.002441 0.122005 0.002441
v 0.003782 0.120356 -0.000001
v 0.002441 0.122005 -0.002442
v 0.000001 0.137915 0.000003
v -0.001777 0.127573 -0.001776
v 0.000000 0.130117 -0.001731
v -0.001732 0.130117 0.000001
v 0.001777 0.127573 -0.001776
v -0.001777 0.127573 0.001777
v 0.000000 0.130117 0.001734
v 0.001777 0.127573 0.001777
v 0.001733 0.130117 0.000001
vn 0.9021 0.0013 -0.4315
vn 0.9021 0.0013 0.4315
vn -0.9021 0.0013 -0.4315
vn -0.9021 0.0013 0.4315
vn -0.4315 0.0013 0.9021
vn 0.4315 0.0013 0.9021
vn -0.2753 0.2088 -0.9384
vn 0.4315 0.0013 -0.9021
vn -0.0000 -1.0000 -0.0000
vn -0.4315 0.0013 -0.9021
vn -0.9384 0.2087 -0.2754
vn 0.2753 0.2087 -0.9384
vn -0.9384 0.2085 0.2754
vn -0.2755 0.2084 0.9384
vn 0.2756 0.2083 0.9384
vn 0.9384 0.2084 0.2755
vn 0.9384 0.2085 -0.2754
vn 0.9291 0.1786 -0.3237
vn 0.9291 0.1785 0.3238
vn 0.3238 0.1784 0.9292
vn -0.3238 0.1784 0.9292
vn -0.9292 0.1785 0.3237
vn 0.3236 0.1788 -0.9292
vn -0.9292 0.1786 -0.3236
vn -0.3236 0.1788 -0.9292
vt 0.985635 0.875478
vt 0.980645 0.887525
vt 0.980645 0.863431
vt 0.956551 0.887525
vt 0.951561 0.875478
vt 0.956551 0.863431
vt 0.968598 0.858441
vt 0.953941 0.729553
vt 0.940794 0.725571
vt 0.952175 0.730285
vt 0.968598 0.892515
vt 0.800868 0.808974
vt 0.812915 0.803984
vt 0.817905 0.791937
vt 0.812915 0.779890
vt 0.800868 0.774900
vt 0.788821 0.779890
vt 0.783830 0.791937
vt 0.788821 0.803984
vt 0.936812 0.715957
vt 0.963555 0.725571
vt 0.940794 0.702810
vt 0.936080 0.714191
vt 0.950408 0.698828
vt 0.963555 0.702810
vt 0.952175 0.698096
vt 0.967537 0.712425
vt 0.968269 0.714191
vt 0.808171 0.791931
vt 0.803260 0.804546
vt 0.802692 0.803984
vt 0.806748 0.791936
vt 0.803255 0.779321
vt 0.802692 0.779890
vt 0.790645 0.774411
vt 0.790647 0.775834
vt 0.778035 0.779321
vt 0.778598 0.779890
vt 0.773120 0.791931
vt 0.774543 0.791936
vt 0.790645 0.809462
vt 0.790647 0.808040
vt 0.778031 0.804546
vt 0.778598 0.803984
s 0
usemtl Palette
f 8/1/1 9/2/1 16/2/1 15/1/1
f 7/3/2 8/1/2 15/1/2 14/3/2
f 3/4/3 4/5/3 11/5/3 1/4/3
f 4/5/4 5/6/4 12/6/4 11/5/4
f 5/6/5 6/7/5 13/7/5 12/6/5
f 6/7/6 7/3/6 14/3/6 13/7/6
f 19/8/7 18/9/7 17/10/7
f 9/2/8 2/11/8 10/11/8 16/2/8
f 2/12/9 9/13/9 8/14/9 7/15/9 6/16/9 5/17/9 4/18/9 3/19/9
f 2/11/10 3/4/10 1/4/10 10/11/10
f 18/9/11 20/20/11 17/9/11
f 21/21/12 19/8/12 17/21/12
f 20/20/13 22/22/13 17/23/13
f 22/22/14 23/24/14 17/22/14
f 23/24/15 24/25/15 17/26/15
f 24/25/16 25/27/16 17/25/16
f 25/27/17 21/21/17 17/28/17
f 15/29/18 16/30/18 21/31/18 25/32/18
f 14/33/19 15/29/19 25/32/19 24/34/19
f 13/35/20 14/33/20 24/34/20 23/36/20
f 12/37/21 13/35/21 23/36/21 22/38/21
f 11/39/22 12/37/22 22/38/22 20/40/22
f 16/30/23 10/41/23 19/42/23 21/31/23
f 1/43/24 11/39/24 20/40/24 18/44/24
f 10/41/25 1/43/25 18/44/25 19/42/25
