# Blender 4.4.1
# www.blender.org
mtllib Pencil_2.mtl
o Pencil_2
v -0.002675 0.131924 -0.002675
v -0.000000 0.010606 -0.003783
v -0.002675 0.010606 -0.002675
v -0.003783 0.010606 -0.000000
v -0.002675 0.010606 0.002674
v -0.000000 0.010606 0.003782
v 0.002675 0.010606 0.002674
v 0.003782 0.010606 -0.000000
v 0.002675 0.010606 -0.002675
v -0.000000 0.134702 -0.003609
v -0.003608 0.134702 -0.000000
v -0.002675 0.131924 0.002674
v -0.000000 0.134702 0.003608
v 0.002675 0.131924 0.002674
v 0.003608 0.134702 -0.000000
v 0.002675 0.131924 -0.002675
v 0.000001 0.149483 0.000003
v -0.001777 0.139141 -0.001776
v 0.000000 0.141686 -0.001731
v -0.001732 0.141686 0.000002
v 0.001777 0.139141 -0.001776
v -0.001777 0.139141 0.001778
v 0.000000 0.141686 0.001734
v 0.001777 0.139141 0.001778
v 0.001733 0.141686 0.000002
v -0.002675 -0.000963 -0.002675
v -0.000000 -0.000963 -0.003783
v -0.003783 -0.000963 -0.000000
v -0.002675 -0.000963 0.002674
v -0.000000 -0.000963 0.003782
v 0.002675 -0.000963 0.002674
v 0.003782 -0.000963 -0.000000
v 0.002675 -0.000963 -0.002675
v 0.003782 0.007976 -0.000000
v 0.002675 0.007976 -0.002675
v 0.002675 0.007976 0.002674
v -0.000000 0.007976 -0.003783
v -0.002675 0.007976 -0.002675
v -0.000000 0.007976 0.003782
v -0.002675 0.007976 0.002674
v -0.003783 0.007976 -0.000000
vn 0.9342 0.0007 -0.3568
vn 0.9342 0.0007 0.3568
vn -0.9342 0.0007 -0.3568
vn -0.9342 0.0007 0.3568
vn -0.3568 0.0007 0.9342
vn 0.3568 0.0007 0.9342
vn -0.2753 0.2088 -0.9384
vn 0.3568 0.0007 -0.9342
vn 0.9239 -0.0000 -0.3827
vn -0.3568 0.0007 -0.9342
vn -0.9384 0.2087 -0.2753
vn 0.2753 0.2087 -0.9384
vn -0.9384 0.2085 0.2754
vn -0.2755 0.2084 0.9384
vn 0.2756 0.2083 0.9384
vn 0.9384 0.2084 0.2755
vn 0.9384 0.2085 -0.2754
vn 0.8872 0.1997 -0.4160
vn 0.8872 0.1995 0.4159
vn 0.4159 0.1994 0.8873
vn -0.4159 0.1994 0.8873
vn -0.8873 0.1995 0.4159
vn 0.4160 0.1998 -0.8871
vn -0.8872 0.1997 -0.4160
vn -0.4160 0.1998 -0.8871
vn -0.0000 -1.0000 -0.0000
vn 0.9239 -0.0000 0.3827
vn -0.3827 -0.0000 -0.9239
vn 0.3827 -0.0000 0.9239
vn -0.3827 -0.0000 0.9239
vn -0.9239 -0.0000 0.3827
vn -0.9239 -0.0000 -0.3827
vn 0.3827 -0.0000 -0.9239
vt 0.985635 0.875478
vt 0.980645 0.887525
vt 0.980645 0.863431
vt 0.956551 0.887525
vt 0.951561 0.875478
vt 0.956551 0.863431
vt 0.968598 0.858441
vt 0.953941 0.729553
vt 0.940794 0.725571
vt 0.952175 0.730285
vt 0.968598 0.892515
vt 0.646383 0.890106
vt 0.651373 0.878058
vt 0.646383 0.890105
vt 0.936812 0.715957
vt 0.963555 0.725571
vt 0.940794 0.702810
vt 0.936080 0.714191
vt 0.950408 0.698828
vt 0.963555 0.702810
vt 0.952175 0.698096
vt 0.967537 0.712425
vt 0.968269 0.714191
vt 0.808171 0.791931
vt 0.803260 0.804546
vt 0.802692 0.803984
vt 0.806748 0.791936
vt 0.803255 0.779321
vt 0.802692 0.779890
vt 0.790645 0.774411
vt 0.790647 0.775834
vt 0.778035 0.779321
vt 0.778598 0.779890
vt 0.773120 0.791931
vt 0.774543 0.791936
vt 0.790645 0.809462
vt 0.790647 0.808040
vt 0.778031 0.804546
vt 0.778598 0.803984
vt 0.639447 0.888281
vt 0.651494 0.883291
vt 0.656484 0.871244
vt 0.651494 0.859196
vt 0.639447 0.854206
vt 0.627400 0.859196
vt 0.622410 0.871244
vt 0.627400 0.883291
vt 0.646383 0.866011
vt 0.646383 0.866011
vt 0.622289 0.890106
vt 0.634336 0.895096
vt 0.622289 0.890105
vt 0.634336 0.861021
vt 0.622289 0.866011
vt 0.622289 0.866011
vt 0.617299 0.878058
vt 0.799402 0.716708
vt 0.811449 0.711718
vt 0.782365 0.699671
vt 0.787355 0.711718
vt 0.787355 0.687624
vt 0.787355 0.687624
vt 0.799402 0.682634
vt 0.799402 0.682634
vt 0.811449 0.687624
vt 0.811449 0.687624
vt 0.816439 0.699671
s 0
usemtl Palette
f 8/1/1 9/2/1 16/2/1 15/1/1
f 7/3/2 8/1/2 15/1/2 14/3/2
f 3/4/3 4/5/3 11/5/3 1/4/3
f 4/5/4 5/6/4 12/6/4 11/5/4
f 5/6/5 6/7/5 13/7/5 12/6/5
f 6/7/6 7/3/6 14/3/6 13/7/6
f 19/8/7 18/9/7 17/10/7
f 9/2/8 2/11/8 10/11/8 16/2/8
f 35/12/9 34/13/9 32/13/9 33/14/9
f 2/11/10 3/4/10 1/4/10 10/11/10
f 18/9/11 20/15/11 17/9/11
f 21/16/12 19/8/12 17/16/12
f 20/15/13 22/17/13 17/18/13
f 22/17/14 23/19/14 17/17/14
f 23/19/15 24/20/15 17/21/15
f 24/20/16 25/22/16 17/20/16
f 25/22/17 21/16/17 17/23/17
f 15/24/18 16/25/18 21/26/18 25/27/18
f 14/28/19 15/24/19 25/27/19 24/29/19
f 13/30/20 14/28/20 24/29/20 23/31/20
f 12/32/21 13/30/21 23/31/21 22/33/21
f 11/34/22 12/32/22 22/33/22 20/35/22
f 16/25/23 10/36/23 19/37/23 21/26/23
f 1/38/24 11/34/24 20/35/24 18/39/24
f 10/36/25 1/38/25 18/39/25 19/37/25
f 27/40/26 33/41/26 32/42/26 31/43/26 30/44/26 29/45/26 28/46/26 26/47/26
f 34/13/27 36/48/27 31/49/27 32/13/27
f 38/50/28 37/51/28 27/51/28 26/52/28
f 36/48/29 39/53/29 30/53/29 31/49/29
f 39/53/30 40/54/30 29/55/30 30/53/30
f 40/54/31 41/56/31 28/56/31 29/55/31
f 41/56/32 38/50/32 26/52/32 28/56/32
f 37/51/33 35/12/33 33/14/33 27/51/33
f 2/57/33 9/58/33 35/58/33 37/57/33
f 4/59/32 3/60/32 38/60/32 41/59/32
f 5/61/31 4/59/31 41/59/31 40/62/31
f 6/63/30 5/61/30 40/62/30 39/64/30
f 7/65/29 6/63/29 39/64/29 36/66/29
f 3/60/28 2/57/28 37/57/28 38/60/28
f 8/67/27 7/65/27 36/66/27 34/67/27
f 9/58/9 8/67/9 34/67/9 35/58/9
