# Blender 4.4.1
# www.blender.org
mtllib Phone_A_Base.mtl
o Phone_A_Base
v -0.102374 0.000000 0.165774
v 0.102374 0.000000 0.165774
v -0.102374 0.000000 -0.151684
v 0.102374 0.000000 -0.151684
v -0.102374 0.048414 -0.138476
v -0.102374 0.028361 0.138476
v 0.102374 0.028361 0.138476
v 0.102374 0.048414 -0.138476
v 0.059119 0.039814 0.080098
v 0.059119 0.037929 0.101650
v 0.086597 0.037929 0.101650
v 0.086597 0.039814 0.080098
v 0.026357 0.039814 0.080098
v 0.026357 0.037929 0.101650
v 0.053835 0.037929 0.101650
v 0.053835 0.039814 0.080098
v -0.005916 0.039814 0.080098
v -0.005916 0.037929 0.101650
v 0.021563 0.037929 0.101650
v 0.021563 0.039814 0.080098
v 0.059119 0.042090 0.054086
v 0.059119 0.040205 0.075637
v 0.086597 0.040205 0.075637
v 0.086597 0.042090 0.054086
v 0.026357 0.042090 0.054086
v 0.026357 0.040205 0.075637
v 0.053835 0.040205 0.075637
v 0.053835 0.042090 0.054086
v -0.005916 0.042090 0.054086
v -0.005916 0.040205 0.075637
v 0.021563 0.040205 0.075637
v 0.021563 0.042090 0.054086
v 0.059119 0.044434 0.027294
v 0.059119 0.042549 0.048845
v 0.086597 0.042549 0.048845
v 0.086597 0.044434 0.027294
v 0.026357 0.044434 0.027294
v 0.026357 0.042549 0.048845
v 0.053835 0.042549 0.048845
v 0.053835 0.044434 0.027294
v -0.005916 0.044434 0.027294
v -0.005916 0.042549 0.048845
v 0.021563 0.042549 0.048845
v 0.021563 0.044434 0.027294
v 0.059119 0.046791 0.000356
v 0.059119 0.044906 0.021907
v 0.086597 0.044906 0.021907
v 0.086597 0.046791 0.000356
v 0.026357 0.046791 0.000356
v 0.026357 0.044906 0.021907
v 0.053835 0.044906 0.021907
v 0.053835 0.046791 0.000356
v -0.005916 0.046791 0.000356
v -0.005916 0.044906 0.021907
v 0.021563 0.044906 0.021907
v 0.021563 0.046791 0.000356
v 0.059119 0.026918 0.078970
v 0.059119 0.025033 0.100521
v 0.086597 0.025033 0.100521
v 0.086597 0.026918 0.078970
v 0.026357 0.025033 0.100521
v 0.026357 0.026918 0.078970
v 0.053835 0.025033 0.100521
v 0.053835 0.026918 0.078970
v -0.005916 0.025033 0.100521
v -0.005916 0.026918 0.078970
v 0.021563 0.025033 0.100521
v 0.021563 0.026918 0.078970
v 0.059119 0.027309 0.074509
v 0.059119 0.029194 0.052958
v 0.086597 0.027309 0.074509
v 0.086597 0.029194 0.052958
v 0.026357 0.027309 0.074509
v 0.026357 0.029194 0.052958
v 0.053835 0.027309 0.074509
v 0.053835 0.029194 0.052958
v -0.005916 0.027309 0.074509
v -0.005916 0.029194 0.052958
v 0.021563 0.027309 0.074509
v 0.021563 0.029194 0.052958
v 0.059119 0.029653 0.047717
v 0.059119 0.031538 0.026166
v 0.086597 0.029653 0.047717
v 0.086597 0.031538 0.026166
v 0.026357 0.029653 0.047717
v 0.026357 0.031538 0.026166
v 0.053835 0.029653 0.047717
v 0.053835 0.031538 0.026166
v -0.005916 0.029653 0.047717
v -0.005916 0.031538 0.026166
v 0.021563 0.029653 0.047717
v 0.021563 0.031538 0.026166
v 0.059119 0.032009 0.020779
v 0.059119 0.033895 -0.000772
v 0.086597 0.032009 0.020779
v 0.086597 0.033895 -0.000772
v 0.026357 0.032009 0.020779
v 0.026357 0.033895 -0.000772
v 0.053835 0.032009 0.020779
v 0.053835 0.033895 -0.000772
v -0.005916 0.032009 0.020779
v -0.005916 0.033895 -0.000772
v 0.021563 0.032009 0.020779
v 0.021563 0.033895 -0.000772
v -0.006616 0.034048 -0.067824
v -0.006616 0.035933 -0.089375
v 0.086810 0.034048 -0.067824
v 0.086810 0.035933 -0.089375
v -0.001232 0.055235 -0.109133
v 0.081426 0.055235 -0.109133
v -0.006616 0.038226 -0.115588
v 0.086810 0.038226 -0.115588
v 0.081426 0.047266 -0.055136
v -0.001232 0.047266 -0.055136
v 0.086810 0.031093 -0.034057
v -0.006616 0.031093 -0.034057
v -0.006616 0.056020 -0.114460
v 0.086810 0.056020 -0.114460
v -0.006616 0.043990 -0.032929
v 0.086810 0.043990 -0.032929
v -0.085264 0.053054 -0.096864
v -0.085264 0.050055 -0.069664
v -0.021733 0.050055 -0.069664
v -0.021733 0.053054 -0.096864
v -0.085264 0.029544 -0.071458
v -0.085264 0.032543 -0.098658
v -0.021733 0.029544 -0.071458
v -0.021733 0.032543 -0.098658
vn -0.0000 -1.0000 -0.0000
vn -0.0000 0.9974 0.0722
vn -0.0000 0.2632 -0.9647
vn -0.0000 0.6935 0.7205
vn 1.0000 -0.0000 -0.0000
vn -1.0000 -0.0000 -0.0000
vn -0.0000 0.9962 0.0872
vn -0.0000 -0.0872 0.9962
vn -0.0000 0.0872 -0.9962
vn -0.0000 0.9893 0.1460
vn -0.0000 0.0633 -0.9980
vn -0.0000 -0.9962 -0.0872
vn -0.0000 0.9940 0.1096
vt 0.943154 0.694977
vt 0.943154 0.727166
vt 0.975343 0.727166
vt 0.975343 0.694977
vt 0.949592 0.691758
vt 0.981781 0.691758
vt 0.981781 0.723947
vt 0.949592 0.723947
vt 0.034699 0.937695
vt 0.066887 0.937695
vt 0.066887 0.969884
vt 0.034699 0.969884
vt 0.978562 0.693368
vt 0.978562 0.725556
vt 0.946373 0.693368
vt 0.946373 0.725556
vt 0.197158 0.859112
vt 0.227305 0.859112
vt 0.227305 0.881679
vt 0.197158 0.881680
vt 0.946373 0.688539
vt 0.946373 0.720728
vt 0.978562 0.720728
vt 0.978562 0.688539
vt 0.300602 0.000572
vt 0.943400 0.720235
vt 0.971878 0.720235
vt 0.973733 0.722338
vt 0.941545 0.722338
vt 0.943400 0.698916
vt 0.941545 0.690149
vt 0.971878 0.698916
vt 0.973733 0.690149
vt 0.943154 0.693368
vt 0.975343 0.693368
vt 0.975343 0.725556
vt 0.943154 0.725556
s 0
usemtl Palette
f 1/1/1 3/2/1 4/3/1 2/4/1
f 6/5/2 7/6/2 8/7/2 5/8/2
f 4/7/3 3/8/3 5/8/3 8/7/3
f 1/5/4 2/6/4 7/6/4 6/5/4
f 2/6/5 4/7/5 8/7/5 7/6/5
f 3/8/6 1/5/6 6/5/6 5/8/6
f 10/9/7 11/10/7 12/11/7 9/12/7
f 14/9/7 15/10/7 16/11/7 13/12/7
f 18/9/7 19/10/7 20/11/7 17/12/7
f 22/9/7 23/10/7 24/11/7 21/12/7
f 26/9/7 27/10/7 28/11/7 25/12/7
f 30/9/7 31/10/7 32/11/7 29/12/7
f 34/9/7 35/10/7 36/11/7 33/12/7
f 38/9/7 39/10/7 40/11/7 37/12/7
f 42/9/7 43/10/7 44/11/7 41/12/7
f 46/9/7 47/10/7 48/11/7 45/12/7
f 50/9/7 51/10/7 52/11/7 49/12/7
f 54/9/7 55/10/7 56/11/7 53/12/7
f 39/13/5 87/13/5 88/14/5 40/14/5
f 26/15/8 73/15/8 75/13/8 27/13/8
f 53/16/6 102/16/6 101/15/6 54/15/6
f 13/16/6 62/16/6 61/15/6 14/15/6
f 40/14/9 88/14/9 86/16/9 37/16/9
f 27/13/5 75/13/5 76/14/5 28/14/5
f 54/15/8 101/15/8 103/13/8 55/13/8
f 14/15/8 61/15/8 63/13/8 15/13/8
f 41/16/6 90/16/6 89/15/6 42/15/6
f 28/14/9 76/14/9 74/16/9 25/16/9
f 55/13/5 103/13/5 104/14/5 56/14/5
f 15/13/5 63/13/5 64/14/5 16/14/5
f 42/15/8 89/15/8 91/13/8 43/13/8
f 29/16/6 78/16/6 77/15/6 30/15/6
f 56/14/9 104/14/9 102/16/9 53/16/9
f 16/14/9 64/14/9 62/16/9 13/16/9
f 43/13/5 91/13/5 92/14/5 44/14/5
f 30/15/8 77/15/8 79/13/8 31/13/8
f 17/16/6 66/16/6 65/15/6 18/15/6
f 44/14/9 92/14/9 90/16/9 41/16/9
f 31/13/5 79/13/5 80/14/5 32/14/5
f 18/15/8 65/15/8 67/13/8 19/13/8
f 45/16/6 94/16/6 93/15/6 46/15/6
f 32/14/9 80/14/9 78/16/9 29/16/9
f 19/13/5 67/13/5 68/14/5 20/14/5
f 46/15/8 93/15/8 95/13/8 47/13/8
f 33/16/6 82/16/6 81/15/6 34/15/6
f 20/14/9 68/14/9 66/16/9 17/16/9
f 47/13/5 95/13/5 96/14/5 48/14/5
f 34/15/8 81/15/8 83/13/8 35/13/8
f 21/16/6 70/16/6 69/15/6 22/15/6
f 48/14/9 96/14/9 94/16/9 45/16/9
f 35/13/5 83/13/5 84/14/5 36/14/5
f 22/15/8 69/15/8 71/13/8 23/13/8
f 49/16/6 98/16/6 97/15/6 50/15/6
f 9/16/6 57/16/6 58/15/6 10/15/6
f 36/14/9 84/14/9 82/16/9 33/16/9
f 23/13/5 71/13/5 72/14/5 24/14/5
f 50/15/8 97/15/8 99/13/8 51/13/8
f 10/15/8 58/15/8 59/13/8 11/13/8
f 37/16/6 86/16/6 85/15/6 38/15/6
f 24/14/9 72/14/9 70/16/9 21/16/9
f 51/13/5 99/13/5 100/14/5 52/14/5
f 11/13/5 59/13/5 60/14/5 12/14/5
f 38/15/8 85/15/8 87/13/8 39/13/8
f 25/16/6 74/16/6 73/15/6 26/15/6
f 52/14/9 100/14/9 98/16/9 49/16/9
f 12/14/9 60/14/9 57/16/9 9/16/9
f 114/17/10 113/18/10 110/19/10 109/20/10
f 105/21/6 116/21/6 119/21/6 117/22/6 111/22/6 106/22/6
f 118/23/5 120/24/5 115/24/5 107/24/5 108/23/5 112/23/5
f 118/23/11 112/23/11 111/22/11 117/22/11
f 108/25/12 106/25/12 111/25/12 112/25/12
f 119/21/8 116/21/8 115/24/8 120/24/8
f 105/25/12 107/25/12 115/25/12 116/25/12
f 109/26/10 110/27/10 118/28/10 117/29/10
f 114/30/10 109/26/10 117/29/10 119/31/10
f 113/32/10 114/30/10 119/31/10 120/33/10
f 110/27/10 113/32/10 120/33/10 118/28/10
f 122/34/13 123/35/13 124/36/13 121/37/13
f 121/16/6 126/16/6 125/15/6 122/15/6
f 122/15/8 125/15/8 127/13/8 123/13/8
f 123/13/5 127/13/5 128/14/5 124/14/5
f 124/14/9 128/14/9 126/16/9 121/16/9
