# Blender 4.4.1
# www.blender.org
mtllib Printer.mtl
o Printer
v 0.104146 0.029370 -0.243060
v 0.334228 0.029370 -0.243060
v -0.275970 0.280448 -0.201911
v 0.275220 0.280448 -0.201911
v -0.297771 0.216511 0.236264
v 0.297021 0.216511 0.236264
v -0.361708 0.179170 0.236264
v 0.104146 0.101382 -0.243060
v 0.104146 0.149800 -0.243060
v 0.334228 0.101382 -0.243060
v 0.334228 0.149800 -0.243060
v 0.297021 0.179170 0.236264
v -0.297771 0.063237 0.224778
v 0.297021 0.063237 0.224778
v -0.297771 0.101390 0.230471
v 0.297021 0.101390 0.230471
v 0.322478 0.062616 0.157590
v -0.323230 0.062616 0.157590
v 0.322478 0.038775 0.154033
v -0.323230 0.038775 0.154033
v -0.323230 0.038775 0.524971
v 0.322478 0.038775 0.524971
v -0.323230 0.062616 0.528527
v 0.322478 0.062616 0.528527
v -0.248268 0.350074 0.026877
v 0.247518 0.350074 0.026877
v -0.248268 0.350074 0.195085
v 0.247518 0.350074 0.195085
v -0.260242 0.248796 0.207059
v -0.260242 0.248796 0.014902
v 0.259492 0.248796 0.014902
v 0.259492 0.248796 0.207059
v -0.260242 0.350074 0.014902
v 0.259492 0.350074 0.014902
v -0.260242 0.350074 0.207059
v 0.259492 0.350074 0.207059
v -0.361708 0.000000 0.215344
v 0.360958 0.000000 0.215344
v -0.275970 0.280448 -0.125456
v 0.275220 0.280448 -0.125456
v 0.360958 0.101390 0.230471
v 0.360958 0.179170 0.236264
v -0.297771 0.179170 0.236264
v -0.361708 0.101390 0.230471
v 0.297021 0.179170 0.171858
v -0.297771 0.179170 0.171858
v -0.297771 0.101390 0.166065
v 0.297021 0.101390 0.166065
v -0.297771 0.063237 0.160373
v 0.297021 0.063237 0.160373
v -0.297771 0.216511 0.171858
v 0.297021 0.216511 0.171858
v 0.221822 0.156804 -0.130883
v -0.222575 0.156804 -0.130883
v 0.221822 0.166589 -0.123756
v -0.222575 0.166589 -0.123756
v -0.222575 0.518613 -0.380188
v 0.221822 0.518613 -0.380188
v -0.222575 0.508828 -0.387316
v 0.221822 0.508828 -0.387316
v -0.361708 0.280448 -0.243060
v 0.360958 0.280448 -0.243060
v -0.361708 0.280448 0.236264
v 0.360958 0.280448 0.236264
v -0.275970 0.200491 -0.122547
v 0.275220 0.200491 -0.122547
v -0.275970 0.200491 -0.046092
v 0.275220 0.200491 -0.046092
v -0.361708 0.000000 -0.243060
v 0.360958 0.000000 -0.243060
v 0.360958 0.101382 -0.243060
v 0.360958 0.179170 -0.243060
v -0.361708 0.101382 -0.243060
v -0.361708 0.179170 -0.243060
v 0.334228 0.101382 -0.224348
v 0.104146 0.101382 -0.224348
v 0.104146 0.029370 -0.224348
v 0.334228 0.029370 -0.224348
v 0.334228 0.149800 -0.224348
v 0.104146 0.149800 -0.224348
v 0.305462 0.286049 0.177058
v 0.336509 0.286049 0.177058
v 0.305462 0.286049 0.208706
v 0.305462 0.272758 0.177058
v 0.336509 0.272758 0.177058
v 0.305462 0.272758 0.208706
v 0.304932 0.286049 0.135724
v 0.328196 0.286049 0.135724
v 0.304932 0.286049 0.154273
v 0.328196 0.286049 0.154273
v 0.304932 0.272758 0.135724
v 0.328196 0.272758 0.135724
v 0.304932 0.272758 0.154273
v 0.328196 0.272758 0.154273
v 0.304932 0.286049 0.104014
v 0.328196 0.286049 0.104014
v 0.304932 0.286049 0.122564
v 0.328196 0.286049 0.122564
v 0.304932 0.272758 0.104014
v 0.328196 0.272758 0.104014
v 0.304932 0.272758 0.122564
v 0.328196 0.272758 0.122564
v 0.304932 0.286049 0.073301
v 0.328196 0.286049 0.073301
v 0.304932 0.286049 0.091850
v 0.328196 0.286049 0.091850
v 0.304932 0.272758 0.073301
v 0.328196 0.272758 0.073301
v 0.304932 0.272758 0.091850
v 0.328196 0.272758 0.091850
v 0.336509 0.286049 0.201647
v 0.329450 0.286049 0.208706
v 0.334441 0.286049 0.206638
v 0.329450 0.272758 0.208706
v 0.336509 0.272758 0.201647
v 0.334441 0.272758 0.206638
vn -0.0000 -1.0000 -0.0000
vn 1.0000 -0.0000 -0.0000
vn -1.0000 -0.0000 -0.0000
vn -0.0000 -0.0000 -1.0000
vn -0.0000 1.0000 -0.0000
vn -0.0000 -0.1476 0.9891
vn -0.0000 -0.0000 1.0000
vn -0.0000 -0.0743 0.9972
vn -0.0000 0.5888 0.8083
vn -0.0000 -0.5888 -0.8083
vn -0.0000 0.5888 -0.8083
vn -0.0000 0.7045 0.7097
vn -0.0000 -0.7045 -0.7097
vn 0.3827 -0.0000 0.9239
vn 0.9239 -0.0000 0.3827
vt 0.109075 0.977617
vt 0.109075 0.976140
vt 0.109075 0.981988
vt 0.109075 0.982443
vt 0.109075 0.977064
vt 0.109075 0.977959
vt 0.109075 0.982324
vt 0.109075 0.982443
vt 0.109075 0.976377
vt 0.109075 0.976377
vt 0.109075 0.982016
vt 0.109075 0.982016
vt 0.109075 0.981750
vt 0.109075 0.978044
vt 0.109075 0.982016
vt 0.109075 0.977736
vt 0.109075 0.977736
vt 0.219286 0.881890
vt 0.219286 0.886819
vt 0.219286 0.886385
vt 0.219286 0.880534
vt 0.109075 0.976360
vt 0.109075 0.981888
vt 0.109075 0.982297
vt 0.109075 0.977642
vt 0.109075 0.981409
vt 0.109075 0.981755
vt 0.109075 0.981750
vt 0.123184 0.873680
vt 0.123184 0.873342
vt 0.123184 0.867491
vt 0.123184 0.868848
vt 0.123184 0.872656
vt 0.123184 0.873653
vt 0.123184 0.873776
s 0
usemtl Palette
f 37/1/1 69/2/1 70/3/1 38/4/1
f 3/5/2 39/6/2 67/6/2 65/5/2
f 19/7/2 17/7/2 24/7/2 22/7/2
f 38/4/2 70/3/2 71/3/2 41/8/2
f 69/2/3 37/1/3 44/1/3 73/2/3
f 1/9/2 8/10/2 76/10/2 77/9/2
f 42/4/2 72/3/2 62/3/2 64/4/2
f 72/3/4 74/2/4 61/2/4 62/3/4
f 74/2/3 7/1/3 63/1/3 61/2/3
f 14/11/3 16/12/3 48/12/3 50/11/3
f 72/3/2 42/4/2 41/8/2 71/3/2
f 11/13/3 10/13/3 75/13/3 79/13/3
f 7/1/3 74/2/3 73/2/3 44/1/3
f 13/14/5 14/11/5 50/11/5 49/14/5
f 16/12/3 12/15/3 45/15/3 48/12/3
f 20/16/1 19/7/1 22/7/1 21/16/1
f 18/17/3 20/16/3 21/16/3 23/17/3
f 21/16/6 22/7/6 24/7/6 23/17/6
f 17/7/5 18/17/5 23/17/5 24/7/5
f 27/18/5 28/19/5 26/20/5 25/21/5
f 32/4/2 31/3/2 34/3/2 36/4/2
f 31/3/4 30/2/4 33/2/4 34/3/4
f 30/2/3 29/1/3 35/1/3 33/2/3
f 29/1/7 32/4/7 36/4/7 35/1/7
f 25/22/5 26/23/5 34/3/5 33/2/5
f 28/24/5 27/25/5 35/1/5 36/4/5
f 27/25/5 25/22/5 33/2/5 35/1/5
f 26/23/5 28/24/5 36/4/5 34/3/5
f 14/11/6 13/14/6 37/1/6 38/4/6
f 5/14/7 6/11/7 64/4/7 63/1/7
f 12/15/8 16/12/8 41/4/8 42/4/8
f 15/14/8 43/14/8 7/1/8 44/1/8
f 43/14/7 5/14/7 63/1/7 7/1/7
f 6/11/7 12/15/7 42/4/7 64/4/7
f 13/14/6 15/14/6 44/1/6 37/1/6
f 16/12/6 14/11/6 38/4/6 41/8/6
f 45/15/8 46/14/8 47/14/8 48/12/8
f 46/14/7 45/15/7 52/11/7 51/14/7
f 50/11/6 48/12/6 47/14/6 49/14/6
f 12/15/3 6/11/3 52/11/3 45/15/3
f 43/14/2 15/14/2 47/14/2 46/14/2
f 6/11/1 5/14/1 51/14/1 52/11/1
f 15/14/2 13/14/2 49/14/2 47/14/2
f 5/14/2 43/14/2 46/14/2 51/14/2
f 57/16/9 56/16/9 55/7/9 58/7/9
f 60/7/10 53/7/10 54/16/10 59/17/10
f 57/16/11 58/7/11 60/7/11 59/17/11
f 58/7/2 55/7/2 53/7/2 60/7/2
f 3/5/5 4/26/5 62/3/5 61/2/5
f 40/27/5 39/6/5 63/1/5 64/4/5
f 39/6/5 3/5/5 61/2/5 63/1/5
f 4/26/5 40/27/5 64/4/5 62/3/5
f 67/6/5 68/27/5 66/26/5 65/5/5
f 4/26/12 3/5/12 65/5/12 66/26/12
f 40/27/3 4/26/3 66/26/3 68/27/3
f 39/6/13 40/27/13 68/27/13 67/6/13
f 59/17/3 54/16/3 56/16/3 57/16/3
f 1/9/4 2/28/4 70/3/4 69/2/4
f 10/13/4 11/13/4 72/3/4 71/3/4
f 9/10/4 8/10/4 73/2/4 74/2/4
f 11/13/4 9/10/4 74/2/4 72/3/4
f 8/10/4 1/9/4 69/2/4 73/2/4
f 2/28/4 10/13/4 71/3/4 70/3/4
f 78/28/4 77/9/4 76/10/4 75/13/4
f 80/10/4 79/13/4 75/13/4 76/10/4
f 8/10/2 9/10/2 80/10/2 76/10/2
f 2/28/5 1/9/5 77/9/5 78/28/5
f 10/13/3 2/28/3 78/28/3 75/13/3
f 9/10/1 11/13/1 79/13/1 80/10/1
f 111/29/2 115/29/2 85/30/2 82/30/2
f 82/30/4 85/30/4 84/31/4 81/31/4
f 83/32/5 112/33/5 113/34/5 111/29/5 82/30/5 81/31/5
f 81/31/3 84/31/3 86/32/3 83/32/3
f 89/18/5 90/19/5 88/20/5 87/21/5
f 88/20/4 92/20/4 91/21/4 87/21/4
f 90/19/2 94/19/2 92/20/2 88/20/2
f 89/18/7 93/18/7 94/19/7 90/19/7
f 87/21/3 91/21/3 93/18/3 89/18/3
f 97/18/5 98/19/5 96/20/5 95/21/5
f 96/20/4 100/20/4 99/21/4 95/21/4
f 98/19/2 102/19/2 100/20/2 96/20/2
f 97/18/7 101/18/7 102/19/7 98/19/7
f 95/21/3 99/21/3 101/18/3 97/18/3
f 105/18/5 106/19/5 104/20/5 103/21/5
f 104/20/4 108/20/4 107/21/4 103/21/4
f 106/19/2 110/19/2 108/20/2 104/20/2
f 105/18/7 109/18/7 110/19/7 106/19/7
f 103/21/3 107/21/3 109/18/3 105/18/3
f 114/33/14 116/35/14 113/34/14 112/33/14
f 116/35/15 115/29/15 111/29/15 113/34/15
f 83/32/7 86/32/7 114/33/7 112/33/7
