# Blender 4.4.1
# www.blender.org
mtllib Projector.mtl
o Projector
v -0.057575 0.032724 -0.182043
v 0.057577 0.032724 -0.182043
v -0.057575 0.112663 -0.182043
v 0.057577 0.112663 -0.182043
v -0.082228 0.022975 0.167892
v -0.173604 0.022975 0.076516
v -0.110465 0.022975 0.163420
v -0.135937 0.022975 0.150441
v -0.156153 0.022975 0.130226
v -0.169132 0.022975 0.104753
v 0.173605 0.022975 0.076516
v 0.082229 0.022975 0.167892
v 0.169132 0.022975 0.104753
v 0.156153 0.022975 0.130226
v 0.135938 0.022975 0.150441
v 0.110466 0.022975 0.163420
v -0.173604 0.096880 0.076516
v -0.082228 0.087856 0.167892
v -0.169132 0.094091 0.104753
v -0.156153 0.091576 0.130226
v -0.135937 0.089580 0.150441
v -0.110465 0.088298 0.163420
v 0.082229 0.087856 0.167892
v 0.173605 0.096880 0.076516
v 0.110466 0.088298 0.163420
v 0.135938 0.089580 0.150441
v 0.156153 0.091576 0.130226
v 0.169132 0.094091 0.104753
v -0.173604 0.022975 -0.182043
v 0.173605 0.022975 -0.182043
v -0.173604 0.122412 -0.182043
v 0.173605 0.122412 -0.182043
v -0.057575 0.032724 -0.167506
v 0.057577 0.032724 -0.167506
v -0.057575 0.112663 -0.167506
v 0.057577 0.112663 -0.167506
v -0.005611 0.107233 -0.166481
v -0.027658 0.100069 -0.166481
v -0.041284 0.081315 -0.166481
v -0.041284 0.058134 -0.166481
v -0.027658 0.039380 -0.166481
v -0.005611 0.032216 -0.166481
v 0.016435 0.039380 -0.166481
v 0.030061 0.058134 -0.166481
v 0.030061 0.081315 -0.166481
v 0.016435 0.100069 -0.166481
v -0.024731 0.096040 -0.188681
v -0.005611 0.102252 -0.188681
v -0.036547 0.079776 -0.188681
v -0.036547 0.059673 -0.188681
v -0.024731 0.043409 -0.188681
v -0.005611 0.037197 -0.188681
v 0.013508 0.043409 -0.188681
v 0.025324 0.059673 -0.188681
v 0.025324 0.079776 -0.188681
v 0.013508 0.096040 -0.188681
v -0.027658 0.100069 -0.188681
v -0.005611 0.107233 -0.188681
v -0.041284 0.081315 -0.188681
v -0.041284 0.058134 -0.188681
v -0.027658 0.039380 -0.188681
v -0.005611 0.032216 -0.188681
v 0.016435 0.039380 -0.188681
v 0.030061 0.058134 -0.188681
v 0.030061 0.081315 -0.188681
v 0.016435 0.100069 -0.188681
v -0.024731 0.096040 -0.183393
v -0.005611 0.102252 -0.183393
v -0.036547 0.079776 -0.183393
v -0.036547 0.059673 -0.183393
v -0.024731 0.043409 -0.183393
v -0.005611 0.037197 -0.183393
v 0.013508 0.043409 -0.183393
v 0.025324 0.059673 -0.183393
v 0.025324 0.079776 -0.183393
v 0.013508 0.096040 -0.183393
v 0.139814 0.000000 -0.134542
v 0.156704 0.000000 -0.134542
v 0.139814 0.000000 -0.151432
v 0.156704 0.000000 -0.151432
v 0.153724 0.032793 -0.160492
v 0.118715 0.032793 -0.160492
v 0.153724 0.032793 -0.125483
v 0.118715 0.032793 -0.125483
v 0.052048 0.032793 0.121719
v 0.087057 0.032793 0.121719
v 0.052048 0.032793 0.086710
v 0.087057 0.032793 0.086710
v 0.090037 0.000000 0.095770
v 0.073147 0.000000 0.095770
v 0.090037 0.000000 0.112660
v 0.073147 0.000000 0.112660
v -0.139811 0.000000 -0.134542
v -0.156701 0.000000 -0.134542
v -0.139811 0.000000 -0.151432
v -0.156701 0.000000 -0.151432
v -0.153722 0.032793 -0.160492
v -0.118713 0.032793 -0.160492
v -0.153722 0.032793 -0.125483
v -0.118713 0.032793 -0.125483
v -0.052045 0.032793 0.121719
v -0.087054 0.032793 0.121719
v -0.052045 0.032793 0.086710
v -0.087054 0.032793 0.086710
v -0.090034 0.000000 0.095770
v -0.073144 0.000000 0.095770
v -0.090034 0.000000 0.112660
v -0.073144 0.000000 0.112660
v 0.102895 0.083256 0.115567
v 0.132152 0.083256 0.115567
v 0.102895 0.101483 0.115567
v 0.132152 0.101483 0.115567
v 0.132152 0.106668 0.083991
v 0.132152 0.083256 0.083991
v 0.102895 0.083256 0.083991
v 0.102895 0.106668 0.083991
v 0.063653 0.083256 0.115567
v 0.092910 0.083256 0.115567
v 0.063653 0.101483 0.115567
v 0.092910 0.101483 0.115567
v 0.092910 0.106668 0.083991
v 0.092910 0.083256 0.083991
v 0.063653 0.083256 0.083991
v 0.063653 0.106668 0.083991
v -0.120367 0.087190 0.083110
v -0.130800 0.086601 0.086448
v -0.137248 0.085060 0.095189
v -0.137248 0.083155 0.105992
v -0.130800 0.081614 0.114733
v -0.120367 0.081025 0.118071
v -0.109934 0.081614 0.114733
v -0.103485 0.083155 0.105992
v -0.103485 0.085060 0.095189
v -0.109934 0.086601 0.086448
v -0.130800 0.106315 0.086448
v -0.120367 0.106903 0.083110
v -0.137248 0.104773 0.095189
v -0.137248 0.102869 0.105992
v -0.130800 0.101327 0.114733
v -0.120367 0.100739 0.118071
v -0.109934 0.101327 0.114733
v -0.103485 0.102869 0.105992
v -0.103485 0.104773 0.095189
v -0.109934 0.106315 0.086448
vn -1.0000 -0.0000 -0.0000
vn -0.0000 -1.0000 -0.0000
vn 1.0000 -0.0000 -0.0000
vn -0.0000 0.9952 0.0983
vn 0.9877 -0.0000 0.1564
vn 0.8910 -0.0000 0.4540
vn 0.7071 -0.0000 0.7071
vn 0.4540 -0.0000 0.8910
vn 0.1564 -0.0000 0.9877
vn -0.9877 -0.0000 0.1564
vn -0.8910 -0.0000 0.4540
vn -0.7071 -0.0000 0.7071
vn -0.4540 -0.0000 0.8910
vn -0.1564 -0.0000 0.9877
vn -0.0000 -0.0000 1.0000
vn -0.0000 -0.0000 -1.0000
vn -0.0000 1.0000 -0.0000
vn -0.3090 -0.9511 -0.0000
vn -0.5878 -0.8090 -0.0000
vn -0.5878 0.8090 -0.0000
vn -0.9511 0.3090 -0.0000
vn 0.9511 0.3090 -0.0000
vn 0.5878 0.8090 -0.0000
vn 0.5878 -0.8090 -0.0000
vn -0.9511 -0.3090 -0.0000
vn 0.9511 -0.3090 -0.0000
vn -0.8090 0.5878 -0.0000
vn 0.8090 0.5878 -0.0000
vn 0.3090 -0.9511 -0.0000
vn 0.3090 0.9511 -0.0000
vn 0.8090 -0.5878 -0.0000
vn -0.8090 -0.5878 -0.0000
vn -0.3090 0.9511 -0.0000
vn -0.8410 -0.5411 -0.0000
vn -0.0000 -0.2663 -0.9639
vn 0.9959 0.0905 -0.0000
vn -0.0000 -0.2663 0.9639
vn 0.8410 -0.5411 -0.0000
vn -0.9959 0.0905 -0.0000
vn -0.0000 0.9868 0.1620
vn -0.0000 0.9848 0.1736
vn -0.3048 -0.0000 0.9524
vn -0.8047 -0.0000 -0.5937
vn 0.8047 -0.0000 -0.5937
vn 0.3048 -0.0000 0.9524
vn 0.3048 -0.0000 -0.9524
vn 0.8047 -0.0000 0.5937
vn -0.8047 -0.0000 0.5937
vn -0.3048 -0.0000 -0.9524
vt 0.044698 0.968313
vt 0.044698 0.969260
vt 0.044698 0.970820
vt 0.044698 0.970437
vt 0.044698 0.970082
vt 0.044698 0.969539
vt 0.044698 0.969385
vt 0.044698 0.973840
vt 0.044698 0.974143
vt 0.044698 0.974155
vt 0.044698 0.974124
vt 0.044698 0.973734
vt 0.044698 0.973401
vt 0.044698 0.973025
vt 0.044698 0.968468
vt 0.044698 0.973734
vt 0.044698 0.974124
vt 0.044698 0.973685
vt 0.044698 0.973685
vt 0.127045 0.978930
vt 0.118841 0.981595
vt 0.109381 0.962875
vt 0.109381 0.972401
vt 0.118841 0.972401
vt 0.118841 0.962875
vt 0.114079 0.980659
vt 0.123604 0.980659
vt 0.123604 0.972612
vt 0.114079 0.972612
vt 0.128302 0.972401
vt 0.128302 0.962875
vt 0.123604 0.962665
vt 0.114079 0.962665
vt 0.114079 0.954618
vt 0.123604 0.954618
vt 0.110638 0.978930
vt 0.109381 0.980659
vt 0.118841 0.983733
vt 0.105567 0.971951
vt 0.103535 0.972612
vt 0.105567 0.963325
vt 0.103535 0.962665
vt 0.110638 0.956347
vt 0.109381 0.954618
vt 0.118841 0.953681
vt 0.118841 0.951544
vt 0.127045 0.956347
vt 0.128302 0.954618
vt 0.132116 0.963325
vt 0.134148 0.962665
vt 0.132116 0.971951
vt 0.134148 0.972612
vt 0.128302 0.980659
vt 0.368724 0.807226
vt 0.377408 0.810048
vt 0.386093 0.807226
vt 0.391460 0.799839
vt 0.391460 0.790707
vt 0.386093 0.783320
vt 0.377408 0.780498
vt 0.368724 0.783320
vt 0.363357 0.790707
vt 0.363357 0.799839
vt 0.112404 0.983733
vt 0.112404 0.951544
vt 0.144592 0.983733
vt 0.144592 0.951544
vt 0.121480 0.876960
vt 0.121480 0.879294
vt 0.123299 0.866777
s 0
usemtl Palette
f 29/1/1 6/2/1 17/2/1 31/1/1
f 5/3/2 7/4/2 8/5/2 9/6/2 10/7/2 6/2/2 29/1/2 30/8/2 11/9/2 13/10/2 14/11/2 15/12/2 16/13/2 12/14/2
f 11/9/3 30/8/3 32/8/3 24/9/3
f 1/15/3 3/15/3 35/15/3 33/15/3
f 17/2/4 19/7/4 20/6/4 21/5/4 22/4/4 18/3/4 23/14/4 25/13/4 26/16/4 27/17/4 28/10/4 24/9/4 32/8/4 31/1/4
f 11/9/5 24/9/5 28/10/5 13/10/5
f 13/10/6 28/10/6 27/17/6 14/11/6
f 14/11/7 27/17/7 26/16/7 15/12/7
f 15/12/8 26/16/8 25/13/8 16/13/8
f 16/13/9 25/13/9 23/14/9 12/14/9
f 17/2/10 6/2/10 10/7/10 19/7/10
f 19/7/11 10/7/11 9/6/11 20/6/11
f 20/6/12 9/6/12 8/5/12 21/5/12
f 21/5/13 8/5/13 7/4/13 22/4/13
f 22/4/14 7/4/14 5/3/14 18/3/14
f 5/3/15 12/14/15 23/14/15 18/3/15
f 1/15/16 2/18/16 30/8/16 29/1/16
f 4/19/16 3/15/16 31/1/16 32/8/16
f 3/15/16 1/15/16 29/1/16 31/1/16
f 2/18/16 4/19/16 32/8/16 30/8/16
f 34/18/16 33/15/16 35/15/16 36/19/16
f 2/18/17 1/15/17 33/15/17 34/18/17
f 4/19/1 2/18/1 34/18/1 36/19/1
f 3/15/2 4/19/2 36/19/2 35/15/2
f 56/20/18 76/20/18 68/21/18 48/21/18
s 1
f 41/22/19 61/23/19 62/24/2 42/25/2
f 38/26/20 57/27/20 59/28/21 39/29/21
f 45/29/22 65/28/22 66/27/23 46/26/23
f 42/25/2 62/24/2 63/30/24 43/31/24
f 39/29/21 59/28/21 60/32/25 40/33/25
f 46/31/23 66/30/23 58/24/17 37/25/17
f 43/34/24 63/35/24 64/32/26 44/33/26
f 40/33/25 60/32/25 61/35/19 41/34/19
f 37/25/17 58/24/17 57/23/20 38/22/20
f 44/33/26 64/32/26 65/28/22 45/29/22
s 0
f 47/36/16 57/37/16 58/38/16 48/21/16
f 49/39/16 59/40/16 57/37/16 47/36/16
f 50/41/16 60/42/16 59/40/16 49/39/16
f 51/43/16 61/44/16 60/42/16 50/41/16
f 52/45/16 62/46/16 61/44/16 51/43/16
f 53/47/16 63/48/16 62/46/16 52/45/16
f 54/49/16 64/50/16 63/48/16 53/47/16
f 55/51/16 65/52/16 64/50/16 54/49/16
f 56/20/16 66/53/16 65/52/16 55/51/16
f 48/21/16 58/38/16 66/53/16 56/20/16
f 67/54/16 68/55/16 76/56/16 75/57/16 74/58/16 73/59/16 72/60/16 71/61/16 70/62/16 69/63/16
f 53/47/27 73/47/27 74/49/27 54/49/27
f 50/41/28 70/41/28 71/43/28 51/43/28
f 48/21/29 68/21/29 67/36/29 47/36/29
f 54/49/1 74/49/1 75/51/1 55/51/1
f 51/43/30 71/43/30 72/45/30 52/45/30
f 47/36/31 67/36/31 69/39/31 49/39/31
f 55/51/32 75/51/32 76/20/32 56/20/32
f 52/45/33 72/45/33 73/47/33 53/47/33
f 49/39/3 69/39/3 70/41/3 50/41/3
f 79/64/34 77/65/34 84/65/34 82/64/34
f 77/65/2 79/64/2 80/66/2 78/67/2
f 89/66/35 90/64/35 87/64/35 88/66/35
f 91/67/36 89/66/36 88/66/36 86/67/36
f 80/66/35 79/64/35 82/64/35 81/66/35
f 92/65/2 90/64/2 89/66/2 91/67/2
f 78/67/36 80/66/36 81/66/36 83/67/36
f 92/65/37 91/67/37 86/67/37 85/65/37
f 90/64/34 92/65/34 85/65/34 87/64/34
f 77/65/37 78/67/37 83/67/37 84/65/37
f 95/64/38 98/64/38 100/65/38 93/65/38
f 93/65/2 94/67/2 96/66/2 95/64/2
f 105/66/35 104/66/35 103/64/35 106/64/35
f 107/67/39 102/67/39 104/66/39 105/66/39
f 96/66/35 97/66/35 98/64/35 95/64/35
f 108/65/2 107/67/2 105/66/2 106/64/2
f 94/67/39 99/67/39 97/66/39 96/66/39
f 108/65/37 101/65/37 102/67/37 107/67/37
f 106/64/38 103/64/38 101/65/38 108/65/38
f 93/65/37 100/65/37 99/67/37 94/67/37
f 109/68/15 110/69/15 112/69/15 111/68/15
f 115/68/16 116/68/16 113/69/16 114/69/16
f 111/68/1 116/68/1 115/68/1 109/68/1
f 110/69/3 114/69/3 113/69/3 112/69/3
f 112/69/40 113/69/40 116/68/40 111/68/40
f 117/68/15 118/69/15 120/69/15 119/68/15
f 123/68/16 124/68/16 121/69/16 122/69/16
f 119/68/1 124/68/1 123/68/1 117/68/1
f 118/69/3 122/69/3 121/69/3 120/69/3
f 120/69/40 121/69/40 124/68/40 119/68/40
f 135/70/41 137/70/41 138/70/41 139/70/41 140/70/41 141/70/41 142/70/41 143/70/41 144/70/41 136/70/41
f 129/70/42 130/70/42 140/70/42 139/70/42
f 126/70/43 127/70/43 137/70/43 135/70/43
f 133/70/44 134/70/44 144/70/44 143/70/44
f 130/70/45 131/70/45 141/70/45 140/70/45
f 127/70/1 128/70/1 138/70/1 137/70/1
f 134/70/46 125/70/46 136/70/46 144/70/46
f 131/70/47 132/70/47 142/70/47 141/70/47
f 128/70/48 129/70/48 139/70/48 138/70/48
f 125/70/49 126/70/49 135/70/49 136/70/49
f 132/70/3 133/70/3 143/70/3 142/70/3
