# Blender 4.4.1
# www.blender.org
mtllib RFan_B.mtl
o RFan_B
v 0.076570 -0.077379 0.206869
v 0.076570 -0.087168 0.206869
v 0.320336 -0.087169 0.062558
v 0.320336 -0.077442 0.062558
v 0.005711 -0.087168 0.206869
v 0.005711 -0.077379 0.206869
v 0.107281 -0.071668 0.200618
v 0.107281 -0.092880 0.200618
v 0.317169 -0.071730 0.093269
v 0.317169 -0.092880 0.093269
v 0.320336 -0.087169 0.005711
v 0.320336 -0.077442 0.005711
v 0.076570 -0.077379 0.062559
v 0.076570 -0.087168 0.062559
v 0.005711 -0.077442 0.005711
v 0.005711 -0.087169 0.005711
v 0.836778 -0.071730 0.093269
v 0.880024 -0.071730 0.050023
v 0.867358 -0.071730 0.080603
v 0.880024 -0.092880 0.050023
v 0.836778 -0.092880 0.093269
v 0.867358 -0.092880 0.080603
v 0.107281 -0.092880 0.819560
v 0.064035 -0.092880 0.862806
v 0.094614 -0.092880 0.850140
v 0.064035 -0.071773 0.862806
v 0.107281 -0.071766 0.819560
v 0.094614 -0.071771 0.850140
v -0.076570 -0.077379 0.206869
v -0.076570 -0.087168 0.206869
v -0.320336 -0.087169 0.062558
v -0.320336 -0.077442 0.062558
v -0.005711 -0.087168 0.206869
v -0.005711 -0.077379 0.206869
v -0.107281 -0.071668 0.200618
v -0.107281 -0.092880 0.200618
v -0.317169 -0.071730 0.093269
v -0.317169 -0.092880 0.093269
v -0.320336 -0.087169 0.005711
v -0.320336 -0.077442 0.005711
v -0.076570 -0.077379 0.062559
v -0.076570 -0.087168 0.062559
v -0.005711 -0.077442 0.005711
v -0.005711 -0.087169 0.005711
v -0.836778 -0.071730 0.093269
v -0.880024 -0.071730 0.050023
v -0.867358 -0.071730 0.080603
v -0.880024 -0.092880 0.050023
v -0.836778 -0.092880 0.093269
v -0.867358 -0.092880 0.080603
v -0.107281 -0.092880 0.819560
v -0.064035 -0.092880 0.862806
v -0.094614 -0.092880 0.850140
v -0.064035 -0.071773 0.862806
v -0.107281 -0.071766 0.819560
v -0.094614 -0.071771 0.850140
v 0.076570 -0.077379 -0.206869
v 0.076570 -0.087168 -0.206869
v 0.320336 -0.087169 -0.062558
v 0.320336 -0.077442 -0.062558
v 0.005711 -0.087168 -0.206869
v 0.005711 -0.077379 -0.206869
v 0.107281 -0.071668 -0.200618
v 0.107281 -0.092880 -0.200618
v 0.317169 -0.071730 -0.093269
v 0.317169 -0.092880 -0.093269
v 0.320336 -0.087169 -0.005711
v 0.320336 -0.077442 -0.005711
v 0.076570 -0.077379 -0.062559
v 0.076570 -0.087168 -0.062559
v 0.005711 -0.077442 -0.005711
v 0.005711 -0.087169 -0.005711
v 0.836778 -0.071730 -0.093269
v 0.880024 -0.071730 -0.050023
v 0.867358 -0.071730 -0.080603
v 0.880024 -0.092880 -0.050023
v 0.836778 -0.092880 -0.093269
v 0.867358 -0.092880 -0.080603
v 0.107281 -0.092880 -0.819560
v 0.064035 -0.092880 -0.862806
v 0.094614 -0.092880 -0.850140
v 0.064035 -0.071773 -0.862806
v 0.107281 -0.071766 -0.819560
v 0.094614 -0.071771 -0.850140
v -0.076570 -0.077379 -0.206869
v -0.076570 -0.087168 -0.206869
v -0.320336 -0.087169 -0.062558
v -0.320336 -0.077442 -0.062558
v -0.005711 -0.087168 -0.206869
v -0.005711 -0.077379 -0.206869
v -0.107281 -0.071668 -0.200618
v -0.107281 -0.092880 -0.200618
v -0.317169 -0.071730 -0.093269
v -0.317169 -0.092880 -0.093269
v -0.320336 -0.087169 -0.005711
v -0.320336 -0.077442 -0.005711
v -0.076570 -0.077379 -0.062559
v -0.076570 -0.087168 -0.062559
v -0.005711 -0.077442 -0.005711
v -0.005711 -0.087169 -0.005711
v -0.836778 -0.071730 -0.093269
v -0.880024 -0.071730 -0.050023
v -0.867358 -0.071730 -0.080603
v -0.880024 -0.092880 -0.050023
v -0.836778 -0.092880 -0.093269
v -0.867358 -0.092880 -0.080603
v -0.107281 -0.092880 -0.819560
v -0.064035 -0.092880 -0.862806
v -0.094614 -0.092880 -0.850140
v -0.064035 -0.071773 -0.862806
v -0.107281 -0.071766 -0.819560
v -0.094614 -0.071771 -0.850140
vn -0.1951 -0.0000 0.9808
vn 0.1951 -0.0000 0.9808
vn -0.0000 1.0000 -0.0000
vn -0.9808 -0.0000 0.1951
vn -0.9808 -0.0000 -0.1951
vn -0.0000 -0.0000 1.0000
vn 1.0000 -0.0000 -0.0000
vn 0.9808 -0.0000 0.1951
vn -0.0000 -1.0000 -0.0000
vn -0.0000 1.0000 0.0002
vn -1.0000 -0.0000 -0.0000
vn -0.0000 -0.0000 -1.0000
vn -0.0004 1.0000 -0.0002
vn 0.7071 -0.0000 0.7071
vn 0.7072 -0.0000 0.7070
vn 0.0001 1.0000 -0.0006
vn 0.0004 1.0000 -0.0002
vn -0.7072 -0.0000 0.7070
vn -0.7071 -0.0000 0.7071
vn -0.0001 1.0000 -0.0006
vn -0.1951 -0.0000 -0.9808
vn 0.1951 -0.0000 -0.9808
vn 0.9808 -0.0000 -0.1951
vn -0.0000 1.0000 -0.0002
vn -0.0004 1.0000 0.0002
vn 0.7072 -0.0000 -0.7070
vn 0.7071 -0.0000 -0.7071
vn 0.0001 1.0000 0.0006
vn 0.0004 1.0000 0.0002
vn -0.7071 -0.0000 -0.7071
vn -0.7072 -0.0000 -0.7070
vn -0.0001 1.0000 0.0006
vt 0.786076 0.706500
vt 0.796412 0.706500
vt 0.796412 0.712669
vt 0.796412 0.712202
vt 0.796412 0.707877
vt 0.786076 0.707877
vt 0.786076 0.712669
vt 0.796412 0.702334
vt 0.786076 0.702334
vt 0.786076 0.712202
vt 0.796412 0.702741
vt 0.215534 0.876300
vt 0.215534 0.885370
vt 0.215526 0.885453
vt 0.220296 0.885453
vt 0.220287 0.876300
vt 0.220296 0.876218
vt 0.215526 0.876218
vt 0.220287 0.885370
vt 0.786076 0.702741
s 1
usemtl Palette
f 52/1/1 24/1/2 26/2/2 54/2/1
s 0
f 65/3/3 9/3/3 17/3/3 19/4/3 18/5/3 74/5/3 75/4/3 73/3/3
s 1
f 46/5/4 102/5/5 104/6/5 48/6/4
f 10/7/6 21/7/2 17/3/2 9/3/6
f 7/8/7 27/8/8 23/9/8 8/9/7
s 0
f 10/7/9 66/7/9 77/7/9 78/10/9 76/6/9 20/6/9 22/10/9 21/7/9
f 7/8/10 35/8/10 55/8/10 56/11/10 54/2/10 26/2/10 28/11/10 27/8/10
f 11/12/9 3/13/9 14/13/9 16/12/9
f 5/14/11 6/15/11 15/15/11 16/14/11
f 12/16/12 11/12/12 16/12/12 15/16/12
f 6/15/13 1/17/13 13/17/13 15/15/13
s 1
f 1/17/7 2/18/7 14/18/14 13/17/15
s 0
f 4/19/16 12/16/16 15/16/16 13/19/16
s 1
f 3/13/6 4/19/6 13/19/15 14/13/14
s 0
f 2/18/9 5/14/9 16/14/9 14/18/9
s 1
f 20/6/8 18/5/8 19/4/14 22/10/14
f 22/10/14 19/4/14 17/3/2 21/7/2
f 26/2/2 24/1/2 25/20/14 28/11/14
f 28/11/14 25/20/14 23/9/8 27/8/8
s 0
f 36/9/9 8/9/9 23/9/9 25/20/9 24/1/9 52/1/9 53/20/9 51/9/9
f 48/6/9 104/6/9 106/10/9 105/7/9 94/7/9 38/7/9 49/7/9 50/10/9
f 93/3/3 101/3/3 103/4/3 102/5/3 46/5/3 47/4/3 45/3/3 37/3/3
s 1
f 38/7/6 37/3/6 45/3/1 49/7/1
f 35/8/11 36/9/11 51/9/4 55/8/4
s 0
f 39/12/9 44/12/9 42/13/9 31/13/9
f 33/14/7 44/14/7 43/15/7 34/15/7
f 40/16/12 43/16/12 44/12/12 39/12/12
f 34/15/17 43/15/17 41/17/17 29/17/17
s 1
f 29/17/11 41/17/18 42/18/19 30/18/11
s 0
f 32/19/20 41/19/20 43/16/20 40/16/20
s 1
f 31/13/6 42/13/19 41/19/18 32/19/6
s 0
f 30/18/9 42/18/9 44/14/9 33/14/9
s 1
f 48/6/4 50/10/19 47/4/19 46/5/4
f 50/10/19 49/7/1 45/3/1 47/4/19
f 54/2/1 56/11/19 53/20/19 52/1/1
f 56/11/19 55/8/4 51/9/4 53/20/19
f 108/1/21 110/2/21 82/2/22 80/1/22
s 0
f 8/9/12 36/9/12 35/8/12 7/8/12
s 1
f 66/7/12 65/3/12 73/3/22 77/7/22
f 63/8/7 64/9/7 79/9/23 83/8/23
s 0
f 92/9/9 107/9/9 109/20/9 108/1/9 80/1/9 81/20/9 79/9/9 64/9/9
f 82/2/24 110/2/24 112/11/24 111/8/24 91/8/24 63/8/24 83/8/24 84/11/24
f 67/12/9 72/12/9 70/13/9 59/13/9
f 61/14/11 72/14/11 71/15/11 62/15/11
f 68/16/6 71/16/6 72/12/6 67/12/6
f 62/15/25 71/15/25 69/17/25 57/17/25
s 1
f 57/17/7 69/17/26 70/18/27 58/18/7
s 0
f 60/19/28 69/19/28 71/16/28 68/16/28
s 1
f 59/13/12 70/13/27 69/19/26 60/19/12
s 0
f 58/18/9 70/18/9 72/14/9 61/14/9
s 1
f 76/6/23 78/10/27 75/4/27 74/5/23
f 78/10/27 77/7/22 73/3/22 75/4/27
f 82/2/22 84/11/27 81/20/27 80/1/22
f 84/11/27 83/8/23 79/9/23 81/20/27
s 0
f 10/7/11 9/3/11 65/3/11 66/7/11
s 1
f 94/7/12 105/7/21 101/3/21 93/3/12
f 91/8/11 111/8/5 107/9/5 92/9/11
s 0
f 64/9/6 63/8/6 91/8/6 92/9/6
f 38/7/7 94/7/7 93/3/7 37/3/7
f 95/12/9 87/13/9 98/13/9 100/12/9
f 89/14/7 90/15/7 99/15/7 100/14/7
s 1
f 20/6/8 76/6/23 74/5/23 18/5/8
s 0
f 96/16/6 95/12/6 100/12/6 99/16/6
f 90/15/29 85/17/29 97/17/29 99/15/29
s 1
f 85/17/11 86/18/11 98/18/30 97/17/31
s 0
f 88/19/32 96/16/32 99/16/32 97/19/32
s 1
f 87/13/12 88/19/12 97/19/31 98/13/30
s 0
f 86/18/9 89/14/9 100/14/9 98/18/9
s 1
f 104/6/5 102/5/5 103/4/30 106/10/30
f 106/10/30 103/4/30 101/3/21 105/7/21
f 110/2/21 108/1/21 109/20/30 112/11/30
f 112/11/30 109/20/30 107/9/5 111/8/5
