# Blender 4.4.1
# www.blender.org
mtllib RFan_A.mtl
o RFan_A
v 0.880024 -0.071720 0.093269
v 0.880024 -0.096899 0.093269
v 0.107281 -0.091875 0.862806
v 0.107281 -0.071773 0.862806
v 0.107281 -0.071668 0.100618
v 0.107281 -0.096899 0.100618
v 0.117169 -0.096899 0.093269
v 0.117169 -0.071720 0.093269
v -0.880024 -0.071720 0.093269
v -0.880024 -0.096899 0.093269
v -0.107281 -0.091875 0.862806
v -0.107281 -0.071773 0.862806
v -0.107281 -0.071668 0.100618
v -0.107281 -0.096899 0.100618
v -0.117169 -0.096899 0.093269
v -0.117169 -0.071720 0.093269
v 0.880024 -0.071720 -0.093269
v 0.880024 -0.096899 -0.093269
v 0.107281 -0.091875 -0.862806
v 0.107281 -0.071773 -0.862806
v 0.107281 -0.071668 -0.100618
v 0.107281 -0.096899 -0.100618
v 0.117169 -0.096899 -0.093269
v 0.117169 -0.071720 -0.093269
v -0.880024 -0.071720 -0.093269
v -0.880024 -0.096899 -0.093269
v -0.107281 -0.091875 -0.862806
v -0.107281 -0.071773 -0.862806
v -0.107281 -0.071668 -0.100618
v -0.107281 -0.096899 -0.100618
v -0.117169 -0.096899 -0.093269
v -0.117169 -0.071720 -0.093269
vn -1.0000 -0.0000 -0.0000
vn -0.0000 -0.0000 1.0000
vn -0.0000 -1.0000 -0.0000
vn 0.5965 -0.0000 0.8026
vn -0.0000 1.0000 -0.0000
vn -0.0000 1.0000 0.0001
vn 1.0000 -0.0000 -0.0000
vn -0.0000 -1.0000 0.0066
vn -0.5965 -0.0000 0.8026
vn -0.0000 -0.0000 -1.0000
vn -0.0000 -1.0000 -0.0066
vn 0.5965 -0.0000 -0.8026
vn -0.0000 1.0000 -0.0001
vn -0.5965 -0.0000 -0.8026
vt 0.216412 0.876003
vt 0.206076 0.876003
vt 0.206076 0.865667
vt 0.216412 0.865667
vt 0.210958 0.859893
vt 0.210958 0.870229
vt 0.053407 0.955110
vt 0.053407 0.944775
s 0
usemtl Palette
f 9/1/1 25/1/1 26/2/1 10/2/1
f 7/2/2 2/2/2 1/1/2 8/1/2
f 11/3/2 3/3/2 4/4/2 12/4/2
f 7/2/3 23/2/3 18/2/3 2/2/3
f 6/3/4 7/2/4 8/1/4 5/4/4
f 24/1/5 8/1/5 1/1/5 17/1/5
f 5/4/6 13/4/6 12/4/6 4/4/6
f 5/4/7 4/4/7 3/3/7 6/3/7
f 14/3/8 6/3/8 3/3/8 11/3/8
f 15/2/2 16/1/2 9/1/2 10/2/2
f 10/2/3 26/2/3 31/2/3 15/2/3
f 14/5/3 15/6/3 31/6/3 30/5/3 22/5/3 23/6/3 7/6/3 6/5/3
f 14/3/9 13/4/9 16/1/9 15/2/9
f 32/1/5 25/1/5 9/1/5 16/1/5
f 13/4/1 14/3/1 11/3/1 12/4/1
f 23/2/10 24/1/10 17/1/10 18/2/10
f 30/3/11 27/3/11 19/3/11 22/3/11
f 22/3/12 21/4/12 24/1/12 23/2/12
f 20/4/13 28/4/13 29/4/13 21/4/13
f 21/4/7 22/3/7 19/3/7 20/4/7
f 27/3/10 28/4/10 20/4/10 19/3/10
f 31/2/10 26/2/10 25/1/10 32/1/10
f 30/3/14 31/2/14 32/1/14 29/4/14
f 16/7/5 13/8/5 5/8/5 8/7/5 24/7/5 21/8/5 29/8/5 32/7/5
f 29/4/1 28/4/1 27/3/1 30/3/1
f 2/2/7 18/2/7 17/1/7 1/1/7
