# Blender 4.4.1
# www.blender.org
mtllib Shelf_Drawer.mtl
o Shelf_Drawer
v 0.221916 -0.012462 0.251377
v 0.221916 0.146389 0.251377
v 0.221916 -0.012462 -0.248851
v 0.221916 0.146389 -0.248851
v -0.222666 -0.012462 -0.248851
v -0.222666 0.146389 -0.248851
v -0.222666 -0.012462 0.251377
v -0.222666 0.146389 0.251377
v -0.068618 0.048120 0.284703
v -0.068618 0.101156 0.284703
v -0.068618 0.048120 0.240501
v -0.068618 0.101156 0.240501
v 0.067453 0.048120 0.284703
v 0.067453 0.101156 0.284703
v 0.067453 0.048120 0.240501
v 0.067453 0.101156 0.240501
v 0.183217 0.146389 0.213566
v 0.183217 0.146389 -0.211040
v -0.183968 0.146389 -0.211040
v -0.183968 0.146389 0.213566
v 0.183217 0.002731 0.213566
v 0.183217 0.002731 -0.211040
v -0.183968 0.002731 -0.211040
v -0.183968 0.002731 0.213566
vn -0.0000 -0.0000 -1.0000
vn 1.0000 -0.0000 -0.0000
vn -0.0000 -1.0000 -0.0000
vn -0.0000 -0.0000 1.0000
vn -1.0000 -0.0000 -0.0000
vn -0.0000 1.0000 -0.0000
vt 0.952415 0.791224
vt 0.964797 0.791224
vt 0.964797 0.797415
vt 0.952415 0.797415
vt 0.964797 0.809797
vt 0.952415 0.809797
vt 0.946224 0.797415
vt 0.946224 0.809797
vt 0.964797 0.815988
vt 0.952415 0.815988
vt 0.708840 0.937219
vt 0.718806 0.937219
vt 0.718806 0.947185
vt 0.708840 0.947185
vt 0.708840 0.957150
vt 0.718806 0.957150
vt 0.718806 0.967116
vt 0.708840 0.967116
vt 0.718806 0.977081
vt 0.708840 0.977081
vt 0.698875 0.957150
vt 0.698875 0.967116
vt 0.728772 0.957150
vt 0.728772 0.967116
s 0
usemtl Palette
f 5/1/1 6/2/1 4/3/1 3/4/1
f 3/4/2 4/3/2 2/5/2 1/6/2
f 5/7/3 3/4/3 1/6/3 7/8/3
f 1/6/4 2/5/4 8/9/4 7/10/4
f 9/11/5 10/12/5 12/13/5 11/14/5
f 15/15/2 16/16/2 14/17/2 13/18/2
f 13/18/4 14/17/4 10/19/4 9/20/4
f 11/21/3 15/15/3 13/18/3 9/22/3
f 16/16/6 12/23/6 10/24/6 14/17/6
f 5/1/5 7/10/5 8/9/5 6/2/5
f 4/3/6 6/2/6 19/2/6 18/3/6
f 8/9/6 2/5/6 17/5/6 20/9/6
f 2/5/6 4/3/6 18/3/6 17/5/6
f 6/2/6 8/9/6 20/9/6 19/2/6
f 19/2/2 20/9/2 24/9/2 23/2/2
f 17/5/5 18/3/5 22/3/5 21/5/5
f 20/9/1 17/5/1 21/5/1 24/9/1
f 18/3/4 19/2/4 23/2/4 22/3/4
f 23/2/6 24/9/6 21/5/6 22/3/6
