# Blender 4.4.1
# www.blender.org
mtllib Shelf_Door_B.mtl
o Shelf_Door_B
v -0.448296 0.860589 -0.007205
v -0.448296 -0.061418 -0.007205
v -0.009601 -0.061418 -0.007205
v -0.009601 0.860589 -0.007205
v -0.009601 -0.061418 0.034343
v -0.448296 -0.061418 0.034343
v -0.407375 0.321376 0.027747
v -0.407375 0.474487 0.027747
v -0.434779 0.474487 0.027747
v -0.434779 0.321376 0.027747
v -0.434779 0.474487 0.058589
v -0.434779 0.321376 0.058589
v -0.407375 0.474487 0.058589
v -0.407375 0.321376 0.058589
v -0.009601 0.860589 0.034343
v -0.448296 0.860589 0.034343
v -0.374452 0.013890 -0.007205
v -0.374452 0.342924 -0.007205
v -0.374452 0.458244 -0.007205
v -0.082247 0.013890 -0.007205
v -0.374452 0.787278 -0.007205
v -0.082247 0.787278 -0.007205
v -0.082247 0.342924 -0.007205
v -0.082247 0.458244 -0.007205
v -0.374452 0.342924 0.034343
v -0.374452 0.458244 0.034343
v -0.082247 0.787278 0.034343
v -0.374452 0.787278 0.034343
v -0.374452 0.013890 0.034343
v -0.082247 0.013890 0.034343
v -0.082247 0.342924 0.034343
v -0.082247 0.458244 0.034343
vn -0.0000 -0.0000 -1.0000
vn -0.0000 -1.0000 -0.0000
vn -0.0000 1.0000 -0.0000
vn -0.0000 -0.0000 1.0000
vn -1.0000 -0.0000 -0.0000
vn 1.0000 -0.0000 -0.0000
vt 0.880326 0.715312
vt 0.880326 0.719457
vt 0.881057 0.718769
vt 0.881057 0.716000
vt 0.888563 0.716000
vt 0.889275 0.715312
vt 0.884250 0.716000
vt 0.884250 0.718769
vt 0.889275 0.719457
vt 0.888563 0.718769
vt 0.885370 0.718769
vt 0.885370 0.716000
vt 0.800966 0.706950
vt 0.791493 0.706950
vt 0.791493 0.702562
vt 0.800966 0.702562
vt 0.875899 0.707969
vt 0.875899 0.710706
vt 0.878864 0.710706
vt 0.878864 0.707969
s 0
usemtl Palette
f 3/1/1 2/2/1 17/3/1 20/4/1
f 22/5/1 4/6/1 3/1/1 20/4/1 23/7/1 18/8/1 17/3/1 2/2/1 1/9/1 21/10/1 19/11/1 24/12/1
f 1/9/1 4/6/1 22/5/1 21/10/1
f 6/2/2 2/2/2 3/1/2 5/1/2
f 15/6/3 4/6/3 1/9/3 16/9/3
f 16/9/4 6/2/4 29/3/4 25/8/4 31/7/4 30/4/4 5/1/4 15/6/4 27/5/4 32/12/4 26/11/4 28/10/4
f 29/3/4 6/2/4 5/1/4 30/4/4
f 27/5/4 15/6/4 16/9/4 28/10/4
f 11/13/5 9/13/5 10/14/5 12/14/5
f 12/14/2 10/14/2 7/15/2 14/15/2
f 13/16/3 8/16/3 9/13/3 11/13/3
f 14/15/6 7/15/6 8/16/6 13/16/6
f 14/15/4 13/16/4 11/13/4 12/14/4
f 5/1/6 3/1/6 4/6/6 15/6/6
f 2/2/5 6/2/5 16/9/5 1/9/5
f 32/17/3 24/17/3 19/18/3 26/18/3
f 19/18/6 21/19/6 28/19/6 26/18/6
f 22/20/5 24/17/5 32/17/5 27/20/5
f 21/19/2 22/20/2 27/20/2 28/19/2
f 30/17/3 20/17/3 17/18/3 29/18/3
f 29/18/6 17/18/6 18/19/6 25/19/6
f 31/20/5 23/20/5 20/17/5 30/17/5
f 18/19/2 23/20/2 31/20/2 25/19/2
