# Blender 4.4.1
# www.blender.org
mtllib StickNote_1.mtl
o StickNote_1
v 0.058804 0.012139 -0.065614
v 0.058804 0.026555 0.078531
v -0.058804 0.026555 0.078531
v -0.058804 0.012139 -0.065614
v -0.058804 0.017551 0.078531
v 0.058804 0.017551 0.078531
v -0.058804 0.003136 -0.065614
v 0.058804 0.003136 -0.065614
v 0.058804 0.016567 0.056694
v 0.058804 0.007564 0.056694
v -0.058804 0.007564 0.056695
v -0.058804 0.016567 0.056695
v -0.058804 0.009003 -0.042321
v -0.058804 0.000000 -0.042321
v 0.058804 0.000000 -0.042321
v 0.058804 0.009003 -0.042321
v 0.058804 0.000000 0.006458
v -0.058804 0.000000 0.006458
v -0.058804 0.009003 0.006458
v 0.058804 0.009003 0.006458
vn -0.0000 -0.0000 -1.0000
vn -0.0000 0.9911 0.1334
vn 1.0000 -0.0000 -0.0000
vn -1.0000 -0.0000 -0.0000
vn -0.0000 -0.0000 1.0000
vn -0.0000 -0.9911 -0.1334
vn -0.0000 0.9094 -0.4159
vn -0.0000 1.0000 -0.0000
vn -0.0000 -0.9094 0.4159
vn -0.0000 -1.0000 -0.0000
vn -0.0000 0.9889 -0.1489
vn -0.0000 -0.9889 0.1489
vt 0.612521 0.807199
vt 0.646595 0.807199
vt 0.612521 0.801693
vt 0.646595 0.801693
vt 0.646595 0.778287
vt 0.646595 0.773125
vt 0.612521 0.773125
vt 0.612521 0.778287
vt 0.646595 0.790162
vt 0.612521 0.778287
vt 0.612521 0.790162
s 0
usemtl Palette
f 7/1/1 4/1/1 1/2/1 8/2/1
f 13/3/2 16/4/2 1/2/2 4/1/2
f 10/5/3 9/5/3 2/6/3 6/6/3
f 14/3/4 13/3/4 4/1/4 7/1/4
f 6/6/5 2/6/5 3/7/5 5/7/5
f 14/3/6 7/1/6 8/2/6 15/4/6
f 3/7/7 2/6/7 9/5/7 12/8/7
f 17/9/3 20/9/3 9/5/3 10/5/3
f 5/7/4 3/7/4 12/8/4 11/10/4
f 19/11/8 20/9/8 16/4/8 13/3/8
f 5/7/9 11/10/9 10/5/9 6/6/9
f 18/11/4 19/11/4 13/3/4 14/3/4
f 8/2/3 1/2/3 16/4/3 15/4/3
f 18/11/10 14/3/10 15/4/10 17/9/10
f 12/8/11 9/5/11 20/9/11 19/11/11
f 11/10/4 12/8/4 19/11/4 18/11/4
f 15/4/3 16/4/3 20/9/3 17/9/3
f 11/10/12 18/11/12 17/9/12 10/5/12
