# Blender 4.4.1
# www.blender.org
mtllib Stool_A.mtl
o Stool_A
v 0.248748 0.714949 0.284810
v 0.305480 0.714949 0.228079
v 0.277114 0.714949 0.277209
v 0.297879 0.714949 0.256444
v 0.305480 0.655285 0.228079
v 0.248748 0.655285 0.284810
v 0.297879 0.655285 0.256444
v 0.277114 0.655285 0.277209
v 0.286028 0.000000 0.317428
v 0.286028 0.000000 0.254451
v 0.222065 0.000000 0.254451
v 0.222065 0.000000 0.317428
v 0.286028 0.658536 0.170289
v 0.286028 0.600375 0.233609
v 0.286028 0.617429 0.187219
v 0.286028 0.650744 0.200138
v 0.286028 0.629456 0.223314
v 0.222065 0.600375 0.233609
v 0.222065 0.658536 0.170289
v 0.222065 0.617429 0.187219
v 0.222065 0.629456 0.223314
v 0.222065 0.650744 0.200138
v 0.286028 0.582290 0.172400
v 0.286028 0.600979 0.151863
v 0.222065 0.600979 0.151863
v 0.222065 0.582290 0.172400
v -0.248748 0.714949 0.284810
v -0.305480 0.714949 0.228079
v -0.277114 0.714949 0.277209
v -0.297879 0.714949 0.256444
v -0.305480 0.655285 0.228079
v -0.248748 0.655285 0.284810
v -0.297879 0.655285 0.256444
v -0.277114 0.655285 0.277209
v -0.286028 0.000000 0.317428
v -0.286028 0.000000 0.254451
v -0.222065 0.000000 0.254451
v -0.222065 0.000000 0.317428
v -0.286028 0.658536 0.170289
v -0.286028 0.600375 0.233609
v -0.286028 0.617429 0.187219
v -0.286028 0.650744 0.200138
v -0.286028 0.629456 0.223314
v -0.222065 0.600375 0.233609
v -0.222065 0.658536 0.170289
v -0.222065 0.617429 0.187219
v -0.222065 0.629456 0.223314
v -0.222065 0.650744 0.200138
v -0.286028 0.582290 0.172400
v -0.286028 0.600979 0.151863
v -0.222065 0.600979 0.151863
v -0.222065 0.582290 0.172400
v 0.248748 0.714949 -0.284810
v 0.305480 0.714949 -0.228079
v 0.277114 0.714949 -0.277209
v 0.297879 0.714949 -0.256444
v 0.305480 0.655285 -0.228079
v 0.248748 0.655285 -0.284810
v 0.297879 0.655285 -0.256444
v 0.277114 0.655285 -0.277209
v 0.286028 0.000000 -0.317428
v 0.286028 0.000000 -0.254451
v 0.222065 0.000000 -0.254451
v 0.222065 0.000000 -0.317428
v 0.286028 0.658536 -0.170289
v 0.286028 0.600375 -0.233609
v 0.286028 0.617429 -0.187219
v 0.286028 0.650744 -0.200138
v 0.286028 0.629456 -0.223314
v 0.222065 0.600375 -0.233609
v 0.222065 0.658536 -0.170289
v 0.222065 0.617429 -0.187219
v 0.222065 0.629456 -0.223314
v 0.222065 0.650744 -0.200138
v 0.286028 0.582290 -0.172400
v 0.286028 0.600979 -0.151863
v 0.222065 0.600979 -0.151863
v 0.222065 0.582290 -0.172400
v -0.248748 0.714949 -0.284810
v -0.305480 0.714949 -0.228079
v -0.277114 0.714949 -0.277209
v -0.297879 0.714949 -0.256444
v -0.305480 0.655285 -0.228079
v -0.248748 0.655285 -0.284810
v -0.297879 0.655285 -0.256444
v -0.277114 0.655285 -0.277209
v -0.286028 0.000000 -0.317428
v -0.286028 0.000000 -0.254451
v -0.222065 0.000000 -0.254451
v -0.222065 0.000000 -0.317428
v -0.286028 0.658536 -0.170289
v -0.286028 0.600375 -0.233609
v -0.286028 0.617429 -0.187219
v -0.286028 0.650744 -0.200138
v -0.286028 0.629456 -0.223314
v -0.222065 0.600375 -0.233609
v -0.222065 0.658536 -0.170289
v -0.222065 0.617429 -0.187219
v -0.222065 0.629456 -0.223314
v -0.222065 0.650744 -0.200138
v -0.286028 0.582290 -0.172400
v -0.286028 0.600979 -0.151863
v -0.222065 0.600979 -0.151863
v -0.222065 0.582290 -0.172400
vn -0.1305 -0.0000 0.9914
vn 0.1305 -0.0000 0.9914
vn 0.5000 -0.0000 0.8660
vn 0.8660 -0.0000 0.5000
vn 0.9914 -0.0000 0.1305
vn -0.0000 0.2372 0.9715
vn -0.0000 0.1383 0.9904
vn 1.0000 -0.0000 -0.0000
vn -0.0000 -1.0000 -0.0000
vn -0.0000 -0.9326 0.3608
vn -0.0000 -0.9326 -0.3608
vn -0.0000 -0.1395 -0.9902
vn -0.0000 -0.4673 -0.8841
vn -1.0000 -0.0000 -0.0000
vn -0.0000 0.9676 0.2526
vn -0.0000 0.8780 0.4787
vn -0.0000 0.5514 0.8342
vn -0.0000 1.0000 -0.0000
vn -0.5000 -0.0000 0.8660
vn -0.8660 -0.0000 0.5000
vn -0.9914 -0.0000 0.1305
vn -0.1305 -0.0000 -0.9914
vn 0.1305 -0.0000 -0.9914
vn 0.9914 -0.0000 -0.1305
vn 0.5000 -0.0000 -0.8660
vn 0.8660 -0.0000 -0.5000
vn -0.0000 0.2372 -0.9715
vn -0.0000 0.1383 -0.9904
vn -0.0000 -0.1395 0.9902
vn -0.0000 -0.4673 0.8841
vn -0.0000 0.9676 -0.2526
vn -0.0000 0.8780 -0.4787
vn -0.0000 0.5514 -0.8342
vn -0.9914 -0.0000 -0.1305
vn -0.5000 -0.0000 -0.8660
vn -0.8660 -0.0000 -0.5000
vt 0.382704 0.803396
vt 0.393040 0.803396
vt 0.382704 0.802916
vt 0.393040 0.802916
vt 0.382704 0.801921
vt 0.393040 0.801921
vt 0.382704 0.801407
vt 0.393040 0.801407
vt 0.225509 0.878334
vt 0.225509 0.883390
vt 0.224909 0.878234
vt 0.224669 0.883344
vt 0.224669 0.878594
vt 0.224485 0.878419
vt 0.224862 0.878270
vt 0.224880 0.877772
vt 0.225202 0.877772
vt 0.225452 0.877772
vt 0.225562 0.877772
vt 0.225509 0.878047
vt 0.225509 0.877824
vt 0.225509 0.877725
vt 0.224669 0.878402
vt 0.224687 0.878419
vt 0.391336 0.796295
vt 0.391465 0.796810
vt 0.391816 0.797187
vt 0.392296 0.797325
vt 0.380041 0.797325
vt 0.380521 0.797187
vt 0.380872 0.796810
vt 0.381001 0.796295
s 1
usemtl Palette
f 32/1/1 6/1/2 1/2/2 27/2/1
f 1/2/2 6/1/2 8/3/3 3/4/3
f 3/4/3 8/3/3 7/5/4 4/6/4
f 4/6/4 7/5/4 5/7/5 2/8/5
f 14/9/6 18/9/6 12/10/7 9/10/7
s 0
f 15/11/8 14/9/8 9/10/8 10/12/8 23/13/8
f 9/10/9 12/10/9 11/12/9 10/12/9
s 1
f 76/14/10 24/14/11 25/14/11 77/14/10
f 10/12/12 11/12/12 26/13/13 23/13/13
s 0
f 20/15/14 26/13/14 11/12/14 12/10/14 18/9/14
f 13/16/8 16/17/8 15/11/8
f 16/17/8 17/18/8 15/11/8
f 17/18/8 14/19/8 15/11/8
f 18/9/14 21/20/14 20/11/14
f 21/20/14 22/21/14 20/11/14
f 22/21/14 19/22/14 20/11/14
s 1
f 13/16/15 19/16/15 22/17/16 16/17/16
f 16/17/16 22/17/16 21/20/17 17/20/17
f 17/20/17 21/20/17 18/9/6 14/9/6
s 0
f 67/15/8 65/16/8 13/16/8 15/15/8 24/14/8 76/14/8
f 23/13/8 24/23/8 15/15/8
f 25/14/14 26/24/14 20/15/14
s 1
f 23/13/13 26/13/13 25/14/11 24/14/11
s 0
f 28/25/18 30/26/18 29/27/18 27/28/18 1/28/18 3/27/18 4/26/18 2/25/18 54/25/18 56/26/18 55/27/18 53/28/18 79/28/18 81/27/18 82/26/18 80/25/18
f 6/29/9 32/29/9 34/30/9 33/31/9 31/32/9 83/32/9 85/31/9 86/30/9 84/29/9 58/29/9 60/30/9 59/31/9 57/32/9 5/32/9 7/31/9 8/30/9
s 1
f 27/2/1 29/4/19 34/3/19 32/1/1
f 29/4/19 30/6/20 33/5/20 34/3/19
f 30/6/20 28/8/21 31/7/21 33/5/20
f 40/9/6 35/10/7 38/10/7 44/9/6
s 0
f 41/11/14 49/13/14 36/12/14 35/10/14 40/9/14
f 35/10/9 36/12/9 37/12/9 38/10/9
s 1
f 102/14/10 103/14/10 51/14/11 50/14/11
f 36/12/12 49/13/13 52/13/13 37/12/12
s 0
f 46/15/8 44/9/8 38/10/8 37/12/8 52/13/8
f 39/16/14 41/11/14 42/17/14
f 42/17/14 41/11/14 43/18/14
f 43/18/14 41/11/14 40/19/14
f 44/9/8 46/11/8 47/20/8
f 47/20/8 46/11/8 48/21/8
f 48/21/8 46/11/8 45/22/8
s 1
f 39/16/15 42/17/16 48/17/16 45/16/15
f 42/17/16 43/20/17 47/20/17 48/17/16
f 43/20/17 40/9/6 44/9/6 47/20/17
s 0
f 93/15/14 102/14/14 50/14/14 41/15/14 39/16/14 91/16/14
f 49/13/14 41/15/14 50/23/14
f 51/14/8 46/15/8 52/24/8
s 1
f 49/13/13 50/14/11 51/14/11 52/13/13
f 84/1/22 79/2/22 53/2/23 58/1/23
f 5/7/5 57/7/24 54/8/24 2/8/5
s 0
f 72/11/14 77/14/14 25/14/14 20/11/14 19/16/14 71/16/14
s 1
f 53/2/23 55/4/25 60/3/25 58/1/23
f 55/4/25 56/6/26 59/5/26 60/3/25
f 56/6/26 54/8/24 57/7/24 59/5/26
f 66/9/27 61/10/28 64/10/28 70/9/27
s 0
f 67/11/8 75/13/8 62/12/8 61/10/8 66/9/8
f 61/10/9 62/12/9 63/12/9 64/10/9
s 1
f 62/12/29 75/13/30 78/13/30 63/12/29
s 0
f 72/15/14 70/9/14 64/10/14 63/12/14 78/13/14
f 65/16/8 67/11/8 68/17/8
f 68/17/8 67/11/8 69/18/8
f 69/18/8 67/11/8 66/19/8
f 70/9/14 72/11/14 73/20/14
f 73/20/14 72/11/14 74/21/14
f 74/21/14 72/11/14 71/22/14
s 1
f 65/16/31 68/17/32 74/17/32 71/16/31
f 68/17/32 69/20/33 73/20/33 74/17/32
f 69/20/33 66/9/27 70/9/27 73/20/33
s 0
f 75/13/8 67/15/8 76/23/8
f 77/14/14 72/15/14 78/24/14
s 1
f 75/13/30 76/14/10 77/14/10 78/13/30
f 28/8/21 80/8/34 83/7/34 31/7/21
s 0
f 98/11/8 97/16/8 45/16/8 46/11/8 51/14/8 103/14/8
s 1
f 79/2/22 84/1/22 86/3/35 81/4/35
f 81/4/35 86/3/35 85/5/36 82/6/36
f 82/6/36 85/5/36 83/7/34 80/8/34
f 92/9/27 96/9/27 90/10/28 87/10/28
s 0
f 93/11/14 92/9/14 87/10/14 88/12/14 101/13/14
f 87/10/9 90/10/9 89/12/9 88/12/9
s 1
f 88/12/29 89/12/29 104/13/30 101/13/30
s 0
f 98/15/8 104/13/8 89/12/8 90/10/8 96/9/8
f 91/16/14 94/17/14 93/11/14
f 94/17/14 95/18/14 93/11/14
f 95/18/14 92/19/14 93/11/14
f 96/9/8 99/20/8 98/11/8
f 99/20/8 100/21/8 98/11/8
f 100/21/8 97/22/8 98/11/8
s 1
f 91/16/31 97/16/31 100/17/32 94/17/32
f 94/17/32 100/17/32 99/20/33 95/20/33
f 95/20/33 99/20/33 96/9/27 92/9/27
s 0
f 101/13/14 102/23/14 93/15/14
f 103/14/8 104/24/8 98/15/8
s 1
f 101/13/30 104/13/30 103/14/10 102/14/10
