# Blender 4.4.1
# www.blender.org
mtllib Table_Box.mtl
o Table_Box
v 0.359654 0.949037 0.375000
v 0.359654 0.872741 0.375000
v 0.083024 -0.001885 0.074516
v 0.083024 0.896389 0.074516
v 0.047131 -0.001885 0.304878
v 0.047131 0.051806 0.304878
v 0.047131 0.081609 0.057166
v 0.047131 -0.001885 0.057166
v 0.310972 -0.001885 0.045937
v 0.310972 0.051806 0.045937
v 0.310972 -0.001885 -0.001194
v 0.310972 0.051806 -0.001194
v 0.062240 -0.001885 0.045937
v 0.062240 0.081609 0.045937
v 0.062240 0.081609 -0.001194
v 0.062240 -0.001885 -0.001194
v 0.063031 0.748885 0.056572
v 0.063031 0.169203 0.056572
v -0.359654 0.949037 0.375000
v -0.359654 0.872741 0.375000
v 0.000000 0.872741 0.375000
v 0.000000 0.949037 0.375000
v 0.000000 -0.001885 0.074516
v 0.000000 0.896389 0.074516
v -0.083024 -0.001885 0.074516
v -0.083024 0.896389 0.074516
v 0.000000 -0.001885 0.304878
v 0.000000 0.051806 0.304878
v -0.047131 -0.001885 0.304878
v -0.047131 0.051806 0.304878
v 0.000000 -0.001885 0.057166
v 0.000000 0.081609 0.057166
v -0.047131 0.081609 0.057166
v -0.047131 -0.001885 0.057166
v -0.310972 -0.001885 0.045937
v -0.310972 0.051806 0.045937
v -0.310972 -0.001885 -0.001194
v -0.310972 0.051806 -0.001194
v -0.062240 -0.001885 0.045937
v -0.062240 0.081609 0.045937
v -0.062240 0.081609 -0.001194
v -0.062240 -0.001885 -0.001194
v 0.000000 0.169203 0.056572
v 0.000000 0.748885 0.056572
v -0.063031 0.748885 0.056572
v -0.063031 0.169203 0.056572
v 0.359654 0.949037 -0.375000
v 0.359654 0.872741 -0.375000
v 0.083024 -0.001885 -0.074516
v 0.083024 0.896389 -0.074516
v 0.083024 -0.001885 0.000000
v 0.083024 0.896389 0.000000
v 0.359654 0.949037 0.000000
v 0.359654 0.872741 0.000000
v 0.047131 -0.001885 -0.304878
v 0.047131 0.051806 -0.304878
v 0.047131 0.081609 -0.057166
v 0.047131 -0.001885 -0.057166
v 0.310972 -0.001885 -0.045937
v 0.310972 0.051806 -0.045937
v 0.310972 -0.001885 0.001194
v 0.310972 0.051806 0.001194
v 0.062240 -0.001885 -0.045937
v 0.062240 0.081609 -0.045937
v 0.062240 0.081609 0.001194
v 0.062240 -0.001885 0.001194
v 0.063031 0.748885 0.000000
v 0.063031 0.169203 0.000000
v 0.063031 0.748885 -0.056572
v 0.063031 0.169203 -0.056572
v -0.359654 0.949037 -0.375000
v -0.359654 0.872741 -0.375000
v 0.000000 0.872741 -0.375000
v 0.000000 0.949037 -0.375000
v 0.000000 -0.001885 -0.074516
v 0.000000 0.896389 -0.074516
v 0.000000 -0.001885 0.000000
v -0.083024 -0.001885 -0.074516
v -0.083024 0.896389 -0.074516
v -0.083024 -0.001885 0.000000
v -0.083024 0.896389 0.000000
v -0.359654 0.949037 0.000000
v -0.359654 0.872741 0.000000
v 0.000000 0.949037 0.000000
v 0.000000 0.872741 0.000000
v 0.000000 -0.001885 -0.304878
v 0.000000 0.051806 -0.304878
v -0.047131 -0.001885 -0.304878
v -0.047131 0.051806 -0.304878
v 0.000000 -0.001885 -0.057166
v 0.000000 0.081609 -0.057166
v -0.047131 0.081609 -0.057166
v -0.047131 -0.001885 -0.057166
v -0.310972 -0.001885 -0.045937
v -0.310972 0.051806 -0.045937
v -0.310972 -0.001885 0.001194
v -0.310972 0.051806 0.001194
v -0.062240 -0.001885 -0.045937
v -0.062240 0.081609 -0.045937
v -0.062240 0.081609 0.001194
v -0.062240 -0.001885 0.001194
v 0.000000 0.169203 -0.056572
v 0.000000 0.748885 -0.056572
v -0.063031 0.748885 0.000000
v -0.063031 0.169203 0.000000
v -0.063031 0.748885 -0.056572
v -0.063031 0.169203 -0.056572
vn -0.0000 -1.0000 -0.0000
vn 1.0000 -0.0000 -0.0000
vn -0.0000 1.0000 -0.0000
vn -0.0000 -0.0000 1.0000
vn 0.9909 -0.1343 -0.0000
vn -0.0000 -0.1208 0.9927
vn -0.0000 0.9928 0.1195
vn 0.1190 0.9929 -0.0000
vn -0.0000 0.1043 0.9945
vn 0.9932 0.1161 -0.0000
vn -1.0000 -0.0000 -0.0000
vn -0.9909 -0.1343 -0.0000
vn -0.1190 0.9929 -0.0000
vn -0.9932 0.1161 -0.0000
vn -0.0000 -0.0000 -1.0000
vn -0.0000 -0.1208 -0.9927
vn -0.0000 0.9928 -0.1195
vn -0.0000 0.1043 -0.9945
vt 0.524565 0.882775
vt 0.529156 0.882775
vt 0.529156 0.887365
vt 0.524565 0.887365
vt 0.538336 0.882775
vt 0.538336 0.887365
vt 0.542926 0.882775
vt 0.542926 0.887365
vt 0.538336 0.891955
vt 0.529156 0.891955
vt 0.973006 0.782625
vt 0.976451 0.782625
vt 0.976451 0.792961
vt 0.973006 0.792961
vt 0.976451 0.803296
vt 0.973006 0.803296
vt 0.955780 0.782625
vt 0.966115 0.782625
vt 0.966115 0.792961
vt 0.955780 0.792961
vt 0.538336 0.896545
vt 0.529156 0.896545
vt 0.969561 0.792961
vt 0.969561 0.803296
vt 0.966115 0.803296
vt 0.969561 0.782625
s 0
usemtl Palette
f 85/1/1 54/2/1 2/3/1 21/4/1
f 54/2/2 53/5/2 1/6/2 2/3/2
f 53/5/3 84/7/3 22/8/3 1/6/3
f 2/3/4 1/6/4 22/9/4 21/10/4
f 67/11/5 52/12/5 4/13/5 17/14/5
f 17/14/6 4/13/6 24/15/6 44/16/6
f 77/17/1 51/18/1 3/19/1 23/20/1
f 5/3/4 6/6/4 28/21/4 27/22/4
f 6/6/7 7/6/7 32/21/7 28/21/7
f 5/3/2 8/3/2 7/6/2 6/6/2
f 27/22/1 31/22/1 8/3/1 5/3/1
f 11/3/2 12/6/2 10/21/2 9/22/2
f 12/6/8 15/6/8 14/21/8 10/21/8
f 9/22/4 10/21/4 14/21/4 13/22/4
f 9/22/1 13/22/1 16/3/1 11/3/1
f 3/19/9 18/23/9 43/24/9 23/25/9
f 18/23/4 17/14/4 44/16/4 43/24/4
f 51/18/10 68/26/10 18/23/10 3/19/10
f 68/26/2 67/11/2 17/14/2 18/23/2
f 85/1/1 21/4/1 20/3/1 83/2/1
f 83/2/11 20/3/11 19/6/11 82/5/11
f 82/5/3 19/6/3 22/8/3 84/7/3
f 20/3/4 21/10/4 22/9/4 19/6/4
f 104/11/12 45/14/12 26/13/12 81/12/12
f 45/14/6 44/16/6 24/15/6 26/13/6
f 77/17/1 23/20/1 25/19/1 80/18/1
f 29/3/4 27/22/4 28/21/4 30/6/4
f 30/6/7 28/21/7 32/21/7 33/6/7
f 29/3/11 30/6/11 33/6/11 34/3/11
f 27/22/1 29/3/1 34/3/1 31/22/1
f 37/3/11 35/22/11 36/21/11 38/6/11
f 38/6/13 36/21/13 40/21/13 41/6/13
f 35/22/4 39/22/4 40/21/4 36/21/4
f 35/22/1 37/3/1 42/3/1 39/22/1
f 25/19/9 23/25/9 43/24/9 46/23/9
f 46/23/4 43/24/4 44/16/4 45/14/4
f 80/18/14 25/19/14 46/23/14 105/26/14
f 105/26/11 46/23/11 45/14/11 104/11/11
f 85/1/1 73/4/1 48/3/1 54/2/1
f 54/2/2 48/3/2 47/6/2 53/5/2
f 53/5/3 47/6/3 74/8/3 84/7/3
f 48/3/15 73/10/15 74/9/15 47/6/15
f 67/11/5 69/14/5 50/13/5 52/12/5
f 69/14/16 103/16/16 76/15/16 50/13/16
f 77/17/1 75/20/1 49/19/1 51/18/1
f 55/3/15 86/22/15 87/21/15 56/6/15
f 56/6/17 87/21/17 91/21/17 57/6/17
f 55/3/2 56/6/2 57/6/2 58/3/2
f 86/22/1 55/3/1 58/3/1 90/22/1
f 61/3/2 59/22/2 60/21/2 62/6/2
f 62/6/8 60/21/8 64/21/8 65/6/8
f 59/22/15 63/22/15 64/21/15 60/21/15
f 59/22/1 61/3/1 66/3/1 63/22/1
f 49/19/18 75/25/18 102/24/18 70/23/18
f 70/23/15 102/24/15 103/16/15 69/14/15
f 51/18/10 49/19/10 70/23/10 68/26/10
f 68/26/2 70/23/2 69/14/2 67/11/2
f 85/1/1 83/2/1 72/3/1 73/4/1
f 83/2/11 82/5/11 71/6/11 72/3/11
f 82/5/3 84/7/3 74/8/3 71/6/3
f 72/3/15 71/6/15 74/9/15 73/10/15
f 104/11/12 81/12/12 79/13/12 106/14/12
f 106/14/16 79/13/16 76/15/16 103/16/16
f 77/17/1 80/18/1 78/19/1 75/20/1
f 88/3/15 89/6/15 87/21/15 86/22/15
f 89/6/17 92/6/17 91/21/17 87/21/17
f 88/3/11 93/3/11 92/6/11 89/6/11
f 86/22/1 90/22/1 93/3/1 88/3/1
f 96/3/11 97/6/11 95/21/11 94/22/11
f 97/6/13 100/6/13 99/21/13 95/21/13
f 94/22/15 95/21/15 99/21/15 98/22/15
f 94/22/1 98/22/1 101/3/1 96/3/1
f 78/19/18 107/23/18 102/24/18 75/25/18
f 107/23/15 106/14/15 103/16/15 102/24/15
f 80/18/14 105/26/14 107/23/14 78/19/14
f 105/26/11 104/11/11 106/14/11 107/23/11
