# Blender 4.4.1
# www.blender.org
mtllib Wall_Standard_Door.mtl
o Wall_Standard_Door
v 2.000000 0.000000 -0.100000
v 0.000000 0.000000 -0.100000
v 2.000000 0.000000 0.100000
v 0.000000 0.000000 0.100000
v 0.000000 3.000000 0.100000
v 2.000000 3.000000 0.100000
v 2.000000 3.000000 -0.100000
v 0.000000 3.000000 -0.100000
v 1.531345 0.000000 -0.100000
v 0.468655 0.000000 -0.100000
v 0.468655 0.000000 0.100000
v 1.531345 0.000000 0.100000
v 1.531345 2.062690 0.100000
v 0.468655 2.062690 0.100000
v 0.468655 2.062690 -0.100000
v 1.531345 2.062690 -0.100000
vn -0.0000 -1.0000 -0.0000
vn -0.0000 1.0000 -0.0000
vn -0.0000 -0.0000 1.0000
vn -0.0000 -0.0000 -1.0000
vn 1.0000 -0.0000 -0.0000
vn -1.0000 -0.0000 -0.0000
vt 0.730114 0.806036
vt 0.728633 0.806036
vt 0.728633 0.802565
vt 0.730114 0.802565
vt 0.728633 0.791221
vt 0.730114 0.791221
vt 0.730114 0.794693
vt 0.728633 0.794693
vt 0.728633 0.776407
vt 0.730114 0.776407
vt 0.707383 0.776407
vt 0.710855 0.776407
vt 0.710855 0.798629
vt 0.696040 0.798629
vt 0.696040 0.776407
vt 0.699511 0.776407
vt 0.699511 0.791686
vt 0.707383 0.791686
vt 0.722198 0.776407
vt 0.725670 0.776407
vt 0.725670 0.798629
vt 0.714326 0.776407
vt 0.714326 0.791686
vt 0.722198 0.791686
vt 0.727151 0.776407
vt 0.727151 0.798629
vt 0.728633 0.798629
vt 0.729159 0.776407
vt 0.729159 0.791221
vt 0.729588 0.791221
vt 0.729588 0.776407
vt 0.726625 0.777062
vt 0.726196 0.777062
vt 0.726196 0.798629
vt 0.726625 0.798629
vt 0.728106 0.798629
vt 0.728106 0.777062
vt 0.727678 0.777062
vt 0.727678 0.798629
s 0
usemtl Palette
f 1/1/1 3/2/1 12/3/1 9/4/1
f 4/5/1 2/6/1 10/7/1 11/8/1
f 5/5/2 6/9/2 7/10/2 8/6/2
f 12/11/3 3/12/3 6/13/3 5/14/3 4/15/3 11/16/3 14/17/3 13/18/3
f 10/19/4 2/20/4 8/21/4 7/13/4 1/12/4 9/22/4 16/23/4 15/24/4
f 3/20/5 1/25/5 7/26/5 6/21/5
f 2/25/6 4/9/6 5/27/6 8/26/6
f 13/28/1 14/29/1 15/30/1 16/31/1
f 9/32/6 12/33/6 13/34/6 16/35/6
f 14/36/5 11/37/5 10/38/5 15/39/5
