# Blender 4.4.1
# www.blender.org
mtllib Wall_Medium.mtl
o Wall_Medium
v 2.000000 0.000000 -0.040000
v 0.000000 0.000000 -0.040000
v 2.000000 0.000000 0.040000
v 0.000000 0.000000 0.040000
v 0.000000 2.500000 0.040000
v 2.000000 2.500000 0.040000
v 2.000000 2.500000 -0.040000
v 0.000000 2.500000 -0.040000
vn -0.0000 -1.0000 -0.0000
vn -0.0000 1.0000 -0.0000
vn -0.0000 -0.0000 1.0000
vn -0.0000 -0.0000 -1.0000
vn 1.0000 -0.0000 -0.0000
vn -1.0000 -0.0000 -0.0000
vt 0.723299 0.793444
vt 0.723845 0.793444
vt 0.723845 0.807073
vt 0.723299 0.807073
vt 0.726025 0.790036
vt 0.726025 0.776407
vt 0.726571 0.776407
vt 0.726571 0.790036
vt 0.709670 0.793444
vt 0.723299 0.810481
vt 0.709670 0.810481
vt 0.709670 0.776407
vt 0.723299 0.776407
vt 0.724390 0.776407
vt 0.724935 0.776407
vt 0.724935 0.793444
vt 0.724390 0.793444
vt 0.725480 0.776407
vt 0.725480 0.793444
s 0
usemtl Palette
f 4/1/1 2/2/1 1/3/1 3/4/1
f 5/5/2 6/6/2 7/7/2 8/8/2
f 4/9/3 3/1/3 6/10/3 5/11/3
f 1/12/4 2/13/4 8/1/4 7/9/4
f 3/14/5 1/15/5 7/16/5 6/17/5
f 2/15/6 4/18/6 5/19/6 8/16/6
