# Blender 4.4.1
# www.blender.org
mtllib Wall_Standard_Sep.mtl
o Wall_Standard_Sep
v 0.073856 0.000000 -0.134858
v -0.073856 0.000000 -0.134858
v 0.073856 0.000000 0.134858
v -0.073856 0.000000 0.134858
v -0.073856 3.036290 0.134858
v 0.073856 3.036290 0.134858
v 0.073856 3.036290 -0.134858
v -0.073856 3.036290 -0.134858
vn -0.0000 1.0000 -0.0000
vn -0.0000 -0.0000 1.0000
vn -0.0000 -0.0000 -1.0000
vn 1.0000 -0.0000 -0.0000
vn -1.0000 -0.0000 -0.0000
vt 0.889909 0.709154
vt 0.889909 0.695159
vt 0.891308 0.695159
vt 0.891308 0.709154
vt 0.859120 0.695159
vt 0.873115 0.695159
vt 0.873115 0.716152
vt 0.859120 0.716152
vt 0.887110 0.695159
vt 0.887110 0.716152
vt 0.888509 0.695159
vt 0.888509 0.716152
vt 0.889909 0.716152
s 0
usemtl Palette
f 5/1/1 6/2/1 7/3/1 8/4/1
f 4/5/2 3/6/2 6/7/2 5/8/2
f 1/6/3 2/9/3 8/10/3 7/7/3
f 3/9/4 1/11/4 7/12/4 6/10/4
f 2/11/5 4/2/5 5/13/5 8/12/5
