# Blender 4.4.1
# www.blender.org
mtllib Wall_Standard_Sep_2.mtl
o Wall_Standard_Sep_2
v -0.128393 0.387451 -0.159450
v 0.128393 0.387451 0.159450
v 0.128393 0.387451 -0.159450
v -0.128393 0.387451 0.159450
v -0.154440 3.020074 0.191797
v 0.154440 3.020074 0.191797
v 0.154440 3.020074 -0.191797
v -0.154440 3.020074 -0.191797
v 0.115290 2.887005 0.143177
v -0.115290 2.887005 0.143177
v -0.115290 2.887005 -0.143177
v 0.115290 2.887005 -0.143177
v -0.128393 2.000694 0.159450
v 0.128393 2.000694 -0.159450
v 0.128393 2.000694 0.159450
v -0.128393 2.000694 -0.159450
v 0.152083 0.315067 -0.188870
v 0.152083 0.315067 0.188870
v -0.152083 0.315067 0.188870
v -0.152083 0.315067 -0.188870
v 0.152083 0.000000 -0.188870
v 0.152083 0.000000 0.188870
v -0.152083 0.000000 0.188870
v -0.152083 0.000000 -0.188870
v -0.128393 1.891043 -0.159450
v 0.128393 1.891043 -0.159450
v -0.128393 1.891043 0.159450
v 0.128393 1.891043 0.159450
v 0.141485 1.944037 -0.175709
v -0.141485 1.944037 -0.175709
v -0.141485 1.944037 0.175708
v 0.141485 1.944037 0.175708
vn -0.0000 1.0000 -0.0000
vn -0.0000 -0.3432 0.9393
vn -0.0000 -0.3432 -0.9393
vn 0.9593 -0.2822 -0.0000
vn -0.9593 -0.2822 -0.0000
vn -0.9999 0.0148 -0.0000
vn 0.9999 0.0148 -0.0000
vn -0.0000 0.0184 -0.9998
vn -0.0000 0.0184 0.9998
vn 1.0000 -0.0000 -0.0000
vn -1.0000 -0.0000 -0.0000
vn -0.0000 -0.0000 -1.0000
vn -0.0000 -0.0000 1.0000
vn 0.9504 0.3110 -0.0000
vn -0.0000 0.3765 -0.9264
vn -0.0000 0.3765 0.9264
vn -0.9504 0.3110 -0.0000
vn -0.0000 -0.2933 0.9560
vn -0.0000 -0.2933 -0.9560
vn -0.9708 -0.2398 -0.0000
vn 0.9708 -0.2398 -0.0000
vn 0.9743 0.2251 -0.0000
vn -0.9743 0.2251 -0.0000
vn -0.0000 0.2758 -0.9612
vn -0.0000 0.2758 0.9612
vt 0.976575 0.795821
vt 0.976575 0.781826
vt 0.977975 0.781826
vt 0.977975 0.795821
vt 0.945786 0.801894
vt 0.959781 0.801894
vt 0.959781 0.802819
vt 0.945786 0.802819
vt 0.959781 0.801894
vt 0.974476 0.801894
vt 0.973776 0.802819
vt 0.973776 0.801894
vt 0.975176 0.801894
vt 0.975176 0.802819
vt 0.976575 0.801894
vt 0.976575 0.802819
vt 0.974476 0.795604
vt 0.976575 0.795604
vt 0.973776 0.795604
vt 0.975176 0.795604
vt 0.959781 0.795604
vt 0.945786 0.795604
vt 0.959781 0.795604
s 0
usemtl Palette
f 5/1/1 6/2/1 7/3/1 8/4/1
f 10/5/2 9/6/2 6/7/2 5/8/2
f 12/9/3 11/10/3 8/11/3 7/7/3
f 9/12/4 12/13/4 7/14/4 6/11/4
f 11/10/5 10/15/5 5/16/5 8/14/5
f 16/17/6 13/18/6 10/15/6 11/10/6
f 15/19/7 14/20/7 12/13/7 9/12/7
f 14/21/8 16/17/8 11/10/8 12/9/8
f 13/22/9 15/23/9 9/6/9 10/5/9
f 26/20/10 28/19/10 2/19/10 3/20/10
f 27/18/11 25/17/11 1/17/11 4/18/11
f 25/17/12 26/21/12 3/21/12 1/17/12
f 28/23/13 27/22/13 4/22/13 2/23/13
f 3/20/14 2/19/14 18/19/14 17/20/14
f 20/17/12 17/21/12 21/21/12 24/17/12
f 1/17/15 3/21/15 17/21/15 20/17/15
f 2/23/16 4/22/16 19/22/16 18/23/16
f 4/18/17 1/17/17 20/17/17 19/18/17
f 17/20/10 18/19/10 22/19/10 21/20/10
f 19/18/11 20/17/11 24/17/11 23/18/11
f 18/23/13 19/22/13 23/22/13 22/23/13
f 32/23/18 31/22/18 27/22/18 28/23/18
f 30/17/19 29/21/19 26/21/19 25/17/19
f 31/18/20 30/17/20 25/17/20 27/18/20
f 29/20/21 32/19/21 28/19/21 26/20/21
f 14/20/22 15/19/22 32/19/22 29/20/22
f 13/18/23 16/17/23 30/17/23 31/18/23
f 16/17/24 14/21/24 29/21/24 30/17/24
f 15/23/25 13/22/25 31/22/25 32/23/25
