# Blender 4.4.1
# www.blender.org
mtllib Wall_Standard.mtl
o Wall_Standard
v 2.000000 0.000000 -0.100000
v 0.000000 0.000000 -0.100000
v 2.000000 0.000000 0.100000
v 0.000000 0.000000 0.100000
v 0.000000 3.000000 0.100000
v 2.000000 3.000000 0.100000
v 2.000000 3.000000 -0.100000
v 0.000000 3.000000 -0.100000
vn -0.0000 -1.0000 -0.0000
vn -0.0000 1.0000 -0.0000
vn -0.0000 -0.0000 1.0000
vn -0.0000 -0.0000 -1.0000
vn 1.0000 -0.0000 -0.0000
vn -1.0000 -0.0000 -0.0000
vt 0.728633 0.791221
vt 0.730114 0.791221
vt 0.730114 0.806036
vt 0.728633 0.806036
vt 0.728633 0.776407
vt 0.730114 0.776407
vt 0.696040 0.776407
vt 0.710855 0.776407
vt 0.710855 0.798629
vt 0.696040 0.798629
vt 0.725670 0.776407
vt 0.725670 0.798629
vt 0.727151 0.776407
vt 0.727151 0.798629
vt 0.728633 0.798629
s 0
usemtl Palette
f 4/1/1 2/2/1 1/3/1 3/4/1
f 5/1/2 6/5/2 7/6/2 8/2/2
f 4/7/3 3/8/3 6/9/3 5/10/3
f 1/8/4 2/11/4 8/12/4 7/9/4
f 3/11/5 1/13/5 7/14/5 6/12/5
f 2/13/6 4/5/6 5/15/6 8/14/6
