# Blender 4.4.1
# www.blender.org
mtllib Wall_Small.mtl
o Wall_Small
v 2.000000 0.000000 -0.040000
v 0.000000 0.000000 -0.040000
v 2.000000 0.000000 0.040000
v 0.000000 0.000000 0.040000
v 0.000000 1.750000 0.040000
v 2.000000 1.750000 0.040000
v 2.000000 1.750000 -0.040000
v 0.000000 1.750000 -0.040000
vn -0.0000 -1.0000 -0.0000
vn -0.0000 1.0000 -0.0000
vn -0.0000 -0.0000 1.0000
vn -0.0000 -0.0000 -1.0000
vn 1.0000 -0.0000 -0.0000
vn -1.0000 -0.0000 -0.0000
vt 0.728656 0.776407
vt 0.729385 0.776407
vt 0.729385 0.794628
vt 0.728656 0.794628
vt 0.727928 0.794628
vt 0.727928 0.776407
vt 0.711984 0.776407
vt 0.711984 0.794628
vt 0.696040 0.794628
vt 0.696040 0.776407
vt 0.729385 0.792351
vt 0.730114 0.792351
vt 0.730114 0.808294
vt 0.729385 0.808294
vt 0.730114 0.776407
s 0
usemtl Palette
f 4/1/1 2/2/1 1/3/1 3/4/1
f 5/5/2 6/6/2 7/1/2 8/4/2
f 4/7/3 3/8/3 6/9/3 5/10/3
f 1/6/4 2/5/4 8/8/4 7/7/4
f 3/11/5 1/12/5 7/13/5 6/14/5
f 2/2/6 4/15/6 5/12/6 8/11/6
