# Blender 4.4.1
# www.blender.org
mtllib Wall_Standard_Alt_1.mtl
o Wall_Standard_Alt_1
v 0.000001 0.000000 0.135604
v 2.000000 0.000000 0.135604
v 2.000000 0.000000 -0.135604
v 0.000001 0.000000 -0.135604
v 0.000001 1.827617 0.135604
v 2.000000 1.827617 -0.135604
v 2.000000 1.827617 0.135604
v 0.000001 1.827617 -0.135604
v 0.000000 2.920527 0.100000
v 2.000000 2.920527 0.100000
v 2.000000 2.920527 -0.100000
v 0.000000 2.920527 -0.100000
v 2.000000 1.917529 0.100000
v 0.000000 1.917529 0.100000
v 0.000000 1.917529 -0.100000
v 2.000000 1.917529 -0.100000
v 0.000001 1.917529 0.194615
v 2.000000 1.917529 -0.200148
v 2.000000 1.917529 0.194615
v 0.000001 1.917529 -0.200148
v 0.000001 1.827617 -0.200148
v 2.000000 1.827617 -0.200148
v 2.000000 1.827617 0.194615
v 0.000001 1.827617 0.194615
v 0.250000 0.000000 0.135604
v 0.500000 0.000000 0.135604
v 0.750000 0.000000 0.135604
v 1.000000 0.000000 0.135604
v 1.250000 0.000000 0.135604
v 1.500000 0.000000 0.135604
v 1.750000 0.000000 0.135604
v 1.750000 0.000000 -0.135604
v 1.500000 0.000000 -0.135604
v 1.250000 0.000000 -0.135604
v 1.000000 0.000000 -0.135604
v 0.750000 0.000000 -0.135604
v 0.500000 0.000000 -0.135604
v 0.250000 0.000000 -0.135604
v 0.250000 1.827617 -0.135604
v 0.500000 1.827617 -0.135604
v 0.750000 1.827617 -0.135604
v 1.000000 1.827617 -0.135604
v 1.250000 1.827617 -0.135604
v 1.500000 1.827617 -0.135604
v 1.750000 1.827617 -0.135604
v 1.750000 1.827617 0.135604
v 1.500000 1.827617 0.135604
v 1.250000 1.827617 0.135604
v 1.000000 1.827617 0.135604
v 0.750000 1.827617 0.135604
v 0.500000 1.827617 0.135604
v 0.250000 1.827617 0.135604
v 0.215615 0.000000 -0.167797
v 0.034386 0.000000 -0.167797
v 0.034386 1.827617 0.167798
v 0.034386 0.000000 0.167798
v 0.034386 1.827617 -0.167797
v 0.215615 1.827617 0.167798
v 0.215615 0.000000 0.167798
v 0.534386 0.000000 0.167798
v 0.715615 0.000000 0.167798
v 1.034385 0.000000 0.167798
v 1.215615 0.000000 0.167798
v 1.534385 0.000000 0.167798
v 1.715615 0.000000 0.167798
v 1.715614 0.000000 -0.167797
v 1.534385 0.000000 -0.167797
v 1.215615 0.000000 -0.167797
v 1.034385 0.000000 -0.167797
v 0.715615 0.000000 -0.167797
v 0.534385 0.000000 -0.167797
v 0.215615 1.827617 -0.167797
v 0.534386 1.827617 -0.167797
v 0.715615 1.827617 -0.167797
v 1.034385 1.827617 -0.167797
v 1.215615 1.827617 -0.167797
v 1.534385 1.827617 -0.167797
v 1.715615 1.827617 -0.167797
v 1.715614 1.827617 0.167798
v 1.534385 1.827617 0.167798
v 1.215615 1.827617 0.167798
v 1.034385 1.827617 0.167798
v 0.715615 1.827617 0.167798
v 0.534385 1.827617 0.167798
v 0.332116 1.827617 -0.200148
v 0.453129 1.827617 -0.200148
v 0.426047 1.862049 -0.200148
v 0.391884 1.827617 -0.152904
v 0.336974 1.835992 -0.189330
v 0.452107 1.835992 -0.189330
v 0.426341 1.868751 -0.189330
v 0.393838 1.835992 -0.144382
v 1.441749 1.827617 0.194615
v 1.407276 1.827617 0.194615
v 1.426262 1.872356 0.194615
v 1.421730 1.827617 0.165456
v 1.439871 1.831370 0.191142
v 1.409117 1.831370 0.191142
v 1.426055 1.871281 0.191142
v 1.422011 1.831370 0.165130
v 0.000000 2.961063 0.118243
v 2.000000 2.961063 0.118243
v 2.000000 2.961063 -0.118243
v 0.000000 2.961063 -0.118243
v 0.000000 2.920527 0.118243
v 2.000000 2.920527 0.118243
v 2.000000 2.920527 -0.118243
v 0.000000 2.920527 -0.118243
v 0.000000 3.000000 0.100000
v 2.000000 3.000000 0.100000
v 2.000000 3.000000 -0.100000
v 0.000000 3.000000 -0.100000
v 0.000000 2.961063 0.100000
v 2.000000 2.961063 0.100000
v 2.000000 2.961063 -0.100000
v 0.000000 2.961063 -0.100000
vn -0.0000 -1.0000 -0.0000
vn 1.0000 -0.0000 -0.0000
vn -0.0000 -0.0000 1.0000
vn -0.0000 1.0000 -0.0000
vn -1.0000 -0.0000 -0.0000
vn -0.0000 -0.0000 -1.0000
vn 0.6835 -0.0000 -0.7300
vn -0.6835 -0.0000 -0.7300
vn 0.6835 -0.0000 0.7300
vn -0.6835 -0.0000 0.7300
vn 0.2987 -0.8149 0.4967
vn -0.4432 0.6881 -0.5746
vn 0.5191 0.5471 -0.6567
vn -0.7287 -0.5731 0.3749
vn -0.8194 0.1104 0.5626
vn -0.9334 -0.3231 0.1558
vn 0.9185 -0.3898 0.0658
vn 0.8956 -0.0287 0.4439
vt 0.968633 0.789740
vt 0.968633 0.787888
vt 0.970114 0.787888
vt 0.970114 0.789740
vt 0.950855 0.784185
vt 0.950855 0.773073
vt 0.970114 0.802703
vt 0.968633 0.795296
vt 0.968633 0.797148
vt 0.949003 0.773073
vt 0.949003 0.784185
vt 0.952707 0.784185
vt 0.965670 0.784185
vt 0.965670 0.773073
vt 0.936040 0.784185
vt 0.696040 0.787518
vt 0.710855 0.787518
vt 0.710855 0.798629
vt 0.696040 0.798629
vt 0.725670 0.787518
vt 0.725670 0.798629
vt 0.727151 0.787518
vt 0.727151 0.798629
vt 0.728633 0.787518
vt 0.728633 0.798629
vt 0.963210 0.784184
vt 0.959986 0.784184
vt 0.962313 0.784184
vt 0.946720 0.784185
vt 0.947233 0.784185
vt 0.946464 0.784185
vt 0.962514 0.784185
vt 0.946605 0.784185
vt 0.937892 0.784185
vt 0.963818 0.784185
vt 0.939744 0.784185
vt 0.961966 0.784185
vt 0.941595 0.784185
vt 0.960114 0.784185
vt 0.943447 0.784185
vt 0.958262 0.784185
vt 0.945299 0.784185
vt 0.956410 0.784185
vt 0.947151 0.784185
vt 0.954558 0.784185
vt 0.453077 0.880851
vt 0.453077 0.869740
vt 0.937892 0.773073
vt 0.939744 0.773073
vt 0.451225 0.869740
vt 0.451225 0.880851
vt 0.941595 0.773073
vt 0.943447 0.773073
vt 0.945299 0.773073
vt 0.947151 0.773073
vt 0.968633 0.791592
vt 0.968633 0.793444
vt 0.952707 0.773073
vt 0.449373 0.880851
vt 0.449373 0.869740
vt 0.954558 0.773073
vt 0.956410 0.773073
vt 0.445670 0.869740
vt 0.445670 0.880851
vt 0.958262 0.773073
vt 0.960114 0.773073
vt 0.961966 0.773073
vt 0.963818 0.773073
vt 0.968633 0.802703
vt 0.968633 0.800851
vt 0.970114 0.800851
vt 0.968633 0.798999
vt 0.970114 0.798999
vt 0.970114 0.797148
vt 0.970114 0.795296
vt 0.970114 0.793444
vt 0.970114 0.791592
vt 0.936040 0.773073
vt 0.454929 0.869740
vt 0.454929 0.880851
vt 0.456781 0.880851
vt 0.456781 0.869740
vt 0.432707 0.880851
vt 0.465299 0.884555
vt 0.458633 0.869740
vt 0.458633 0.880851
vt 0.460485 0.880851
vt 0.460485 0.869740
vt 0.434559 0.869740
vt 0.434559 0.880851
vt 0.436410 0.880851
vt 0.436410 0.869740
vt 0.462337 0.869740
vt 0.462337 0.880851
vt 0.438262 0.869740
vt 0.438262 0.880851
vt 0.440114 0.880851
vt 0.440114 0.869740
vt 0.441966 0.869740
vt 0.441966 0.880851
vt 0.443818 0.880851
vt 0.443818 0.869740
vt 0.459876 0.880851
vt 0.459181 0.880851
vt 0.458980 0.880851
vt 0.456653 0.880851
vt 0.460053 0.867518
vt 0.459938 0.867518
vt 0.459798 0.867518
vt 0.460567 0.867518
vt 0.958633 0.791221
vt 0.958633 0.776407
vt 0.960114 0.776407
vt 0.960114 0.791221
vt 0.723448 0.797888
vt 0.721966 0.797888
vt 0.721966 0.783073
vt 0.723448 0.783073
vt 0.728633 0.791221
vt 0.728633 0.776407
vt 0.730114 0.776407
vt 0.730114 0.791221
s 0
usemtl Palette
f 25/1/1 1/2/1 4/3/1 38/4/1
f 6/5/2 7/5/2 2/6/2 3/7/2
f 28/8/1 29/9/1 63/9/1 62/8/1
f 31/10/3 2/6/3 7/5/3 46/11/3
f 45/12/4 46/11/4 7/5/4 6/5/4
f 8/13/5 4/14/5 1/2/5 5/15/5
f 14/16/3 13/17/3 10/18/3 9/19/3
f 16/17/6 15/20/6 12/21/6 11/18/6
f 13/20/2 16/22/2 11/23/2 10/21/2
f 15/22/5 14/24/5 9/25/5 12/23/5
f 20/13/4 17/15/4 19/5/4 18/5/4
f 21/13/1 85/26/1 88/27/1 86/28/1 22/5/1 23/5/1 93/29/1 96/30/1 94/31/1 24/15/1
f 20/13/5 21/13/5 24/15/5 17/15/5
f 18/5/6 22/5/6 86/28/6 87/32/6 85/26/6 21/13/6 20/13/6
f 19/5/2 23/5/2 22/5/2 18/5/2
f 17/15/3 24/15/3 94/31/3 95/33/3 93/29/3 23/5/3 19/5/3
f 8/13/4 5/15/4 52/34/4 39/35/4
f 39/35/4 52/34/4 51/36/4 40/37/4
f 40/37/4 51/36/4 50/38/4 41/39/4
f 41/39/4 50/38/4 49/40/4 42/41/4
f 42/41/4 49/40/4 48/42/4 43/43/4
f 43/43/4 48/42/4 47/44/4 44/45/4
f 44/45/4 47/44/4 46/11/4 45/12/4
f 43/46/7 34/47/7 68/47/7 76/46/7
f 25/48/3 26/49/3 51/36/3 52/34/3
f 33/50/8 44/51/8 77/51/8 67/50/8
f 27/52/3 28/53/3 49/40/3 50/38/3
f 40/37/4 41/39/4 74/39/4 73/37/4
f 29/54/3 30/55/3 47/44/3 48/42/3
f 26/56/1 27/57/1 61/57/1 60/56/1
f 3/6/6 32/58/6 45/12/6 6/5/6
f 45/59/7 32/60/7 66/60/7 78/59/7
f 33/61/6 34/62/6 43/43/6 44/45/6
f 31/63/9 46/64/9 79/64/9 65/63/9
f 35/65/6 36/66/6 41/39/6 42/41/6
f 8/13/4 39/35/4 72/35/4 57/13/4
f 37/67/6 38/68/6 39/35/6 40/37/6
f 2/69/1 31/70/1 32/71/1 3/7/1
f 31/70/1 30/72/1 33/73/1 32/71/1
f 30/72/1 29/9/1 34/74/1 33/73/1
f 29/9/1 28/8/1 35/75/1 34/74/1
f 28/8/1 27/57/1 36/76/1 35/75/1
f 27/57/1 26/56/1 37/77/1 36/76/1
f 26/56/1 25/1/1 38/4/1 37/77/1
f 53/68/6 54/14/6 57/13/6 72/35/6
f 56/78/3 59/48/3 58/34/3 55/15/3
f 60/49/3 61/52/3 83/38/3 84/36/3
f 62/53/3 63/54/3 81/42/3 82/40/3
f 64/55/3 65/10/3 79/11/3 80/44/3
f 66/58/6 67/61/6 77/45/6 78/12/6
f 68/62/6 69/65/6 75/41/6 76/43/6
f 70/66/6 71/67/6 73/37/6 74/39/6
f 42/41/4 43/43/4 76/43/4 75/41/4
f 35/79/8 42/80/8 75/80/8 69/79/8
f 38/4/1 4/3/1 54/3/1 53/4/1
f 41/81/7 36/82/7 70/82/7 74/81/7
f 30/72/1 31/70/1 65/70/1 64/72/1
f 5/83/10 1/84/10 56/84/10 55/83/10
f 44/45/4 45/12/4 78/12/4 77/45/4
f 37/85/8 40/86/8 73/86/8 71/85/8
f 39/87/7 38/88/7 53/88/7 72/87/7
f 32/71/1 33/73/1 67/73/1 66/71/1
f 25/89/9 52/90/9 58/90/9 59/89/9
f 46/11/4 47/44/4 80/44/4 79/11/4
f 51/91/10 26/92/10 60/92/10 84/91/10
f 4/93/8 8/94/8 57/94/8 54/93/8
f 34/74/1 35/75/1 69/75/1 68/74/1
f 27/95/9 50/96/9 83/96/9 61/95/9
f 48/42/4 49/40/4 82/40/4 81/42/4
f 49/97/10 28/98/10 62/98/10 82/97/10
f 36/76/1 37/77/1 71/77/1 70/76/1
f 29/99/9 48/100/9 81/100/9 63/99/9
f 52/34/4 5/15/4 55/15/4 58/34/4
f 50/38/4 51/36/4 84/36/4 83/38/4
f 47/101/10 30/102/10 64/102/10 80/101/10
f 1/2/1 25/1/1 59/1/1 56/2/1
f 89/103/6 91/104/6 90/105/6
f 85/26/11 87/32/11 91/32/11 89/26/11
f 86/28/12 88/27/12 92/27/12 90/28/12
f 90/105/1 92/106/1 89/103/1
f 88/27/13 85/26/13 89/26/13 92/27/13
f 87/32/14 86/28/14 90/28/14 91/32/14
f 97/107/3 99/108/3 98/109/3
f 96/110/15 93/107/15 97/107/15 100/110/15
f 93/107/16 95/108/16 99/108/16 97/107/16
f 98/109/1 100/110/1 97/107/1
f 95/108/17 94/109/17 98/109/17 99/108/17
f 94/109/18 96/110/18 100/110/18 98/109/18
f 101/111/4 102/112/4 103/113/4 104/114/4
f 105/111/1 108/114/1 107/113/1 106/112/1
f 104/115/5 108/115/5 105/116/5 101/116/5
f 101/111/3 105/111/3 106/112/3 102/112/3
f 103/113/6 107/113/6 108/114/6 104/114/6
f 102/117/2 106/117/2 107/118/2 103/118/2
f 109/119/4 110/120/4 111/121/4 112/122/4
f 110/120/2 114/120/2 115/121/2 111/121/2
f 112/122/5 116/122/5 113/119/5 109/119/5
f 109/119/3 113/119/3 114/120/3 110/120/3
f 111/121/6 115/121/6 116/122/6 112/122/6
