# Blender 4.4.1
# www.blender.org
mtllib WhiteBoard_Stand.mtl
o WhiteBoard_Stand
v 0.400000 0.495707 -0.026703
v 0.400000 -0.495707 -0.026703
v 0.400000 0.495707 0.026703
v 0.400000 -0.495707 0.026703
v 0.413950 0.485350 -0.032827
v 0.413950 0.485350 0.057643
v 0.413950 0.519291 -0.032827
v 0.407814 -0.522281 -0.032827
v 0.407814 -0.522281 0.103393
v 0.407814 -0.488340 -0.032827
v 0.407814 -0.488340 0.103393
v 0.407814 -0.488340 0.084071
v 0.407814 -0.464473 0.103393
v 0.407814 -0.464473 0.089762
v 0.413950 0.519291 0.043379
v 0.413950 0.505027 0.057643
v 0.413950 0.515113 0.053465
v -0.400000 0.495707 -0.026703
v -0.400000 -0.495707 -0.026703
v -0.400000 0.495707 0.026703
v -0.400000 -0.495707 0.026703
v -0.413950 0.485350 -0.032827
v -0.413950 0.485350 0.057643
v -0.413950 0.519291 -0.032827
v -0.407814 -0.522281 -0.032827
v -0.407814 -0.522281 0.103393
v -0.407814 -0.488340 -0.032827
v -0.407814 -0.488340 0.103393
v -0.407814 -0.488340 0.084071
v -0.407814 -0.464473 0.103393
v -0.407814 -0.464473 0.089762
v -0.413950 0.519291 0.043379
v -0.413950 0.505027 0.057643
v -0.413950 0.515113 0.053465
vn -0.0000 -1.0000 -0.0000
vn 1.0000 -0.0000 -0.0000
vn 0.7071 -0.0000 -0.7071
vn 0.7071 -0.0000 0.7071
vn -0.0000 -0.0000 -1.0000
vn -0.0000 -0.0000 1.0000
vn -0.0000 1.0000 -0.0000
vn -0.0000 0.2319 -0.9727
vn -0.0000 0.3827 0.9239
vn -0.0000 0.9239 0.3827
vn -1.0000 -0.0000 -0.0000
vn -0.7071 -0.0000 -0.7071
vn -0.7071 -0.0000 0.7071
vt 0.130519 0.970104
vt 0.054876 0.957229
vt 0.994826 0.988387
vt 0.555174 0.988387
vt 0.555174 0.443542
vt 0.994826 0.443542
vt 0.043610 0.968495
s 0
usemtl Palette
f 22/1/1 5/1/1 6/1/1 23/1/1
f 6/1/2 5/1/2 7/1/2 15/1/2 17/1/2 16/1/2
s 1
f 2/2/3 1/2/3 3/2/4 4/2/4
s 0
f 22/1/5 24/1/5 7/1/5 5/1/5
f 25/1/1 8/1/1 9/1/1 26/1/1
f 11/1/6 28/1/6 26/1/6 9/1/6
f 27/1/7 29/1/7 12/1/7 10/1/7
f 9/1/2 12/1/2 11/1/2
f 25/1/5 27/1/5 10/1/5 8/1/5
f 31/1/7 30/1/7 13/1/7 14/1/7
f 13/1/6 30/1/6 28/1/6 11/1/6
f 29/1/8 31/1/8 14/1/8 12/1/8
f 12/1/2 9/1/2 8/1/2 10/1/2
f 17/1/9 34/1/9 33/1/9 16/1/9
f 11/1/2 12/1/2 14/1/2 13/1/2
f 15/1/10 32/1/10 34/1/10 17/1/10
f 16/1/6 33/1/6 23/1/6 6/1/6
f 24/1/7 32/1/7 15/1/7 7/1/7
f 23/1/11 33/1/11 34/1/11 32/1/11 24/1/11 22/1/11
s 1
f 19/2/12 21/2/13 20/2/13 18/2/12
s 0
f 26/1/11 28/1/11 29/1/11
f 29/1/11 27/1/11 25/1/11 26/1/11
f 28/1/11 30/1/11 31/1/11 29/1/11
s 1
f 2/7/3 19/7/12 18/7/12 1/7/3
usemtl BoardDocs
f 3/3/4 20/4/13 21/5/13 4/6/4
